<?xml version="1.0" encoding="UTF-8"?>
<svg version="1.1" xmlns="http://www.w3.org/2000/svg" width="192" height="131">
<path d="M0 0 C63.36 0 126.72 0 192 0 C192 43.23 192 86.46 192 131 C128.64 131 65.28 131 0 131 C0 87.77 0 44.54 0 0 Z " fill="#FCFCFC" transform="translate(0,0)"/>
<path d="M0 0 C5.23875964 -0.07488659 10.47555843 -0.05920891 15.71459961 -0.02996826 C17.29793151 -0.02493924 18.88126498 -0.02037883 20.46459961 -0.01629639 C24.29797233 -0.00541107 28.13126815 0.01177478 31.96459961 0.03253174 C32.16093994 0.55685791 32.35728027 1.08118408 32.55957031 1.62139893 C33.4587184 4.01102434 34.367796 6.39675325 35.27709961 8.78253174 C35.74019531 10.02003174 35.74019531 10.02003174 36.21264648 11.28253174 C38.31662112 17.11749204 38.31662112 17.11749204 41.96459961 22.03253174 C42.95459961 22.03253174 43.94459961 22.03253174 44.96459961 22.03253174 C44.4940918 21.2706958 44.02358398 20.50885986 43.53881836 19.72393799 C39.84023831 13.59026796 36.9180153 7.92694004 34.96459961 1.03253174 C35.95459961 1.03253174 36.94459961 1.03253174 37.96459961 1.03253174 C38.4840918 2.05733643 39.00358398 3.08214111 39.53881836 4.13800049 C40.24274957 5.49893417 40.94720459 6.85959701 41.65209961 8.22003174 C41.99176758 8.89356689 42.33143555 9.56710205 42.68139648 10.26104736 C44.93800097 14.58444848 47.40986071 17.62720393 50.96459961 21.03253174 C50.96459961 21.69253174 50.96459961 22.35253174 50.96459961 23.03253174 C52.61459961 23.03253174 54.26459961 23.03253174 55.96459961 23.03253174 C55.38452148 22.42667236 54.80444336 21.82081299 54.20678711 21.19659424 C40.96459961 6.99292778 40.96459961 6.99292778 40.96459961 1.03253174 C44.15183636 0.36852408 46.79128847 0.23299638 49.96459961 1.03253174 C52.29703143 3.23014091 53.99897771 5.60624235 55.85522461 8.21612549 C60.31664249 14.17294454 65.83902752 19.6024965 72.96459961 22.03253174 C70.24855246 19.15833051 70.24855246 19.15833051 66.96459961 17.03253174 C66.96459961 16.37253174 66.96459961 15.71253174 66.96459961 15.03253174 C65.87598633 14.70962158 65.87598633 14.70962158 64.76538086 14.38018799 C61.21930548 12.67391741 59.57463553 10.55143314 57.15209961 7.47003174 C56.3619043 6.47874268 55.57170898 5.48745361 54.75756836 4.46612549 C52.96459961 2.03253174 52.96459961 2.03253174 52.96459961 1.03253174 C60.50048478 -0.04402329 60.50048478 -0.04402329 63.55834961 2.20440674 C64.61000798 3.37913151 65.65044643 4.5639388 66.68334961 5.75518799 C69.82842146 8.89487444 73.36090183 11.2879926 77.02709961 13.78253174 C77.71231689 14.25408691 78.39753418 14.72564209 79.10351562 15.21148682 C85.54654031 19.99403594 85.54654031 19.99403594 92.96459961 22.03253174 C91.53180664 21.08893799 91.53180664 21.08893799 90.07006836 20.12628174 C67.94540744 5.50374349 67.94540744 5.50374349 64.96459961 1.03253174 C68.62287768 1.62710515 70.50929834 3.12325395 73.27709961 5.53253174 C80.72719089 11.6835758 89.24257617 16.86875171 97.96459961 21.03253174 C97.96459961 21.69253174 97.96459961 22.35253174 97.96459961 23.03253174 C99.94459961 22.53753174 99.94459961 22.53753174 101.96459961 22.03253174 C101.28397461 21.64323486 100.60334961 21.25393799 99.90209961 20.85284424 C93.66030148 17.25052989 87.47623726 13.56095515 81.33959961 9.78253174 C80.64092773 9.35859131 79.94225586 8.93465088 79.22241211 8.49786377 C76.07187855 6.54350966 74.04800466 5.15763931 71.96459961 2.03253174 C75.33827581 2.67862665 77.74026992 3.96666813 80.63256836 5.79815674 C81.5265332 6.35889893 82.42049805 6.91964111 83.34155273 7.49737549 C84.2690332 8.08647705 85.19651367 8.67557861 86.15209961 9.28253174 C92.66064426 13.39367776 99.18670565 17.37848963 105.96459961 21.03253174 C105.96459961 21.69253174 105.96459961 22.35253174 105.96459961 23.03253174 C107.28459961 23.03253174 108.60459961 23.03253174 109.96459961 23.03253174 C107.56164182 20.34312865 105.0187345 18.83314414 101.83959961 17.15753174 C100.85991211 16.63417236 99.88022461 16.11081299 98.87084961 15.57159424 C97.91178711 15.06370361 96.95272461 14.55581299 95.96459961 14.03253174 C89.72180485 10.6881774 83.80083822 7.04753277 77.96459961 3.03253174 C78.62459961 2.70253174 79.28459961 2.37253174 79.96459961 2.03253174 C82.0531314 2.94291739 83.97289058 3.93352098 85.96459961 5.03253174 C87.21370117 5.70735596 87.21370117 5.70735596 88.48803711 6.39581299 C93.71760472 9.23032653 98.917415 12.11418607 104.08959961 15.05206299 C106.09709526 16.165241 106.09709526 16.165241 108.96459961 17.03253174 C108.96459961 17.69253174 108.96459961 18.35253174 108.96459961 19.03253174 C110.07834961 19.32128174 111.19209961 19.61003174 112.33959961 19.90753174 C115.96459961 21.03253174 115.96459961 21.03253174 117.96459961 23.03253174 C118.12475586 25.24737549 118.12475586 25.24737549 118.02709961 27.97003174 C117.9245477 32.07210816 118.16286133 35.90574187 118.71459961 39.97003174 C119.15670965 44.66577621 119.15670965 44.66577621 117.58959961 47.65753174 C113.82593487 49.62897517 110.16634348 49.85297003 105.96459961 50.03253174 C105.96459961 48.71253174 105.96459961 47.39253174 105.96459961 46.03253174 C99.62595837 45.61066874 99.62595837 45.61066874 93.96459961 48.03253174 C93.63459961 48.69253174 93.30459961 49.35253174 92.96459961 50.03253174 C90.98459961 50.03253174 89.00459961 50.03253174 86.96459961 50.03253174 C85.68162238 42.62104718 84.70944042 35.55972776 84.96459961 28.03253174 C83.64459961 28.03253174 82.32459961 28.03253174 80.96459961 28.03253174 C81.29459961 33.64253174 81.62459961 39.25253174 81.96459961 45.03253174 C80.31459961 45.03253174 78.66459961 45.03253174 76.96459961 45.03253174 C76.63459961 39.42253174 76.30459961 33.81253174 75.96459961 28.03253174 C74.64459961 28.03253174 73.32459961 28.03253174 71.96459961 28.03253174 C71.96459961 34.63253174 71.96459961 41.23253174 71.96459961 48.03253174 C70.64459961 48.69253174 69.32459961 49.35253174 67.96459961 50.03253174 C67.042715 47.26687791 66.84674739 45.64969472 66.86694336 42.80206299 C66.87016602 41.99962158 66.87338867 41.19718018 66.87670898 40.37042236 C66.88508789 39.53704346 66.8934668 38.70366455 66.90209961 37.84503174 C66.90661133 37.00005127 66.91112305 36.1550708 66.91577148 35.28448486 C66.92754558 33.20047019 66.94548071 31.11649197 66.96459961 29.03253174 C65.31459961 29.03253174 63.66459961 29.03253174 61.96459961 29.03253174 C61.96459961 35.63253174 61.96459961 42.23253174 61.96459961 49.03253174 C60.31459961 48.37253174 58.66459961 47.71253174 56.96459961 47.03253174 C53.92206453 46.44907698 53.92206453 46.44907698 50.96459961 47.03253174 C50.34584961 47.85753174 49.72709961 48.68253174 49.08959961 49.53253174 C46.96459961 52.03253174 46.96459961 52.03253174 45.04663086 52.43487549 C41.21124497 52.49775067 39.18656021 52.18050547 35.96459961 50.03253174 C35.96459961 49.37253174 35.96459961 48.71253174 35.96459961 48.03253174 C34.52804107 47.9512171 33.09015131 47.89319615 31.65209961 47.84503174 C30.8515918 47.81022705 30.05108398 47.77542236 29.22631836 47.73956299 C26.44888544 48.09933409 25.73888185 48.93898337 23.96459961 51.03253174 C20.88567591 52.98251675 18.59092765 53.47476686 14.96459961 53.03253174 C12.15209961 51.65753174 12.15209961 51.65753174 9.96459961 50.03253174 C9.96459961 49.37253174 9.96459961 48.71253174 9.96459961 48.03253174 C6.66459961 48.03253174 3.36459961 48.03253174 -0.03540039 48.03253174 C-0.69540039 49.35253174 -1.35540039 50.67253174 -2.03540039 52.03253174 C-4.8762368 53.45294994 -6.89017317 53.34705446 -10.03540039 53.03253174 C-10.63352539 52.37253174 -11.23165039 51.71253174 -11.84790039 51.03253174 C-14.80559427 48.32835448 -16.88173141 48.41229876 -20.78930664 48.55987549 C-24.47623879 49.33573425 -26.31037571 51.49762506 -29.03540039 54.03253174 C-30.35540039 54.03253174 -31.67540039 54.03253174 -33.03540039 54.03253174 C-32.96828857 54.6108374 -32.90117676 55.18914307 -32.83203125 55.78497314 C-32.08379723 62.65950037 -31.72180205 69.49467368 -31.59790039 76.40753174 C-31.55213867 77.47358643 -31.50637695 78.53964111 -31.45922852 79.63800049 C-31.41698816 82.55809484 -31.43120972 85.1742451 -32.03540039 88.03253174 C-35.00805664 90.49346924 -35.00805664 90.49346924 -38.03540039 92.03253174 C-38.95116382 94.12148465 -38.95116382 94.12148465 -38.91040039 96.28253174 C-38.95165039 97.52003174 -38.99290039 98.75753174 -39.03540039 100.03253174 C-39.69540039 100.03253174 -40.35540039 100.03253174 -41.03540039 100.03253174 C-41.11671502 98.5959732 -41.17473598 97.15808344 -41.22290039 95.72003174 C-41.27510742 94.51927002 -41.27510742 94.51927002 -41.32836914 93.29425049 C-41.03540039 91.03253174 -41.03540039 91.03253174 -39.83618164 89.30206299 C-37.61288267 87.73466133 -35.7080061 87.39369467 -33.03540039 87.03253174 C-33.10758789 86.34932861 -33.17977539 85.66612549 -33.25415039 84.96221924 C-34.26426436 73.99125918 -34.1317355 63.03992946 -34.03540039 52.03253174 C-34.65415039 51.88815674 -35.27290039 51.74378174 -35.91040039 51.59503174 C-38.03540039 51.03253174 -38.03540039 51.03253174 -40.03540039 50.03253174 C-40.03540039 49.37253174 -40.03540039 48.71253174 -40.03540039 48.03253174 C-42.01540039 48.03253174 -43.99540039 48.03253174 -46.03540039 48.03253174 C-46.03540039 48.69253174 -46.03540039 49.35253174 -46.03540039 50.03253174 C-48.51040039 50.52753174 -48.51040039 50.52753174 -51.03540039 51.03253174 C-51.03540039 51.69253174 -51.03540039 52.35253174 -51.03540039 53.03253174 C-52.4712304 53.14089627 -53.90942059 53.21829341 -55.34790039 53.28253174 C-56.1484082 53.32893799 -56.94891602 53.37534424 -57.77368164 53.42315674 C-60.03540039 53.03253174 -60.03540039 53.03253174 -61.81274414 51.38018799 C-63.33275672 48.46156958 -63.36958036 46.4988417 -63.28540039 43.22003174 C-63.25961914 42.16686768 -63.23383789 41.11370361 -63.20727539 40.02862549 C-63.01244163 36.63231871 -62.64362221 33.37775177 -62.03540039 30.03253174 C-63.02540039 30.03253174 -64.01540039 30.03253174 -65.03540039 30.03253174 C-65.27368164 27.70831299 -65.27368164 27.70831299 -65.03540039 25.03253174 C-63.45336914 23.51300049 -63.45336914 23.51300049 -61.22290039 22.22003174 C-54.29965364 17.98309209 -47.63023421 13.33384598 -41.47290039 8.03253174 C-39.03540039 6.03253174 -39.03540039 6.03253174 -37.03540039 6.03253174 C-36.70540039 4.38253174 -36.37540039 2.73253174 -36.03540039 1.03253174 C-33.39540039 1.03253174 -30.75540039 1.03253174 -28.03540039 1.03253174 C-32.08756879 5.26673114 -36.46592231 8.93186158 -41.03540039 12.59503174 C-41.73407227 13.15899658 -42.43274414 13.72296143 -43.15258789 14.30401611 C-46.0762542 16.66225639 -49.00418902 19.00833462 -51.97290039 21.30987549 C-54.12113525 22.87083852 -54.12113525 22.87083852 -55.03540039 25.03253174 C-45.09406906 17.97553252 -35.52320422 10.56963285 -26.69165039 2.14971924 C-25.87180664 1.59671143 -25.87180664 1.59671143 -25.03540039 1.03253174 C-24.04540039 1.36253174 -23.05540039 1.69253174 -22.03540039 2.03253174 C-23.41040039 3.53253174 -23.41040039 3.53253174 -25.03540039 5.03253174 C-25.69540039 5.03253174 -26.35540039 5.03253174 -27.03540039 5.03253174 C-27.27000977 5.60229736 -27.50461914 6.17206299 -27.74633789 6.75909424 C-31.81975477 13.94312037 -40.38902464 19.29838141 -47.03540039 24.03253174 C-45.71540039 24.36253174 -44.39540039 24.69253174 -43.03540039 25.03253174 C-43.03540039 24.37253174 -43.03540039 23.71253174 -43.03540039 23.03253174 C-41.52636162 21.6787921 -39.95127341 20.39809773 -38.34790039 19.15753174 C-37.04272461 18.14046143 -37.04272461 18.14046143 -35.71118164 17.10284424 C-33.97114299 15.75653696 -32.22155265 14.42245467 -30.46118164 13.10284424 C-27.029038 10.17363952 -24.58206558 6.68679693 -21.90258789 3.07940674 C-21.28641602 2.40393799 -20.67024414 1.72846924 -20.03540039 1.03253174 C-19.04540039 1.03253174 -18.05540039 1.03253174 -17.03540039 1.03253174 C-18.65150962 4.95603392 -21.34859443 7.74658527 -24.22290039 10.78253174 C-25.213197 11.84436697 -26.20277905 12.90686906 -27.19165039 13.97003174 C-27.67504883 14.48823486 -28.15844727 15.00643799 -28.65649414 15.54034424 C-31.52143423 18.64064768 -34.27994047 21.83506971 -37.03540039 25.03253174 C-36.04540039 25.03253174 -35.05540039 25.03253174 -34.03540039 25.03253174 C-34.03540039 24.37253174 -34.03540039 23.71253174 -34.03540039 23.03253174 C-32.55724619 21.79230981 -31.02564063 20.61549585 -29.47290039 19.47003174 C-23.74773287 15.00991539 -18.99322889 10.00368741 -15.76074219 3.44708252 C-14.03540039 1.03253174 -14.03540039 1.03253174 -11.74145508 0.32769775 C-10.82267578 0.29345703 -9.90389648 0.25921631 -8.95727539 0.22393799 C-7.88799805 0.17769287 -6.8187207 0.13144775 -5.71704102 0.08380127 C-3.81134073 0.057263 -1.90564167 0.03045781 0 0 Z " fill="#9BAAB0" transform="translate(69.035400390625,23.96746826171875)"/>
<path d="M0 0 C2.64 0 5.28 0 8 0 C3.9478316 4.23419941 -0.43052192 7.89932984 -5 11.5625 C-5.69867187 12.12646484 -6.39734375 12.69042969 -7.1171875 13.27148438 C-10.04085381 15.62972465 -12.96878863 17.97580289 -15.9375 20.27734375 C-18.08573486 21.83830679 -18.08573486 21.83830679 -19 24 C-9.05866867 16.94300078 0.51219617 9.53710111 9.34375 1.1171875 C10.16359375 0.56417969 10.16359375 0.56417969 11 0 C11.99 0.33 12.98 0.66 14 1 C12.625 2.5 12.625 2.5 11 4 C10.34 4 9.68 4 9 4 C8.76539063 4.56976563 8.53078125 5.13953125 8.2890625 5.7265625 C4.21564562 12.91058863 -4.35362425 18.26584968 -11 23 C-9.68 23.33 -8.36 23.66 -7 24 C-7 23.34 -7 22.68 -7 22 C-5.49096123 20.64626036 -3.91587302 19.36556599 -2.3125 18.125 C-1.00732422 17.10792969 -1.00732422 17.10792969 0.32421875 16.0703125 C2.0642574 14.72400522 3.81384774 13.38992294 5.57421875 12.0703125 C9.00636239 9.14110778 11.45333482 5.65426519 14.1328125 2.046875 C14.74898437 1.37140625 15.36515625 0.6959375 16 0 C16.99 0 17.98 0 19 0 C17.38389077 3.92350218 14.68680596 6.71405354 11.8125 9.75 C10.82220339 10.81183523 9.83262134 11.87433732 8.84375 12.9375 C8.36035156 13.45570312 7.87695312 13.97390625 7.37890625 14.5078125 C4.51396616 17.60811594 1.75545992 20.80253797 -1 24 C-0.01 24 0.98 24 2 24 C2 23.34 2 22.68 2 22 C3.4781542 20.75977807 5.00975976 19.58296411 6.5625 18.4375 C13.12961119 13.32147853 17.99653878 7.30042929 22 0 C23.32 0.33 24.64 0.66 26 1 C20.40256758 8.80584868 14.89992816 16.29721265 8 23 C8.495 23.99 8.495 23.99 9 25 C5.04 25 1.08 25 -3 25 C1.27336902 25.81499746 5.3002138 26.12198402 9.64794922 26.11352539 C10.94884491 26.11344986 12.2497406 26.11337433 13.59005737 26.11329651 C14.99493448 26.10819101 16.39981119 26.10297504 17.8046875 26.09765625 C19.25342764 26.09578923 20.70216842 26.09436667 22.15090942 26.09336853 C25.94846363 26.08956573 29.74597908 26.07975474 33.54351807 26.06866455 C37.42484005 26.05840215 41.30616834 26.05386059 45.1875 26.04882812 C52.79168631 26.0381303 60.39583277 26.0205518 68 26 C68 32.27 68 38.54 68 45 C66.35 45 64.7 45 63 45 C63 39.39 63 33.78 63 28 C61.35 28 59.7 28 58 28 C58.01047363 28.65597168 58.02094727 29.31194336 58.03173828 29.98779297 C58.07322503 32.95015658 58.09930262 35.91245916 58.125 38.875 C58.14175781 39.90753906 58.15851563 40.94007812 58.17578125 42.00390625 C58.18222656 42.99003906 58.18867187 43.97617188 58.1953125 44.9921875 C58.20578613 45.90339355 58.21625977 46.81459961 58.22705078 47.75341797 C58 50 58 50 56 52 C51.80024969 52.56753383 49.3669586 51.50116925 46 49 C46 48.34 46 47.68 46 47 C42.7 47 39.4 47 36 47 C35.34 48.32 34.68 49.64 34 51 C31.15916359 52.42041821 29.14522722 52.31452272 26 52 C25.401875 51.34 24.80375 50.68 24.1875 50 C21.22980613 47.29582274 19.15366899 47.37976702 15.24609375 47.52734375 C11.5591616 48.30320252 9.72502468 50.46509332 7 53 C5.68 53 4.36 53 3 53 C3.06711182 53.57830566 3.13422363 54.15661133 3.20336914 54.75244141 C3.95160316 61.62696863 4.31359834 68.46214194 4.4375 75.375 C4.48326172 76.44105469 4.52902344 77.50710937 4.57617188 78.60546875 C4.61841223 81.5255631 4.60419067 84.14171336 4 87 C1.02734375 89.4609375 1.02734375 89.4609375 -2 91 C-2.91576343 93.08895291 -2.91576343 93.08895291 -2.875 95.25 C-2.91625 96.4875 -2.9575 97.725 -3 99 C-3.66 99 -4.32 99 -5 99 C-5.08131463 97.56344146 -5.13933559 96.1255517 -5.1875 94.6875 C-5.23970703 93.48673828 -5.23970703 93.48673828 -5.29296875 92.26171875 C-5 90 -5 90 -3.80078125 88.26953125 C-1.57748228 86.70212959 0.32739429 86.36116293 3 86 C2.9278125 85.31679687 2.855625 84.63359375 2.78125 83.9296875 C1.77113603 72.95872744 1.90366489 62.00739772 2 51 C1.38125 50.855625 0.7625 50.71125 0.125 50.5625 C-2 50 -2 50 -4 49 C-4 48.34 -4 47.68 -4 47 C-5.98 47 -7.96 47 -10 47 C-10 47.66 -10 48.32 -10 49 C-12.475 49.495 -12.475 49.495 -15 50 C-15 50.66 -15 51.32 -15 52 C-16.43583001 52.10836453 -17.8740202 52.18576167 -19.3125 52.25 C-20.11300781 52.29640625 -20.91351563 52.3428125 -21.73828125 52.390625 C-24 52 -24 52 -25.77734375 50.34765625 C-27.29735633 47.42903784 -27.33417997 45.46630997 -27.25 42.1875 C-27.22421875 41.13433594 -27.1984375 40.08117187 -27.171875 38.99609375 C-26.97704123 35.59978697 -26.60822182 32.34522003 -26 29 C-26.99 29 -27.98 29 -29 29 C-29.23828125 26.67578125 -29.23828125 26.67578125 -29 24 C-27.41796875 22.48046875 -27.41796875 22.48046875 -25.1875 21.1875 C-18.26425325 16.95056035 -11.59483382 12.30131424 -5.4375 7 C-3 5 -3 5 -1 5 C-0.67 3.35 -0.34 1.7 0 0 Z " fill="#7A878F" transform="translate(33,25)"/>
<path d="M0 0 C3.63078076 0.58221874 5.32248525 1.97031203 7.9375 4.5 C19.74586835 15.60632772 19.74586835 15.60632772 34 21 C33.04480469 20.3709375 32.08960938 19.741875 31.10546875 19.09375 C8.98080783 4.47121175 8.98080783 4.47121175 6 0 C9.65827807 0.59457341 11.54469873 2.09072221 14.3125 4.5 C21.76259128 10.65104407 30.27797656 15.83621997 39 20 C39 20.66 39 21.32 39 22 C40.32 21.67 41.64 21.34 43 21 C42.319375 20.61070313 41.63875 20.22140625 40.9375 19.8203125 C34.69570187 16.21799816 28.51163765 12.52842341 22.375 8.75 C21.67632812 8.32605957 20.97765625 7.90211914 20.2578125 7.46533203 C17.10727895 5.51097792 15.08340505 4.12510757 13 1 C16.3736762 1.64609491 18.77567031 2.93413639 21.66796875 4.765625 C23.00891602 5.60673828 23.00891602 5.60673828 24.37695312 6.46484375 C25.30443359 7.05394531 26.23191406 7.64304687 27.1875 8.25 C33.69604465 12.36114602 40.22210604 16.34595789 47 20 C47 20.66 47 21.32 47 22 C48.32 22 49.64 22 51 22 C48.59704221 19.31059691 46.05413489 17.8006124 42.875 16.125 C41.8953125 15.60164063 40.915625 15.07828125 39.90625 14.5390625 C38.9471875 14.03117187 37.988125 13.52328125 37 13 C30.75720524 9.65564566 24.83623861 6.01500103 19 2 C19.66 1.67 20.32 1.34 21 1 C23.08853179 1.91038565 25.00829097 2.90098924 27 4 C28.24910156 4.67482422 28.24910156 4.67482422 29.5234375 5.36328125 C34.75300511 8.19779479 39.95281539 11.08165433 45.125 14.01953125 C47.13249565 15.13270926 47.13249565 15.13270926 50 16 C50 16.66 50 17.32 50 18 C51.11375 18.28875 52.2275 18.5775 53.375 18.875 C57 20 57 20 59 22 C59.16015625 24.21484375 59.16015625 24.21484375 59.0625 26.9375 C58.95994809 31.03957642 59.19826173 34.87321013 59.75 38.9375 C60.19211004 43.63324448 60.19211004 43.63324448 58.625 46.625 C54.86133527 48.59644343 51.20174387 48.8204383 47 49 C47 47.68 47 46.36 47 45 C40.66135877 44.578137 40.66135877 44.578137 35 47 C34.505 47.99 34.505 47.99 34 49 C32.02 49 30.04 49 28 49 C26.71702277 41.58851545 25.74484081 34.52719602 26 27 C24.68 27 23.36 27 22 27 C22.495 35.415 22.495 35.415 23 44 C21.35 44 19.7 44 18 44 C17.67 38.39 17.34 32.78 17 27 C15.68 27 14.36 27 13 27 C13 33.6 13 40.2 13 47 C11.68 47.66 10.36 48.32 9 49 C8.07811539 46.23434618 7.88214778 44.61716298 7.90234375 41.76953125 C7.90556641 40.96708984 7.90878906 40.16464844 7.91210938 39.33789062 C7.92048828 38.50451172 7.92886719 37.67113281 7.9375 36.8125 C7.94201172 35.96751953 7.94652344 35.12253906 7.95117188 34.25195312 C7.96294597 32.16793845 7.9808811 30.08396023 8 28 C6.35 28 4.7 28 3 28 C3 34.6 3 41.2 3 48 C1.35 47.34 -0.3 46.68 -2 46 C-5.73299456 45.77144931 -8.33380898 46.08345224 -12 47 C-12 40.07 -12 33.14 -12 26 C-9.23434618 25.07811539 -7.61716298 24.88214778 -4.76953125 24.90234375 C-3.56586914 24.90717773 -3.56586914 24.90717773 -2.33789062 24.91210938 C-1.08782227 24.92467773 -1.08782227 24.92467773 0.1875 24.9375 C1.03248047 24.94201172 1.87746094 24.94652344 2.74804688 24.95117188 C4.83206155 24.96294597 6.91603977 24.9808811 9 25 C9 24.34 9 23.68 9 23 C9.88751953 23.01740234 9.88751953 23.01740234 10.79296875 23.03515625 C15.00231785 23.08322386 18.8922333 23.06006883 23 22 C23 21.01 23 20.02 23 19 C22.3090625 18.77828125 21.618125 18.5565625 20.90625 18.328125 C17.27947431 16.67072751 14.4877731 14.33570619 11.5 11.75 C10.94441406 11.28464844 10.38882813 10.81929687 9.81640625 10.33984375 C6.11057398 7.17462701 3.02782774 3.81867827 0 0 Z " fill="#7F8B8F" transform="translate(128,25)"/>
<path d="M0 0 C0.80060349 0.00007553 1.60120697 0.00015106 2.42607117 0.00022888 C3.71527214 0.00797081 3.71527214 0.00797081 5.03051758 0.01586914 C5.91411453 0.01728409 6.79771149 0.01869904 7.70808411 0.02015686 C10.53044011 0.0257547 13.3527168 0.03830678 16.17504883 0.05102539 C18.08845914 0.05604067 20.0018707 0.06060353 21.9152832 0.06469727 C26.60606897 0.07572342 31.29679545 0.09298656 35.98754883 0.11352539 C36.71964726 3.38896923 37.10802276 6.40385714 37.08520508 9.75805664 C37.08198242 10.59916992 37.07875977 11.4402832 37.07543945 12.30688477 C37.06287109 13.60335937 37.06287109 13.60335937 37.05004883 14.92602539 C37.04553711 15.80967773 37.04102539 16.69333008 37.03637695 17.60375977 C37.02464749 19.77371098 37.00671378 21.94362711 36.98754883 24.11352539 C35.66754883 24.11352539 34.34754883 24.11352539 32.98754883 24.11352539 C31.70457159 16.70204084 30.73238964 9.64072141 30.98754883 2.11352539 C29.66754883 2.11352539 28.34754883 2.11352539 26.98754883 2.11352539 C27.48254883 10.52852539 27.48254883 10.52852539 27.98754883 19.11352539 C26.33754883 19.11352539 24.68754883 19.11352539 22.98754883 19.11352539 C22.65754883 13.50352539 22.32754883 7.89352539 21.98754883 2.11352539 C20.66754883 2.11352539 19.34754883 2.11352539 17.98754883 2.11352539 C17.98754883 8.71352539 17.98754883 15.31352539 17.98754883 22.11352539 C16.00754883 23.10352539 16.00754883 23.10352539 13.98754883 24.11352539 C13.06566422 21.34787157 12.86969661 19.73068837 12.88989258 16.88305664 C12.89311523 16.08061523 12.89633789 15.27817383 12.8996582 14.45141602 C12.90803711 13.61803711 12.91641602 12.7846582 12.92504883 11.92602539 C12.92956055 11.08104492 12.93407227 10.23606445 12.9387207 9.36547852 C12.9504948 7.28146384 12.96842993 5.19748562 12.98754883 3.11352539 C11.33754883 3.11352539 9.68754883 3.11352539 7.98754883 3.11352539 C7.98754883 9.71352539 7.98754883 16.31352539 7.98754883 23.11352539 C5.51254883 22.12352539 5.51254883 22.12352539 2.98754883 21.11352539 C-0.74544573 20.8849747 -3.34626015 21.19697764 -7.01245117 22.11352539 C-7.01245117 15.18352539 -7.01245117 8.25352539 -7.01245117 1.11352539 C-4.30620747 0.21144416 -2.77394132 -0.0087506 0 0 Z " fill="#77858A" transform="translate(123.012451171875,49.886474609375)"/>
<path d="M0 0 C3.98050123 -0.04098612 7.95705698 -0.02003821 11.9375 0.0234375 C10.9475 0.3534375 9.9575 0.6834375 8.9375 1.0234375 C8.74414062 2.18101563 8.55078125 3.33859375 8.3515625 4.53125 C8.08878853 6.07035467 7.82575388 7.60941484 7.5625 9.1484375 C7.43617187 9.90898438 7.30984375 10.66953125 7.1796875 11.453125 C6.42993489 15.80169012 5.46550112 19.86461705 3.9375 24.0234375 C2.2875 24.0234375 0.6375 24.0234375 -1.0625 24.0234375 C-0.08655146 20.56418767 0.89380319 17.10620201 1.875 13.6484375 C2.15279297 12.66359375 2.43058594 11.67875 2.71679688 10.6640625 C3.11801758 9.25253906 3.11801758 9.25253906 3.52734375 7.8125 C3.77347412 6.94318848 4.01960449 6.07387695 4.27319336 5.17822266 C4.9375 3.0234375 4.9375 3.0234375 5.9375 1.0234375 C4.6175 1.0234375 3.2975 1.0234375 1.9375 1.0234375 C1.855 2.3228125 1.7725 3.6221875 1.6875 4.9609375 C1.11034053 10.19659844 -0.67807076 14.37155102 -3.0625 19.0234375 C-3.536875 20.0340625 -4.01125 21.0446875 -4.5 22.0859375 C-5.015625 22.7253125 -5.53125 23.3646875 -6.0625 24.0234375 C-8.66015625 24.14453125 -8.66015625 24.14453125 -11.0625 24.0234375 C-9.60487887 20.93976699 -8.14627822 17.85656078 -6.6875 14.7734375 C-6.275 13.90074219 -5.8625 13.02804688 -5.4375 12.12890625 C-5.03789063 11.28457031 -4.63828125 10.44023438 -4.2265625 9.5703125 C-3.85998535 8.79526367 -3.4934082 8.02021484 -3.11572266 7.22167969 C-2.12018996 5.14384557 -1.09941854 3.0808806 -0.0625 1.0234375 C-1.0525 1.0234375 -2.0425 1.0234375 -3.0625 1.0234375 C-3.289375 1.8278125 -3.51625 2.6321875 -3.75 3.4609375 C-5.40226844 7.94566612 -7.66757889 11.90053534 -10.0625 16.0234375 C-10.619375 17.0340625 -11.17625 18.0446875 -11.75 19.0859375 C-12.183125 19.7253125 -12.61625 20.3646875 -13.0625 21.0234375 C-13.7225 21.0234375 -14.3825 21.0234375 -15.0625 21.0234375 C-14.7325 22.6734375 -14.4025 24.3234375 -14.0625 26.0234375 C-19.6725 25.6934375 -25.2825 25.3634375 -31.0625 25.0234375 C-29.7425 23.0434375 -28.4225 21.0634375 -27.0625 19.0234375 C-26.4025 19.0234375 -25.7425 19.0234375 -25.0625 19.0234375 C-24.7325 18.0334375 -24.4025 17.0434375 -24.0625 16.0234375 C-23.4025 16.0234375 -22.7425 16.0234375 -22.0625 16.0234375 C-21.80726562 15.48074219 -21.55203125 14.93804687 -21.2890625 14.37890625 C-14.8220137 1.95970108 -14.8220137 1.95970108 -8.5625 -0.1640625 C-5.70094723 -0.12944694 -2.86470939 0.03255352 0 0 Z " fill="#BCCDD6" transform="translate(71.0625,23.9765625)"/>
<path d="M0 0 C3.63078076 0.58221874 5.32248525 1.97031203 7.9375 4.5 C19.74586835 15.60632772 19.74586835 15.60632772 34 21 C33.04480469 20.3709375 32.08960938 19.741875 31.10546875 19.09375 C8.98080783 4.47121175 8.98080783 4.47121175 6 0 C9.65827807 0.59457341 11.54469873 2.09072221 14.3125 4.5 C21.76259128 10.65104407 30.27797656 15.83621997 39 20 C39 20.66 39 21.32 39 22 C40.32 21.67 41.64 21.34 43 21 C42.319375 20.61070313 41.63875 20.22140625 40.9375 19.8203125 C34.69570187 16.21799816 28.51163765 12.52842341 22.375 8.75 C21.67632812 8.32605957 20.97765625 7.90211914 20.2578125 7.46533203 C17.10727895 5.51097792 15.08340505 4.12510757 13 1 C16.3736762 1.64609491 18.77567031 2.93413639 21.66796875 4.765625 C22.56193359 5.32636719 23.45589844 5.88710938 24.37695312 6.46484375 C25.30443359 7.05394531 26.23191406 7.64304687 27.1875 8.25 C33.69604465 12.36114602 40.22210604 16.34595789 47 20 C47 20.66 47 21.32 47 22 C48.32 22 49.64 22 51 22 C48.59704221 19.31059691 46.05413489 17.8006124 42.875 16.125 C41.8953125 15.60164063 40.915625 15.07828125 39.90625 14.5390625 C38.9471875 14.03117187 37.988125 13.52328125 37 13 C30.75720524 9.65564566 24.83623861 6.01500103 19 2 C19.66 1.67 20.32 1.34 21 1 C23.08853179 1.91038565 25.00829097 2.90098924 27 4 C27.83273438 4.44988281 28.66546875 4.89976563 29.5234375 5.36328125 C34.75300511 8.19779479 39.95281539 11.08165433 45.125 14.01953125 C47.13249565 15.13270926 47.13249565 15.13270926 50 16 C50 16.66 50 17.32 50 18 C51.11375 18.28875 52.2275 18.5775 53.375 18.875 C57 20 57 20 59 22 C59.16015625 24.21484375 59.16015625 24.21484375 59.0625 26.9375 C58.94839981 32.68814954 59.38113885 38.28658542 60 44 C58.68 44.66 57.36 45.32 56 46 C54.2120463 39.1834265 53.76331431 33.03482474 54 26 C55.32 26 56.64 26 58 26 C58 25.34 58 24.68 58 24 C56.83428467 24.00785522 56.83428467 24.00785522 55.64501953 24.01586914 C52.13835451 24.03660156 48.63170237 24.04964821 45.125 24.0625 C43.90167969 24.07087891 42.67835938 24.07925781 41.41796875 24.08789062 C39.66806641 24.09272461 39.66806641 24.09272461 37.8828125 24.09765625 C36.26463623 24.10551147 36.26463623 24.10551147 34.61376953 24.11352539 C32 24 32 24 30 23 C27.6599583 23.28241883 25.32495277 23.61250787 23 24 C23 22.35 23 20.7 23 19 C21.96359375 18.66742188 21.96359375 18.66742188 20.90625 18.328125 C17.27947431 16.67072751 14.4877731 14.33570619 11.5 11.75 C10.66662109 11.05197266 10.66662109 11.05197266 9.81640625 10.33984375 C6.11057398 7.17462701 3.02782774 3.81867827 0 0 Z " fill="#ACB9BF" transform="translate(128,25)"/>
<path d="M0 0 C2.64 0 5.28 0 8 0 C3.9478316 4.23419941 -0.43052192 7.89932984 -5 11.5625 C-5.69867187 12.12646484 -6.39734375 12.69042969 -7.1171875 13.27148438 C-10.04085381 15.62972465 -12.96878863 17.97580289 -15.9375 20.27734375 C-18.08573486 21.83830679 -18.08573486 21.83830679 -19 24 C-9.05866867 16.94300078 0.51219617 9.53710111 9.34375 1.1171875 C10.16359375 0.56417969 10.16359375 0.56417969 11 0 C11.99 0.33 12.98 0.66 14 1 C12.625 2.5 12.625 2.5 11 4 C10.34 4 9.68 4 9 4 C8.76539063 4.56976563 8.53078125 5.13953125 8.2890625 5.7265625 C4.21564562 12.91058863 -4.35362425 18.26584968 -11 23 C-9.68 23.33 -8.36 23.66 -7 24 C-7 23.34 -7 22.68 -7 22 C-5.49096123 20.64626036 -3.91587302 19.36556599 -2.3125 18.125 C-1.00732422 17.10792969 -1.00732422 17.10792969 0.32421875 16.0703125 C2.0642574 14.72400522 3.81384774 13.38992294 5.57421875 12.0703125 C9.00636239 9.14110778 11.45333482 5.65426519 14.1328125 2.046875 C14.74898437 1.37140625 15.36515625 0.6959375 16 0 C16.99 0 17.98 0 19 0 C17.38389077 3.92350218 14.68680596 6.71405354 11.8125 9.75 C10.82220339 10.81183523 9.83262134 11.87433732 8.84375 12.9375 C8.36035156 13.45570312 7.87695312 13.97390625 7.37890625 14.5078125 C4.51396616 17.60811594 1.75545992 20.80253797 -1 24 C-0.01 24 0.98 24 2 24 C2 23.34 2 22.68 2 22 C3.4781542 20.75977807 5.00975976 19.58296411 6.5625 18.4375 C13.12961119 13.32147853 17.99653878 7.30042929 22 0 C23.32 0.33 24.64 0.66 26 1 C20.40256758 8.80584868 14.89992816 16.29721265 8 23 C8.495 23.99 8.495 23.99 9 25 C8.14535156 24.98839844 7.29070313 24.97679688 6.41015625 24.96484375 C4.75306641 24.95130859 4.75306641 24.95130859 3.0625 24.9375 C1.96035156 24.92589844 0.85820313 24.91429688 -0.27734375 24.90234375 C-2.91447634 24.68737429 -2.91447634 24.68737429 -4 26 C-12.04296962 26.34880225 -20.02620132 26.11912964 -28 25 C-28.33 26.32 -28.66 27.64 -29 29 C-29.23828125 26.67578125 -29.23828125 26.67578125 -29 24 C-27.41796875 22.48046875 -27.41796875 22.48046875 -25.1875 21.1875 C-18.26425325 16.95056035 -11.59483382 12.30131424 -5.4375 7 C-3 5 -3 5 -1 5 C-0.67 3.35 -0.34 1.7 0 0 Z " fill="#AFBDC6" transform="translate(33,25)"/>
<path d="M0 0 C-0.99 0.33 -1.98 0.66 -3 1 C-2.7827124 1.58491211 -2.5654248 2.16982422 -2.34155273 2.77246094 C-1.36231116 5.42765642 -0.39977854 8.0886125 0.5625 10.75 C1.07586914 12.13058594 1.07586914 12.13058594 1.59960938 13.5390625 C1.91865234 14.42851563 2.23769531 15.31796875 2.56640625 16.234375 C2.86490479 17.05131836 3.16340332 17.86826172 3.47094727 18.70996094 C4.04922939 21.21309263 3.83176958 22.59871738 3 25 C-0.04172719 25.0271045 -3.08320997 25.04688964 -6.125 25.0625 C-6.9809375 25.07087891 -7.836875 25.07925781 -8.71875 25.08789062 C-13.26678411 25.10538306 -17.52383164 24.93192358 -22 24 C-21.79503906 23.17757812 -21.59007813 22.35515625 -21.37890625 21.5078125 C-19.72841996 14.66895545 -18.45976084 8.02324312 -18 1 C-11.93303301 0.22959149 -6.11485027 -0.09706112 0 0 Z " fill="#CFE4EC" transform="translate(101,24)"/>
<path d="M0 0 C6.93 0 13.86 0 21 0 C19.68 0.33 18.36 0.66 17 1 C15.91487607 3.31047195 15.91487607 3.31047195 15 6 C10.61044858 12.40915724 5.36876204 18.48505602 -1 23 C-1.66 23 -2.32 23 -3 23 C-3 23.66 -3 24.32 -3 25 C-3.99 25 -4.98 25 -6 25 C-4.39074801 20.87874491 -1.38181984 18.23747884 1.75 15.25 C6.34027442 10.78045007 10.34101539 6.28519999 14 1 C13.01 1 12.02 1 11 1 C10.72027344 1.59425781 10.44054688 2.18851563 10.15234375 2.80078125 C5.73525214 11.2306883 -3.39177161 19.18085642 -12 23 C-12 23.66 -12 24.32 -12 25 C-13.65 25 -15.3 25 -17 25 C-12.63792522 20.50574114 -7.95973779 16.49174506 -3.171875 12.4609375 C0.38553353 9.44487375 3.7512254 6.34722231 7 3 C3.88091999 3 2.67120837 4.96861688 0.4375 7.0625 C-4.19686116 11.31677687 -8.98022709 15.21489296 -14 19 C-15.12341797 19.87398437 -15.12341797 19.87398437 -16.26953125 20.765625 C-17.34267578 21.59320313 -17.34267578 21.59320313 -18.4375 22.4375 C-19.07558594 22.93121094 -19.71367187 23.42492187 -20.37109375 23.93359375 C-22 25 -22 25 -24 25 C-22.64591832 21.88250219 -21.23583507 20.08932815 -18.5859375 17.9765625 C-17.56693359 17.15671875 -17.56693359 17.15671875 -16.52734375 16.3203125 C-15.81707031 15.76085938 -15.10679688 15.20140625 -14.375 14.625 C-13.68792969 14.07328125 -13.00085937 13.5215625 -12.29296875 12.953125 C-7.60170415 9.20363397 -2.82335094 5.57746693 2 2 C1.34 1.34 0.68 0.68 0 0 Z " fill="#C5D1D8" transform="translate(38,24)"/>
<path d="M0 0 C1.65 0 3.3 0 5 0 C5 7.59 5 15.18 5 23 C6.32 23.33 7.64 23.66 9 24 C7.68 24 6.36 24 5 24 C5.10066772 24.8674585 5.10066772 24.8674585 5.20336914 25.75244141 C5.95160316 32.62696863 6.31359834 39.46214194 6.4375 46.375 C6.48326172 47.44105469 6.52902344 48.50710937 6.57617188 49.60546875 C6.61841223 52.5255631 6.60419067 55.14171336 6 58 C3.02734375 60.4609375 3.02734375 60.4609375 0 62 C-0.91576343 64.08895291 -0.91576343 64.08895291 -0.875 66.25 C-0.91625 67.4875 -0.9575 68.725 -1 70 C-1.66 70 -2.32 70 -3 70 C-3.08131463 68.56344146 -3.13933559 67.1255517 -3.1875 65.6875 C-3.22230469 64.88699219 -3.25710937 64.08648437 -3.29296875 63.26171875 C-3 61 -3 61 -1.80078125 59.26953125 C0.42251772 57.70212959 2.32739429 57.36116293 5 57 C4.9278125 56.31679687 4.855625 55.63359375 4.78125 54.9296875 C3.77113603 43.95872744 3.90366489 33.00739772 4 22 C3.071875 21.7834375 3.071875 21.7834375 2.125 21.5625 C-0 21 -0 21 -2 20 C-2 19.34 -2 18.68 -2 18 C-1.34 18 -0.68 18 0 18 C0 12.06 0 6.12 0 0 Z " fill="#ABB1B3" transform="translate(31,54)"/>
<path d="M0 0 C0.99 0 1.98 0 3 0 C-1.09287358 8.52681997 -6.14351851 16.41444331 -13 23 C-5.8324568 20.95213051 -2.67713245 14.74327025 0.7890625 8.63671875 C2 7 2 7 5 6 C4.58742287 11.50102837 2.45277325 15.76201664 -1 20 C-1.66 20 -2.32 20 -3 20 C-2.67 21.65 -2.34 23.3 -2 25 C-7.61 24.67 -13.22 24.34 -19 24 C-17.68 22.02 -16.36 20.04 -15 18 C-14.34 18 -13.68 18 -13 18 C-12.67 17.01 -12.34 16.02 -12 15 C-11.34 15 -10.68 15 -10 15 C-9.62681641 14.18789063 -9.62681641 14.18789063 -9.24609375 13.359375 C-7.72679185 10.48270306 -5.94633835 7.90210762 -4.0625 5.25 C-3.37285156 4.26515625 -2.68320312 3.2803125 -1.97265625 2.265625 C-1.32167969 1.51796875 -0.67070313 0.7703125 0 0 Z " fill="#C1D7E1" transform="translate(59,25)"/>
<path d="M0 0 C1.65 0 3.3 0 5 0 C5 5.61 5 11.22 5 17 C6.98 17 8.96 17 11 17 C11 11.72 11 6.44 11 1 C12.32 1 13.64 1 15 1 C15.33 7.6 15.66 14.2 16 21 C15.34 21 14.68 21 14 21 C14 20.34 14 19.68 14 19 C12.56344146 18.91868537 11.1255517 18.86066441 9.6875 18.8125 C8.88699219 18.77769531 8.08648437 18.74289063 7.26171875 18.70703125 C4.49291259 19.0656849 3.81639042 19.97054325 2 22 C1.34 22 0.68 22 0 22 C0 14.74 0 7.48 0 0 Z " fill="#AABCC3" transform="translate(91,53)"/>
<path d="M0 0 C1.32 0 2.64 0 4 0 C4.8320582 5.72040011 5.12036664 11.22240116 5 17 C6.65 17 8.3 17 10 17 C9.75443359 16.21882813 9.75443359 16.21882813 9.50390625 15.421875 C8.85941341 12.3243125 8.90588411 9.41158906 8.9375 6.25 C8.94652344 5.07953125 8.95554688 3.9090625 8.96484375 2.703125 C8.97644531 1.81109375 8.98804688 0.9190625 9 0 C10.32 0 11.64 0 13 0 C13.66 7.26 14.32 14.52 15 22 C13.68 21.67 12.36 21.34 11 21 C10.67 20.34 10.34 19.68 10 19 C6.7 19 3.4 19 0 19 C0 12.73 0 6.46 0 0 Z " fill="#9FB1B7" transform="translate(141,52)"/>
<path d="M0 0 C5.37711864 -0.48256193 5.37711864 -0.48256193 8.1328125 1.65234375 C8.79023438 2.40644531 9.44765625 3.16054688 10.125 3.9375 C15.48544092 9.69974569 21.90874135 15.45437068 29 19 C29 19.99 29 20.98 29 22 C27.02 22.66 25.04 23.32 23 24 C23 23.34 23 22.68 23 22 C22.01 22.33 21.02 22.66 20 23 C20 22.01 20 21.02 20 20 C18.01924973 18.63823419 16.01920337 17.30406884 14 16 C14 15.34 14 14.68 14 14 C13.27425781 13.78472656 12.54851562 13.56945313 11.80078125 13.34765625 C8.25470587 11.64138567 6.61003592 9.51890141 4.1875 6.4375 C3.39730469 5.44621094 2.60710937 4.45492188 1.79296875 3.43359375 C0 1 0 1 0 0 Z " fill="#C0D7DF" transform="translate(122,25)"/>
<path d="M0 0 C1.65 0 3.3 0 5 0 C5 7.92 5 15.84 5 24 C3.35 24.33 1.7 24.66 0 25 C0 16.75 0 8.5 0 0 Z " fill="#354951" transform="translate(36,52)"/>
<path d="M0 0 C1.65 0 3.3 0 5 0 C5 7.59 5 15.18 5 23 C6.32 22.67 7.64 22.34 9 22 C8.67 22.66 8.34 23.32 8 24 C3.72656908 24.36629408 1.51187196 23.40814077 -2 21 C-1.67 20.34 -1.34 19.68 -1 19 C-0.84932786 17.5534758 -0.75138964 16.1012066 -0.68359375 14.6484375 C-0.64169922 13.79765625 -0.59980469 12.946875 -0.55664062 12.0703125 C-0.51732422 11.18085937 -0.47800781 10.29140625 -0.4375 9.375 C-0.39431641 8.4778125 -0.35113281 7.580625 -0.30664062 6.65625 C-0.20043139 4.43765717 -0.09838806 2.2189512 0 0 Z " fill="#A0AEB6" transform="translate(81,53)"/>
<path d="M0 0 C1.65 0 3.3 0 5 0 C5.0580476 3.27075883 5.09361165 6.54138524 5.125 9.8125 C5.14175781 10.74126953 5.15851562 11.67003906 5.17578125 12.62695312 C5.18222656 13.51962891 5.18867188 14.41230469 5.1953125 15.33203125 C5.20578613 16.15421143 5.21625977 16.9763916 5.22705078 17.82348633 C5 20 5 20 3 23 C1.01953125 21.85546875 1.01953125 21.85546875 -1 20 C-1.42578125 17.36328125 -1.42578125 17.36328125 -1.3125 14.3125 C-1.27769531 13.25160156 -1.24289063 12.19070312 -1.20703125 11.09765625 C-0.95717564 7.35925057 -0.5696904 3.70298758 0 0 Z " fill="#10272D" transform="translate(7,53)"/>
<path d="M0 0 C2.64 0 5.28 0 8 0 C3.9478316 4.23419941 -0.43052192 7.89932984 -5 11.5625 C-5.69867187 12.12646484 -6.39734375 12.69042969 -7.1171875 13.27148438 C-8.4693814 14.36216908 -9.82386117 15.45002756 -11.1809082 16.53466797 C-12.73561292 17.78702842 -14.26686045 19.06841517 -15.79296875 20.35546875 C-18.49863822 22.37155167 -20.67800493 22.6909772 -24 23 C-24 22.34 -24 21.68 -24 21 C-21.65860766 19.15012132 -19.3108039 17.40487859 -16.875 15.6875 C-15.5376624 14.73503572 -14.20170849 13.78062546 -12.8671875 12.82421875 C-12.21588867 12.35806152 -11.56458984 11.8919043 -10.89355469 11.41162109 C-9.07283241 10.05429564 -7.35216434 8.62714559 -5.6328125 7.14453125 C-3 5 -3 5 -1 5 C-0.67 3.35 -0.34 1.7 0 0 Z " fill="#6B7B82" transform="translate(33,25)"/>
<path d="M0 0 C1.65 0 3.3 0 5 0 C5.33 7.26 5.66 14.52 6 22 C3.29120665 23.35439668 0.99066732 23.06501451 -2 23 C-1.34 22.67 -0.68 22.34 0 22 C0 14.74 0 7.48 0 0 Z " fill="#9EADB5" transform="translate(61,54)"/>
<path d="M0 0 C1.65 0 3.3 0 5 0 C5 7.92 5 15.84 5 24 C1 23 1 23 0 22 C-0.08700342 20.36527118 -0.10701063 18.72685945 -0.09765625 17.08984375 C-0.09443359 16.10048828 -0.09121094 15.11113281 -0.08789062 14.09179688 C-0.07951172 13.05087891 -0.07113281 12.00996094 -0.0625 10.9375 C-0.05798828 9.89271484 -0.05347656 8.84792969 -0.04882812 7.77148438 C-0.03699913 5.1809334 -0.02051689 2.59049441 0 0 Z " fill="#253D41" transform="translate(56,52)"/>
<path d="M0 0 C1.65 0 3.3 0 5 0 C5 7.59 5 15.18 5 23 C3.35 22.67 1.7 22.34 0 22 C0 14.74 0 7.48 0 0 Z " fill="#3F525B" transform="translate(106,51)"/>
<path d="M0 0 C1.65 0 3.3 0 5 0 C5.06058594 1.25296875 5.12117187 2.5059375 5.18359375 3.796875 C5.26802256 5.44792724 5.35266939 7.09896835 5.4375 8.75 C5.47681641 9.575 5.51613281 10.4 5.55664062 11.25 C5.59853516 12.04921875 5.64042969 12.8484375 5.68359375 13.671875 C5.72025146 14.4050293 5.75690918 15.13818359 5.79467773 15.89355469 C6.00114785 18.01177605 6.43132086 19.9519456 7 22 C4.36 21.67 1.72 21.34 -1 21 C-0.67 14.07 -0.34 7.14 0 0 Z " fill="#97A6AB" transform="translate(131,53)"/>
<path d="M0 0 C1.32 0 2.64 0 4 0 C5.0176403 5.01608525 5.11856434 9.78608306 5.0625 14.875 C5.05798828 15.65875 5.05347656 16.4425 5.04882812 17.25 C5.03714093 19.16670014 5.01920908 21.08336048 5 23 C3.35 23.33 1.7 23.66 0 24 C0 16.08 0 8.16 0 0 Z " fill="#253841" transform="translate(86,52)"/>
<path d="M0 0 C1.65 0 3.3 0 5 0 C5 6.6 5 13.2 5 20 C4.34 20 3.68 20 3 20 C2.67 20.99 2.34 21.98 2 23 C1.34 23 0.68 23 0 23 C0 15.41 0 7.82 0 0 Z " fill="#34444D" transform="translate(66,52)"/>
<path d="M0 0 C1.32 0 2.64 0 4 0 C4 6.93 4 13.86 4 21 C2.35 21.66 0.7 22.32 -1 23 C-1.02902429 19.72918529 -1.04680684 16.4584037 -1.0625 13.1875 C-1.07087891 12.25873047 -1.07925781 11.32996094 -1.08789062 10.37304688 C-1.09111328 9.48037109 -1.09433594 8.58769531 -1.09765625 7.66796875 C-1.10289307 6.84578857 -1.10812988 6.0236084 -1.11352539 5.17651367 C-1 3 -1 3 0 0 Z " fill="#34464E" transform="translate(17,53)"/>
<path d="M0 0 C1.32 0 2.64 0 4 0 C4.84191782 2.9248633 5.11819313 5.50741656 5.09765625 8.546875 C5.09282227 9.81337891 5.09282227 9.81337891 5.08789062 11.10546875 C5.07951172 11.97816406 5.07113281 12.85085937 5.0625 13.75 C5.05798828 14.63816406 5.05347656 15.52632812 5.04882812 16.44140625 C5.037074 18.62767329 5.02064249 20.81380179 5 23 C3.68 23 2.36 23 1 23 C0.15808218 20.0751367 -0.11819313 17.49258344 -0.09765625 14.453125 C-0.09443359 13.60878906 -0.09121094 12.76445313 -0.08789062 11.89453125 C-0.07951172 11.02183594 -0.07113281 10.14914063 -0.0625 9.25 C-0.05798828 8.36183594 -0.05347656 7.47367188 -0.04882812 6.55859375 C-0.037074 4.37232671 -0.02064249 2.18619821 0 0 Z " fill="#243A42" transform="translate(155,51)"/>
<path d="M0 0 C1.65 0 3.3 0 5 0 C4.67 7.26 4.34 14.52 4 22 C4.66 22.33 5.32 22.66 6 23 C3.03 23 0.06 23 -3 23 C-3.33 22.34 -3.66 21.68 -4 21 C-3.34 21 -2.68 21 -2 21 C-0.85345518 18.70691037 -0.80270883 17.20090344 -0.68359375 14.6484375 C-0.64169922 13.79765625 -0.59980469 12.946875 -0.55664062 12.0703125 C-0.51732422 11.18085937 -0.47800781 10.29140625 -0.4375 9.375 C-0.39431641 8.4778125 -0.35113281 7.580625 -0.30664062 6.65625 C-0.20043139 4.43765717 -0.09838806 2.2189512 0 0 Z " fill="#9FB1B7" transform="translate(12,54)"/>
<path d="M0 0 C1.65 0 3.3 0 5 0 C5.11644156 3.08301416 5.18732432 6.16546123 5.25 9.25 C5.30027344 10.55904297 5.30027344 10.55904297 5.3515625 11.89453125 C5.45112665 18.41598332 5.45112665 18.41598332 2.984375 21.609375 C2.32953125 22.06828125 1.6746875 22.5271875 1 23 C0.34 22.67 -0.32 22.34 -1 22 C-0.67 14.74 -0.34 7.48 0 0 Z " fill="#93A5A9" transform="translate(41,54)"/>
<path d="M0 0 C1.65 0 3.3 0 5 0 C5.93854006 7.03905044 6.10808032 13.90272572 6 21 C4.02 21.99 4.02 21.99 2 23 C1.0699111 20.2097333 0.81301231 18.23470458 0.68359375 15.33203125 C0.64169922 14.43935547 0.59980469 13.54667969 0.55664062 12.62695312 C0.51732422 11.69818359 0.47800781 10.76941406 0.4375 9.8125 C0.39431641 8.87212891 0.35113281 7.93175781 0.30664062 6.96289062 C0.20061335 4.64207146 0.09854971 2.32114675 0 0 Z " fill="#1D3439" transform="translate(135,51)"/>
<path d="M0 0 C1.65 0 3.3 0 5 0 C5 6.27 5 12.54 5 19 C3.35 19.66 1.7 20.32 0 21 C0 14.07 0 7.14 0 0 Z " fill="#36484F" transform="translate(116,51)"/>
<path d="M0 0 C1.65 0 3.3 0 5 0 C5 6.93 5 13.86 5 21 C2.525 20.01 2.525 20.01 0 19 C0 12.73 0 6.46 0 0 Z " fill="#31434C" transform="translate(76,52)"/>
<path d="M0 0 C1.32 0.33 2.64 0.66 4 1 C4 6.61 4 12.22 4 18 C4.99 17.67 5.98 17.34 7 17 C5.125 20.875 5.125 20.875 4 22 C1.32941149 22.14115161 -1.32432238 22.04247107 -4 22 C-2.68 21.67 -1.36 21.34 0 21 C0 14.07 0 7.14 0 0 Z " fill="#A9B7BE" transform="translate(112,54)"/>
<path d="M0 0 C1.32 0 2.64 0 4 0 C5.17402193 7.33763707 5.09377123 14.58165418 5 22 C2.525 21.01 2.525 21.01 0 20 C0 13.4 0 6.8 0 0 Z " fill="#2C4244" transform="translate(126,51)"/>
<path d="M0 0 C1.65 0 3.3 0 5 0 C5 6.27 5 12.54 5 19 C3.35 19.33 1.7 19.66 0 20 C0 13.4 0 6.8 0 0 Z " fill="#344B53" transform="translate(46,52)"/>
<path d="M0 0 C1.32 0 2.64 0 4 0 C4.69676279 3.31062241 5.38084992 6.62373573 6.0625 9.9375 C6.26166016 10.88302734 6.46082031 11.82855469 6.66601562 12.80273438 C6.84970703 13.70185547 7.03339844 14.60097656 7.22265625 15.52734375 C7.48187866 16.77632446 7.48187866 16.77632446 7.74633789 18.05053711 C7.83004639 18.69385986 7.91375488 19.33718262 8 20 C6.41727399 21.58272601 4.61965997 21.34735747 2.4375 21.5625 C1.19806641 21.68818359 1.19806641 21.68818359 -0.06640625 21.81640625 C-0.70449219 21.87699219 -1.34257812 21.93757813 -2 22 C-1.505 20.515 -1.505 20.515 -1 19 C0.32 19.33 1.64 19.66 3 20 C2.68289062 19.16210938 2.36578125 18.32421875 2.0390625 17.4609375 C0.92971749 13.7659011 0.59270398 10.47110373 0.375 6.625 C0.30023438 5.37976562 0.22546875 4.13453125 0.1484375 2.8515625 C0.07496094 1.44003906 0.07496094 1.44003906 0 0 Z " fill="#9AAEB5" transform="translate(177,52)"/>
<path d="M0 0 C0.99 0 1.98 0 3 0 C3.28307925 7.24997422 2.50974035 13.90961228 1 21 C-0.65 21.33 -2.3 21.66 -4 22 C-1.9 3.8 -1.9 3.8 0 0 Z " fill="#7F96A1" transform="translate(80,25)"/>
<path d="M0 0 C1.32 0 2.64 0 4 0 C4.99 6.93 5.98 13.86 7 21 C2 20 2 20 1 19 C0.09015894 12.63111261 -0.12074853 6.42650535 0 0 Z " fill="#1A2C34" transform="translate(173,51)"/>
<path d="M0 0 C1.65 0 3.3 0 5 0 C5 6.27 5 12.54 5 19 C2.36 18.67 -0.28 18.34 -3 18 C-2.01 17.67 -1.02 17.34 0 17 C0 11.39 0 5.78 0 0 Z " fill="#A2AFB8" transform="translate(51,54)"/>
<path d="M0 0 C0 4.29 0 8.58 0 13 C-0.66 12.67 -1.32 12.34 -2 12 C-1.98839844 12.59167969 -1.97679687 13.18335938 -1.96484375 13.79296875 C-1.91677614 18.00231785 -1.93993117 21.8922333 -3 26 C-3.33 26 -3.66 26 -4 26 C-5.71192542 18.23519542 -6.22049938 10.93797782 -6 3 C-6 2.01 -6 1.02 -6 0 C-3 -1 -3 -1 0 0 Z " fill="#EFF1F0" transform="translate(192,43)"/>
<path d="M0 0 C0.99 0.33 1.98 0.66 3 1 C1.625 2.5 1.625 2.5 0 4 C-0.66 4 -1.32 4 -2 4 C-2.23460938 4.56976563 -2.46921875 5.13953125 -2.7109375 5.7265625 C-5.34881609 10.37882111 -9.96489095 13.5784163 -14 17 C-14.75796875 17.64453125 -15.5159375 18.2890625 -16.296875 18.953125 C-20.20938315 22.10078193 -20.20938315 22.10078193 -22 23 C-24.2265625 22.6484375 -24.2265625 22.6484375 -26 22 C-24.7315625 20.93072266 -24.7315625 20.93072266 -23.4375 19.83984375 C-15.92376199 13.50359517 -15.92376199 13.50359517 -8.5 7.0625 C-7.88769531 6.52753906 -7.27539062 5.99257813 -6.64453125 5.44140625 C-5.1530753 4.13416814 -3.66980551 2.8176049 -2.1875 1.5 C-1.465625 1.005 -0.74375 0.51 0 0 Z " fill="#627885" transform="translate(44,25)"/>
<path d="M0 0 C2.475 0.495 2.475 0.495 5 1 C5.07347656 2.71509766 5.07347656 2.71509766 5.1484375 4.46484375 C5.22345189 5.95575473 5.29900028 7.44663892 5.375 8.9375 C5.4059375 9.69224609 5.436875 10.44699219 5.46875 11.22460938 C5.5726315 13.15507395 5.77895614 15.07942081 6 17 C6.66 17.33 7.32 17.66 8 18 C7.360625 18.28875 6.72125 18.5775 6.0625 18.875 C3.84793921 19.82823451 3.84793921 19.82823451 3 22 C2.34 22 1.68 22 1 22 C0.67 14.74 0.34 7.48 0 0 Z " fill="#9DADB6" transform="translate(159,52)"/>
<path d="M0 0 C1.32 0 2.64 0 4 0 C4 5.94 4 11.88 4 18 C2.35 18.33 0.7 18.66 -1 19 C-1.02683987 16.02077407 -1.04676037 13.04178705 -1.0625 10.0625 C-1.07087891 9.21236328 -1.07925781 8.36222656 -1.08789062 7.48632812 C-1.09111328 6.67744141 -1.09433594 5.86855469 -1.09765625 5.03515625 C-1.10289307 4.2862915 -1.10812988 3.53742676 -1.11352539 2.76586914 C-1 1 -1 1 0 0 Z " fill="#9FB0B7" transform="translate(72,53)"/>
<path d="M0 0 C1.32 0 2.64 0 4 0 C4 6.27 4 12.54 4 19 C2.35 19 0.7 19 -1 19 C-1.02714735 16.77090129 -1.04646254 14.54170633 -1.0625 12.3125 C-1.07990234 10.45044922 -1.07990234 10.45044922 -1.09765625 8.55078125 C-1.01478673 5.53764546 -0.70839449 2.91724661 0 0 Z " fill="#374851" transform="translate(27,53)"/>
<path d="M0 0 C1.98 0.495 1.98 0.495 4 1 C4 1.66 4 2.32 4 3 C5.93009324 4.3245153 7.92233397 5.5589053 9.9375 6.75 C11.13755329 7.46735576 12.33676932 8.18611394 13.53515625 8.90625 C14.12699707 9.26074219 14.71883789 9.61523438 15.32861328 9.98046875 C17.55570141 11.33897299 19.71738109 12.78416531 21.875 14.25 C25.49007082 16.69568562 29.18119165 18.88746772 33 21 C33 21.33 33 21.66 33 22 C31.35 22 29.7 22 28 22 C28 21.34 28 20.68 28 20 C27.17371094 19.76796875 26.34742188 19.5359375 25.49609375 19.296875 C21.31198035 17.7447793 17.81531346 15.63589465 14.0625 13.25 C13.38509766 12.83234375 12.70769531 12.4146875 12.00976562 11.984375 C7.31088015 9.02898778 3.11619577 5.72076394 -1 2 C-0.67 1.34 -0.34 0.68 0 0 Z " fill="#B8D3DA" transform="translate(139,25)"/>
<path d="M0 0 C3.35998591 0.60345645 5.21216853 1.75773496 7.8125 3.9375 C12.586213 7.78829515 17.61793735 11.1328 22.77075195 14.44702148 C26.22426468 16.69731688 29.19898501 18.93087778 32 22 C21.09127393 20.30693493 8.68183654 10.74392169 1.75 2.4375 C1.1725 1.633125 0.595 0.82875 0 0 Z " fill="#BED7E0" transform="translate(131,25)"/>
<path d="M0 0 C1.65 0 3.3 0 5 0 C5 5.94 5 11.88 5 18 C4.01 17.67 3.02 17.34 2 17 C1.67 17.66 1.34 18.32 1 19 C0.01 18.67 -0.98 18.34 -2 18 C-1.34 18 -0.68 18 0 18 C0 12.06 0 6.12 0 0 Z " fill="#94A4AD" transform="translate(31,54)"/>
<path d="M0 0 C1.32 0.33 2.64 0.66 4 1 C-4.64762151 13.05946225 -4.64762151 13.05946225 -9 18 C-9.825 18.94875 -10.65 19.8975 -11.5 20.875 C-14 23 -14 23 -16.8125 23.3125 C-17.534375 23.209375 -18.25625 23.10625 -19 23 C-16.28439947 19.76180968 -13.59173368 16.57656102 -10.5625 13.625 C-6.63055136 9.59715017 -2.53227141 5.06454283 0 0 Z " fill="#5C727F" transform="translate(55,25)"/>
<path d="M0 0 C0.99 0 1.98 0 3 0 C1.37756712 3.90689297 -1.27759832 6.75995827 -4.125 9.8125 C-4.61492432 10.33932373 -5.10484863 10.86614746 -5.60961914 11.40893555 C-14.73798766 21.11834923 -14.73798766 21.11834923 -18 23 C-20.22265625 22.66796875 -20.22265625 22.66796875 -22 22 C-21.19175781 21.26394531 -20.38351563 20.52789062 -19.55078125 19.76953125 C-18.47129779 18.78391591 -17.39187388 17.79823535 -16.3125 16.8125 C-15.51682617 16.08836914 -15.51682617 16.08836914 -14.70507812 15.34960938 C-8.1518729 9.38527201 -8.1518729 9.38527201 -2.375 2.6875 C-1.59125 1.800625 -0.8075 0.91375 0 0 Z " fill="#637986" transform="translate(49,25)"/>
<path d="M0 0 C0.99 0 1.98 0 3 0 C3.8393758 3.10256512 4.6704505 6.20729444 5.5 9.3125 C5.73847656 10.19357422 5.97695312 11.07464844 6.22265625 11.98242188 C6.44824219 12.82998047 6.67382812 13.67753906 6.90625 14.55078125 C7.11572266 15.33106689 7.32519531 16.11135254 7.54101562 16.9152832 C8 19 8 19 8 22 C6.35 22 4.7 22 3 22 C2.49465273 19.27172635 1.99556155 16.54255306 1.5 13.8125 C1.35691406 13.04357422 1.21382813 12.27464844 1.06640625 11.48242188 C0.36761285 7.60578227 -0.19039017 3.958529 0 0 Z " fill="#6C818B" transform="translate(92,25)"/>
<path d="M0 0 C0.66 0 1.32 0 2 0 C-0.24522945 8.85261899 -4.94633915 17.06079038 -12 23 C-13.32 23 -14.64 23 -16 23 C-15.505 21.515 -15.505 21.515 -15 20 C-14.34 20 -13.68 20 -13 20 C-12.73960938 19.42894531 -12.47921875 18.85789062 -12.2109375 18.26953125 C-10.90323256 15.81863908 -9.376985 13.84114095 -7.625 11.6875 C-4.65578788 7.94344129 -2.24167604 4.21435096 0 0 Z " fill="#5C7781" transform="translate(62,25)"/>
<path d="M0 0 C1.65 0 3.3 0 5 0 C5.33 5.94 5.66 11.88 6 18 C4.35 18 2.7 18 1 18 C0.22959149 11.93303301 -0.09706112 6.11485027 0 0 Z " fill="#293F45" transform="translate(145,51)"/>
<path d="M0 0 C1.32 0 2.64 0 4 0 C4.33808686 2.06172613 4.67027361 4.1244203 5 6.1875 C5.185625 7.33605469 5.37125 8.48460937 5.5625 9.66796875 C5.93489477 12.50415393 6.08596021 15.14719564 6 18 C4.02 18.99 4.02 18.99 2 20 C0.2120463 13.1834265 -0.23668569 7.03482474 0 0 Z " fill="#23333A" transform="translate(182,51)"/>
<path d="M0 0 C1.65 0 3.3 0 5 0 C5.33 0.66 5.66 1.32 6 2 C5.01 2 4.02 2 3 2 C12.30030794 7.86291028 12.30030794 7.86291028 22.01171875 13 C24.56456139 14.28394443 27.03017852 15.68801296 29.5 17.125 C30.78390625 17.87136719 30.78390625 17.87136719 32.09375 18.6328125 C32.7228125 19.08398438 33.351875 19.53515625 34 20 C34 20.66 34 21.32 34 22 C32.68 22 31.36 22 30 22 C30 21.34 30 20.68 30 20 C29.33355469 19.75636719 28.66710937 19.51273438 27.98046875 19.26171875 C24.27003407 17.69098428 20.81807869 15.7920575 17.3125 13.8125 C16.60931641 13.41683838 15.90613281 13.02117676 15.18164062 12.61352539 C9.54747426 9.40073369 4.19703275 5.88528169 -1 2 C-0.67 1.34 -0.34 0.68 0 0 Z " fill="#C5D9E3" transform="translate(145,25)"/>
<path d="M0 0 C0.99 0 1.98 0 3 0 C4.76171875 2.52734375 4.76171875 2.52734375 6.6875 5.9375 C10.17349078 11.93192425 14.15398071 17.01220887 19 22 C17 23 17 23 15.0859375 22.8046875 C7.87068596 20.02127586 3.07832647 8.59641386 0 2 C0 1.34 0 0.68 0 0 Z " fill="#BBDBE2" transform="translate(107,25)"/>
<path d="M0 0 C1.32 0 2.64 0 4 0 C5.32594359 5.96674616 5.0884587 11.92583615 5 18 C3.35 18 1.7 18 0 18 C0 12.06 0 6.12 0 0 Z " fill="#33494E" transform="translate(96,52)"/>
<path d="M0 0 C2.60946865 0.36634009 3.75092802 0.72177456 5.53515625 2.71484375 C6.03917969 3.44832031 6.54320313 4.18179687 7.0625 4.9375 C11.35883285 10.77225771 16.54252987 15.27282424 22 20 C19.69779817 20.82149052 18.50499631 21.21390673 16.2109375 20.2421875 C9.55421084 15.28505062 4.61249388 8.84312616 0 2 C0 1.34 0 0.68 0 0 Z " fill="#59737B" transform="translate(116,25)"/>
<path d="M0 0 C0.99 0 1.98 0 3 0 C3.54269531 1.09699219 4.08539063 2.19398437 4.64453125 3.32421875 C5.3670797 4.77869939 6.08974196 6.2331235 6.8125 7.6875 C7.16892578 8.40873047 7.52535156 9.12996094 7.89257812 9.87304688 C9.43643076 12.97491593 10.97448316 15.95951182 12.82421875 18.89453125 C13.21222656 19.58933594 13.60023437 20.28414062 14 21 C13.67 21.66 13.34 22.32 13 23 C7.90234475 20.9609379 6.34219093 17.50918027 4.13671875 12.78515625 C2.43261538 8.60981019 1.14092837 4.35964499 0 0 Z " fill="#C4DBE5" transform="translate(101,25)"/>
<path d="M0 0 C1.32 0 2.64 0 4 0 C5.13480527 3.60993172 5.10015767 6.9842327 5.0625 10.75 C5.05347656 11.92046875 5.04445313 13.0909375 5.03515625 14.296875 C5.02355469 15.18890625 5.01195313 16.0809375 5 17 C3.35 17 1.7 17 0 17 C0 11.39 0 5.78 0 0 Z " fill="#9FAEB5" transform="translate(121,53)"/>
<path d="M0 0 C1.32 0 2.64 0 4 0 C4.90413673 3.83724172 5.10576898 7.37502274 5.0625 11.3125 C5.05347656 12.38113281 5.04445312 13.44976562 5.03515625 14.55078125 C5.02355469 15.35902344 5.01195312 16.16726562 5 17 C3.68 17.33 2.36 17.66 1 18 C-0.2062252 14.38132441 -0.10816918 11.07493749 -0.0625 7.3125 C-0.05798828 6.61060547 -0.05347656 5.90871094 -0.04882812 5.18554688 C-0.03706927 3.45699462 -0.01913454 1.72848635 0 0 Z " fill="#33434B" transform="translate(164,51)"/>
<path d="M0 0 C3.63078076 0.58221874 5.32248525 1.97031203 7.9375 4.5 C12.7004719 8.89841831 17.80297801 12.42870281 23.1796875 16.01953125 C25.3926069 17.5734788 27.20062085 19.00558325 29 21 C17.66408576 19.66059803 8.82004289 9.76851049 1 2 C0.67 1.34 0.34 0.68 0 0 Z " fill="#617A7F" transform="translate(128,25)"/>
<path d="M0 0 C2.98110356 0.33197144 3.91806537 0.90910631 5.96484375 3.1796875 C6.61582031 4.06914062 7.26679687 4.95859375 7.9375 5.875 C10.680354 9.61575118 13.00763456 11.68095642 17 14 C17 14.66 17 15.32 17 16 C17.598125 16.268125 18.19625 16.53625 18.8125 16.8125 C20.97224808 17.98493467 22.35790256 19.19369282 24 21 C17.75946581 21 14.4831283 17.07141243 10 13 C1.44252442 4.32757325 1.44252442 4.32757325 0 0 Z " fill="#BDD8E1" transform="translate(119,25)"/>
<path d="M0 0 C0.99 0 1.98 0 3 0 C4.1492567 2.74861395 5.29451341 5.49877984 6.4375 8.25 C6.76298828 9.02730469 7.08847656 9.80460937 7.42382812 10.60546875 C7.89272461 11.73662109 7.89272461 11.73662109 8.37109375 12.890625 C8.65911865 13.58188477 8.94714355 14.27314453 9.24389648 14.98535156 C9.98946031 16.97191686 10.52784696 18.93306394 11 21 C8.671875 20.8828125 8.671875 20.8828125 6 20 C4.453125 17.3046875 4.453125 17.3046875 3.25 13.875 C2.83878906 12.70324219 2.42757812 11.53148437 2.00390625 10.32421875 C0.94409404 6.81487949 0.25438934 3.64624722 0 0 Z " fill="#677D88" transform="translate(98,25)"/>
<path d="M0 0 C1.32 0 2.64 0 4 0 C3.37798054 2.54242904 2.75248241 5.08391875 2.125 7.625 C1.95097656 8.33785156 1.77695313 9.05070312 1.59765625 9.78515625 C0.57145662 13.92796216 -0.58790729 17.96726678 -2 22 C-3.65 22 -5.3 22 -7 22 C-5.54649715 17.54671467 -4.06753502 13.11890812 -2.375 8.75 C-1.2867665 5.78209047 -0.48557935 3.10770783 0 0 Z " fill="#5F727D" transform="translate(73,25)"/>
<path d="M0 0 C1.32 0 2.64 0 4 0 C5.6277833 6.14778871 6.20190089 11.64012196 6 18 C4.02 17.67 2.04 17.34 0 17 C0 11.39 0 5.78 0 0 Z " fill="#9DADB5" transform="translate(168,52)"/>
<path d="M0 0 C0.99 0 1.98 0 3 0 C3.53109375 1.03640625 4.0621875 2.0728125 4.609375 3.140625 C5.32252374 4.51062127 6.03608736 5.88040164 6.75 7.25 C7.09804687 7.93191406 7.44609375 8.61382812 7.8046875 9.31640625 C9.82254171 13.16527632 11.81282799 15.98510756 15 19 C15 19.66 15 20.32 15 21 C12.7265625 21.33984375 12.7265625 21.33984375 10 21 C5.01110902 14.9827866 2.11103402 7.4507083 0 0 Z " fill="#59727B" transform="translate(104,25)"/>
<path d="M0 0 C5.47196331 1.16424751 9.16804886 3.29139318 13.73828125 6.48046875 C19.09296679 10.0780036 25.06488652 12.52703605 31 15 C31 15.66 31 16.32 31 17 C32.98 17.66 34.96 18.32 37 19 C34.37389868 20.01890305 33.30604938 20.1267116 30.66015625 19.03125 C29.80292969 18.5259375 28.94570312 18.020625 28.0625 17.5 C27.09699219 16.943125 26.13148438 16.38625 25.13671875 15.8125 C24.10160156 15.214375 23.06648438 14.61625 22 14 C19.7945276 12.827934 17.58615497 11.66131 15.375 10.5 C10.06152509 7.64329306 4.79050805 4.68881499 0 1 C0 0.67 0 0.34 0 0 Z " fill="#55666E" transform="translate(147,26)"/>
<path d="M0 0 C1.8203125 0.20703125 1.8203125 0.20703125 4 1 C5.4921875 3.07421875 5.4921875 3.07421875 6.875 5.6875 C8.77044946 9.06739586 10.56299099 11.82726502 13.375 14.5 C14.24125 15.325 15.1075 16.15 16 17 C16 17.66 16 18.32 16 19 C16.66 19 17.32 19 18 19 C18 19.66 18 20.32 18 21 C14.54369807 20.71959455 13.20636024 20.20114034 10.68359375 17.7421875 C0 4.10434783 0 4.10434783 0 0 Z " fill="#546E76" transform="translate(110,25)"/>
<path d="M0 0 C0.99 0 1.98 0 3 0 C3.33 7.26 3.66 14.52 4 22 C2.35 22 0.7 22 -1 22 C-0.67 14.74 -0.34 7.48 0 0 Z " fill="#546974" transform="translate(86,25)"/>
<path d="M0 0 C1.65 0 3.3 0 5 0 C4.67 5.61 4.34 11.22 4 17 C3.01 17 2.02 17 1 17 C0.67 18.32 0.34 19.64 0 21 C0 14.07 0 7.14 0 0 Z " fill="#9DABB2" transform="translate(91,53)"/>
<path d="M0 0 C0.99 0 1.98 0 3 0 C4.97265625 2.265625 4.97265625 2.265625 7.0625 5.25 C7.75472656 6.22453125 8.44695312 7.1990625 9.16015625 8.203125 C11 11 11 11 12.125 13.29296875 C13.30180091 15.58878123 14.69105123 15.95047783 17 17 C18.75 18.5 18.75 18.5 20 20 C20 20.66 20 21.32 20 22 C15.49250966 20.58336018 13.16650875 18.46808102 10 15 C9.12601563 14.07960938 9.12601563 14.07960938 8.234375 13.140625 C4.3900741 8.97327361 1.89468067 5.34968659 0 0 Z " fill="#C9E2EA" transform="translate(113,25)"/>
<path d="M0 0 C0.99 0 1.98 0 3 0 C1.4719611 5.09882455 -0.71036856 9.65665659 -3.125 14.375 C-3.49753906 15.11105469 -3.87007813 15.84710938 -4.25390625 16.60546875 C-5.1656122 18.40550358 -6.08229932 20.20301402 -7 22 C-8.32 22 -9.64 22 -11 22 C-9.75298225 17.46538999 -7.84131769 13.99459218 -5.30859375 10.1015625 C-3.28477515 6.85137024 -1.66201797 3.44714839 0 0 Z " fill="#607581" transform="translate(68,25)"/>
<path d="M0 0 C1.32 0 2.64 0 4 0 C4 5.94 4 11.88 4 18 C3.01 18 2.02 18 1 18 C1 18.66 1 19.32 1 20 C0.34 19.67 -0.32 19.34 -1 19 C-0.67 12.73 -0.34 6.46 0 0 Z " fill="#A8B6BF" transform="translate(22,54)"/>
<path d="M0 0 C2.79828356 0.38597015 3.8205884 0.80136573 5.75 2.9375 C7 5 7 5 7 7 C7.598125 7.28875 8.19625 7.5775 8.8125 7.875 C11 9 11 9 14 11 C14 11.66 14 12.32 14 13 C14.57234375 13.27714844 15.1446875 13.55429687 15.734375 13.83984375 C17.97767477 14.98856794 20.10876289 16.23413994 22.25 17.5625 C22.95640625 17.99691406 23.6628125 18.43132813 24.390625 18.87890625 C24.92171875 19.24886719 25.4528125 19.61882813 26 20 C26 20.33 26 20.66 26 21 C21.33174173 21.70731186 18.96719769 19.92277529 15.35546875 17.2890625 C14.90816406 16.86367188 14.46085938 16.43828125 14 16 C14 15.34 14 14.68 14 14 C13.27425781 13.78472656 12.54851562 13.56945313 11.80078125 13.34765625 C8.25470587 11.64138567 6.61003592 9.51890141 4.1875 6.4375 C3.39730469 5.44621094 2.60710937 4.45492188 1.79296875 3.43359375 C0 1 0 1 0 0 Z " fill="#58717B" transform="translate(122,25)"/>
<path d="M0 0 C0 3 0 3 -1.875 5.125 C-2.90808071 6.0925828 -3.95171687 7.04890868 -5 8 C-5.82113281 8.76699219 -6.64226563 9.53398438 -7.48828125 10.32421875 C-14.7299843 17 -14.7299843 17 -17 17 C-17 17.66 -17 18.32 -17 19 C-18.65 19 -20.3 19 -22 19 C-18.14383584 15.03386918 -14.08531382 11.39791461 -9.875 7.8125 C-8.94494141 7.01295898 -8.94494141 7.01295898 -7.99609375 6.19726562 C-5.3848693 3.96508989 -2.86578179 1.91052119 0 0 Z " fill="#C3D9E5" transform="translate(43,30)"/>
<path d="M0 0 C3.37873019 0.64789617 5.79968188 1.94156321 8.703125 3.765625 C9.60160156 4.32636719 10.50007812 4.88710938 11.42578125 5.46484375 C12.35777344 6.05394531 13.28976563 6.64304687 14.25 7.25 C15.16652344 7.82363281 16.08304688 8.39726563 17.02734375 8.98828125 C19.68775077 10.65435641 22.34391311 12.32704961 25 14 C27.66536121 15.66876633 30.33262374 17.3344552 33 19 C30 20 30 20 27.64453125 18.91796875 C26.70996094 18.34691406 25.77539062 17.77585937 24.8125 17.1875 C23.75933594 16.54683594 22.70617187 15.90617187 21.62109375 15.24609375 C21.04601074 14.8888623 20.47092773 14.53163086 19.87841797 14.16357422 C17.83512408 12.89786864 15.77936642 11.65393023 13.72265625 10.41015625 C12.27282235 9.52444366 10.82359717 8.63773383 9.375 7.75 C8.67608643 7.32614014 7.97717285 6.90228027 7.25708008 6.46557617 C4.10731238 4.51058805 2.08326346 3.1248952 0 0 Z " fill="#566D76" transform="translate(141,26)"/>
<path d="M0 0 C0.66 0 1.32 0 2 0 C1.17060402 7.25721484 -4.01413239 11.05967564 -9.1953125 15.64453125 C-11 17 -11 17 -13 17 C-13 17.66 -13 18.32 -13 19 C-13.99 19 -14.98 19 -16 19 C-14.35305751 14.72824292 -11.22947516 12.04129983 -8 8.9375 C-3.67183338 4.75878134 -3.67183338 4.75878134 0 0 Z " fill="#BED5E1" transform="translate(48,30)"/>
<path d="M0 0 C3.65827807 0.59457341 5.54469873 2.09072221 8.3125 4.5 C13.22210225 8.56690932 18.39410452 11.78394228 23.90942383 14.94140625 C26.95374802 16.69852763 29.69905631 18.30849023 32 21 C27.63453196 20.49750008 24.94490837 19.63513116 21.4375 17 C18.5106486 14.84267032 15.58891206 12.70245925 12.5703125 10.67578125 C11.98838135 10.28326172 11.4064502 9.89074219 10.80688477 9.48632812 C9.13392654 8.36056421 7.45957203 7.23687611 5.78515625 6.11328125 C3.28841522 4.2188396 1.68964577 2.60805949 0 0 Z " fill="#597178" transform="translate(134,25)"/>
<path d="M0 0 C0.33 0 0.66 0 1 0 C0.73556886 5.94970065 0.21548594 10.43322356 -4 15 C-6.640625 15.15234375 -6.640625 15.15234375 -9 15 C-8.07487334 13.01501949 -7.13449763 11.03713982 -6.1875 9.0625 C-5.66542969 7.96035156 -5.14335938 6.85820313 -4.60546875 5.72265625 C-3 3 -3 3 0 2 C0 1.34 0 0.68 0 0 Z " fill="#C1D8E2" transform="translate(69,33)"/>
<path d="M0 0 C0.671875 1.68359375 0.671875 1.68359375 1 4 C-0.109375 6.47265625 -0.109375 6.47265625 -1.75 9.0625 C-2.28109375 9.91972656 -2.8121875 10.77695312 -3.359375 11.66015625 C-4.77979959 13.68595227 -6.18457571 15.33221563 -8 17 C-8.66 16.67 -9.32 16.34 -10 16 C-9.34499943 12.22253096 -7.61906764 9.51493069 -5.5625 6.3125 C-4.94503906 5.33925781 -4.32757813 4.36601563 -3.69140625 3.36328125 C-2 1 -2 1 0 0 Z " fill="#C8E2EC" transform="translate(63,31)"/>
<path d="M0 0 C1.32 0 2.64 0 4 0 C4.05423638 1.91635217 4.09289963 3.83314925 4.125 5.75 C4.14820313 6.81734375 4.17140625 7.8846875 4.1953125 8.984375 C4.00487687 11.92470106 3.52670104 13.52361878 2 16 C-0.42130331 12.36804504 -0.21022785 10.61650652 -0.125 6.3125 C-0.09792969 4.54326172 -0.09792969 4.54326172 -0.0703125 2.73828125 C-0.04710937 1.83464844 -0.02390625 0.93101563 0 0 Z " fill="#A3B5BF" transform="translate(150,52)"/>
<path d="M0 0 C0.33 0 0.66 0 1 0 C1.05807043 3.10408807 1.09361914 6.2080364 1.125 9.3125 C1.14175781 10.19357422 1.15851562 11.07464844 1.17578125 11.98242188 C1.18222656 12.82998047 1.18867188 13.67753906 1.1953125 14.55078125 C1.20578613 15.33106689 1.21625977 16.11135254 1.22705078 16.9152832 C1 19 1 19 -1 22 C-2.984375 20.88671875 -2.984375 20.88671875 -5 19 C-5.390625 16.08203125 -5.390625 16.08203125 -5.25 12.8125 C-5.21390625 11.72582031 -5.1778125 10.63914062 -5.140625 9.51953125 C-5.09421875 8.68808594 -5.0478125 7.85664062 -5 7 C-4.67 7 -4.34 7 -4 7 C-3.67 8.98 -3.34 10.96 -3 13 C-2.67 13 -2.34 13 -2 13 C-2 14.65 -2 16.3 -2 18 C-1.34 18 -0.68 18 0 18 C0 12.06 0 6.12 0 0 Z " fill="#4C6066" transform="translate(11,54)"/>
<path d="M0 0 C0.99 0.33 1.98 0.66 3 1 C0.94423268 2.79992512 -1.11896218 4.58985409 -3.1875 6.375 C-4.0547168 7.13683594 -4.0547168 7.13683594 -4.93945312 7.9140625 C-8.14626695 10.66793652 -10.89323459 12.71615243 -15 14 C-13.44572016 9.66223861 -10.10268248 7.37649106 -6.5625 4.6875 C-5.68368164 3.98657227 -5.68368164 3.98657227 -4.78710938 3.27148438 C-3.06640625 1.94921875 -3.06640625 1.94921875 0 0 Z " fill="#BED4E0" transform="translate(29,35)"/>
<path d="M0 0 C3.96907752 -0.18041261 6.58017758 -0.07632075 10 2 C10.66 2.33 11.32 2.66 12 3 C11.67 3.33 11.34 3.66 11 4 C8.66055264 3.71269945 6.3260857 3.38063221 4 3 C4 3.66 4 4.32 4 5 C1.36 5 -1.28 5 -4 5 C-4 4.34 -4 3.68 -4 3 C-4.66 2.67 -5.32 2.34 -6 2 C-2.25 0.875 -2.25 0.875 0 2 C0 1.34 0 0.68 0 0 Z " fill="#AEBABF" transform="translate(133,45)"/>
<path d="M0 0 C2.97 0 5.94 0 9 0 C8.01 0.33 7.02 0.66 6 1 C6.30035156 1.84304687 6.60070312 2.68609375 6.91015625 3.5546875 C7.29042969 4.65039062 7.67070313 5.74609375 8.0625 6.875 C8.44535156 7.96554688 8.82820313 9.05609375 9.22265625 10.1796875 C10 13 10 13 9 15 C8.34 14.01 7.68 13.02 7 12 C6.01 12.495 6.01 12.495 5 13 C3.86235649 8.73383684 3 5.43513689 3 1 C2.01 0.67 1.02 0.34 0 0 Z " fill="#C0CFD6" transform="translate(92,24)"/>
<path d="M0 0 C0.33 0 0.66 0 1 0 C1 5.61 1 11.22 1 17 C-0.65 17.33 -2.3 17.66 -4 18 C-4 14.04 -4 10.08 -4 6 C-3.01 7.32 -2.02 8.64 -1 10 C-0.67 6.7 -0.34 3.4 0 0 Z " fill="#394B4F" transform="translate(90,58)"/>
<path d="M0 0 C0.66 0.33 1.32 0.66 2 1 C1.88541307 2.43836751 1.75790884 3.87570966 1.625 5.3125 C1.55539063 6.11300781 1.48578125 6.91351563 1.4140625 7.73828125 C1 10 1 10 -1 13 C-2.32 12.67 -3.64 12.34 -5 12 C-3.35 8.04 -1.7 4.08 0 0 Z " fill="#D2E2EE" transform="translate(75,35)"/>
<path d="M0 0 C0.99 0 1.98 0 3 0 C3 5.28 3 10.56 3 16 C2.01 16.33 1.02 16.66 0 17 C-1.14819277 11.1314592 -0.77313045 5.9114744 0 0 Z " fill="#C8DFEC" transform="translate(83,25)"/>
<path d="M0 0 C0.33 0 0.66 0 1 0 C1 3.96 1 7.92 1 12 C2.32 12.33 3.64 12.66 5 13 C1.42355152 14.2380014 -1.33694766 13.74926071 -5 13 C-4.54803755 11.39402675 -4.08817673 9.79027492 -3.625 8.1875 C-3.36976562 7.29417969 -3.11453125 6.40085937 -2.8515625 5.48046875 C-2 3 -2 3 0 0 Z " fill="#CDDFE9" transform="translate(84,35)"/>
<path d="M0 0 C7 8.20689655 7 8.20689655 7 13 C5.35 13 3.7 13 2 13 C0.54815522 8.46298506 -0.23509196 4.81938524 0 0 Z " fill="#D1E5F0" transform="translate(98,34)"/>
<path d="M0 0 C1.32 0.33 2.64 0.66 4 1 C2.78868871 2.82448127 1.55523257 4.63427436 0.3125 6.4375 C-0.71423828 7.95150391 -0.71423828 7.95150391 -1.76171875 9.49609375 C-4.22694014 12.25387196 -5.37942004 12.75270995 -9 13 C-8.60167969 12.48050781 -8.20335937 11.96101563 -7.79296875 11.42578125 C-4.97822677 7.72073158 -2.28614026 4.06424935 0 0 Z " fill="#637E86" transform="translate(55,25)"/>
<path d="M0 0 C0.33 0 0.66 0 1 0 C1.66 5.28 2.32 10.56 3 16 C-2 15 -2 15 -3 14 C-3.04080783 12.00041636 -3.04254356 9.99954746 -3 8 C-2.34 7.67 -1.68 7.34 -1 7 C-0.59270772 4.67843403 -0.25561323 2.3431213 0 0 Z M-2 9 C-1 11 -1 11 -1 11 Z " fill="#405458" transform="translate(177,56)"/>
<path d="M0 0 C0.33 0.66 0.66 1.32 1 2 C3.12576782 2.46651207 3.12576782 2.46651207 5.5625 2.625 C6.38878906 2.69976562 7.21507813 2.77453125 8.06640625 2.8515625 C8.70449219 2.90054688 9.34257813 2.94953125 10 3 C10 3.33 10 3.66 10 4 C0.84755626 4.89191731 -7.85393643 4.98753178 -17 4 C-17 3.67 -17 3.34 -17 3 C-14.69 3 -12.38 3 -10 3 C-9.67 2.34 -9.34 1.68 -9 1 C-6.36 1.33 -3.72 1.66 -1 2 C-0.67 1.34 -0.34 0.68 0 0 Z " fill="#B3C3CB" transform="translate(75,45)"/>
<path d="M0 0 C0.33 0 0.66 0 1 0 C1 6.93 1 13.86 1 21 C-1.475 20.01 -1.475 20.01 -4 19 C-3.6875 17.0625 -3.6875 17.0625 -3 15 C-2.01 14.67 -1.02 14.34 0 14 C0 9.38 0 4.76 0 0 Z " fill="#3B4D52" transform="translate(80,52)"/>
<path d="M0 0 C0 0.66 0 1.32 0 2 C0.99 1.67 1.98 1.34 3 1 C5.35188447 1.59793673 7.68925595 2.25881795 10 3 C10 3.33 10 3.66 10 4 C3.56744599 4.12086218 -2.61773055 3.82351864 -9 3 C-9.33 4.32 -9.66 5.64 -10 7 C-10 5.35 -10 3.7 -10 2 C-6.5980513 -0.09350689 -3.94727588 -0.17942163 0 0 Z " fill="#ACB7BE" transform="translate(14,47)"/>
<path d="M0 0 C0.66 0 1.32 0 2 0 C2.07347656 0.95712891 2.07347656 0.95712891 2.1484375 1.93359375 C2.22320312 2.75988281 2.29796875 3.58617187 2.375 4.4375 C2.44460937 5.26121094 2.51421875 6.08492188 2.5859375 6.93359375 C2.72257813 7.61550781 2.85921875 8.29742187 3 9 C3.66 9.33 4.32 9.66 5 10 C4.360625 10.28875 3.72125 10.5775 3.0625 10.875 C0.84793921 11.82823451 0.84793921 11.82823451 0 14 C-0.66 13.67 -1.32 13.34 -2 13 C-1.34 8.71 -0.68 4.42 0 0 Z " fill="#A8B3B9" transform="translate(162,60)"/>
<path d="M0 0 C2.13071589 2.59391499 3.53582673 4.63474379 4 8 C2.41727399 9.58272601 0.61965997 9.34735747 -1.5625 9.5625 C-2.38878906 9.64628906 -3.21507812 9.73007813 -4.06640625 9.81640625 C-4.70449219 9.87699219 -5.34257812 9.93757813 -6 10 C-5.67 9.01 -5.34 8.02 -5 7 C-3.02 7.495 -3.02 7.495 -1 8 C-1.309375 6.8553125 -1.309375 6.8553125 -1.625 5.6875 C-2 3 -2 3 0 0 Z " fill="#BFCED4" transform="translate(181,64)"/>
<path d="M0 0 C0.33 0 0.66 0 1 0 C1.1953125 1.98567708 1.390625 3.97135417 1.5859375 5.95703125 C1.92665391 8.29988142 1.92665391 8.29988142 4 11 C4.07905064 13.33199388 4.08798769 15.66832622 4 18 C2.68 17.67 1.36 17.34 0 17 C0 11.39 0 5.78 0 0 Z " fill="#A9BBC0" transform="translate(132,56)"/>
<path d="M0 0 C0.99 0 1.98 0 3 0 C1.42219077 3.71045247 -0.90703248 6.29906384 -3.625 9.25 C-4.44226562 10.14203125 -5.25953125 11.0340625 -6.1015625 11.953125 C-6.72804687 12.62859375 -7.35453125 13.3040625 -8 14 C-8.33 13.34 -8.66 12.68 -9 12 C-6.25534114 7.73053066 -3.45952732 3.7256448 0 0 Z " fill="#566A77" transform="translate(49,25)"/>
<path d="M0 0 C1.48828125 1.08203125 1.48828125 1.08203125 3 3 C3.29296875 6.13671875 3.29296875 6.13671875 3.1875 9.6875 C3.16042969 10.86699219 3.13335938 12.04648438 3.10546875 13.26171875 C3.07066406 14.16535156 3.03585938 15.06898437 3 16 C2.34 16 1.68 16 1 16 C-0.50156874 12.99686252 -0.09281204 10.20932478 -0.0625 6.875 C-0.05347656 5.59367187 -0.04445313 4.31234375 -0.03515625 2.9921875 C-0.02355469 2.00476562 -0.01195313 1.01734375 0 0 Z " fill="#1A3037" transform="translate(17,58)"/>
<path d="M0 0 C0.66 0 1.32 0 2 0 C2 0.66 2 1.32 2 2 C2.66 2 3.32 2 4 2 C4 4.31 4 6.62 4 9 C2.35 9 0.7 9 -1 9 C-0.67 6.03 -0.34 3.06 0 0 Z " fill="#6C7F88" transform="translate(86,38)"/>
<path d="M0 0 C0 3.3 0 6.6 0 10 C-1.32 10 -2.64 10 -4 10 C-4 7.03 -4 4.06 -4 1 C-1 0 -1 0 0 0 Z " fill="#1D2F33" transform="translate(111,64)"/>
<path d="M0 0 C1.65 0 3.3 0 5 0 C5 2.64 5 5.28 5 8 C3.35 8.33 1.7 8.66 0 9 C0 6.03 0 3.06 0 0 Z " fill="#354A53" transform="translate(145,51)"/>
<path d="M0 0 C1.65 0 3.3 0 5 0 C5 7.92 5 15.84 5 24 C3.68 23.67 2.36 23.34 1 23 C1.66 22.01 2.32 21.02 3 20 C3.36433373 17.87662229 3.36433373 17.87662229 3.4140625 15.55078125 C3.45273437 14.70322266 3.49140625 13.85566406 3.53125 12.98242188 C3.5621875 12.10134766 3.593125 11.22027344 3.625 10.3125 C3.66367187 9.41982422 3.70234375 8.52714844 3.7421875 7.60742188 C3.83640218 5.4051538 3.92201588 3.20289278 4 1 C2.68 0.67 1.36 0.34 0 0 Z " fill="#41565A" transform="translate(56,52)"/>
<path d="M0 0 C1.98 0.495 1.98 0.495 4 1 C4 1.66 4 2.32 4 3 C5.78965547 4.36277086 5.78965547 4.36277086 8 5.625 C9.11375 6.29402344 9.11375 6.29402344 10.25 6.9765625 C10.8275 7.31429687 11.405 7.65203125 12 8 C11.67 8.99 11.34 9.98 11 11 C9.15830774 9.74131097 7.32682969 8.46766474 5.5 7.1875 C4.4790625 6.47980469 3.458125 5.77210937 2.40625 5.04296875 C1.6121875 4.36878906 0.818125 3.69460937 0 3 C0 2.01 0 1.02 0 0 Z " fill="#AEC3CC" transform="translate(139,25)"/>
<path d="M0 0 C0.99 0.33 1.98 0.66 3 1 C-0.63 4.3 -4.26 7.6 -8 11 C-8.99 10.34 -9.98 9.68 -11 9 C-9.23977508 7.46690087 -7.46646537 5.94881299 -5.6875 4.4375 C-4.70136719 3.59058594 -3.71523438 2.74367188 -2.69921875 1.87109375 C-1.80847656 1.25363281 -0.91773438 0.63617187 0 0 Z " fill="#B1C3CB" transform="translate(41,25)"/>
<path d="M0 0 C1.65 0 3.3 0 5 0 C4.67 6.27 4.34 12.54 4 19 C3.67 19 3.34 19 3 19 C2.92652344 17.64455078 2.92652344 17.64455078 2.8515625 16.26171875 C2.77679688 15.08222656 2.70203125 13.90273437 2.625 12.6875 C2.55539062 11.51574219 2.48578125 10.34398437 2.4140625 9.13671875 C2.21386253 5.84300113 2.21386253 5.84300113 0 3 C0 2.01 0 1.02 0 0 Z " fill="#263940" transform="translate(7,53)"/>
<path d="M0 0 C0.66 0 1.32 0 2 0 C3.17571451 3.67410785 3.07366746 7.16929183 3 11 C1.68 10.67 0.36 10.34 -1 10 C-1.125 3.375 -1.125 3.375 0 0 Z " fill="#ADB7BF" transform="translate(123,53)"/>
<path d="M0 0 C1.32 0.66 2.64 1.32 4 2 C3.09650406 3.01191545 2.17659153 4.00918926 1.25 5 C0.48429687 5.8353125 0.48429687 5.8353125 -0.296875 6.6875 C-2 8 -2 8 -6 8 C-5.67 7.01 -5.34 6.02 -5 5 C-4.34 5 -3.68 5 -3 5 C-2.5359375 4.0409375 -2.5359375 4.0409375 -2.0625 3.0625 C-1 1 -1 1 0 0 Z " fill="#68828C" transform="translate(52,40)"/>
<path d="M0 0 C0 0.66 0 1.32 0 2 C-1.2065625 2.556875 -1.2065625 2.556875 -2.4375 3.125 C-5.13237187 4.69222824 -5.13237187 4.69222824 -5.5546875 6.97265625 C-5.78761738 8.97373565 -5.90104138 10.98784139 -6 13 C-6.66 13 -7.32 13 -8 13 C-8.08131463 11.56344146 -8.13933559 10.1255517 -8.1875 8.6875 C-8.22230469 7.88699219 -8.25710937 7.08648437 -8.29296875 6.26171875 C-8 4 -8 4 -6.67578125 2.26953125 C-4.52768285 0.64218398 -2.70022249 0 0 0 Z " fill="#BBBBBB" transform="translate(36,111)"/>
<path d="M0 0 C0.66 0.33 1.32 0.66 2 1 C3.37342831 1.0689472 4.75002102 1.08467708 6.125 1.0625 C7.40375 1.041875 8.6825 1.02125 10 1 C10.33 1.99 10.66 2.98 11 4 C9.125 4.625 9.125 4.625 7 5 C6.34 4.34 5.68 3.68 5 3 C5 3.66 5 4.32 5 5 C3.02 5 1.04 5 -1 5 C-0.67 3.35 -0.34 1.7 0 0 Z " fill="#EDF3F5" transform="translate(57,75)"/>
<path d="M0 0 C0.33 0 0.66 0 1 0 C1 1.98 1 3.96 1 6 C1.66 6.33 2.32 6.66 3 7 C0.03 7 -2.94 7 -6 7 C-6.33 6.34 -6.66 5.68 -7 5 C-6.34 5 -5.68 5 -5 5 C-3.31288577 3.3540349 -1.6454378 1.68762851 0 0 Z " fill="#A4B3B7" transform="translate(15,70)"/>
<path d="M0 0 C1.81757813 0.07250977 1.81757813 0.07250977 3.671875 0.14648438 C5.57839844 0.2305957 5.57839844 0.2305957 7.5234375 0.31640625 C9.4415625 0.3947168 9.4415625 0.3947168 11.3984375 0.47460938 C14.5653345 0.60459395 17.73194037 0.73957027 20.8984375 0.87890625 C20.8984375 1.20890625 20.8984375 1.53890625 20.8984375 1.87890625 C16.44078178 2.10396849 11.98238062 2.30613055 7.5234375 2.50390625 C6.25242188 2.56835938 4.98140625 2.6328125 3.671875 2.69921875 C2.46015625 2.75078125 1.2484375 2.80234375 0 2.85546875 C-1.12067871 2.90783691 -2.24135742 2.96020508 -3.39599609 3.01416016 C-6.1015625 2.87890625 -6.1015625 2.87890625 -8.1015625 0.87890625 C-5.30455758 -0.51959621 -3.12040891 -0.13123215 0 0 Z " fill="#95A0A3" transform="translate(165.1015625,48.12109375)"/>
<path d="M0 0 C0.99 0.33 1.98 0.66 3 1 C1.625 2.5 1.625 2.5 0 4 C-0.66 4 -1.32 4 -2 4 C-2.2475 4.61875 -2.495 5.2375 -2.75 5.875 C-4.20628639 8.35068687 -5.37812506 8.95125002 -8 10 C-7.4346089 6.49304707 -6.31277274 4.97267387 -3.625 2.6875 C-3.01914062 2.15511719 -2.41328125 1.62273438 -1.7890625 1.07421875 C-0.90347656 0.54248047 -0.90347656 0.54248047 0 0 Z " fill="#5D717C" transform="translate(44,25)"/>
<path d="M0 0 C3.59905908 0.55550695 4.99909799 1.74887248 7.25 4.5625 C8.03117188 5.52349609 8.03117188 5.52349609 8.828125 6.50390625 C9.21484375 6.99761719 9.6015625 7.49132813 10 8 C9.34 8.66 8.68 9.32 8 10 C4.71211176 6.88983545 2.16264012 3.98381075 0 0 Z " fill="#B4C8D2" transform="translate(125,25)"/>
<path d="M0 0 C0.33 0.66 0.66 1.32 1 2 C1.66 2 2.32 2 3 2 C3 3.98 3 5.96 3 8 C1.02 8.99 1.02 8.99 -1 10 C-1.02689216 8.52093108 -1.04634621 7.04172517 -1.0625 5.5625 C-1.07410156 4.73878906 -1.08570313 3.91507812 -1.09765625 3.06640625 C-1 1 -1 1 0 0 Z " fill="#91ABB0" transform="translate(13,62)"/>
<path d="M0 0 C0.99 0.66 1.98 1.32 3 2 C2.67 4.31 2.34 6.62 2 9 C0.35 9 -1.3 9 -3 9 C-2.01 6.03 -1.02 3.06 0 0 Z " fill="#637E87" transform="translate(69,38)"/>
<path d="M0 0 C1.9630836 0.92751198 3.92034027 1.86736453 5.875 2.8125 C7.51082031 3.59560547 7.51082031 3.59560547 9.1796875 4.39453125 C12 6 12 6 14 9 C9.93774452 8.42176904 7.15237654 7.10882263 3.6875 4.9375 C2.80449219 4.38964844 1.92148438 3.84179688 1.01171875 3.27734375 C0.34785156 2.85582031 -0.31601563 2.43429688 -1 2 C-0.67 1.34 -0.34 0.68 0 0 Z " fill="#617783" transform="translate(160,37)"/>
<path d="M0 0 C0.99 0 1.98 0 3 0 C3.33 2.97 3.66 5.94 4 9 C3.34 8.34 2.68 7.68 2 7 C1.67 9.64 1.34 12.28 1 15 C0.67 15 0.34 15 0 15 C0 10.05 0 5.1 0 0 Z " fill="#B6CBD4" transform="translate(89,25)"/>
<path d="M0 0 C0.33 0 0.66 0 1 0 C1.33 3.63 1.66 7.26 2 11 C0.02 11.99 0.02 11.99 -2 13 C-2.33 11.35 -2.66 9.7 -3 8 C-2.01 7.67 -1.02 7.34 0 7 C0 4.69 0 2.38 0 0 Z " fill="#49545B" transform="translate(186,58)"/>
<path d="M0 0 C5.7097955 0.41778991 8.60957142 2.57546571 13 6 C10 7 10 7 7.7734375 6.07421875 C6.58621094 5.38779297 6.58621094 5.38779297 5.375 4.6875 C4.57835937 4.23761719 3.78171875 3.78773437 2.9609375 3.32421875 C1 2 1 2 0 0 Z " fill="#C7DDE3" transform="translate(150,40)"/>
<path d="M0 0 C0.99 0 1.98 0 3 0 C2.34 4.29 1.68 8.58 1 13 C0.34 13 -0.32 13 -1 13 C-0.67 8.71 -0.34 4.42 0 0 Z " fill="#536872" transform="translate(80,25)"/>
<path d="M0 0 C4.18238834 0.54769371 6.59868545 2.89888889 9.75 5.5625 C11.22726563 6.80193359 11.22726563 6.80193359 12.734375 8.06640625 C13.48203125 8.70449219 14.2296875 9.34257813 15 10 C11.45949499 10 10.39332691 9.19817345 7.5 7.25 C6.7265625 6.73953125 5.953125 6.2290625 5.15625 5.703125 C2.98397794 3.9873449 1.5474553 2.28150461 0 0 Z " fill="#4D616A" transform="translate(134,25)"/>
<path d="M0 0 C0.99 0 1.98 0 3 0 C4.60355101 3.50776784 5.22036864 6.14354879 5 10 C4.01 9.67 3.02 9.34 2 9 C1.26953125 6.93359375 1.26953125 6.93359375 0.8125 4.4375 C0.65394531 3.61121094 0.49539062 2.78492188 0.33203125 1.93359375 C0.16767578 0.97646484 0.16767578 0.97646484 0 0 Z " fill="#546D75" transform="translate(98,25)"/>
<path d="M0 0 C0.33 0 0.66 0 1 0 C1 3.96 1 7.92 1 12 C-0.98 12.99 -0.98 12.99 -3 14 C-3.33 11.69 -3.66 9.38 -4 7 C-3.67 7.66 -3.34 8.32 -3 9 C-2.01 9 -1.02 9 0 9 C0 6.03 0 3.06 0 0 Z " fill="#3C4D51" transform="translate(140,60)"/>
<path d="M0 0 C0.99 0.33 1.98 0.66 3 1 C3 4.3 3 7.6 3 11 C2.01 11 1.02 11 0 11 C0 7.37 0 3.74 0 0 Z " fill="#1C3239" transform="translate(37,65)"/>
<path d="M0 0 C2.32590854 3.63423209 2.16265833 6.77088331 2 11 C1.67 10.34 1.34 9.68 1 9 C0.01 8.67 -0.98 8.34 -2 8 C-2.125 5.125 -2.125 5.125 -2 2 C-1.34 1.34 -0.68 0.68 0 0 Z " fill="#21363F" transform="translate(119,58)"/>
<path d="M0 0 C1.65 0 3.3 0 5 0 C4.67 2.31 4.34 4.62 4 7 C2.68 7 1.36 7 0 7 C0 4.69 0 2.38 0 0 Z " fill="#ABB6C2" transform="translate(41,54)"/>
<path d="M0 0 C0.5775 0.2475 1.155 0.495 1.75 0.75 C0.12660195 2.45884005 -1.54319053 4.12446717 -3.25 5.75 C-3.91 5.75 -4.57 5.75 -5.25 5.75 C-5.25 6.41 -5.25 7.07 -5.25 7.75 C-6.24 7.75 -7.23 7.75 -8.25 7.75 C-6.64613593 4.0076505 -4.56199942 -0.50688882 0 0 Z " fill="#CCE0EC" transform="translate(40.25,41.25)"/>
<path d="M0 0 C1.65 0 3.3 0 5 0 C5.33 0.66 5.66 1.32 6 2 C5.01 2 4.02 2 3 2 C5.64 3.65 8.28 5.3 11 7 C10.34 7.66 9.68 8.32 9 9 C5.7 6.69 2.4 4.38 -1 2 C-0.67 1.34 -0.34 0.68 0 0 Z " fill="#AFC1C7" transform="translate(145,25)"/>
<path d="M0 0 C1.32 0 2.64 0 4 0 C4.20140476 3.62528568 3.85776765 5.86501708 2 9 C1.34 9 0.68 9 0 9 C0 6.03 0 3.06 0 0 Z " fill="#9AABB3" transform="translate(41,61)"/>
<path d="M0 0 C0.33 0 0.66 0 1 0 C1 1.65 1 3.3 1 5 C4.3 5 7.6 5 11 5 C10.67 5.66 10.34 6.32 10 7 C5.05 7 0.1 7 -5 7 C-4.34 5.68 -3.68 4.36 -3 3 C-3 3.66 -3 4.32 -3 5 C-2.01 5 -1.02 5 0 5 C0 3.35 0 1.7 0 0 Z " fill="#BFD0D7" transform="translate(94,42)"/>
<path d="M0 0 C0.66 0.99 1.32 1.98 2 3 C-0.64 4.98 -3.28 6.96 -6 9 C-6.66 8.01 -7.32 7.02 -8 6 C-5.36 4.02 -2.72 2.04 0 0 Z " fill="#68808D" transform="translate(35,33)"/>
<path d="M0 0 C0.99 0 1.98 0 3 0 C7 6.75 7 6.75 7 9 C6.01 9.33 5.02 9.66 4 10 C3.32845067 8.71086513 2.66291141 7.41859796 2 6.125 C1.62875 5.40570312 1.2575 4.68640625 0.875 3.9453125 C0 2 0 2 0 0 Z " fill="#B9D1D9" transform="translate(107,25)"/>
<path d="M0 0 C0.99 0 1.98 0 3 0 C2.33333333 1.33333333 1.66666667 2.66666667 1 4 C0.731875 4.721875 0.46375 5.44375 0.1875 6.1875 C-1 8 -1 8 -3.57421875 8.61328125 C-4.37472656 8.74089844 -5.17523438 8.86851563 -6 9 C-5.07544441 7.491987 -4.1349253 5.99375083 -3.1875 4.5 C-2.66542969 3.6646875 -2.14335938 2.829375 -1.60546875 1.96875 C-1.07566406 1.3190625 -0.54585937 0.669375 0 0 Z " fill="#AFC3CB" transform="translate(59,25)"/>
<path d="M0 0 C1.98 0 3.96 0 6 0 C5.360625 0.268125 4.72125 0.53625 4.0625 0.8125 C1.66868314 1.88667752 1.66868314 1.88667752 1 5 C0.67 4.67 0.34 4.34 0 4 C-0.33 4.66 -0.66 5.32 -1 6 C-2.32 5.67 -3.64 5.34 -5 5 C-5 4.34 -5 3.68 -5 3 C-3.35 2.67 -1.7 2.34 0 2 C0 1.34 0 0.68 0 0 Z " fill="#E7EBEC" transform="translate(23,72)"/>
<path d="M0 0 C0.33 0 0.66 0 1 0 C1 6.27 1 12.54 1 19 C-0.32 19 -1.64 19 -3 19 C-3 18.01 -3 17.02 -3 16 C-2.01 16 -1.02 16 0 16 C0 10.72 0 5.44 0 0 Z " fill="#41565C" transform="translate(159,55)"/>
<path d="M0 0 C0.33 0 0.66 0 1 0 C1 3.63 1 7.26 1 11 C2.32 11.33 3.64 11.66 5 12 C4.030625 12.28875 3.06125 12.5775 2.0625 12.875 C-1.10664203 13.64214682 -1.10664203 13.64214682 -2 16 C-2.66 15.67 -3.32 15.34 -4 15 C-3.67 13.68 -3.34 12.36 -3 11 C-2.01 11 -1.02 11 0 11 C0 7.37 0 3.74 0 0 Z " fill="#B7C4C9" transform="translate(95,59)"/>
<path d="M0 0 C0 1.98 0 3.96 0 6 C1.32 5.67 2.64 5.34 4 5 C3.67 5.66 3.34 6.32 3 7 C-1.55384615 7.36923077 -1.55384615 7.36923077 -3.8125 5.5 C-4.204375 5.005 -4.59625 4.51 -5 4 C-4.67 3.01 -4.34 2.02 -4 1 C-1 0 -1 0 0 0 Z " fill="#B2BFC0" transform="translate(86,70)"/>
<path d="M0 0 C1 3 1 3 1 5 C-4.61 5 -10.22 5 -16 5 C-16 4.67 -16 4.34 -16 4 C-15.14535156 3.95101562 -14.29070312 3.90203125 -13.41015625 3.8515625 C-12.30542969 3.77679688 -11.20070313 3.70203125 -10.0625 3.625 C-8.40927734 3.52058594 -8.40927734 3.52058594 -6.72265625 3.4140625 C-5.37494141 3.20910156 -5.37494141 3.20910156 -4 3 C-3.67 2.34 -3.34 1.68 -3 1 C-2.01 0.67 -1.02 0.34 0 0 Z " fill="#A2B0B4" transform="translate(128,45)"/>
<path d="M0 0 C0.33 0 0.66 0 1 0 C1 3.96 1 7.92 1 12 C0.01 12 -0.98 12 -2 12 C-2.28571429 3.42857143 -2.28571429 3.42857143 0 0 Z " fill="#97A5AA" transform="translate(25,60)"/>
<path d="M0 0 C0.33 0 0.66 0 1 0 C1.103125 0.928125 1.20625 1.85625 1.3125 2.8125 C2.0070192 6.03254358 2.47740939 7.02579865 5 9 C3.625 10.5 3.625 10.5 2 12 C1.34 12 0.68 12 0 12 C0 8.04 0 4.08 0 0 Z " fill="#41545A" transform="translate(116,60)"/>
<path d="M0 0 C1.32 0.33 2.64 0.66 4 1 C4 2.98 4 4.96 4 7 C2.68 7.33 1.36 7.66 0 8 C0 5.36 0 2.72 0 0 Z " fill="#24393B" transform="translate(46,64)"/>
<path d="M0 0 C4.9723422 1.49170266 9.41845739 3.60457417 14 6 C13.01 6.66 12.02 7.32 11 8 C9.16399255 6.85845641 7.33125195 5.71165684 5.5 4.5625 C4.4790625 3.92441406 3.458125 3.28632812 2.40625 2.62890625 C1.6121875 2.09136719 0.818125 1.55382813 0 1 C0 0.67 0 0.34 0 0 Z " fill="#BDD2DB" transform="translate(155,33)"/>
<path d="M0 0 C0.66 0 1.32 0 2 0 C0.87548273 2.9719385 -0.22293791 5.33440687 -2 8 C-3.32 7.34 -4.64 6.68 -6 6 C-5.34 5.01 -4.68 4.02 -4 3 C-3.01 3 -2.02 3 -1 3 C-0.67 2.01 -0.34 1.02 0 0 Z " fill="#F1F8F8" transform="translate(94,72)"/>
<path d="M0 0 C0.33 0 0.66 0 1 0 C1.33 5.94 1.66 11.88 2 18 C2.66 18.33 3.32 18.66 4 19 C2.68 19.33 1.36 19.66 0 20 C0 13.4 0 6.8 0 0 Z " fill="#3A5055" transform="translate(16,56)"/>
<path d="M0 0 C0.66 0 1.32 0 2 0 C1.01 2.97 0.02 5.94 -1 9 C-1.99 9 -2.98 9 -4 9 C-2.94124926 5.59687262 -1.99097846 2.98646769 0 0 Z " fill="#546B72" transform="translate(62,25)"/>
<path d="M0 0 C1.32 0 2.64 0 4 0 C2.25 5.75 2.25 5.75 0 8 C-0.66 7.67 -1.32 7.34 -2 7 C-1.34 4.69 -0.68 2.38 0 0 Z " fill="#ACBEC7" transform="translate(64,25)"/>
<path d="M0 0 C2.75457718 0.37994168 3.82020574 0.8073633 5.75 2.875 C7 5 7 5 7 8 C3.64379729 6.61122646 1.92701272 5.08322035 0 2 C0 1.34 0 0.68 0 0 Z " fill="#52666E" transform="translate(116,25)"/>
<path d="M0 0 C0.350625 0.474375 0.70125 0.94875 1.0625 1.4375 C3.84163543 3.67873825 6.5144717 3.67117658 10 4 C8.4375 5.625 8.4375 5.625 6 7 C2.25 6.1875 2.25 6.1875 -1 5 C-0.67 3.35 -0.34 1.7 0 0 Z " fill="#E2E9EE" transform="translate(6,73)"/>
<path d="M0 0 C1.485 0.99 1.485 0.99 3 2 C3.40843923 4.71203652 3.13336867 7.2437142 3 10 C2.01 10 1.02 10 0 10 C0 6.7 0 3.4 0 0 Z " fill="#1F3139" transform="translate(27,61)"/>
<path d="M0 0 C1.32 0 2.64 0 4 0 C4 1.65 4 3.3 4 5 C3.01 5 2.02 5 1 5 C1 6.65 1 8.3 1 10 C0.67 10 0.34 10 0 10 C0 6.7 0 3.4 0 0 Z " fill="#28373E" transform="translate(173,51)"/>
<path d="M0 0 C1.32 0 2.64 0 4 0 C4 1.32 4 2.64 4 4 C3.01 4 2.02 4 1 4 C1 6.97 1 9.94 1 13 C0.67 13 0.34 13 0 13 C0 8.71 0 4.42 0 0 Z " fill="#97A8B3" transform="translate(150,52)"/>
<path d="M0 0 C6.75 -0.125 6.75 -0.125 9 1 C8.67 1.66 8.34 2.32 8 3 C5.35139573 3.59355614 2.70802678 3.74209269 0 4 C0 2.68 0 1.36 0 0 Z " fill="#B7C7CD" transform="translate(151,45)"/>
<path d="M0 0 C4.41889613 1.35021826 6.34345343 3.26115668 9 7 C3.49411765 6.51058824 3.49411765 6.51058824 1.125 4.0625 C0 2 0 2 0 0 Z " fill="#CFE5EE" transform="translate(117,41)"/>
<path d="M0 0 C4.19360449 0.67097672 7.40334352 2.8558394 11 5 C11 5.33 11 5.66 11 6 C9.35 6 7.7 6 6 6 C6 5.34 6 4.68 6 4 C4.02 3.34 2.04 2.68 0 2 C0 1.34 0 0.68 0 0 Z " fill="#C5DAE4" transform="translate(161,41)"/>
<path d="M0 0 C2.71928517 0.37507382 3.84218661 0.84218661 5.8125 2.8125 C7 5 7 5 6.57421875 7.13671875 C6.38472656 7.75160156 6.19523437 8.36648437 6 9 C4.99712471 7.68969568 3.99777175 6.37669473 3 5.0625 C2.443125 4.33160156 1.88625 3.60070312 1.3125 2.84765625 C0 1 0 1 0 0 Z " fill="#BDD1DA" transform="translate(119,25)"/>
<path d="M0 0 C0.99 0 1.98 0 3 0 C4.38671875 1.75 4.38671875 1.75 5.6875 4 C6.12449219 4.7425 6.56148438 5.485 7.01171875 6.25 C7.33785156 6.8275 7.66398437 7.405 8 8 C5.6875 7.9375 5.6875 7.9375 3 7 C1.1875 3.4375 1.1875 3.4375 0 0 Z " fill="#BCD1D9" transform="translate(113,25)"/>
<path d="M0 0 C0.99 0 1.98 0 3 0 C3.33 2.64 3.66 5.28 4 8 C3.01 8.33 2.02 8.66 1 9 C0.67 6.03 0.34 3.06 0 0 Z " fill="#586C74" transform="translate(92,25)"/>
<path d="M0 0 C1.65 0 3.3 0 5 0 C5 1.65 5 3.3 5 5 C4.34 5 3.68 5 3 5 C2.67 6.32 2.34 7.64 2 9 C1.34 6.03 0.68 3.06 0 0 Z " fill="#2E4446" transform="translate(135,51)"/>
<path d="M0 0 C1.32 0 2.64 0 4 0 C3.01 3.3 2.02 6.6 1 10 C0.67 10 0.34 10 0 10 C0 6.7 0 3.4 0 0 Z " fill="#ACB9C4" transform="translate(32,54)"/>
<path d="M0 0 C0.99 0.33 1.98 0.66 3 1 C2.67 2.65 2.34 4.3 2 6 C0.35 6 -1.3 6 -3 6 C-2.01 4.02 -1.02 2.04 0 0 Z " fill="#CEE3ED" transform="translate(63,42)"/>
<path d="M0 0 C3.465 1.98 3.465 1.98 7 4 C7 4.99 7 5.98 7 7 C3.08597051 5.73058503 1.20927127 4.48832306 -1 1 C-0.67 0.67 -0.34 0.34 0 0 Z " fill="#D1E7EE" transform="translate(135,40)"/>
<path d="M0 0 C2.375 0.6875 2.375 0.6875 5 2 C6.3125 4.625 6.3125 4.625 7 7 C4.625 6.3125 4.625 6.3125 2 5 C0.6875 2.375 0.6875 2.375 0 0 Z " fill="#D2E6F1" transform="translate(108,41)"/>
<path d="M0 0 C3.59905908 0.55550695 4.99909799 1.74887248 7.25 4.5625 C8.03117188 5.52349609 8.03117188 5.52349609 8.828125 6.50390625 C9.21484375 6.99761719 9.6015625 7.49132813 10 8 C6.40094092 7.44449305 5.00090201 6.25112752 2.75 3.4375 C2.22921875 2.79683594 1.7084375 2.15617187 1.171875 1.49609375 C0.78515625 1.00238281 0.3984375 0.50867188 0 0 Z " fill="#495D66" transform="translate(128,25)"/>
<path d="M0 0 C0.99 0.33 1.98 0.66 3 1 C3.6875 3.0625 3.6875 3.0625 4 5 C1.29120665 6.35439668 -1.00933268 6.06501451 -4 6 C-3.01 5.67 -2.02 5.34 -1 5 C-0.67 3.35 -0.34 1.7 0 0 Z " fill="#ADB9C1" transform="translate(63,71)"/>
<path d="M0 0 C4.29 0 8.58 0 13 0 C12.01 0.33 11.02 0.66 10 1 C10 1.66 10 2.32 10 3 C8.35 3 6.7 3 5 3 C5 2.34 5 1.68 5 1 C3.35 1 1.7 1 0 1 C0 0.67 0 0.34 0 0 Z " fill="#85919C" transform="translate(36,51)"/>
<path d="M0 0 C-1.38877354 3.35620271 -2.91677965 5.07298728 -6 7 C-6.66 7 -7.32 7 -8 7 C-6.47663111 3.31852519 -4.31953005 0 0 0 Z " fill="#C4DAE5" transform="translate(22,42)"/>
<path d="M0 0 C2.125 0.375 2.125 0.375 4 1 C4 1.66 4 2.32 4 3 C5.98 3.66 7.96 4.32 10 5 C7.5332355 5.88336837 6.36140628 6.1312406 3.859375 5.22265625 C3.16328125 4.83980469 2.4671875 4.45695312 1.75 4.0625 C1.04359375 3.68222656 0.3371875 3.30195312 -0.390625 2.91015625 C-0.92171875 2.60980469 -1.4528125 2.30945312 -2 2 C-1.34 1.34 -0.68 0.68 0 0 Z " fill="#637179" transform="translate(174,40)"/>
<path d="M0 0 C0.66 0.33 1.32 0.66 2 1 C0.19587357 4.26460973 -0.83394693 5.88929795 -4 8 C-4.99 7.67 -5.98 7.34 -7 7 C-6.34 7 -5.68 7 -5 7 C-4.731875 6.401875 -4.46375 5.80375 -4.1875 5.1875 C-3.01506533 3.02775192 -1.80630718 1.64209744 0 0 Z " fill="#66747A" transform="translate(30,30)"/>
<path d="M0 0 C0.6875 1.6875 0.6875 1.6875 1 4 C-0.4375 6.75 -0.4375 6.75 -2 9 C-3.125 7.25 -3.125 7.25 -4 5 C-3.07451225 2.30066074 -2.57626463 1.28813232 0 0 Z " fill="#C0DAE3" transform="translate(63,31)"/>
<path d="M0 0 C0.99 0 1.98 0 3 0 C3.99 2.97 4.98 5.94 6 9 C5.01 8.01 4.02 7.02 3 6 C2.01 6.495 2.01 6.495 1 7 C0.67 4.69 0.34 2.38 0 0 Z " fill="#C1DAE4" transform="translate(96,30)"/>
<path d="M0 0 C0.99 0 1.98 0 3 0 C1.90931332 3.77545388 1.0916909 6.47043472 -2 9 C-1.125 2.25 -1.125 2.25 0 0 Z " fill="#556871" transform="translate(68,25)"/>
<path d="M0 0 C0.99 0.66 1.98 1.32 3 2 C3 2.66 3 3.32 3 4 C3.66 4 4.32 4 5 4 C5 4.66 5 5.32 5 6 C2.625 5.6875 2.625 5.6875 0 5 C-0.66 4.01 -1.32 3.02 -2 2 C-1.34 1.34 -0.68 0.68 0 0 Z " fill="#647A85" transform="translate(123,40)"/>
<path d="M0 0 C4.24822374 0.47202486 6.19989709 2.96655518 9 6 C8.34 6.66 7.68 7.32 7 8 C5.83035398 6.8572081 4.66435444 5.71068285 3.5 4.5625 C2.8503125 3.92441406 2.200625 3.28632813 1.53125 2.62890625 C0 1 0 1 0 0 Z " fill="#B8CBD4" transform="translate(131,25)"/>
<path d="M0 0 C0.99 0 1.98 0 3 0 C3 5.28 3 10.56 3 16 C2.67 16 2.34 16 2 16 C2 11.71 2 7.42 2 3 C1.34 3 0.68 3 0 3 C0 2.01 0 1.02 0 0 Z " fill="#ABBEC8" transform="translate(83,25)"/>
<path d="M0 0 C1.32 0 2.64 0 4 0 C4 0.99 4 1.98 4 3 C3.34 3 2.68 3 2 3 C2 5.97 2 8.94 2 12 C1.67 12 1.34 12 1 12 C0.67 8.04 0.34 4.08 0 0 Z " fill="#223038" transform="translate(164,51)"/>
<path d="M0 0 C1.32 0 2.64 0 4 0 C4 1.98 4 3.96 4 6 C3.01 6 2.02 6 1 6 C0.67 4.02 0.34 2.04 0 0 Z " fill="#364751" transform="translate(86,52)"/>
<path d="M0 0 C0.33 0 0.66 0 1 0 C1 2.97 1 5.94 1 9 C-0.32 9.33 -1.64 9.66 -3 10 C-2.25 3.375 -2.25 3.375 0 0 Z " fill="#D5E9F6" transform="translate(84,35)"/>
<path d="M0 0 C0 0.99 0 1.98 0 3 C-2 5 -2 5 -3.9453125 5.1953125 C-5.96354167 5.13020833 -7.98177083 5.06510417 -10 5 C-6.66666667 3.33333333 -3.33333333 1.66666667 0 0 Z " fill="#CBD7D9" transform="translate(118,71)"/>
<path d="M0 0 C0.433125 0.45375 0.86625 0.9075 1.3125 1.375 C3.10798342 3.20024334 3.10798342 3.20024334 6 5 C3.69 5.33 1.38 5.66 -1 6 C-1.042721 4.33388095 -1.04063832 2.66617115 -1 1 C-0.67 0.67 -0.34 0.34 0 0 Z " fill="#B0C2C7" transform="translate(143,65)"/>
<path d="M0 0 C0.99 0.33 1.98 0.66 3 1 C2.67 1.99 2.34 2.98 2 4 C0.02 4.33 -1.96 4.66 -4 5 C-2.68 3.35 -1.36 1.7 0 0 Z " fill="#6B808B" transform="translate(31,43)"/>
<path d="M0 0 C1.32 0 2.64 0 4 0 C4 1.65 4 3.3 4 5 C2.68 5 1.36 5 0 5 C0 3.35 0 1.7 0 0 Z " fill="#637A84" transform="translate(76,42)"/>
<path d="M0 0 C2.97 0.495 2.97 0.495 6 1 C6 1.33 6 1.66 6 2 C4.35 2.33 2.7 2.66 1 3 C1.66 3.66 2.32 4.32 3 5 C1.35 5.33 -0.3 5.66 -2 6 C-1.34 4.02 -0.68 2.04 0 0 Z " fill="#E8E9EB" transform="translate(131,74)"/>
<path d="M0 0 C1.98 0.99 1.98 0.99 4 2 C3.67 3.65 3.34 5.3 3 7 C2.01 6.67 1.02 6.34 0 6 C0 4.02 0 2.04 0 0 Z " fill="#2A3D49" transform="translate(86,56)"/>
<path d="M0 0 C2.4750171 1.11431765 4.67883419 2.58150978 7 4 C7 4.33 7 4.66 7 5 C4.75 5.25 4.75 5.25 2 5 C-0.3125 3 -0.3125 3 -2 1 C-1.34 0.67 -0.68 0.34 0 0 Z " fill="#61767D" transform="translate(141,41)"/>
<path d="M0 0 C3.37462715 0.54723683 5.08235 1.0549 8 3 C8 3.66 8 4.32 8 5 C4.20411134 4.45773019 2.52788007 2.79872437 0 0 Z " fill="#546C78" transform="translate(136,33)"/>
<path d="M0 0 C0.99 0 1.98 0 3 0 C3.66 1.98 4.32 3.96 5 6 C4.01 6.33 3.02 6.66 2 7 C1.34 4.69 0.68 2.38 0 0 Z " fill="#B9D0D7" transform="translate(101,25)"/>
<path d="M0 0 C2 2 2 2 2.125 4.625 C2.08375 5.40875 2.0425 6.1925 2 7 C1.01 7 0.02 7 -1 7 C-1.04254356 5.00045254 -1.04080783 2.99958364 -1 1 C-0.67 0.67 -0.34 0.34 0 0 Z " fill="#9EACB5" transform="translate(83,62)"/>
<path d="M0 0 C1.32 0 2.64 0 4 0 C3.34 2.31 2.68 4.62 2 7 C1.34 6.67 0.68 6.34 0 6 C0 4.02 0 2.04 0 0 Z " fill="#293E42" transform="translate(106,52)"/>
<path d="M0 0 C0.99 0 1.98 0 3 0 C2.34 2.97 1.68 5.94 1 9 C0.67 9 0.34 9 0 9 C0 6.03 0 3.06 0 0 Z " fill="#13232A" transform="translate(182,51)"/>
<path d="M0 0 C1.32 0 2.64 0 4 0 C4 1.65 4 3.3 4 5 C2.68 5 1.36 5 0 5 C0 3.35 0 1.7 0 0 Z " fill="#344A52" transform="translate(36,53)"/>
<path d="M0 0 C0.33 0.66 0.66 1.32 1 2 C0.67 2.66 0.34 3.32 0 4 C0.66 4.33 1.32 4.66 2 5 C1.67 5.66 1.34 6.32 1 7 C-0.32 7 -1.64 7 -3 7 C-1.125 1.125 -1.125 1.125 0 0 Z " fill="#668189" transform="translate(60,40)"/>
<path d="M0 0 C2 1.375 2 1.375 4 3 C4 3.66 4 4.32 4 5 C2.35 5 0.7 5 -1 5 C-1.33 4.01 -1.66 3.02 -2 2 C-1.34 2 -0.68 2 0 2 C0 1.34 0 0.68 0 0 Z " fill="#667F89" transform="translate(115,41)"/>
<path d="M0 0 C1.8125 0.1875 1.8125 0.1875 4 1 C5.75 3.5625 5.75 3.5625 7 6 C5.1875 5.8125 5.1875 5.8125 3 5 C1.25 2.4375 1.25 2.4375 0 0 Z " fill="#4A5C65" transform="translate(122,25)"/>
<path d="M0 0 C1.98 0.66 3.96 1.32 6 2 C5.67 2.99 5.34 3.98 5 5 C4.01 5 3.02 5 2 5 C1.34 3.35 0.68 1.7 0 0 Z " fill="#EEF6F8" transform="translate(29,74)"/>
<path d="M0 0 C1.98 0 3.96 0 6 0 C4.68 1.32 3.36 2.64 2 4 C1.01 3.67 0.02 3.34 -1 3 C-0.67 2.01 -0.34 1.02 0 0 Z " fill="#ECF5F8" transform="translate(120,70)"/>
<path d="M0 0 C0.66 0.33 1.32 0.66 2 1 C2 1.66 2 2.32 2 3 C0.02 3.66 -1.96 4.32 -4 5 C-4 4.34 -4 3.68 -4 3 C-4.66 2.67 -5.32 2.34 -6 2 C-2.25 0.875 -2.25 0.875 0 2 C0 1.34 0 0.68 0 0 Z " fill="#B9C9CF" transform="translate(133,45)"/>
<path d="M0 0 C1.125 3.75 1.125 3.75 0 6 C-1.65 6 -3.3 6 -5 6 C-3.35 4.02 -1.7 2.04 0 0 Z " fill="#718794" transform="translate(41,42)"/>
<path d="M0 0 C1.98 0.99 1.98 0.99 4 2 C4 2.99 4 3.98 4 5 C2.68 5 1.36 5 0 5 C0 3.35 0 1.7 0 0 Z " fill="#637581" transform="translate(105,41)"/>
<path d="M0 0 C1.65 1.65 3.3 3.3 5 5 C2.0625 4.625 2.0625 4.625 -1 4 C-1.33 3.34 -1.66 2.68 -2 2 C-1.34 2 -0.68 2 0 2 C0 1.34 0 0.68 0 0 Z " fill="#6B8088" transform="translate(133,41)"/>
<path d="M0 0 C2.1875 0.3125 2.1875 0.3125 4 1 C2.35 2.32 0.7 3.64 -1 5 C-1.66 4.34 -2.32 3.68 -3 3 C-1.75 1.4375 -1.75 1.4375 0 0 Z " fill="#B4CAD6" transform="translate(33,31)"/>
<path d="M0 0 C-1.04874998 2.62187494 -1.64931313 3.79371361 -4.125 5.25 C-4.74375 5.4975 -5.3625 5.745 -6 6 C-6.33 5.34 -6.66 4.68 -7 4 C-2.25 0 -2.25 0 0 0 Z " fill="#B2C4D0" transform="translate(49,25)"/>
<path d="M0 0 C1.32 0.33 2.64 0.66 4 1 C2.35 2.65 0.7 4.3 -1 6 C-1.33 5.34 -1.66 4.68 -2 4 C-1.0625 1.875 -1.0625 1.875 0 0 Z " fill="#54656D" transform="translate(55,25)"/>
</svg>
