<?xml version="1.0" standalone="no"?>
<!DOCTYPE svg PUBLIC "-//W3C//DTD SVG 20010904//EN"
 "http://www.w3.org/TR/2001/REC-SVG-20010904/DTD/svg10.dtd">
<svg version="1.0" xmlns="http://www.w3.org/2000/svg"
 width="275.000000pt" height="184.000000pt" viewBox="0 0 275.000000 184.000000"
 preserveAspectRatio="xMidYMid meet">

<g transform="translate(0.000000,184.000000) scale(0.100000,-0.100000)"
fill="#000000" stroke="none">
<path d="M0 920 l0 -920 1375 0 1375 0 0 920 0 920 -1375 0 -1375 0 0 -920z
m802 733 c9 -8 19 -25 22 -38 6 -22 8 -23 34 -9 43 22 72 17 106 -19 26 -28
36 -32 55 -26 12 5 34 6 47 3 29 -7 64 -49 64 -76 0 -15 3 -17 19 -8 31 16 66
12 95 -11 26 -20 27 -26 24 -86 -2 -44 0 -59 7 -50 31 42 105 44 126 5 7 -12
9 -40 5 -69 -6 -42 -4 -48 14 -54 15 -5 31 3 60 29 27 24 50 36 70 36 41 0
328 -124 363 -157 37 -37 62 -77 82 -137 9 -27 28 -60 41 -75 13 -14 24 -29
24 -34 0 -15 -55 -77 -67 -77 -7 0 -13 -5 -13 -11 0 -5 5 -7 11 -3 7 4 10 1 7
-7 -3 -8 -10 -14 -17 -14 -14 0 -31 -24 -31 -45 0 -10 6 -7 19 9 10 13 25 22
34 20 15 -4 15 -7 1 -36 -15 -30 -61 -57 -51 -29 3 7 -1 13 -8 13 -7 0 -10 -8
-8 -17 3 -9 -2 -24 -10 -32 -20 -19 -38 -108 -27 -129 8 -14 2 -17 -38 -22
-26 -3 -70 -17 -97 -30 -39 -20 -65 -25 -119 -25 -68 1 -146 22 -146 41 0 5
-6 7 -14 4 -7 -3 -23 1 -35 9 -11 8 -21 12 -21 7 0 -4 -4 -2 -8 4 -5 7 -21 15
-38 16 -42 6 -133 57 -141 81 -9 24 -10 32 -12 66 -1 19 -11 30 -41 43 -43 20
-46 19 -107 -29 -22 -19 -53 -38 -68 -44 -41 -16 -120 -1 -168 31 -27 18 -50
26 -64 23 -30 -8 -86 12 -112 40 -13 14 -30 22 -40 19 -10 -3 -36 5 -57 17
-22 12 -61 34 -89 49 -72 40 -87 74 -83 182 4 75 9 95 45 170 22 46 55 129 73
184 32 100 81 202 125 261 45 59 114 76 157 37z m1288 -832 c0 -16 -41 -61
-51 -56 -13 9 19 65 36 65 8 0 15 -4 15 -9z m41 -29 c-4 -9 -6 -23 -3 -31 3
-8 0 -11 -6 -7 -6 3 -13 2 -17 -4 -7 -11 -25 -4 -25 9 0 5 9 20 21 35 22 28
45 27 30 -2z m52 -9 c-3 -10 -11 -24 -16 -31 -5 -7 -7 -15 -3 -19 3 -3 6 0 6
7 0 7 3 11 6 7 4 -3 15 4 24 16 24 29 36 15 20 -23 -13 -31 -21 -36 -34 -22
-4 4 -17 7 -29 7 -17 0 -22 6 -22 27 -1 15 2 25 6 22 4 -2 9 3 13 11 8 22 37
19 29 -2z m97 -39 c0 -8 4 -13 9 -9 13 7 24 -30 16 -54 -8 -25 -55 -24 -55 2
0 11 -6 17 -12 15 -16 -6 -58 -89 -53 -105 2 -6 0 -24 -6 -40 l-9 -28 4 29 c2
16 -1 37 -7 47 -8 13 -8 25 1 45 7 14 15 24 19 21 3 -4 15 5 25 19 11 14 18
28 15 31 -6 6 32 42 46 43 4 0 7 -7 7 -16z m-221 -35 c-6 -19 -12 -50 -13 -70
-4 -39 -25 -88 -26 -57 0 9 5 29 11 45 7 19 7 29 0 31 -19 6 -12 45 12 68 12
12 23 21 24 20 2 -1 -2 -18 -8 -37z m48 -21 c-8 -20 -13 -47 -10 -62 3 -16 1
-26 -6 -26 -7 0 -9 -4 -6 -10 3 -5 1 -18 -4 -27 -9 -16 -10 -16 -11 4 0 12 4
33 10 47 7 21 6 26 -5 26 -18 0 -19 11 -3 45 6 14 17 25 25 25 7 0 13 5 13 12
0 6 3 9 6 6 3 -3 -1 -21 -9 -40z m57 -15 c3 -7 1 -13 -5 -13 -6 0 -7 -4 -4
-10 3 -5 2 -10 -3 -10 -6 0 -8 -16 -6 -35 2 -21 -1 -33 -6 -30 -6 3 -7 -1 -4
-9 4 -9 1 -16 -6 -16 -8 0 -11 10 -7 27 3 15 1 34 -5 42 -13 21 5 68 26 68 8
0 17 -6 20 -14z m-166 -33 c-6 -22 -14 -37 -19 -35 -4 3 -4 17 2 32 21 56 31
58 17 3z m228 -94 c-15 -37 -36 -49 -36 -21 0 9 7 30 16 47 23 44 40 22 20
-26z m-272 -2 c8 -20 -8 -17 -28 5 -17 19 -17 19 2 14 12 -3 23 -11 26 -19z"/>
<path d="M1216 1194 c-39 -96 -114 -228 -167 -295 -16 -20 -29 -47 -29 -60 l0
-22 26 24 c55 51 153 219 193 331 15 42 27 119 18 118 -1 0 -19 -43 -41 -96z"/>
<path d="M609 1143 c-5 -15 -9 -43 -7 -62 3 -31 5 -27 14 27 11 67 9 77 -7 35z"/>
<path d="M1321 1060 c-12 -26 -44 -85 -71 -131 -28 -45 -49 -83 -48 -84 14
-11 51 -25 55 -21 3 2 18 40 33 83 15 43 39 101 53 130 31 61 31 59 13 66 -8
3 -21 -11 -35 -43z"/>
<path d="M742 959 c-7 -11 -11 -23 -9 -25 7 -7 29 24 25 36 -2 6 -9 1 -16 -11z"/>
</g>
</svg>
