<?xml version="1.0" encoding="UTF-8"?>
<svg version="1.1" xmlns="http://www.w3.org/2000/svg" width="128" height="128">
<path d="M0 0 C1.04328461 -0.00281982 2.08656921 -0.00563965 3.16146851 -0.00854492 C4.31579376 -0.00652069 5.47011902 -0.00449646 6.65942383 -0.00241089 C7.86740631 -0.00416321 9.07538879 -0.00591553 10.31997681 -0.00772095 C13.64221462 -0.01137913 16.96439051 -0.01050604 20.28662491 -0.00734186 C23.75618831 -0.00481787 27.22574899 -0.00715591 30.6953125 -0.00872803 C36.5228727 -0.01054961 42.35042024 -0.00814371 48.17797852 -0.00338745 C54.924568 0.00205515 61.67112727 0.00029249 68.41771603 -0.00521386 C74.20029682 -0.00974531 79.98286849 -0.01039538 85.76545048 -0.00777519 C89.22347064 -0.00621259 92.68147659 -0.00601817 96.13949585 -0.00931168 C99.99250471 -0.01272475 103.84547947 -0.00800012 107.69848633 -0.00241089 C109.42997421 -0.00544724 109.42997421 -0.00544724 111.19644165 -0.00854492 C112.76136856 -0.00431519 112.76136856 -0.00431519 114.35791016 0 C115.27010818 0.00037703 116.18230621 0.00075405 117.12214661 0.0011425 C119.17895508 0.12698364 119.17895508 0.12698364 120.17895508 1.12698364 C120.33265544 3.81197154 120.42126552 6.47232508 120.46704102 9.15994263 C120.48485626 10.00233994 120.50267151 10.84473724 120.52102661 11.71266174 C120.67588516 19.51172414 120.76301657 27.31206226 120.83102036 35.11231899 C120.87714154 40.35261951 120.94439472 45.59067596 121.0637207 50.8298645 C121.17866988 55.89521588 121.23895217 60.95855581 121.26154327 66.02513313 C121.2792717 67.95136497 121.31599652 69.87752407 121.37255096 71.80300713 C121.81603803 87.65699991 121.81603803 87.65699991 117.78155518 92.49508667 C115.17058526 95.08911317 112.26411693 97.12278815 109.17895508 99.12698364 C107.96538372 100.10108948 106.76032579 101.08604176 105.56958008 102.08792114 C104.53317383 102.88456177 103.49676758 103.68120239 102.42895508 104.50198364 C98.60953168 107.43946453 94.82594815 110.40010192 91.12817383 113.49026489 C90.45818359 114.0447229 89.78819336 114.59918091 89.09790039 115.17044067 C87.80412192 116.24391335 86.51789808 117.32657548 85.24047852 118.41946411 C82.59486828 120.59807418 80.74997256 122.04851729 77.30786133 122.52151489 C75.17895508 122.12698364 75.17895508 122.12698364 74.17895508 121.12698364 C74.09111966 118.908431 74.07200899 116.68709868 74.08129883 114.46682739 C74.08379639 113.25116089 74.08629395 112.03549438 74.08886719 110.7829895 C74.09797119 109.22588257 74.1070752 107.66877563 74.11645508 106.06448364 C74.13708008 101.13510864 74.15770508 96.20573364 74.17895508 91.12698364 C62.95895508 91.12698364 51.73895508 91.12698364 40.17895508 91.12698364 C40.21855236 100.95501389 40.21855236 100.95501389 40.26904297 110.7829895 C40.27154053 111.99865601 40.27403809 113.21432251 40.27661133 114.46682739 C40.28184814 115.71842651 40.28708496 116.97002563 40.29248047 118.259552 C40.17895508 121.12698364 40.17895508 121.12698364 39.17895508 122.12698364 C36.34563534 122.41541076 34.69145804 122.42837376 32.20947266 120.96878052 C31.58709717 120.43317505 30.96472168 119.89756958 30.32348633 119.34573364 C29.27378662 118.45954346 29.27378662 118.45954346 28.20288086 117.55545044 C27.47311035 116.9190564 26.74333984 116.28266235 25.99145508 115.62698364 C24.46450727 114.3309441 22.93716578 113.03536822 21.40942383 111.74026489 C20.67771973 111.11329712 19.94601563 110.48632935 19.19213867 109.84036255 C16.77005313 107.77897565 14.29876396 105.78702979 11.80395508 103.81448364 C-2.56264156 92.385387 -2.56264156 92.385387 -5.82104492 89.12698364 C-6.01443124 86.33098011 -6.08326983 83.6344084 -6.06396484 80.837677 C-6.06586319 79.98067703 -6.06776154 79.12367706 -6.06971741 78.2407074 C-6.07343139 75.39932191 -6.06271297 72.55819028 -6.05151367 69.71682739 C-6.05032221 67.74910004 -6.04986864 65.78137211 -6.05012512 63.81364441 C-6.04855923 59.68685351 -6.04026088 55.56014924 -6.02685547 51.43338013 C-6.00985435 46.1311685 -6.00604138 40.82905206 -6.00680065 35.52681637 C-6.00652936 31.46320174 -6.00105487 27.39960811 -5.99379921 23.33600044 C-5.99060677 21.38027671 -5.9886438 19.42455059 -5.9879055 17.46882439 C-5.98574864 14.74147316 -5.97701899 12.01422501 -5.96630859 9.28689575 C-5.96676178 8.47076813 -5.96721497 7.6546405 -5.96768188 6.81378174 C-5.92836798 0.00245029 -5.92836798 0.00245029 0 0 Z M9.17895508 7.12698364 C12.1602977 10.10832626 14.89349665 12.82671013 18.10473633 15.46682739 C18.81952148 16.05528442 19.53430664 16.64374146 20.27075195 17.25003052 C21.00358398 17.84880005 21.73641602 18.44756958 22.49145508 19.06448364 C23.21268555 19.65938599 23.93391602 20.25428833 24.67700195 20.86721802 C25.3956543 21.45696411 26.11430664 22.04671021 26.85473633 22.65432739 C27.56581543 23.24568481 28.27689453 23.83704224 29.00952148 24.44631958 C31.13670045 26.16534865 31.13670045 26.16534865 33.46948242 27.48733521 C36.82856255 29.54098018 38.8288035 30.8509311 39.89892578 34.75076294 C40.19003878 37.86265175 40.2366735 40.8774931 40.17895508 44.00198364 C40.19055664 45.07190552 40.2021582 46.14182739 40.21411133 47.24417114 C40.23758952 49.87372881 40.22480056 52.49787234 40.17895508 55.12698364 C51.63735052 41.5277415 53.17895508 24.22605219 53.17895508 7.12698364 C38.65895508 7.12698364 24.13895508 7.12698364 9.17895508 7.12698364 Z M61.17895508 7.12698364 C61.17895508 24.55348525 63.79975877 40.18974508 73.17895508 55.12698364 C73.50895508 55.12698364 73.83895508 55.12698364 74.17895508 55.12698364 C74.12545898 54.49832397 74.07196289 53.86966431 74.0168457 53.22195435 C72.8323066 35.81527962 72.8323066 35.81527962 76.57104492 29.93899536 C80.18756863 26.10991358 84.50712546 23.31461897 88.96166992 20.54885864 C92.56265039 18.2396635 95.8464694 15.55202241 99.17895508 12.87698364 C99.78376709 12.41002075 100.3885791 11.94305786 101.01171875 11.46194458 C102.41961509 10.37422147 103.80236564 9.25406625 105.17895508 8.12698364 C105.17895508 7.79698364 105.17895508 7.46698364 105.17895508 7.12698364 C90.65895508 7.12698364 76.13895508 7.12698364 61.17895508 7.12698364 Z M1.17895508 11.12698364 C-1.02202323 24.25080894 -1.02202323 24.25080894 2.75219727 36.44534302 C6.9237316 40.61080525 11.81224373 43.68492631 16.8527832 46.69729614 C20.15649393 48.72778838 23.14566383 51.09477755 26.17895508 53.50198364 C29.35195849 56.24371747 29.35195849 56.24371747 33.17895508 57.12698364 C35.21534678 45.08101544 35.21534678 45.08101544 31.67163086 33.88723755 C27.70317327 29.78599507 23.07260929 26.62257166 18.29907227 23.52835083 C15.49797539 21.67686579 12.99674311 19.60142068 10.42895508 17.43948364 C7.47621423 15.04436472 4.47097698 13.03198233 1.17895508 11.12698364 Z M108.85473633 13.80276489 C107.81530884 14.66430176 107.81530884 14.66430176 106.75488281 15.54324341 C105.23012313 16.82064697 103.71018074 18.10382014 102.19482422 19.3923645 C98.56472857 22.45190274 95.01632809 25.32796594 90.93676758 27.76760864 C85.32697198 31.16660348 85.32697198 31.16660348 81.17895508 36.12698364 C79.57136655 43.0135994 80.29795632 50.17483852 81.17895508 57.12698364 C84.17608607 55.72517459 86.75215034 54.08294176 89.40942383 52.11526489 C90.2131543 51.52165161 91.01688477 50.92803833 91.8449707 50.31643677 C92.67706055 49.69704224 93.50915039 49.07764771 94.36645508 48.43948364 C95.58558594 47.53939575 95.58558594 47.53939575 96.8293457 46.62112427 C98.4696343 45.40624067 100.10046866 44.17849019 101.72167969 42.93826294 C104.17895508 41.12698364 104.17895508 41.12698364 106.77880859 39.52859497 C111.56244865 36.43273748 111.56244865 36.43273748 113.88330078 31.42166138 C114.06468611 28.29447683 113.96830374 25.31301525 113.74145508 22.18948364 C113.70084961 21.12407349 113.66024414 20.05866333 113.6184082 18.96096802 C113.51282597 16.34487492 113.36541291 13.73834952 113.17895508 11.12698364 C111.37860249 11.12698364 110.18422204 12.69136407 108.85473633 13.80276489 Z M56.17895508 38.12698364 C55.82704102 39.09378052 55.47512695 40.06057739 55.11254883 41.05667114 C48.56919588 58.50261939 48.56919588 58.50261939 41.59643555 64.48464966 C39.79095398 66.57653297 39.82791194 67.62795598 39.88598633 70.35745239 C39.893479 71.08085815 39.90097168 71.80426392 39.90869141 72.54959106 C39.93600342 73.46200562 39.96331543 74.37442017 39.99145508 75.31448364 C40.05333008 78.22260864 40.11520508 81.13073364 40.17895508 84.12698364 C51.39895508 84.12698364 62.61895508 84.12698364 74.17895508 84.12698364 C75.26295047 73.66859329 75.26295047 73.66859329 72.86645508 63.64260864 C71.68243084 62.44801276 70.45592325 61.29431939 69.19458008 60.18167114 C66.53802654 57.47363401 65.00198231 54.37872504 63.36645508 51.00198364 C62.80313477 49.84440552 62.23981445 48.68682739 61.65942383 47.49417114 C60.3023488 44.40763111 59.18119736 41.34393692 58.17895508 38.12698364 C57.51895508 38.12698364 56.85895508 38.12698364 56.17895508 38.12698364 Z M1.17895508 43.12698364 C-0.1242147 47.51914846 -0.23256247 50.74359751 1.17895508 55.12698364 C5.56887043 60.14227799 11.3826149 63.78714666 16.8527832 67.52005005 C20.05388453 69.7313902 23.1091172 72.11395345 26.17895508 74.50198364 C29.35195849 77.24371747 29.35195849 77.24371747 33.17895508 78.12698364 C33.89232349 74.2719119 34.02225795 70.97204315 33.17895508 67.12698364 C30.63621036 63.92624797 27.51487578 61.78041914 24.1496582 59.49172974 C21.82011839 57.87848301 19.55603733 56.1892996 17.28833008 54.49026489 C13.9174864 51.96890826 10.54077645 49.45680527 7.14379883 46.97073364 C6.42828857 46.44672974 5.71277832 45.92272583 4.97558594 45.38284302 C3.20027399 44.0768557 3.20027399 44.0768557 1.17895508 43.12698364 Z M108.56567383 45.87307739 C107.81729248 46.45935913 107.06891113 47.04564087 106.29785156 47.64968872 C105.0943103 48.59751221 105.0943103 48.59751221 103.86645508 49.56448364 C97.38914644 54.63857924 90.87612258 59.64938746 84.26879883 64.55276489 C82.29903638 65.96045171 82.29903638 65.96045171 81.17895508 67.12698364 C81.10669006 68.97985866 81.09514288 70.83532242 81.11645508 72.68948364 C81.12547852 73.70139771 81.13450195 74.71331177 81.14379883 75.75588989 C81.15540039 76.53835083 81.16700195 77.32081177 81.17895508 78.12698364 C84.17608607 76.72517459 86.75215034 75.08294176 89.40942383 73.11526489 C90.2131543 72.52165161 91.01688477 71.92803833 91.8449707 71.31643677 C92.67706055 70.69704224 93.50915039 70.07764771 94.36645508 69.43948364 C95.58558594 68.53939575 95.58558594 68.53939575 96.8293457 67.62112427 C98.46617964 66.40879937 100.09699705 65.1883088 101.72167969 63.95974731 C103.38414862 62.7197916 105.07111659 61.51213029 106.77880859 60.3352356 C111.68308292 57.01372726 111.68308292 57.01372726 114.05786133 51.81838989 C113.90124023 50.2695813 113.90124023 50.2695813 113.74145508 48.68948364 C113.66024414 47.63889771 113.5790332 46.58831177 113.49536133 45.50588989 C113.33874023 44.3283313 113.33874023 44.3283313 113.17895508 43.12698364 C111.3285561 43.12698364 109.96159454 44.77450267 108.56567383 45.87307739 Z M1.17895508 64.12698364 C-0.80365388 76.58461705 -0.80365388 76.58461705 2.52368164 88.26760864 C6.14860955 92.10793974 10.49431063 94.90677383 14.9543457 97.68899536 C18.5243285 99.99663349 21.76151852 102.69560025 25.05395508 105.37698364 C28.92472516 108.54132135 28.92472516 108.54132135 33.17895508 111.12698364 C34.82796593 97.67459589 34.82796593 97.67459589 31.39770508 85.08792114 C29.07923919 83.23457958 26.75001191 81.72387429 24.1496582 80.29837036 C19.89950182 77.77207572 16.055593 74.60555538 12.11645508 71.62698364 C10.46235542 70.40355208 8.80502058 69.18447693 7.14379883 67.97073364 C6.42828857 67.44672974 5.71277832 66.92272583 4.97558594 66.38284302 C3.20027399 65.0768557 3.20027399 65.0768557 1.17895508 64.12698364 Z M107.68676758 67.65432739 C106.98680664 68.19541138 106.2868457 68.73649536 105.56567383 69.29397583 C104.81930664 69.87824341 104.07293945 70.46251099 103.30395508 71.06448364 C101.76526976 72.25637698 100.22620475 73.4477803 98.68676758 74.63870239 C97.54449707 75.52501343 97.54449707 75.52501343 96.37915039 76.42922974 C93.3361964 78.77728811 90.26190812 81.08183229 87.17895508 83.37698364 C84.05941207 85.61023054 84.05941207 85.61023054 81.17895508 88.12698364 C81.09181676 89.83470722 81.071955 91.54597013 81.08129883 93.25588989 C81.08452148 94.29036255 81.08774414 95.32483521 81.09106445 96.39065552 C81.09944336 97.4792688 81.10782227 98.56788208 81.11645508 99.68948364 C81.1209668 100.78196411 81.12547852 101.87444458 81.13012695 103.00003052 C81.14195681 105.70906859 81.15843965 108.41799964 81.17895508 111.12698364 C86.63398598 107.10099674 91.94261993 102.93264203 97.17895508 98.62698364 C98.51101177 97.53167921 99.84434448 96.43792474 101.17895508 95.34573364 C101.82928711 94.80319946 102.47961914 94.26066528 103.1496582 93.70169067 C105.17895508 92.12698364 105.17895508 92.12698364 107.44262695 90.76712036 C111.75018848 88.12317425 111.75018848 88.12317425 113.80786133 83.68850708 C113.96650245 80.8339838 113.87986182 78.10331391 113.67895508 75.25198364 C113.62481445 73.79018677 113.62481445 73.79018677 113.56958008 72.29885864 C113.47566946 69.90413785 113.34457452 67.51763655 113.17895508 65.12698364 C110.53639759 65.12698364 109.75965569 66.03890608 107.68676758 67.65432739 Z " fill="#000000" transform="translate(6.821044921875,2.873016357421875)"/>
</svg>
