<?xml version="1.0" encoding="UTF-8"?>
<svg version="1.1" xmlns="http://www.w3.org/2000/svg" width="275" height="183">
<path d="M0 0 C90.75 0 181.5 0 275 0 C275 60.39 275 120.78 275 183 C184.25 183 93.5 183 0 183 C0 122.61 0 62.22 0 0 Z " fill="#FEFEFE" transform="translate(0,0)"/>
<path d="M0 0 C2.34491843 0.41096508 4.70089178 0.76193168 7.0625 1.0625 C10.81300432 1.5468234 14.32617334 2.08154334 18 3 C18 12.24 18 21.48 18 31 C21.42375 30.690625 24.8475 30.38125 28.375 30.0625 C38.57700206 29.16994207 48.76482393 28.37096547 59 28 C59.84788086 27.96600098 60.69576172 27.93200195 61.56933594 27.89697266 C64.23372781 27.8010857 66.89691749 27.73939324 69.5625 27.6875 C70.37162842 27.65769043 71.18075684 27.62788086 72.0144043 27.59716797 C78.18261214 27.53730101 82.55040466 29.22968382 88 32 C89.74436947 32.74253565 91.49319369 33.47488817 93.25 34.1875 C94.43335938 34.67283203 94.43335938 34.67283203 95.640625 35.16796875 C98.07814448 36.02755757 100.45710933 36.55364153 103 37 C103.12579862 44.29631987 103.12579862 44.29631987 102.51147461 47.73266602 C101.99066683 51.0596209 101.8092604 54.24826835 101.71875 57.61328125 C101.68136719 58.86173828 101.64398438 60.11019531 101.60546875 61.39648438 C101.57066406 62.68876953 101.53585938 63.98105469 101.5 65.3125 C101.43046344 67.87118784 101.35762292 70.42978834 101.28125 72.98828125 C101.25095703 74.11790283 101.22066406 75.24752441 101.18945312 76.41137695 C100.96724673 80.62041284 100.46545753 84.81088219 100 89 C92.74 89.66 85.48 90.32 78 91 C78.04125 93.26875 78.0825 95.5375 78.125 97.875 C78.24710142 112.92623305 76.97197372 127.98869316 76 143 C60.91915521 143.75716514 45.84658592 144.26404994 30.75 144.5625 C29.72326172 144.58367889 28.69652344 144.60485779 27.63867188 144.62667847 C9.09060093 145.00585875 -9.4486603 145.12477619 -28 145 C-31.09976757 132.07440024 -31.36336289 119.73506526 -31.1875 106.5 C-31.17241005 104.50131229 -31.15872935 102.50261342 -31.14648438 100.50390625 C-31.11385682 95.66898874 -31.06231831 90.8346222 -31 86 C-34.3 85.34 -37.6 84.68 -41 84 C-40.82597656 85.64226562 -40.65195313 87.28453125 -40.47265625 88.9765625 C-39.1205201 107.20402421 -39.1205201 107.20402421 -43.84765625 113.8125 C-45.68139648 115.81396484 -45.68139648 115.81396484 -47.625 117.625 C-48.52037476 118.4924585 -48.52037476 118.4924585 -49.43383789 119.37744141 C-53.75566744 122.84040705 -57.12985458 123.28221178 -62.609375 122.9296875 C-65.07571225 122.64288875 -67.53938588 122.33234185 -70 122 C-72.44996284 121.75477636 -74.90049426 121.51516667 -77.3515625 121.28125 C-79.77631686 121.02340824 -82.20079869 120.76299069 -84.625 120.5 C-85.86378906 120.36980469 -87.10257813 120.23960937 -88.37890625 120.10546875 C-89.56613281 119.97785156 -90.75335938 119.85023438 -91.9765625 119.71875 C-93.03955566 119.60466797 -94.10254883 119.49058594 -95.19775391 119.37304688 C-97.5405987 119.06115745 -99.72808088 118.63682064 -102 118 C-102.02505615 116.88367188 -102.0501123 115.76734375 -102.07592773 114.6171875 C-102.19363054 109.41139169 -102.31494186 104.20568359 -102.4375 99 C-102.45956512 98.0586319 -102.48163025 97.11726379 -102.50436401 96.14736938 C-102.75677917 85.48820883 -103.04467874 74.83767111 -103.5625 64.1875 C-104.19044495 51.13000808 -104.09472527 38.06917317 -104 25 C-102.87980469 24.44570313 -101.75960937 23.89140625 -100.60546875 23.3203125 C-99.13275962 22.58864809 -97.66010628 21.85687139 -96.1875 21.125 C-95.44951172 20.76019531 -94.71152344 20.39539063 -93.95117188 20.01953125 C-93.23896484 19.66503906 -92.52675781 19.31054688 -91.79296875 18.9453125 C-91.1383667 18.62062988 -90.48376465 18.29594727 -89.80932617 17.96142578 C-87.75347202 16.90744328 -87.75347202 16.90744328 -85 15 C-82.96882629 14.87338257 -82.96882629 14.87338257 -80.62036133 15.04833984 C-79.73967484 15.10855316 -78.85898834 15.16876648 -77.95161438 15.23080444 C-77.00465195 15.30674835 -76.05768951 15.38269226 -75.08203125 15.4609375 C-74.10965012 15.53035553 -73.13726898 15.59977356 -72.13542175 15.67129517 C-69.02692977 15.89558732 -65.91982322 16.13510783 -62.8125 16.375 C-60.70645366 16.52964938 -58.60033429 16.68330765 -56.49414062 16.8359375 C-51.32850908 17.21245889 -46.16406885 17.60264245 -41 18 C-41 13.05 -41 8.1 -41 3 C-37.25534778 1.9547694 -33.50642784 0.93877007 -29.75 -0.0625 C-28.70585938 -0.35705078 -27.66171875 -0.65160156 -26.5859375 -0.95507812 C-17.26072724 -3.40150674 -8.99166435 -3.74644957 0 0 Z " fill="#7A7879" transform="translate(130,27)"/>
<path d="M0 0 C5.19827817 1.40494005 9.44994444 3.90122017 14.0234375 6.66015625 C21.95943 10.23239434 30.5744578 8.76961753 38.9921875 8.0390625 C40.34679567 7.9272356 41.7014622 7.81611367 43.05618286 7.70565796 C46.60718711 7.41413252 50.15727822 7.1126532 53.70727539 6.80914307 C57.29520454 6.50435699 60.8839773 6.20986266 64.47265625 5.9140625 C78.3773381 4.79632596 78.3773381 4.79632596 92.25830078 3.42724609 C97.22148216 2.91956189 102.14001094 2.88671249 107.125 2.9375 C108.41664063 2.94426758 108.41664063 2.94426758 109.734375 2.95117188 C111.82294785 2.96277506 113.91148407 2.9807016 116 3 C115.88101104 8.67435787 115.75671955 14.34856673 115.62768555 20.02270508 C115.58458957 21.94975698 115.54289873 23.87684087 115.50268555 25.80395508 C115.44436358 28.58684904 115.38085354 31.36958569 115.31640625 34.15234375 C115.29969376 35.00271713 115.28298126 35.85309052 115.26576233 36.72923279 C115.24581711 37.54940384 115.22587189 38.36957489 115.20532227 39.21459961 C115.18977798 39.9229747 115.1742337 40.63134979 115.15821838 41.3611908 C114.92487429 45.25296709 114.43054662 49.12508042 114 53 C106.74 53.66 99.48 54.32 92 55 C92.04125 57.26875 92.0825 59.5375 92.125 61.875 C92.24710142 76.92623305 90.97197372 91.98869316 90 107 C74.91915521 107.75716514 59.84658592 108.26404994 44.75 108.5625 C43.72326172 108.58367889 42.69652344 108.60485779 41.63867188 108.62667847 C23.09060093 109.00585875 4.5513397 109.12477619 -14 109 C-17.49713531 91.91124566 -17.49713531 91.91124566 -17.25 83.4375 C-17.23904297 82.62958008 -17.22808594 81.82166016 -17.21679688 80.98925781 C-17.03623864 70.65426172 -16.52819037 60.32218833 -16 50 C-13.73537559 52.26462441 -13.63990238 52.99837574 -13.18359375 56.0625 C-13.05919922 56.85914063 -12.93480469 57.65578125 -12.80664062 58.4765625 C-12.62391602 59.72566406 -12.62391602 59.72566406 -12.4375 61 C-12.18903144 62.64626349 -11.93785535 64.29212128 -11.68359375 65.9375 C-11.52201782 67.03384766 -11.52201782 67.03384766 -11.35717773 68.15234375 C-11.06953151 70.08537212 -11.06953151 70.08537212 -10 72 C-10 72.99 -10 73.98 -10 75 C-9.67 75.99 -9.34 76.98 -9 78 C-9.66 78 -10.32 78 -11 78 C-10.67 79.32 -10.34 80.64 -10 82 C-10.66 82 -11.32 82 -12 82 C-11.89386164 84.45224694 -11.89386164 84.45224694 -11 87 C-8.52869082 88.15521502 -8.52869082 88.15521502 -6 89 C-5.67 89.99 -5.34 90.98 -5 92 C-5.66 92 -6.32 92 -7 92 C-7 91.34 -7 90.68 -7 90 C-8.65 89.67 -10.3 89.34 -12 89 C-12 89.66 -12 90.32 -12 91 C-11.34 91.33 -10.68 91.66 -10 92 C-9.34 92.33 -8.68 92.66 -8 93 C-6.00448218 93.35919321 -4.00451121 93.69496569 -2 94 C-2.33 93.21625 -2.66 92.4325 -3 91.625 C-4 89 -4 89 -4 87 C-5.65 87 -7.3 87 -9 87 C-9 86.34 -9 85.68 -9 85 C-6.03 84.505 -6.03 84.505 -3 84 C-3.66 83.01 -4.32 82.02 -5 81 C-2.03 80.505 -2.03 80.505 1 80 C1 79.01 1 78.02 1 77 C2.485 76.01 2.485 76.01 4 75 C5.31068333 72.55711372 5.31068333 72.55711372 6 70 C5.505 69.01 5.505 69.01 5 68 C5.99 68 6.98 68 8 68 C8 67.34 8 66.68 8 66 C8.99 65.505 8.99 65.505 10 65 C8.68 64.67 7.36 64.34 6 64 C6 63.34 6 62.68 6 62 C4.68 61.67 3.36 61.34 2 61 C5.21451269 59.39274365 8.43612536 59.94251815 12 60 C12 59.34 12 58.68 12 58 C11.2575 57.731875 10.515 57.46375 9.75 57.1875 C7.10938051 56.04723249 5.14447156 54.90619694 3 53 C3 52.34 3 51.68 3 51 C1.68 50.67 0.36 50.34 -1 50 C-1.02486852 44.32576816 -1.04293935 38.65156862 -1.05493164 32.97729492 C-1.05993539 31.05020596 -1.06674045 29.12312075 -1.07543945 27.19604492 C-1.08767948 24.41323924 -1.09326804 21.63048411 -1.09765625 18.84765625 C-1.10281754 17.99728287 -1.10797882 17.14690948 -1.11329651 16.27076721 C-1.11380299 10.77104481 -0.69381392 5.4568825 0 0 Z " fill="#929292" transform="translate(116,63)"/>
<path d="M0 0 C31.32040447 -0.61916858 31.32040447 -0.61916858 45 3 C45.87351329 8.25035489 46.13836188 13.2806299 46.11352539 18.59741211 C46.11367142 19.42748779 46.11381744 20.25756348 46.1139679 21.11279297 C46.11327574 23.83433723 46.1055162 26.55581156 46.09765625 29.27734375 C46.09578959 31.17305972 46.09436686 33.06877617 46.09336853 34.9644928 C46.08956287 39.93748319 46.07974935 44.91044407 46.06866455 49.88342285 C46.05840838 54.96459555 46.05386192 60.04577305 46.04882812 65.12695312 C46.03812524 75.08464834 46.02107238 85.04232171 46 95 C32.40290888 95.11468826 32.40290888 95.11468826 25.74609375 94.37890625 C24.54275391 94.24806641 23.33941406 94.11722656 22.09960938 93.98242188 C20.89111328 93.84384766 19.68261719 93.70527344 18.4375 93.5625 C16.57254883 93.36043945 16.57254883 93.36043945 14.66992188 93.15429688 C4.79153952 92.0590733 4.79153952 92.0590733 1 91 C0.06237043 60.66169858 -0.1222714 30.35152441 0 0 Z " fill="#6C6B69" transform="translate(27,54)"/>
<path d="M0 0 C5.96652354 1.57013777 10.82909025 4.75029782 16 8 C15.67 8.99 15.34 9.98 15 11 C16.32 10.67 17.64 10.34 19 10 C20.21983748 12.43967497 20.12051527 13.99904524 20.11352539 16.72509766 C20.11344986 17.70596344 20.11337433 18.68682922 20.11329651 19.69741821 C20.10813522 20.75891083 20.10297394 21.82040344 20.09765625 22.9140625 C20.0962413 23.99883881 20.09482635 25.08361511 20.09336853 26.20126343 C20.08775802 29.67587 20.07520372 33.15041281 20.0625 36.625 C20.05748635 38.97656157 20.05292321 41.32812415 20.04882812 43.6796875 C20.03778518 49.45314686 20.02103679 55.22656888 20 61 C29.59152121 61.15815237 38.85674803 60.92860425 48.375 59.5625 C50.36182101 59.29180535 52.34879917 59.02226156 54.3359375 58.75390625 C55.74504395 58.56078857 55.74504395 58.56078857 57.18261719 58.36376953 C61.44588931 57.81331239 65.71978987 57.3941835 70 57 C67.56585336 58.27779498 65.49161622 59.13955633 62.8125 59.875 C61.884375 60.24625 60.95625 60.6175 60 61 C59.03122943 63.03243548 59.03122943 63.03243548 59 65 C58.34 65 57.68 65 57 65 C57 65.66 57 66.32 57 67 C56.01 67 55.02 67 54 67 C54 68.65 54 70.3 54 72 C55.98 72.495 55.98 72.495 58 73 C55.24075815 74.80411967 54.11027897 75.0127245 50.75 74.625 C49.8425 74.41875 48.935 74.2125 48 74 C48 74.66 48 75.32 48 76 C45.03 76.99 45.03 76.99 42 78 C42 78.66 42 79.32 42 80 C42.99 80.33 43.98 80.66 45 81 C44.505 82.98 44.505 82.98 44 85 C44.99 85 45.98 85 47 85 C47 85.66 47 86.32 47 87 C46.01 87.495 46.01 87.495 45 88 C47.22926456 87.52230045 49.07751925 86.96124037 51.125 85.9375 C53 85 53 85 55 85 C55 85.66 55 86.32 55 87 C55.66 87 56.32 87 57 87 C57 86.01 57 85.02 57 84 C58.485 84.495 58.485 84.495 60 85 C60 85.66 60 86.32 60 87 C58.68 87.33 57.36 87.66 56 88 C56 88.66 56 89.32 56 90 C56.66 90 57.32 90 58 90 C58 90.66 58 91.32 58 92 C55.69 91.67 53.38 91.34 51 91 C51.33 91.66 51.66 92.32 52 93 C53.66500443 93.34153937 55.33178677 93.67449498 57 94 C57.66 94.66 58.32 95.32 59 96 C59.495 94.515 59.495 94.515 60 93 C61.485 93.495 61.485 93.495 63 94 C63 94.99 63 95.98 63 97 C63.804375 97.226875 64.60875 97.45375 65.4375 97.6875 C66.283125 98.120625 67.12875 98.55375 68 99 C68.6875 101.5625 68.6875 101.5625 69 104 C69.66 104.33 70.32 104.66 71 105 C71.33 104.34 71.66 103.68 72 103 C72 103.66 72 104.32 72 105 C72.8971875 104.690625 72.8971875 104.690625 73.8125 104.375 C76 104 76 104 79 106 C75.20862307 109.79137693 62.92393486 108.21869278 57.71875 108.31640625 C56.75827759 108.33723267 55.79780518 108.35805908 54.80822754 108.3795166 C51.70555834 108.44503695 48.60281203 108.5041668 45.5 108.5625 C44.44329102 108.58367889 43.38658203 108.60485779 42.29785156 108.62667847 C23.5301597 109.0016419 4.77082772 109.12625246 -14 109 C-17.49713531 91.91124566 -17.49713531 91.91124566 -17.25 83.4375 C-17.23904297 82.62958008 -17.22808594 81.82166016 -17.21679688 80.98925781 C-17.03623864 70.65426172 -16.52819037 60.32218833 -16 50 C-13.73537559 52.26462441 -13.63990238 52.99837574 -13.18359375 56.0625 C-13.05919922 56.85914063 -12.93480469 57.65578125 -12.80664062 58.4765625 C-12.62391602 59.72566406 -12.62391602 59.72566406 -12.4375 61 C-12.18903144 62.64626349 -11.93785535 64.29212128 -11.68359375 65.9375 C-11.52201782 67.03384766 -11.52201782 67.03384766 -11.35717773 68.15234375 C-11.06953151 70.08537212 -11.06953151 70.08537212 -10 72 C-10 72.99 -10 73.98 -10 75 C-9.67 75.99 -9.34 76.98 -9 78 C-9.66 78 -10.32 78 -11 78 C-10.67 79.32 -10.34 80.64 -10 82 C-10.66 82 -11.32 82 -12 82 C-11.89386164 84.45224694 -11.89386164 84.45224694 -11 87 C-8.52869082 88.15521502 -8.52869082 88.15521502 -6 89 C-5.67 89.99 -5.34 90.98 -5 92 C-5.66 92 -6.32 92 -7 92 C-7 91.34 -7 90.68 -7 90 C-8.65 89.67 -10.3 89.34 -12 89 C-12 89.66 -12 90.32 -12 91 C-11.34 91.33 -10.68 91.66 -10 92 C-9.34 92.33 -8.68 92.66 -8 93 C-6.00448218 93.35919321 -4.00451121 93.69496569 -2 94 C-2.33 93.21625 -2.66 92.4325 -3 91.625 C-4 89 -4 89 -4 87 C-5.65 87 -7.3 87 -9 87 C-9 86.34 -9 85.68 -9 85 C-6.03 84.505 -6.03 84.505 -3 84 C-3.66 83.01 -4.32 82.02 -5 81 C-2.03 80.505 -2.03 80.505 1 80 C1 79.01 1 78.02 1 77 C2.485 76.01 2.485 76.01 4 75 C5.31068333 72.55711372 5.31068333 72.55711372 6 70 C5.505 69.01 5.505 69.01 5 68 C5.99 68 6.98 68 8 68 C8 67.34 8 66.68 8 66 C8.99 65.505 8.99 65.505 10 65 C8.68 64.67 7.36 64.34 6 64 C6 63.34 6 62.68 6 62 C4.68 61.67 3.36 61.34 2 61 C5.21451269 59.39274365 8.43612536 59.94251815 12 60 C12 59.34 12 58.68 12 58 C11.2575 57.731875 10.515 57.46375 9.75 57.1875 C7.10938051 56.04723249 5.14447156 54.90619694 3 53 C3 52.34 3 51.68 3 51 C1.68 50.67 0.36 50.34 -1 50 C-1.02486852 44.32576816 -1.04293935 38.65156862 -1.05493164 32.97729492 C-1.05993539 31.05020596 -1.06674045 29.12312075 -1.07543945 27.19604492 C-1.08767948 24.41323924 -1.09326804 21.63048411 -1.09765625 18.84765625 C-1.10281754 17.99728287 -1.10797882 17.14690948 -1.11329651 16.27076721 C-1.11380299 10.77104481 -0.69381392 5.4568825 0 0 Z M44 78 C46.475 78.495 46.475 78.495 49 79 C48.67 79.66 48.34 80.32 48 81 C46.68 80.67 45.36 80.34 44 80 C44 79.34 44 78.68 44 78 Z " fill="#6F6F6E" transform="translate(116,63)"/>
<path d="M0 0 C2.34491843 0.41096508 4.70089178 0.76193168 7.0625 1.0625 C10.81300432 1.5468234 14.32617334 2.08154334 18 3 C18 12.24 18 21.48 18 31 C21.42375 30.690625 24.8475 30.38125 28.375 30.0625 C38.57700206 29.16994207 48.76482393 28.37096547 59 28 C59.84788086 27.96600098 60.69576172 27.93200195 61.56933594 27.89697266 C64.23372781 27.8010857 66.89691749 27.73939324 69.5625 27.6875 C70.37162842 27.65769043 71.18075684 27.62788086 72.0144043 27.59716797 C78.18261214 27.53730101 82.55040466 29.22968382 88 32 C89.74436947 32.74253565 91.49319369 33.47488817 93.25 34.1875 C94.43335938 34.67283203 94.43335938 34.67283203 95.640625 35.16796875 C98.07814448 36.02755757 100.45710933 36.55364153 103 37 C103 39.64 103 42.28 103 45 C102.67 45 102.34 45 102 45 C102 43.02 102 41.04 102 39 C86.86753887 39.99646794 71.74618886 41.07259134 56.6328125 42.32421875 C55.26235547 42.43701377 53.89189241 42.5497354 52.52142334 42.66238403 C46.96439577 43.11983084 41.40746944 43.57818174 35.8515625 44.04907227 C32.37570471 44.34339865 28.89928917 44.63009848 25.42238998 44.91184425 C23.49932118 45.0697831 21.57693016 45.23590756 19.65457153 45.40226746 C11.27723936 46.07496513 4.84195376 46.45023835 -2.625 42.125 C-3.52476563 41.61195312 -4.42453125 41.09890625 -5.3515625 40.5703125 C-6.22554687 40.05210938 -7.09953125 39.53390625 -8 39 C-8.93585938 38.48179688 -9.87171875 37.96359375 -10.8359375 37.4296875 C-11.55007812 36.95789062 -12.26421875 36.48609375 -13 36 C-13 35.34 -13 34.68 -13 34 C-11.515 33.505 -11.515 33.505 -10 33 C-10 25.08 -10 17.16 -10 9 C-11.65 9 -13.3 9 -15 9 C-15 8.34 -15 7.68 -15 7 C-23.25 6.01 -31.5 5.02 -40 4 C-40.33 5.32 -40.66 6.64 -41 8 C-41 6.35 -41 4.7 -41 3 C-37.25839835 1.94659663 -33.50589559 0.9386282 -29.75 -0.0625 C-28.70585938 -0.35705078 -27.66171875 -0.65160156 -26.5859375 -0.95507812 C-17.26072724 -3.40150674 -8.99166435 -3.74644957 0 0 Z " fill="#CACACB" transform="translate(130,27)"/>
<path d="M0 0 C0.89295776 0.0611499 1.78591553 0.1222998 2.70593262 0.18530273 C4.10796936 0.29781372 4.10796936 0.29781372 5.53833008 0.41259766 C6.83123962 0.50408081 6.83123962 0.50408081 8.15026855 0.59741211 C11.3703495 0.82849877 14.58903323 1.07873282 17.80786133 1.32666016 C28.60504883 2.13103516 28.60504883 2.13103516 39.62036133 2.95166016 C39.62036133 24.40166016 39.62036133 45.85166016 39.62036133 67.95166016 C40.61036133 68.28166016 41.60036133 68.61166016 42.62036133 68.95166016 C41.63036133 68.95166016 40.64036133 68.95166016 39.62036133 68.95166016 C39.7381897 69.97767334 39.7381897 69.97767334 39.85839844 71.02441406 C41.92979584 91.81530075 41.92979584 91.81530075 36.52661133 98.72900391 C28.11460921 107.39539911 28.11460921 107.39539911 22.56225586 108.27929688 C20.62426758 108.29150391 20.62426758 108.29150391 17.62036133 107.95166016 C17.62036133 107.62166016 17.62036133 107.29166016 17.62036133 106.95166016 C19.60036133 106.95166016 21.58036133 106.95166016 23.62036133 106.95166016 C23.29036133 76.59166016 22.96036133 46.23166016 22.62036133 14.95166016 C11.97272707 13.62070587 1.78201747 12.59072594 -8.87963867 12.32666016 C-10.84610352 12.26865234 -10.84610352 12.26865234 -12.85229492 12.20947266 C-16.02788545 12.11675468 -19.20374156 12.03320346 -22.37963867 11.95166016 C-22.37963867 20.53166016 -22.37963867 29.11166016 -22.37963867 37.95166016 C-22.70963867 37.95166016 -23.03963867 37.95166016 -23.37963867 37.95166016 C-23.37963867 28.71166016 -23.37963867 19.47166016 -23.37963867 9.95166016 C-15.56713867 6.07666016 -15.56713867 6.07666016 -13.11865234 4.86621094 C-12.15536011 4.38643799 -12.15536011 4.38643799 -11.17260742 3.89697266 C-10.51800537 3.57229004 -9.86340332 3.24760742 -9.18896484 2.91308594 C-3.25098212 -0.24219351 -3.25098212 -0.24219351 0 0 Z " fill="#9F9F9F" transform="translate(49.379638671875,42.04833984375)"/>
<path d="M0 0 C0.825 0.00322266 1.65 0.00644531 2.5 0.00976562 C3.32242188 0.01814453 4.14484375 0.02652344 4.9921875 0.03515625 C6.28382813 0.04192383 6.28382813 0.04192383 7.6015625 0.04882812 C9.69013535 0.06043131 11.77867157 0.07835785 13.8671875 0.09765625 C14.01897052 9.15404303 13.55756176 18.07347848 12.8671875 27.09765625 C11.2171875 26.76765625 9.5671875 26.43765625 7.8671875 26.09765625 C8.1971875 25.43765625 8.5271875 24.77765625 8.8671875 24.09765625 C7.5471875 23.76765625 6.2271875 23.43765625 4.8671875 23.09765625 C4.8671875 22.10765625 4.8671875 21.11765625 4.8671875 20.09765625 C4.2071875 20.09765625 3.5471875 20.09765625 2.8671875 20.09765625 C2.2071875 21.74765625 1.5471875 23.39765625 0.8671875 25.09765625 C2.1871875 25.75765625 3.5071875 26.41765625 4.8671875 27.09765625 C3.3821875 27.59265625 3.3821875 27.59265625 1.8671875 28.09765625 C1.8671875 29.41765625 1.8671875 30.73765625 1.8671875 32.09765625 C0.2171875 32.42765625 -1.4328125 32.75765625 -3.1328125 33.09765625 C-3.1328125 32.43765625 -3.1328125 31.77765625 -3.1328125 31.09765625 C-2.4728125 31.09765625 -1.8128125 31.09765625 -1.1328125 31.09765625 C-2.77360492 29.45686383 -4.91050015 29.49653283 -7.1328125 29.09765625 C-5.8128125 28.76765625 -4.4928125 28.43765625 -3.1328125 28.09765625 C-3.6278125 24.63265625 -3.6278125 24.63265625 -4.1328125 21.09765625 C-4.7928125 21.09765625 -5.4528125 21.09765625 -6.1328125 21.09765625 C-6.1328125 21.75765625 -6.1328125 22.41765625 -6.1328125 23.09765625 C-10.0928125 23.09765625 -14.0528125 23.09765625 -18.1328125 23.09765625 C-18.1328125 21.44765625 -18.1328125 19.79765625 -18.1328125 18.09765625 C-17.1428125 18.09765625 -16.1528125 18.09765625 -15.1328125 18.09765625 C-15.1328125 17.43765625 -15.1328125 16.77765625 -15.1328125 16.09765625 C-18.50001637 17.49098199 -20.1187649 19.07658485 -22.1328125 22.09765625 C-23.1228125 19.45765625 -24.1128125 16.81765625 -25.1328125 14.09765625 C-24.4728125 13.76765625 -23.8128125 13.43765625 -23.1328125 13.09765625 C-22.6378125 14.08765625 -22.6378125 14.08765625 -22.1328125 15.09765625 C-20.8128125 14.76765625 -19.4928125 14.43765625 -18.1328125 14.09765625 C-19.95818354 11.83745727 -19.95818354 11.83745727 -22.6328125 11.91015625 C-25.13072206 11.93866648 -25.13072206 11.93866648 -27.1328125 13.09765625 C-27.1328125 11.77765625 -27.1328125 10.45765625 -27.1328125 9.09765625 C-29.1128125 9.42765625 -31.0928125 9.75765625 -33.1328125 10.09765625 C-32.1428125 10.09765625 -31.1528125 10.09765625 -30.1328125 10.09765625 C-29.4728125 10.09765625 -28.8128125 10.09765625 -28.1328125 10.09765625 C-28.1328125 12.40765625 -28.1328125 14.71765625 -28.1328125 17.09765625 C-28.7928125 17.09765625 -29.4528125 17.09765625 -30.1328125 17.09765625 C-30.1328125 17.75765625 -30.1328125 18.41765625 -30.1328125 19.09765625 C-29.5140625 18.74703125 -28.8953125 18.39640625 -28.2578125 18.03515625 C-27.2059375 17.57109375 -27.2059375 17.57109375 -26.1328125 17.09765625 C-25.4728125 17.42765625 -24.8128125 17.75765625 -24.1328125 18.09765625 C-24.1328125 19.74765625 -24.1328125 21.39765625 -24.1328125 23.09765625 C-24.8546875 22.89140625 -25.5765625 22.68515625 -26.3203125 22.47265625 C-29.61396957 22.03350197 -31.14638169 22.76162141 -34.1328125 24.09765625 C-35.1228125 24.09765625 -36.1128125 24.09765625 -37.1328125 24.09765625 C-37.1328125 24.75765625 -37.1328125 25.41765625 -37.1328125 26.09765625 C-39.4428125 25.76765625 -41.7528125 25.43765625 -44.1328125 25.09765625 C-44.1328125 24.10765625 -44.1328125 23.11765625 -44.1328125 22.09765625 C-44.7928125 21.76765625 -45.4528125 21.43765625 -46.1328125 21.09765625 C-46.7928125 22.41765625 -47.4528125 23.73765625 -48.1328125 25.09765625 C-48.7928125 24.76765625 -49.4528125 24.43765625 -50.1328125 24.09765625 C-50.1328125 25.08765625 -50.1328125 26.07765625 -50.1328125 27.09765625 C-51.1228125 27.09765625 -52.1128125 27.09765625 -53.1328125 27.09765625 C-52.6378125 25.61265625 -52.6378125 25.61265625 -52.1328125 24.09765625 C-53.1228125 24.59265625 -53.1228125 24.59265625 -54.1328125 25.09765625 C-56.4657991 25.13788016 -58.79987916 25.14085872 -61.1328125 25.09765625 C-60.1428125 25.75765625 -59.1528125 26.41765625 -58.1328125 27.09765625 C-61.79947917 27.09765625 -65.46614583 27.09765625 -69.1328125 27.09765625 C-68.8028125 26.43765625 -68.4728125 25.77765625 -68.1328125 25.09765625 C-68.7928125 25.09765625 -69.4528125 25.09765625 -70.1328125 25.09765625 C-70.1328125 25.75765625 -70.1328125 26.41765625 -70.1328125 27.09765625 C-72.4428125 27.09765625 -74.7528125 27.09765625 -77.1328125 27.09765625 C-76.8028125 26.10765625 -76.4728125 25.11765625 -76.1328125 24.09765625 C-76.7928125 24.09765625 -77.4528125 24.09765625 -78.1328125 24.09765625 C-78.4628125 25.41765625 -78.7928125 26.73765625 -79.1328125 28.09765625 C-82.3735937 23.69262658 -82.65546039 20.05571371 -82.8203125 14.78515625 C-82.87155273 13.67430664 -82.87155273 13.67430664 -82.92382812 12.54101562 C-83.00574804 10.72707461 -83.07097072 8.91239272 -83.1328125 7.09765625 C-84.4528125 7.42765625 -85.7728125 7.75765625 -87.1328125 8.09765625 C-86.8028125 7.10765625 -86.4728125 6.11765625 -86.1328125 5.09765625 C-84.34121704 5.37488525 -84.34121704 5.37488525 -82.51342773 5.65771484 C-75.97414012 6.37656282 -69.57458462 5.70587107 -63.04296875 5.13671875 C-61.68979288 5.02485564 -60.33655545 4.91373484 -58.98326111 4.80331421 C-55.44045687 4.51215069 -51.89861628 4.21055488 -48.35687256 3.90679932 C-44.77558156 3.60170953 -41.19340669 3.30738892 -37.61132812 3.01171875 C-23.57900476 1.86772227 -23.57900476 1.86772227 -9.56469727 0.52709961 C-6.36522513 0.20059319 -3.21958617 -0.02267314 0 0 Z " fill="#999999" transform="translate(218.1328125,65.90234375)"/>
<path d="M0 0 C1.74796875 0.0918457 1.74796875 0.0918457 3.53125 0.18554688 C6.3969741 0.3382289 9.26098098 0.50599558 12.125 0.6875 C12.33138953 32.78900945 12.33138953 32.78900945 11.125 48.6875 C9.18780622 48.74156122 7.25018079 48.78032025 5.3125 48.8125 C4.23355469 48.83570313 3.15460938 48.85890625 2.04296875 48.8828125 C-0.875 48.6875 -0.875 48.6875 -3.875 46.6875 C-7.00021833 46.52050768 -7.00021833 46.52050768 -9.875 46.6875 C-10.101875 45.924375 -10.32875 45.16125 -10.5625 44.375 C-12.14231682 41.14013699 -13.70782717 40.27108642 -16.875 38.6875 C-16.545 37.6975 -16.215 36.7075 -15.875 35.6875 C-16.865 35.6875 -17.855 35.6875 -18.875 35.6875 C-19.205 36.3475 -19.535 37.0075 -19.875 37.6875 C-22.59131546 36.78206151 -25.22271188 35.76275194 -27.875 34.6875 C-27.875 34.0275 -27.875 33.3675 -27.875 32.6875 C-25.565 33.0175 -23.255 33.3475 -20.875 33.6875 C-20.875 33.0275 -20.875 32.3675 -20.875 31.6875 C-21.535 31.6875 -22.195 31.6875 -22.875 31.6875 C-22.875 31.0275 -22.875 30.3675 -22.875 29.6875 C-21.555 29.3575 -20.235 29.0275 -18.875 28.6875 C-19.865 27.6975 -20.855 26.7075 -21.875 25.6875 C-21.875 26.6775 -21.875 27.6675 -21.875 28.6875 C-22.535 28.6875 -23.195 28.6875 -23.875 28.6875 C-23.875 28.0275 -23.875 27.3675 -23.875 26.6875 C-26.79017292 27.76151108 -28.65310176 28.46560176 -30.875 30.6875 C-33 30.3125 -33 30.3125 -34.875 29.6875 C-33.885 29.3575 -32.895 29.0275 -31.875 28.6875 C-31.875 28.0275 -31.875 27.3675 -31.875 26.6875 C-32.865 26.6875 -33.855 26.6875 -34.875 26.6875 C-34.875 25.3675 -34.875 24.0475 -34.875 22.6875 C-36.2916747 20.9363427 -36.2916747 20.9363427 -37.875 19.6875 C-35.22761084 18.2268715 -33.98051666 17.6875 -30.875 17.6875 C-30.875 17.0275 -30.875 16.3675 -30.875 15.6875 C-29.885 15.3575 -28.895 15.0275 -27.875 14.6875 C-27.875 15.3475 -27.875 16.0075 -27.875 16.6875 C-26.555 16.0275 -25.235 15.3675 -23.875 14.6875 C-24.865 14.3575 -25.855 14.0275 -26.875 13.6875 C-26.215 12.0375 -25.555 10.3875 -24.875 8.6875 C-23.885 8.6875 -22.895 8.6875 -21.875 8.6875 C-21.875 8.0275 -21.875 7.3675 -21.875 6.6875 C-21.215 6.6875 -20.555 6.6875 -19.875 6.6875 C-19.83375 6.089375 -19.7925 5.49125 -19.75 4.875 C-18.875 2.6875 -18.875 2.6875 -16.625 1.03125 C-11.04501312 -0.9682453 -5.85330626 -0.37326389 0 0 Z M-34.875 19.6875 C-34.545 20.3475 -34.215 21.0075 -33.875 21.6875 C-31.85036745 22.33963292 -31.85036745 22.33963292 -29.875 22.6875 C-29.875 22.0275 -29.875 21.3675 -29.875 20.6875 C-31.525 20.3575 -33.175 20.0275 -34.875 19.6875 Z " fill="#7C7A7B" transform="translate(194.875,121.3125)"/>
<path d="M0 0 C5.96652354 1.57013777 10.82909025 4.75029782 16 8 C15.67 8.99 15.34 9.98 15 11 C16.32 10.67 17.64 10.34 19 10 C20.21983748 12.43967497 20.12051527 13.99904524 20.11352539 16.72509766 C20.11344986 17.70596344 20.11337433 18.68682922 20.11329651 19.69741821 C20.10813522 20.75891083 20.10297394 21.82040344 20.09765625 22.9140625 C20.0962413 23.99883881 20.09482635 25.08361511 20.09336853 26.20126343 C20.08775802 29.67587 20.07520372 33.15041281 20.0625 36.625 C20.05748635 38.97656157 20.05292321 41.32812415 20.04882812 43.6796875 C20.03778518 49.45314686 20.02103679 55.22656888 20 61 C29.59152121 61.15815237 38.85674803 60.92860425 48.375 59.5625 C50.36182101 59.29180535 52.34879917 59.02226156 54.3359375 58.75390625 C55.74504395 58.56078857 55.74504395 58.56078857 57.18261719 58.36376953 C61.44588931 57.81331239 65.71978987 57.3941835 70 57 C69.3819751 57.3079248 68.7639502 57.61584961 68.12719727 57.93310547 C66.73306048 58.63233395 65.34524471 59.34434347 63.96484375 60.0703125 C63.29582031 60.41835937 62.62679687 60.76640625 61.9375 61.125 C61.26589844 61.47820312 60.59429687 61.83140625 59.90234375 62.1953125 C58 63 58 63 55 63 C55 63.66 55 64.32 55 65 C53.35 65 51.7 65 50 65 C50 65.66 50 66.32 50 67 C46.58168085 69.5393228 44.24223102 70.3636198 40 70 C40 70.66 40 71.32 40 72 C39.38511719 72.06058594 38.77023438 72.12117188 38.13671875 72.18359375 C37.32847656 72.26738281 36.52023438 72.35117188 35.6875 72.4375 C34.88699219 72.51871094 34.08648437 72.59992188 33.26171875 72.68359375 C30.83912821 72.95265693 30.83912821 72.95265693 28 74 C26.43881572 74.06740865 24.8749748 74.08514456 23.3125 74.0625 C22.50425781 74.05347656 21.69601563 74.04445313 20.86328125 74.03515625 C20.24839844 74.02355469 19.63351563 74.01195312 19 74 C19.33 74.99 19.66 75.98 20 77 C17.83125748 76.49396008 16.00032373 76.00016187 14 75 C14 74.34 14 73.68 14 73 C13.34 73 12.68 73 12 73 C11.505 73.99 11.505 73.99 11 75 C11 74.34 11 73.68 11 73 C10.01 72.67 9.02 72.34 8 72 C9.32 72 10.64 72 12 72 C11.67 70.68 11.34 69.36 11 68 C10.34 68 9.68 68 9 68 C9 66 9 66 10 65 C8.68 64.67 7.36 64.34 6 64 C6 63.34 6 62.68 6 62 C4.68 61.67 3.36 61.34 2 61 C5.21451269 59.39274365 8.43612536 59.94251815 12 60 C12 59.34 12 58.68 12 58 C11.2575 57.731875 10.515 57.46375 9.75 57.1875 C7.10938051 56.04723249 5.14447156 54.90619694 3 53 C3 52.34 3 51.68 3 51 C1.68 50.67 0.36 50.34 -1 50 C-1.02486852 44.32576816 -1.04293935 38.65156862 -1.05493164 32.97729492 C-1.05993539 31.05020596 -1.06674045 29.12312075 -1.07543945 27.19604492 C-1.08767948 24.41323924 -1.09326804 21.63048411 -1.09765625 18.84765625 C-1.10281754 17.99728287 -1.10797882 17.14690948 -1.11329651 16.27076721 C-1.11380299 10.77104481 -0.69381392 5.4568825 0 0 Z " fill="#6A6969" transform="translate(116,63)"/>
<path d="M0 0 C2.34491843 0.41096508 4.70089178 0.76193168 7.0625 1.0625 C10.81300432 1.5468234 14.32617334 2.08154334 18 3 C18 12.57 18 22.14 18 32 C8.76 32.66 -0.48 33.32 -10 34 C-10 25.75 -10 17.5 -10 9 C-11.65 9 -13.3 9 -15 9 C-15 8.34 -15 7.68 -15 7 C-23.25 6.01 -31.5 5.02 -40 4 C-40.33 5.32 -40.66 6.64 -41 8 C-41 6.35 -41 4.7 -41 3 C-37.25839835 1.94659663 -33.50589559 0.9386282 -29.75 -0.0625 C-28.70585938 -0.35705078 -27.66171875 -0.65160156 -26.5859375 -0.95507812 C-17.26072724 -3.40150674 -8.99166435 -3.74644957 0 0 Z " fill="#A2A2A3" transform="translate(130,27)"/>
<path d="M0 0 C0.66 0.33 1.32 0.66 2 1 C2.66 1 3.32 1 4 1 C4.66 1 5.32 1 6 1 C6 1.66 6 2.32 6 3 C8.97 3.495 8.97 3.495 12 4 C12 3.34 12 2.68 12 2 C12.66 2 13.32 2 14 2 C14.33 3.65 14.66 5.3 15 7 C13.576875 7.2165625 13.576875 7.2165625 12.125 7.4375 C9.1065506 7.82935399 9.1065506 7.82935399 7 9 C6.01 8.67 5.02 8.34 4 8 C0.95865509 9.66924071 0.95865509 9.66924071 0 12 C0.66 11.67 1.32 11.34 2 11 C3.33333333 10.33333333 4.66666667 9.66666667 6 9 C5.67 9.66 5.34 10.32 5 11 C5.66 11.33 6.32 11.66 7 12 C7.33 11.34 7.66 10.68 8 10 C9.11375 10.165 10.2275 10.33 11.375 10.5 C14.72032033 11.0455458 14.72032033 11.0455458 17 11 C18.41385911 8.61837991 18.41385911 8.61837991 19 6 C20.65 6 22.3 6 24 6 C24.33 7.98 24.66 9.96 25 12 C24.1646875 12.5878125 24.1646875 12.5878125 23.3125 13.1875 C20.6564795 15.2692458 18.35135049 17.58333422 16 20 C16.33 20.33 16.66 20.66 17 21 C17.36162029 22.32594105 17.69728039 23.65938457 18 25 C18.66 25 19.32 25 20 25 C20 25.66 20 26.32 20 27 C20.66 27 21.32 27 22 27 C22.33 26.01 22.66 25.02 23 24 C22.34 23.67 21.68 23.34 21 23 C21 22.34 21 21.68 21 21 C23.91708924 19.01637931 25.12380904 19.0123809 28.75 19.375 C30.35875 19.684375 30.35875 19.684375 32 20 C32 20.66 32 21.32 32 22 C31.34 22 30.68 22 30 22 C29.67 22.99 29.34 23.98 29 25 C30.32 25.33 31.64 25.66 33 26 C33 25.34 33 24.68 33 24 C33.66 24 34.32 24 35 24 C35 24.66 35 25.32 35 26 C35.66 26 36.32 26 37 26 C36.67 27.32 36.34 28.64 36 30 C36.99 29.67 37.98 29.34 39 29 C39.33 28.34 39.66 27.68 40 27 C40.66 27 41.32 27 42 27 C42.495 29.475 42.495 29.475 43 32 C37.33391719 33.53241785 31.83643023 34.5352963 26 35.125 C25.18418457 35.20919189 24.36836914 35.29338379 23.52783203 35.38012695 C15.70411046 36.12823906 7.85349871 36.45026726 0 36 C-1.80375891 34.19624109 -1.13037298 31.45284707 -1.1328125 29.0234375 C-1.13410156 27.79496094 -1.13539063 26.56648438 -1.13671875 25.30078125 C-1.13285156 24.00527344 -1.12898437 22.70976563 -1.125 21.375 C-1.12886719 20.10269531 -1.13273438 18.83039063 -1.13671875 17.51953125 C-1.13542969 16.28332031 -1.13414062 15.04710938 -1.1328125 13.7734375 C-1.13168457 12.64341309 -1.13055664 11.51338867 -1.12939453 10.34912109 C-0.99387535 6.84147563 -0.55364134 3.46424436 0 0 Z M35 23 C37 24 37 24 37 24 Z " fill="#8B8B8C" transform="translate(136,89)"/>
<path d="M0 0 C4.62 0 9.24 0 14 0 C14 2.31 14 4.62 14 7 C14.721875 7.061875 15.44375 7.12375 16.1875 7.1875 C19.85956016 8.24831738 21.39427842 10.26065167 24 13 C26.16620544 14.29519995 26.16620544 14.29519995 28 15 C28 15.66 28 16.32 28 17 C24.04 17.495 24.04 17.495 20 18 C20.66 18.33 21.32 18.66 22 19 C22 19.66 22 20.32 22 21 C23.98 21 25.96 21 28 21 C27.67 21.66 27.34 22.32 27 23 C26.01 23 25.02 23 24 23 C24 23.66 24 24.32 24 25 C23.34 25.33 22.68 25.66 22 26 C22.33 26.66 22.66 27.32 23 28 C22.39421747 30.01927511 21.73080266 32.02253397 21 34 C19.68 34 18.36 34 17 34 C17 34.99 17 35.98 17 37 C15.68 37.66 14.36 38.32 13 39 C13 39.99 13 40.98 13 42 C11.02 42 9.04 42 7 42 C7 42.66 7 43.32 7 44 C9.64 43.67 12.28 43.34 15 43 C14.01 43.495 14.01 43.495 13 44 C13.56739868 48.12973628 13.56739868 48.12973628 15 52 C11.7 51.34 8.4 50.68 5 50 C4.67 48.68 4.34 47.36 4 46 C5.65 46.33 7.3 46.66 9 47 C7.55802132 45.55802132 5.82308429 44.88213756 4 44 C4 39.66666667 4 35.33333333 4 31 C4.99 31 5.98 31 7 31 C6.01 30.34 5.02 29.68 4 29 C3.33984375 25.83984375 3.33984375 25.83984375 2.9375 21.9375 C2.44656812 17.52752309 1.92018855 13.19462541 0.875 8.875 C0 5 0 5 0 0 Z " fill="#7E7E7C" transform="translate(100,106)"/>
<path d="M0 0 C0.88068649 0.06021332 1.76137299 0.12042664 2.66874695 0.1824646 C3.61570938 0.25840851 4.56267181 0.33435242 5.53833008 0.41259766 C6.51071121 0.48201569 7.48309235 0.55143372 8.48493958 0.62295532 C11.59343156 0.84724747 14.7005381 1.08676799 17.80786133 1.32666016 C19.91390767 1.48130954 22.02002704 1.63496781 24.1262207 1.78759766 C29.29183701 2.16411793 34.45639746 2.5531503 39.62036133 2.95166016 C38.30180675 6.90732389 36.7647116 7.20752174 33.12036133 9.07666016 C29.64930281 10.69609576 29.64930281 10.69609576 26.62036133 12.95166016 C23.86023651 13.0578188 21.13095307 13.09163431 18.37036133 13.07666016 C17.51023438 13.07472656 16.65010742 13.07279297 15.76391602 13.07080078 C3.04336157 12.99093682 -9.6698237 12.44456157 -22.37963867 11.95166016 C-22.37963867 20.53166016 -22.37963867 29.11166016 -22.37963867 37.95166016 C-22.70963867 37.95166016 -23.03963867 37.95166016 -23.37963867 37.95166016 C-23.37963867 28.71166016 -23.37963867 19.47166016 -23.37963867 9.95166016 C-15.56713867 6.07666016 -15.56713867 6.07666016 -13.11865234 4.86621094 C-12.15536011 4.38643799 -12.15536011 4.38643799 -11.17260742 3.89697266 C-10.51800537 3.57229004 -9.86340332 3.24760742 -9.18896484 2.91308594 C-3.25098212 -0.24219351 -3.25098212 -0.24219351 0 0 Z " fill="#BFBEC1" transform="translate(49.379638671875,42.04833984375)"/>
<path d="M0 0 C8.25 0.33 16.5 0.66 25 1 C25.04592888 5.21780188 25.08574749 9.43473513 25.10986328 13.65258789 C25.119917 15.08718812 25.13356194 16.52176789 25.15087891 17.95629883 C25.17515549 20.01909438 25.18648919 22.08161885 25.1953125 24.14453125 C25.20578613 25.38565674 25.21625977 26.62678223 25.22705078 27.90551758 C25 31 25 31 23 34 C22.34 34 21.68 34 21 34 C20.67 34.66 20.34 35.32 20 36 C20 33.66666667 20 31.33333333 20 29 C16.37388691 25.37388691 10.42891292 25.94627031 5.5 25.9375 C4.345 25.958125 3.19 25.97875 2 26 C2 25.67 2 25.34 2 25 C4.31 25 6.62 25 9 25 C9 24.34 9 23.68 9 23 C6.69 23 4.38 23 2 23 C2 22.34 2 21.68 2 21 C4.64 21.33 7.28 21.66 10 22 C10 21.34 10 20.68 10 20 C11.5 18.375 11.5 18.375 13 17 C12.01 16.67 11.02 16.34 10 16 C10 15.01 10 14.02 10 13 C11.32 12.34 12.64 11.68 14 11 C12.68 10.67 11.36 10.34 10 10 C9.67 10.99 9.34 11.98 9 13 C8.34 13 7.68 13 7 13 C6.67 12.34 6.34 11.68 6 11 C5.01 11.33 4.02 11.66 3 12 C2.01 11.34 1.02 10.68 0 10 C0 10.66 0 11.32 0 12 C-0.66 12 -1.32 12 -2 12 C-2 11.34 -2 10.68 -2 10 C-2.66 10 -3.32 10 -4 10 C-4.33 10.66 -4.66 11.32 -5 12 C-4.66666667 10.66666667 -4.33333333 9.33333333 -4 8 C-3.855625 7.29875 -3.71125 6.5975 -3.5625 5.875 C-3 4 -3 4 -1 2 C-0.67 1.34 -0.34 0.68 0 0 Z " fill="#828282" transform="translate(182,121)"/>
<path d="M0 0 C-0.86431641 0.42925781 -0.86431641 0.42925781 -1.74609375 0.8671875 C-3.18218223 1.58896507 -4.61261796 2.32218296 -6.03515625 3.0703125 C-7.03869141 3.59238281 -7.03869141 3.59238281 -8.0625 4.125 C-8.73410156 4.47820312 -9.40570313 4.83140625 -10.09765625 5.1953125 C-12 6 -12 6 -15 6 C-15 6.66 -15 7.32 -15 8 C-16.65 8 -18.3 8 -20 8 C-20 8.66 -20 9.32 -20 10 C-23.41831915 12.5393228 -25.75776898 13.3636198 -30 13 C-30 13.66 -30 14.32 -30 15 C-30.61488281 15.06058594 -31.22976562 15.12117187 -31.86328125 15.18359375 C-33.07564453 15.30927734 -33.07564453 15.30927734 -34.3125 15.4375 C-35.11300781 15.51871094 -35.91351563 15.59992188 -36.73828125 15.68359375 C-39.16087179 15.95265693 -39.16087179 15.95265693 -42 17 C-43.56118428 17.06740865 -45.1250252 17.08514456 -46.6875 17.0625 C-47.89986328 17.04896484 -47.89986328 17.04896484 -49.13671875 17.03515625 C-49.75160156 17.02355469 -50.36648437 17.01195312 -51 17 C-50.67 17.99 -50.34 18.98 -50 20 C-53.875 19.125 -53.875 19.125 -55 18 C-55.07226502 16.14712498 -55.0838122 14.29166122 -55.0625 12.4375 C-55.05347656 11.42558594 -55.04445312 10.41367188 -55.03515625 9.37109375 C-55.02355469 8.58863281 -55.01195312 7.80617188 -55 7 C-55.66 7 -56.32 7 -57 7 C-57 5.68 -57 4.36 -57 3 C-55.68 3.33 -54.36 3.66 -53 4 C-53 4.66 -53 5.32 -53 6 C-47.7706724 5.47315617 -42.5420547 4.93986711 -37.31396484 4.40087891 C-35.53940147 4.21881457 -33.76466379 4.03844033 -31.98974609 3.85986328 C-19.40137624 2.67573625 -19.40137624 2.67573625 -6.98583984 0.36279297 C-4.62964822 -0.06765955 -2.38987472 -0.05770635 0 0 Z " fill="#444342" transform="translate(186,120)"/>
<path d="M0 0 C3.56606413 0.58821676 7.13429341 1.0085815 10.72265625 1.4375 C13.60214365 1.93171476 15.52128599 2.51648039 18 4 C4.65142463 8.79179629 -9.36240217 9.61215085 -23.25390625 6.578125 C-28.78123072 5.41447774 -34.40614332 4.76762413 -40 4 C-40.33 5.32 -40.66 6.64 -41 8 C-41 6.35 -41 4.7 -41 3 C-37.25839835 1.94659663 -33.50589559 0.9386282 -29.75 -0.0625 C-28.70585938 -0.35705078 -27.66171875 -0.65160156 -26.5859375 -0.95507812 C-17.25584078 -3.40278869 -8.99691455 -3.74029032 0 0 Z " fill="#C8C8C8" transform="translate(130,27)"/>
<path d="M0 0 C4.62 0 9.24 0 14 0 C14 2.31 14 4.62 14 7 C14.721875 7.061875 15.44375 7.12375 16.1875 7.1875 C19.85956016 8.24831738 21.39427842 10.26065167 24 13 C26.16620544 14.29519995 26.16620544 14.29519995 28 15 C28 15.66 28 16.32 28 17 C19.75 17 11.5 17 3 17 C0 5 0 5 0 0 Z " fill="#A5A4A4" transform="translate(100,106)"/>
<path d="M0 0 C1.11841368 2.08770553 1.9708176 3.85408801 2.4375 6.1875 C2.623125 6.785625 2.80875 7.38375 3 8 C3.99 8.33 4.98 8.66 6 9 C6.66 8.67 7.32 8.34 8 8 C8 8.99 8 9.98 8 11 C9.32 11 10.64 11 12 11 C12 12.98 12 14.96 12 17 C10.68 17.33 9.36 17.66 8 18 C8 19.32 8 20.64 8 22 C2.63904667 23.12862175 -2.55306686 23.09688221 -8 23 C-8.33 22.01 -8.66 21.02 -9 20 C-11.31 19.67 -13.62 19.34 -16 19 C-16 17.02 -16 15.04 -16 13 C-12.90461839 12.00505591 -11.10172125 12.14435276 -8 13 C-7.67 12.67 -7.34 12.34 -7 12 C-6.01 12 -5.02 12 -4 12 C-3.67 12.66 -3.34 13.32 -3 14 C-2.01 14 -1.02 14 0 14 C-0.99 13.01 -1.98 12.02 -3 11 C-2.34 9.68 -1.68 8.36 -1 7 C-1.99 7 -2.98 7 -4 7 C-3.6875 4.625 -3.6875 4.625 -3 2 C-2.01 1.34 -1.02 0.68 0 0 Z " fill="#8B8B8B" transform="translate(200,97)"/>
<path d="M0 0 C0.33 0 0.66 0 1 0 C1 21.45 1 42.9 1 65 C0.67 65 0.34 65 0 65 C0 61.7 0 58.4 0 55 C-1.32 54.67 -2.64 54.34 -4 54 C-2.68 54 -1.36 54 0 54 C-0.495 52.515 -0.495 52.515 -1 51 C-1.06970052 48.60509014 -1.08448003 46.20832309 -1.0625 43.8125 C-1.05347656 42.54019531 -1.04445313 41.26789063 -1.03515625 39.95703125 C-1.02355469 38.98121094 -1.01195313 38.00539062 -1 37 C-2.57273568 39.8424854 -2.57273568 39.8424854 -3 43 C-3.66 43 -4.32 43 -5 43 C-5 42.34 -5 41.68 -5 41 C-5.66 40.67 -6.32 40.34 -7 40 C-7 39.34 -7 38.68 -7 38 C-6.01 37.505 -6.01 37.505 -5 37 C-5 36.01 -5 35.02 -5 34 C-5.5775 33.855625 -6.155 33.71125 -6.75 33.5625 C-8.83333333 33.04166667 -10.91666667 32.52083333 -13 32 C-12.34 29.36 -11.68 26.72 -11 24 C-10.34 24 -9.68 24 -9 24 C-9 23.01 -9 22.02 -9 21 C-7 19.3125 -7 19.3125 -5 18 C-5.33 17.34 -5.66 16.68 -6 16 C-4.02 16 -2.04 16 0 16 C-0.08378906 15.26394531 -0.16757813 14.52789062 -0.25390625 13.76953125 C-0.35574219 12.79371094 -0.45757812 11.81789063 -0.5625 10.8125 C-0.71912109 9.36810547 -0.71912109 9.36810547 -0.87890625 7.89453125 C-0.99758751 5.05766623 -0.67765639 2.74576329 0 0 Z " fill="#757472" transform="translate(72,64)"/>
<path d="M0 0 C4.93802595 4.93802595 4.10367044 14.84760845 4.13574219 21.53912354 C4.11755332 25.40167358 4.06724853 29.26301325 4 33.125 C3.94675366 36.25258866 3.90693394 39.37994239 3.875 42.5078125 C3.85840332 43.21712921 3.84180664 43.92644592 3.82470703 44.65725708 C3.78758979 48.3571561 3.88638518 49.82957777 6 53 C5.01 53 4.02 53 3 53 C2.67 53.66 2.34 54.32 2 55 C-3.90912847 37.6946952 -0.91776038 17.935381 0 0 Z " fill="#626261" transform="translate(100,113)"/>
<path d="M0 0 C2.14179139 1.62480726 3.97950188 3.41107345 5.8125 5.375 C5.4825 5.705 5.1525 6.035 4.8125 6.375 C5.4725 7.035 6.1325 7.695 6.8125 8.375 C-1.4375 8.375 -9.6875 8.375 -18.1875 8.375 C-18.1875 16.955 -18.1875 25.535 -18.1875 34.375 C-18.5175 34.375 -18.8475 34.375 -19.1875 34.375 C-19.1875 25.135 -19.1875 15.895 -19.1875 6.375 C-4.09659091 -1.17045455 -4.09659091 -1.17045455 0 0 Z " fill="#B8B8B6" transform="translate(45.1875,45.625)"/>
<path d="M0 0 C8.25 0.33 16.5 0.66 25 1 C23.02 1.99 23.02 1.99 21 3 C20.67 3.66 20.34 4.32 20 5 C19.34 5 18.68 5 18 5 C17.67 5.66 17.34 6.32 17 7 C13.9375 7.625 13.9375 7.625 11 8 C11 7.34 11 6.68 11 6 C9.68 6.33 8.36 6.66 7 7 C7 7.66 7 8.32 7 9 C5.35 8.67 3.7 8.34 2 8 C2 8.66 2 9.32 2 10 C1.34 10 0.68 10 0 10 C0 10.66 0 11.32 0 12 C-0.66 12 -1.32 12 -2 12 C-2 11.34 -2 10.68 -2 10 C-2.66 10 -3.32 10 -4 10 C-4.33 10.66 -4.66 11.32 -5 12 C-4.66666667 10.66666667 -4.33333333 9.33333333 -4 8 C-3.855625 7.29875 -3.71125 6.5975 -3.5625 5.875 C-3 4 -3 4 -1 2 C-0.67 1.34 -0.34 0.68 0 0 Z " fill="#898889" transform="translate(182,121)"/>
<path d="M0 0 C-0.86431641 0.42925781 -0.86431641 0.42925781 -1.74609375 0.8671875 C-3.18218223 1.58896507 -4.61261796 2.32218296 -6.03515625 3.0703125 C-6.70417969 3.41835937 -7.37320313 3.76640625 -8.0625 4.125 C-9.06990234 4.65480469 -9.06990234 4.65480469 -10.09765625 5.1953125 C-12 6 -12 6 -15 6 C-15 6.66 -15 7.32 -15 8 C-16.65 8 -18.3 8 -20 8 C-20 8.66 -20 9.32 -20 10 C-23.41831915 12.5393228 -25.75776898 13.3636198 -30 13 C-30 13.66 -30 14.32 -30 15 C-30.99 15 -31.98 15 -33 15 C-33.33 14.01 -33.66 13.02 -34 12 C-33.195625 11.731875 -32.39125 11.46375 -31.5625 11.1875 C-30.716875 10.795625 -29.87125 10.40375 -29 10 C-28.67 9.01 -28.34 8.02 -28 7 C-28.66 6.34 -29.32 5.68 -30 5 C-26.28708823 2.52472549 -22.94695223 2.35728421 -18.625 1.9375 C-17.1169941 1.78180997 -15.60917453 1.62430271 -14.1015625 1.46484375 C-13.0350647 1.35233276 -13.0350647 1.35233276 -11.94702148 1.23754883 C-1.4614561 -0.04175589 -1.4614561 -0.04175589 0 0 Z " fill="#474646" transform="translate(186,120)"/>
<path d="M0 0 C0.66 0.99 1.32 1.98 2 3 C1.2734375 4.921875 1.2734375 4.921875 0 7 C-2.0234375 7.828125 -2.0234375 7.828125 -4.375 8.25 C-5.14585937 8.39953125 -5.91671875 8.5490625 -6.7109375 8.703125 C-9 9 -9 9 -13 9 C-13 8.34 -13 7.68 -13 7 C-15.64 7 -18.28 7 -21 7 C-20.34 5.35 -19.68 3.7 -19 2 C-16.77149723 1.66225668 -14.54216533 1.3299813 -12.3125 1 C-10.45044922 0.7215625 -10.45044922 0.7215625 -8.55078125 0.4375 C-2.58276825 -0.29783274 -2.58276825 -0.29783274 0 0 Z " fill="#3F3F3C" transform="translate(157,124)"/>
<path d="M0 0 C1.32 0 2.64 0 4 0 C4 0.99 4 1.98 4 3 C5.32 3 6.64 3 8 3 C8 3.99 8 4.98 8 6 C6.02 6.99 6.02 6.99 4 8 C4 8.99 4 9.98 4 11 C2.02 11 0.04 11 -2 11 C-2 11.66 -2 12.32 -2 13 C0.64 12.67 3.28 12.34 6 12 C5.01 12.495 5.01 12.495 4 13 C4.56739868 17.12973628 4.56739868 17.12973628 6 21 C2.7 20.34 -0.6 19.68 -4 19 C-4.33 17.68 -4.66 16.36 -5 15 C-2.525 15.495 -2.525 15.495 0 16 C-1.44197868 14.55802132 -3.17691571 13.88213756 -5 13 C-5.125 6.25 -5.125 6.25 -4 4 C-1.4375 3.375 -1.4375 3.375 1 3 C0.67 2.01 0.34 1.02 0 0 Z " fill="#7A7A78" transform="translate(109,137)"/>
<path d="M0 0 C0.66 0.33 1.32 0.66 2 1 C2.66 1 3.32 1 4 1 C4.66 1 5.32 1 6 1 C6 1.66 6 2.32 6 3 C8.97 3.495 8.97 3.495 12 4 C12 3.34 12 2.68 12 2 C12.66 2 13.32 2 14 2 C14.33 3.65 14.66 5.3 15 7 C13.576875 7.2165625 13.576875 7.2165625 12.125 7.4375 C9.1065506 7.82935399 9.1065506 7.82935399 7 9 C6.01 8.67 5.02 8.34 4 8 C3.01 8.66 2.02 9.32 1 10 C0.58472876 12.12694665 0.58472876 12.12694665 0.70703125 14.5703125 C0.71669922 15.46621094 0.72636719 16.36210938 0.73632812 17.28515625 C0.76146484 18.22230469 0.78660156 19.15945312 0.8125 20.125 C0.82603516 21.06988281 0.83957031 22.01476562 0.85351562 22.98828125 C0.88893694 25.32608779 0.93832729 27.66276237 1 30 C1.99 30.33 2.98 30.66 4 31 C3.505 33.475 3.505 33.475 3 36 C1.68 35.67 0.36 35.34 -1 35 C-1.02917237 30.47918034 -1.0468568 25.95838512 -1.0625 21.4375 C-1.07087891 20.16068359 -1.07925781 18.88386719 -1.08789062 17.56835938 C-1.09111328 16.32763672 -1.09433594 15.08691406 -1.09765625 13.80859375 C-1.10289307 12.67220459 -1.10812988 11.53581543 -1.11352539 10.36499023 C-0.99486905 6.84791433 -0.55780511 3.47228855 0 0 Z " fill="#8E8C8D" transform="translate(136,89)"/>
<path d="M0 0 C1.25425781 0.00902344 2.50851563 0.01804688 3.80078125 0.02734375 C4.75339844 0.03894531 5.70601562 0.05054688 6.6875 0.0625 C6.3575 1.0525 6.0275 2.0425 5.6875 3.0625 C3.3775 3.0625 1.0675 3.0625 -1.3125 3.0625 C-1.3125 3.3925 -1.3125 3.7225 -1.3125 4.0625 C0.6675 4.0625 2.6475 4.0625 4.6875 4.0625 C5.3125 5.875 5.3125 5.875 5.6875 8.0625 C4.6975 9.5475 4.6975 9.5475 3.6875 11.0625 C-0.18486814 10.37637652 -3.18508235 8.58700228 -6.5625 6.625 C-7.64015625 6.00753906 -8.7178125 5.39007813 -9.828125 4.75390625 C-10.64796875 4.19574219 -11.4678125 3.63757812 -12.3125 3.0625 C-12.3125 2.4025 -12.3125 1.7425 -12.3125 1.0625 C-8.15623632 0.05323521 -4.26884906 -0.03989579 0 0 Z " fill="#BCBABB" transform="translate(129.3125,59.9375)"/>
<path d="M0 0 C0.33 0 0.66 0 1 0 C1.33 4.62 1.66 9.24 2 14 C3.65 14.33 5.3 14.66 7 15 C6.86722656 15.64066406 6.73445313 16.28132813 6.59765625 16.94140625 C5.57506994 21.94983993 4.66115853 26.93111794 4 32 C3.01 32 2.02 32 1 32 C1 34.97 1 37.94 1 41 C0.67 41 0.34 41 0 41 C0 27.47 0 13.94 0 0 Z " fill="#959393" transform="translate(73,96)"/>
<path d="M0 0 C0.33 0.66 0.66 1.32 1 2 C1.99 2.66 2.98 3.32 4 4 C2.7934375 4.309375 2.7934375 4.309375 1.5625 4.625 C0.716875 5.07875 -0.12875 5.5325 -1 6 C-1.89830839 9.05272465 -1.89830839 9.05272465 -2 12 C0.31 12.33 2.62 12.66 5 13 C1.93753253 14.78409802 -0.22079273 15.22880021 -3.75 15.125 C-4.54921875 15.10695313 -5.3484375 15.08890625 -6.171875 15.0703125 C-6.77515625 15.04710938 -7.3784375 15.02390625 -8 15 C-7.125 8.125 -7.125 8.125 -6 7 C-6.99 6.34 -7.98 5.68 -9 5 C-9 3.68 -9 2.36 -9 1 C-7.88625 1.020625 -6.7725 1.04125 -5.625 1.0625 C-2.16784079 1.26380718 -2.16784079 1.26380718 0 0 Z " fill="#8D8D8D" transform="translate(192,92)"/>
<path d="M0 0 C3.53938488 1.62811704 5.45940549 3.63161104 8.125 6.4375 C10.29120544 7.73269995 10.29120544 7.73269995 12.125 8.4375 C12.125 9.0975 12.125 9.7575 12.125 10.4375 C7.835 10.4375 3.545 10.4375 -0.875 10.4375 C-0.545 9.1175 -0.215 7.7975 0.125 6.4375 C-1.195 6.1075 -2.515 5.7775 -3.875 5.4375 C-3.875 4.7775 -3.875 4.1175 -3.875 3.4375 C-4.535 2.7775 -5.195 2.1175 -5.875 1.4375 C-2.875 -0.5625 -2.875 -0.5625 0 0 Z " fill="#A09F9D" transform="translate(115.875,112.5625)"/>
<path d="M0 0 C8.57142857 1 8.57142857 1 12 2 C12 4.31 12 6.62 12 9 C10.02 9.66 8.04 10.32 6 11 C5.67 9.02 5.34 7.04 5 5 C4.34 5 3.68 5 3 5 C3 6.32 3 7.64 3 9 C2.01 8.67 1.02 8.34 0 8 C0 5.36 0 2.72 0 0 Z " fill="#777777" transform="translate(60,55)"/>
<path d="M0 0 C2.79192205 -0.05380578 5.5828141 -0.09357669 8.375 -0.125 C9.1690625 -0.14175781 9.963125 -0.15851562 10.78125 -0.17578125 C12.85492015 -0.19335473 14.92883241 -0.10335168 17 0 C17.66 0.66 18.32 1.32 19 2 C18.278125 2.0825 17.55625 2.165 16.8125 2.25 C13.44778969 3.14725608 11.64326193 4.78537514 9 7 C8.34 7 7.68 7 7 7 C7 6.34 7 5.68 7 5 C5.02 5 3.04 5 1 5 C2.65 5.33 4.3 5.66 6 6 C6 6.33 6 6.66 6 7 C2.04 7.66 -1.92 8.32 -6 9 C-5.01 7.68 -4.02 6.36 -3 5 C-3 4.34 -3 3.68 -3 3 C-0.10765685 2.17361624 1.88742431 2 5 2 C3.35 1.67 1.7 1.34 0 1 C0 0.67 0 0.34 0 0 Z " fill="#787776" transform="translate(39,54)"/>
<path d="M0 0 C3 1 3 1 5 3 C5 3.66 5 4.32 5 5 C5.99 5.33 6.98 5.66 8 6 C7.67 7.32 7.34 8.64 7 10 C3.37 10 -0.26 10 -4 10 C-4.33 7.69 -4.66 5.38 -5 3 C-4.01 2.67 -3.02 2.34 -2 2 C-1.34 1.34 -0.68 0.68 0 0 Z " fill="#AAAAAA" transform="translate(108,113)"/>
<path d="M0 0 C0.33 0 0.66 0 1 0 C1.94809789 6.79339561 2.3032934 13.52116198 2.51757812 20.37304688 C2.55173828 21.18451172 2.58589844 21.99597656 2.62109375 22.83203125 C2.65867798 23.92608276 2.65867798 23.92608276 2.69702148 25.04223633 C2.90875373 27.31913106 2.90875373 27.31913106 5 30 C4.01 30 3.02 30 2 30 C1.67 30.66 1.34 31.32 1 32 C-0.33730803 27.1522584 -1.24128796 23.06704708 -1 18 C-1 16.18616006 -1.01662764 14.37233905 -1.03515625 12.55859375 C-1.04446494 11.18489713 -1.05357159 9.81119914 -1.0625 8.4375 C-1.07087891 7.73947266 -1.07925781 7.04144531 -1.08789062 6.32226562 C-1.09649542 4.54795606 -1.05234823 2.77355804 -1 1 C-0.67 0.67 -0.34 0.34 0 0 Z " fill="#595957" transform="translate(101,136)"/>
<path d="M0 0 C0 2.31 0 4.62 0 7 C-0.99 7.495 -0.99 7.495 -2 8 C-1.95875 9.2375 -1.9175 10.475 -1.875 11.75 C-1.86341709 15.01637962 -2.1431298 17.2146947 -4 20 C-6.17494155 16.47330196 -6.2985079 13.53718463 -6.3125 9.4375 C-6.32925781 8.30183594 -6.34601563 7.16617188 -6.36328125 5.99609375 C-6 3 -6 3 -4.66796875 1.09765625 C-3 0 -3 0 0 0 Z " fill="#A7A5A5" transform="translate(79,72)"/>
<path d="M0 0 C3.27216113 0.2778545 6.5423326 0.57465563 9.8125 0.875 C11.2056543 0.99294922 11.2056543 0.99294922 12.62695312 1.11328125 C13.9659668 1.23896484 13.9659668 1.23896484 15.33203125 1.3671875 C16.56530151 1.47716064 16.56530151 1.47716064 17.82348633 1.58935547 C20 2 20 2 23 4 C17.79666866 6.24281523 14.65735415 7.55577239 9 6 C9 5.34 9 4.68 9 4 C7.35 4 5.7 4 4 4 C3.67 3.34 3.34 2.68 3 2 C2.01 2 1.02 2 0 2 C0 1.34 0 0.68 0 0 Z " fill="#8D8B8C" transform="translate(92,31)"/>
<path d="M0 0 C0 0.33 0 0.66 0 1 C-2.64 1.33 -5.28 1.66 -8 2 C-8 2.66 -8 3.32 -8 4 C-8.66 4 -9.32 4 -10 4 C-10 3.34 -10 2.68 -10 2 C-10.66 2 -11.32 2 -12 2 C-12.33 2.99 -12.66 3.98 -13 5 C-13.99 5 -14.98 5 -16 5 C-16.33 5.99 -16.66 6.98 -17 8 C-18.32 8 -19.64 8 -21 8 C-21.66 6.68 -22.32 5.36 -23 4 C-21 1 -21 1 -18.75 0.48828125 C-17.38875 0.40126953 -17.38875 0.40126953 -16 0.3125 C-15.02417969 0.24804688 -14.04835937 0.18359375 -13.04296875 0.1171875 C-8.69199573 -0.05037244 -4.35312205 -0.08498503 0 0 Z " fill="#A0A0A0" transform="translate(213,67)"/>
<path d="M0 0 C1.8871875 0.0309375 1.8871875 0.0309375 3.8125 0.0625 C3.8125 1.0525 3.8125 2.0425 3.8125 3.0625 C3.1525 3.0625 2.4925 3.0625 1.8125 3.0625 C1.8125 4.3825 1.8125 5.7025 1.8125 7.0625 C2.4725 7.7225 3.1325 8.3825 3.8125 9.0625 C0.8425 9.0625 -2.1275 9.0625 -5.1875 9.0625 C-4.8575 8.0725 -4.5275 7.0825 -4.1875 6.0625 C-4.93 5.381875 -4.93 5.381875 -5.6875 4.6875 C-7.1875 3.0625 -7.1875 3.0625 -7.1875 1.0625 C-4.43671116 0.14557039 -2.82801087 -0.04636083 0 0 Z " fill="#787878" transform="translate(199.1875,160.9375)"/>
<path d="M0 0 C3.465 1.485 3.465 1.485 7 3 C7 3.99 7 4.98 7 6 C7.66 6.33 8.32 6.66 9 7 C9 7.33 9 7.66 9 8 C9.99 8.33 10.98 8.66 12 9 C10.35 9.66 8.7 10.32 7 11 C7 11.99 7 12.98 7 14 C7.66 14 8.32 14 9 14 C9 14.66 9 15.32 9 16 C7.35 16.33 5.7 16.66 4 17 C3.67 12.05 3.34 7.1 3 2 C1.68 2.33 0.36 2.66 -1 3 C-0.67 2.01 -0.34 1.02 0 0 Z " fill="#918F90" transform="translate(132,71)"/>
<path d="M0 0 C0.99 0 1.98 0 3 0 C3 0.99 3 1.98 3 3 C4.32 2.67 5.64 2.34 7 2 C6.95875 2.763125 6.9175 3.52625 6.875 4.3125 C6.77919176 7.22718416 6.77919176 7.22718416 9 10 C8 11 8 11 6.15234375 11.09765625 C4.1015625 11.06510417 2.05078125 11.03255208 0 11 C0 10.01 0 9.02 0 8 C-0.66 7.67 -1.32 7.34 -2 7 C1.465 6.505 1.465 6.505 5 6 C5 5.34 5 4.68 5 4 C3.68 4.33 2.36 4.66 1 5 C0.67 3.35 0.34 1.7 0 0 Z " fill="#626161" transform="translate(56,137)"/>
<path d="M0 0 C0 0.99 0 1.98 0 3 C-0.78375 3.309375 -1.5675 3.61875 -2.375 3.9375 C-5.91257838 5.16831954 -5.91257838 5.16831954 -8 8 C-11.3 7.67 -14.6 7.34 -18 7 C-17.67 5.68 -17.34 4.36 -17 3 C-15.02 3 -13.04 3 -11 3 C-10.67 2.34 -10.34 1.68 -10 1 C-9.01 1.33 -8.02 1.66 -7 2 C-3.17692074 1.77752237 -3.17692074 1.77752237 0 0 Z " fill="#919191" transform="translate(170,115)"/>
<path d="M0 0 C0 5.61 0 11.22 0 17 C-0.33 17 -0.66 17 -1 17 C-1 12.38 -1 7.76 -1 3 C-7.93 3 -14.86 3 -22 3 C-22 2.67 -22 2.34 -22 2 C-19.45887768 1.66198848 -16.91723254 1.32946621 -14.375 1 C-13.66214844 0.90460938 -12.94929687 0.80921875 -12.21484375 0.7109375 C-11.51230469 0.62070313 -10.80976563 0.53046875 -10.0859375 0.4375 C-9.4470459 0.35371094 -8.8081543 0.26992187 -8.14990234 0.18359375 C-5.44243323 -0.04761415 -2.71732333 0 0 0 Z " fill="#B5B5B5" transform="translate(208,119)"/>
<path d="M0 0 C2.13604308 3.20406462 2.24208908 3.99600747 2.1953125 7.66796875 C2.18886719 8.56064453 2.18242187 9.45332031 2.17578125 10.37304688 C2.15902344 11.30181641 2.14226562 12.23058594 2.125 13.1875 C2.11597656 14.12787109 2.10695312 15.06824219 2.09765625 16.03710938 C2.07409056 18.35832968 2.04119116 20.67903644 2 23 C2.99 23.33 3.98 23.66 5 24 C4.67 25.65 4.34 27.3 4 29 C2.68 28.67 1.36 28.34 0 28 C0 18.76 0 9.52 0 0 Z " fill="#7C7C7C" transform="translate(135,96)"/>
<path d="M0 0 C4.54805635 -0.17835515 7.8794254 0.00214565 12 2 C12 2.66 12 3.32 12 4 C11.01 4 10.02 4 9 4 C9 4.66 9 5.32 9 6 C9.66 6 10.32 6 11 6 C11 6.66 11 7.32 11 8 C10.01 8 9.02 8 8 8 C8 7.34 8 6.68 8 6 C7.13375 5.814375 7.13375 5.814375 6.25 5.625 C3.97664233 4.99351176 2.0746471 4.11141809 0 3 C0 2.01 0 1.02 0 0 Z " fill="#767676" transform="translate(107,159)"/>
<path d="M0 0 C1.50559539 1.96382007 2.89131683 3.78263366 4 6 C5.32 5.34 6.64 4.68 8 4 C8 4.66 8 5.32 8 6 C8.66 6 9.32 6 10 6 C10 6.66 10 7.32 10 8 C9.360625 8.103125 8.72125 8.20625 8.0625 8.3125 C7.0415625 8.6528125 7.0415625 8.6528125 6 9 C5.67 9.99 5.34 10.98 5 12 C4.34 12 3.68 12 3 12 C3 11.34 3 10.68 3 10 C2.01 9.67 1.02 9.34 0 9 C0 6.03 0 3.06 0 0 Z " fill="#888888" transform="translate(136,105)"/>
<path d="M0 0 C2.9375 0.8125 2.9375 0.8125 6 2 C6.33 2.99 6.66 3.98 7 5 C1.25 10 1.25 10 -1 10 C-1.125 2.25 -1.125 2.25 0 0 Z " fill="#8F8E8F" transform="translate(78,135)"/>
<path d="M0 0 C0 0.66 0 1.32 0 2 C-1.65 2 -3.3 2 -5 2 C-5 2.66 -5 3.32 -5 4 C-8.41831915 6.5393228 -10.75776898 7.3636198 -15 7 C-15 7.66 -15 8.32 -15 9 C-15.99 9 -16.98 9 -18 9 C-18.33 8.01 -18.66 7.02 -19 6 C-6.15533981 0 -6.15533981 0 0 0 Z " fill="#585756" transform="translate(171,126)"/>
<path d="M0 0 C6.27 0 12.54 0 19 0 C19 0.33 19 0.66 19 1 C14.126739 2.5912689 10.19209404 3.21192221 5 3 C5 3.66 5 4.32 5 5 C2.525 4.01 2.525 4.01 0 3 C0 2.01 0 1.02 0 0 Z " fill="#A2A2A2" transform="translate(213,66)"/>
<path d="M0 0 C0.66 0.33 1.32 0.66 2 1 C3.25541557 4.76624671 2.37061958 6.37188934 1 10 C-0.32 10 -1.64 10 -3 10 C-3 9.01 -3 8.02 -3 7 C-3.99 6.67 -4.98 6.34 -6 6 C-5.67 4.35 -5.34 2.7 -5 1 C-4.34 1 -3.68 1 -3 1 C-3 1.66 -3 2.32 -3 3 C-2.34 3.33 -1.68 3.66 -1 4 C-0.67 2.68 -0.34 1.36 0 0 Z " fill="#767573" transform="translate(120,130)"/>
<path d="M0 0 C0.66 0.66 1.32 1.32 2 2 C3.98356483 2.71408334 5.98315437 3.38617742 8 4 C8 4.33 8 4.66 8 5 C2.29309366 5.99250545 -3.21408489 6.10477512 -9 6 C-8.01 5.67 -7.02 5.34 -6 5 C-6 4.34 -6 3.68 -6 3 C-5.01 3 -4.02 3 -3 3 C-3 2.34 -3 1.68 -3 1 C-2.01 0.67 -1.02 0.34 0 0 Z " fill="#858583" transform="translate(151,119)"/>
<path d="M0 0 C0.99 0.33 1.98 0.66 3 1 C0.6875 3.5 0.6875 3.5 -2 6 C-2.99 6 -3.98 6 -5 6 C-5 6.66 -5 7.32 -5 8 C-4.34 8.33 -3.68 8.66 -3 9 C-5.31 8.67 -7.62 8.34 -10 8 C-10.33 7.01 -10.66 6.02 -11 5 C-9.68 5 -8.36 5 -7 5 C-7 4.34 -7 3.68 -7 3 C-5.5459375 2.5359375 -5.5459375 2.5359375 -4.0625 2.0625 C-1.15934208 1.30476658 -1.15934208 1.30476658 0 0 Z " fill="#646361" transform="translate(163,130)"/>
<path d="M0 0 C0.99 0 1.98 0 3 0 C3 0.66 3 1.32 3 2 C4.32 1.67 5.64 1.34 7 1 C6.67 3.64 6.34 6.28 6 9 C3.03 8.505 3.03 8.505 0 8 C0 7.34 0 6.68 0 6 C0.66 6 1.32 6 2 6 C2.33 5.34 2.66 4.68 3 4 C2.34 3.67 1.68 3.34 1 3 C1 3.66 1 4.32 1 5 C0.34 5 -0.32 5 -1 5 C-0.67 3.35 -0.34 1.7 0 0 Z " fill="#9F9F9D" transform="translate(225,72)"/>
<path d="M0 0 C0 0.66 0 1.32 0 2 C-5.64216972 3.64563284 -11.28684797 4.60682401 -17 3 C-17 2.67 -17 2.34 -17 2 C-14.73139163 1.4695592 -12.46001511 0.95094566 -10.1875 0.4375 C-8.29064453 0.00244141 -8.29064453 0.00244141 -6.35546875 -0.44140625 C-3 -1 -3 -1 0 0 Z " fill="#D3D3D3" transform="translate(109,27)"/>
<path d="M0 0 C7.75 -0.125 7.75 -0.125 10 1 C10 1.66 10 2.32 10 3 C6.25 4.125 6.25 4.125 4 3 C4 3.99 4 4.98 4 6 C3.01 5.67 2.02 5.34 1 5 C0.67 3.35 0.34 1.7 0 0 Z " fill="#7A7A7A" transform="translate(103,123)"/>
<path d="M0 0 C8.57142857 0.85714286 8.57142857 0.85714286 12 3 C7.53763531 4.80619523 4.68965706 5.11658501 0 4 C0 2.66666667 0 1.33333333 0 0 Z " fill="#CFCFCF" transform="translate(136,28)"/>
<path d="M0 0 C3.875 1.75 3.875 1.75 5 4 C5.99 4.33 6.98 4.66 8 5 C8 5.66 8 6.32 8 7 C1.375 7.25 1.375 7.25 -2 5 C-1.34 3.35 -0.68 1.7 0 0 Z " fill="#797979" transform="translate(176,162)"/>
<path d="M0 0 C0.66 0 1.32 0 2 0 C2 3.63 2 7.26 2 11 C1.67 10.34 1.34 9.68 1 9 C0.34 9 -0.32 9 -1 9 C-1.33 9.66 -1.66 10.32 -2 11 C-2 10.34 -2 9.68 -2 9 C-2.99 8.67 -3.98 8.34 -5 8 C-3.68 8 -2.36 8 -1 8 C-1.33 7.01 -1.66 6.02 -2 5 C-1.34 5 -0.68 5 0 5 C0 3.35 0 1.7 0 0 Z " fill="#5E5E5C" transform="translate(129,127)"/>
<path d="M0 0 C3.465 1.485 3.465 1.485 7 3 C7 3.99 7 4.98 7 6 C7.66 6.33 8.32 6.66 9 7 C8.360625 7.12375 7.72125 7.2475 7.0625 7.375 C6.0415625 7.684375 6.0415625 7.684375 5 8 C4.67 8.66 4.34 9.32 4 10 C3.67 7.36 3.34 4.72 3 2 C1.68 2.33 0.36 2.66 -1 3 C-0.67 2.01 -0.34 1.02 0 0 Z " fill="#878787" transform="translate(132,71)"/>
<path d="M0 0 C0.66 0 1.32 0 2 0 C2 2.64 2 5.28 2 8 C2.66 8.33 3.32 8.66 4 9 C4.33 9.99 4.66 10.98 5 12 C1.125 11.125 1.125 11.125 0 10 C-0.07205511 8.31391034 -0.08386068 6.62499341 -0.0625 4.9375 C-0.05347656 4.01839844 -0.04445312 3.09929687 -0.03515625 2.15234375 C-0.02355469 1.44207031 -0.01195312 0.73179687 0 0 Z " fill="#51504E" transform="translate(131,128)"/>
<path d="M0 0 C0.99 0.33 1.98 0.66 3 1 C3.33 2.98 3.66 4.96 4 7 C2.68 7.33 1.36 7.66 0 8 C0 7.01 0 6.02 0 5 C-0.99 5 -1.98 5 -3 5 C-2.67 4.01 -2.34 3.02 -2 2 C-1.34 2 -0.68 2 0 2 C0 1.34 0 0.68 0 0 Z " fill="#757373" transform="translate(120,141)"/>
<path d="M0 0 C2 3.75 2 3.75 2 6 C-0.64 5.67 -3.28 5.34 -6 5 C-6 5.66 -6 6.32 -6 7 C-6.66 7 -7.32 7 -8 7 C-8.33 6.01 -8.66 5.02 -9 4 C-5.535 3.505 -5.535 3.505 -2 3 C-2 2.34 -2 1.68 -2 1 C-1.34 0.67 -0.68 0.34 0 0 Z " fill="#7B7979" transform="translate(166,136)"/>
<path d="M0 0 C0.66 1.32 1.32 2.64 2 4 C2.66 4 3.32 4 4 4 C4.33 3.34 4.66 2.68 5 2 C5.33 2.99 5.66 3.98 6 5 C5.01 5 4.02 5 3 5 C2.67 5.99 2.34 6.98 2 8 C1.67 7.34 1.34 6.68 1 6 C0.01 6 -0.98 6 -2 6 C-2.33 5.01 -2.66 4.02 -3 3 C-2.01 2.01 -1.02 1.02 0 0 Z " fill="#919191" transform="translate(194,110)"/>
<path d="M0 0 C0.625 1.875 0.625 1.875 1 4 C0.34 4.66 -0.32 5.32 -1 6 C-5 6 -5 6 -7 5 C-2.25 0 -2.25 0 0 0 Z " fill="#656364" transform="translate(199,153)"/>
<path d="M0 0 C0 1.32 0 2.64 0 4 C-2.64 4.33 -5.28 4.66 -8 5 C-7.625 3.0625 -7.625 3.0625 -7 1 C-4.53721199 -0.231394 -2.7204945 -0.07159196 0 0 Z " fill="#4E4D4B" transform="translate(152,132)"/>
<path d="M0 0 C-0.57621094 0.28488281 -1.15242187 0.56976563 -1.74609375 0.86328125 C-3.18653203 1.58974146 -4.61753305 2.33543542 -6.03515625 3.10546875 C-6.70417969 3.46253906 -7.37320313 3.81960937 -8.0625 4.1875 C-8.73410156 4.55230469 -9.40570313 4.91710937 -10.09765625 5.29296875 C-12 6 -12 6 -15 5 C-10.04594313 0.61212106 -6.49568185 -0.18559091 0 0 Z " fill="#5A5A5A" transform="translate(186,120)"/>
<path d="M0 0 C0.33 0.66 0.66 1.32 1 2 C1.99 2 2.98 2 4 2 C3.34 3.32 2.68 4.64 2 6 C1.34 5.67 0.68 5.34 0 5 C-0.33 5.66 -0.66 6.32 -1 7 C-1.66 6.34 -2.32 5.68 -3 5 C-2.34 5 -1.68 5 -1 5 C-1 4.34 -1 3.68 -1 3 C-1.99 2.67 -2.98 2.34 -4 2 C-2.68 1.34 -1.36 0.68 0 0 Z " fill="#5D5C5C" transform="translate(129,118)"/>
<path d="M0 0 C0.66 1.32 1.32 2.64 2 4 C-0.86724686 3.42655063 -1.8614515 3.1385485 -4 1 C-2.68 0.67 -1.36 0.34 0 0 Z M-8 2 C-5.03824877 2.61277612 -3.61941217 3.25372522 -1 5 C-3.31 5 -5.62 5 -8 5 C-8 4.01 -8 3.02 -8 2 Z " fill="#929292" transform="translate(156,72)"/>
<path d="M0 0 C0 1.65 0 3.3 0 5 C-2.97 4.505 -2.97 4.505 -6 4 C-6.33 3.01 -6.66 2.02 -7 1 C-3.375 -1.125 -3.375 -1.125 0 0 Z " fill="#9C9C9C" transform="translate(194,84)"/>
<path d="M0 0 C0.66 0 1.32 0 2 0 C2.5625 1.9375 2.5625 1.9375 3 4 C2.67 4.33 2.34 4.66 2 5 C2.99 5.66 3.98 6.32 5 7 C4.67 7.66 4.34 8.32 4 9 C1.5625 8.1875 1.5625 8.1875 -1 7 C-1.33 6.01 -1.66 5.02 -2 4 C-1.34 4 -0.68 4 0 4 C0 2.68 0 1.36 0 0 Z " fill="#797979" transform="translate(198,130)"/>
<path d="M0 0 C3.96 1.98 3.96 1.98 8 4 C8 4.66 8 5.32 8 6 C5.36 6 2.72 6 0 6 C0.99 5.67 1.98 5.34 3 5 C3 4.34 3 3.68 3 3 C2.01 3 1.02 3 0 3 C0 2.01 0 1.02 0 0 Z " fill="#8F8E8C" transform="translate(120,117)"/>
<path d="M0 0 C1.32 0 2.64 0 4 0 C4 0.99 4 1.98 4 3 C4.99 3 5.98 3 7 3 C7 3.66 7 4.32 7 5 C4.36 5 1.72 5 -1 5 C-0.67 3.35 -0.34 1.7 0 0 Z " fill="#636260" transform="translate(49,112)"/>
<path d="M0 0 C1.5625 1.25 1.5625 1.25 3 3 C2.6875 5.1875 2.6875 5.1875 2 7 C0.02 7 -1.96 7 -4 7 C-4 6.34 -4 5.68 -4 5 C-2.68 5 -1.36 5 0 5 C-0.2784375 4.0409375 -0.2784375 4.0409375 -0.5625 3.0625 C-0.706875 2.381875 -0.85125 1.70125 -1 1 C-0.67 0.67 -0.34 0.34 0 0 Z " fill="#878787" transform="translate(214,110)"/>
<path d="M0 0 C2.475 0.495 2.475 0.495 5 1 C4.34 2.65 3.68 4.3 3 6 C2.67 5.34 2.34 4.68 2 4 C1.34 4 0.68 4 0 4 C0 2.68 0 1.36 0 0 Z M-3 2 C-2.67 2.66 -2.34 3.32 -2 4 C-1.34 4.33 -0.68 4.66 0 5 C-0.99 5 -1.98 5 -3 5 C-3 4.01 -3 3.02 -3 2 Z " fill="#BDBDBD" transform="translate(148,58)"/>
<path d="M0 0 C2.64 0 5.28 0 8 0 C7.67 0.99 7.34 1.98 7 3 C4.69 3 2.38 3 0 3 C0 2.01 0 1.02 0 0 Z " fill="#C0C0C2" transform="translate(128,60)"/>
<path d="M0 0 C0.99 0.33 1.98 0.66 3 1 C3 1.66 3 2.32 3 3 C2.34 3 1.68 3 1 3 C1 3.66 1 4.32 1 5 C1.66 5.33 2.32 5.66 3 6 C1.35 6.33 -0.3 6.66 -2 7 C-1.34 4.69 -0.68 2.38 0 0 Z " fill="#646361" transform="translate(133,145)"/>
<path d="M0 0 C-0.99 0 -1.98 0 -3 0 C-3.33 0.99 -3.66 1.98 -4 3 C-5.65 3 -7.3 3 -9 3 C-9 2.01 -9 1.02 -9 0 C-5.62182575 -0.84454356 -3.32534757 -1.10844919 0 0 Z " fill="#424241" transform="translate(148,126)"/>
<path d="M0 0 C0 0.66 0 1.32 0 2 C0.66 2.33 1.32 2.66 2 3 C1.34 3 0.68 3 0 3 C-0.33 3.66 -0.66 4.32 -1 5 C-1.66 4.67 -2.32 4.34 -3 4 C-3 3.34 -3 2.68 -3 2 C-4.32 1.67 -5.64 1.34 -7 1 C-4.53721199 -0.231394 -2.7204945 -0.07159196 0 0 Z " fill="#706F6D" transform="translate(125,123)"/>
<path d="M0 0 C0.99 0.33 1.98 0.66 3 1 C3 2.32 3 3.64 3 5 C0.36 5 -2.28 5 -5 5 C-5 4.67 -5 4.34 -5 4 C-3.02 4 -1.04 4 1 4 C1 3.34 1 2.68 1 2 C0.01 1.67 -0.98 1.34 -2 1 C-1.34 0.67 -0.68 0.34 0 0 Z " fill="#808080" transform="translate(205,114)"/>
<path d="M0 0 C0.33 0.99 0.66 1.98 1 3 C1.99 3 2.98 3 4 3 C4 3.66 4 4.32 4 5 C1.69 5 -0.62 5 -3 5 C-3 3.68 -3 2.36 -3 1 C-2.01 0.67 -1.02 0.34 0 0 Z " fill="#858585" transform="translate(195,115)"/>
<path d="M0 0 C2.475 0.99 2.475 0.99 5 2 C5 2.66 5 3.32 5 4 C1.7 4.33 -1.6 4.66 -5 5 C-3.35 3.35 -1.7 1.7 0 0 Z " fill="#6B6B6B" transform="translate(110,163)"/>
<path d="M0 0 C0.99 0 1.98 0 3 0 C3.75 1.6875 3.75 1.6875 4 4 C2.0625 6.75 2.0625 6.75 0 9 C-0.33 7.35 -0.66 5.7 -1 4 C-0.34 4 0.32 4 1 4 C0.67 2.68 0.34 1.36 0 0 Z " fill="#959394" transform="translate(139,103)"/>
<path d="M0 0 C0.66 0 1.32 0 2 0 C2 0.66 2 1.32 2 2 C3.65 2.33 5.3 2.66 7 3 C6.34 3.66 5.68 4.32 5 5 C1.375 4.625 1.375 4.625 -2 4 C-1.34 2.68 -0.68 1.36 0 0 Z " fill="#727071" transform="translate(177,148)"/>
<path d="M0 0 C3.125 0.6875 3.125 0.6875 6 2 C6.33 2.99 6.66 3.98 7 5 C6.34 5 5.68 5 5 5 C5 4.34 5 3.68 5 3 C4.13375 3.309375 4.13375 3.309375 3.25 3.625 C0.48032433 4.08661261 -0.64561267 3.42944945 -3 2 C-2.01 1.34 -1.02 0.68 0 0 Z " fill="#91918F" transform="translate(113,112)"/>
<path d="M0 0 C1.98 0 3.96 0 6 0 C5.67 0.99 5.34 1.98 5 3 C4.01 3.33 3.02 3.66 2 4 C1.34 3.67 0.68 3.34 0 3 C0 2.01 0 1.02 0 0 Z " fill="#999999" transform="translate(139,74)"/>
<path d="M0 0 C-0.5 1.9375 -0.5 1.9375 -2 4 C-4.69658452 4.68790422 -7.2017019 4.81946464 -10 5 C-8.10642065 1.21284131 -4.03029968 0 0 0 Z " fill="#D2D2D2" transform="translate(48,42)"/>
<path d="M0 0 C2.31 0.33 4.62 0.66 7 1 C7 3.31 7 5.62 7 8 C5 5 5 5 5 3 C3.35 2.67 1.7 2.34 0 2 C0 1.34 0 0.68 0 0 Z " fill="#8A8889" transform="translate(200,144)"/>
<path d="M0 0 C-0.33 0.99 -0.66 1.98 -1 3 C-3.64 3 -6.28 3 -9 3 C-6.15236477 0.15236477 -3.96383452 0 0 0 Z " fill="#404040" transform="translate(174,122)"/>
<path d="M0 0 C2.475 0.495 2.475 0.495 5 1 C4.67 2.65 4.34 4.3 4 6 C3.01 5.67 2.02 5.34 1 5 C1.33 4.34 1.66 3.68 2 3 C1.34 3 0.68 3 0 3 C0 2.01 0 1.02 0 0 Z " fill="#81807E" transform="translate(115,128)"/>
<path d="M0 0 C0.66 0.33 1.32 0.66 2 1 C2 1.66 2 2.32 2 3 C1.01 3 0.02 3 -1 3 C-1.33 3.99 -1.66 4.98 -2 6 C-2.66 4.68 -3.32 3.36 -4 2 C-2.125 0.9375 -2.125 0.9375 0 0 Z " fill="#7B7B7B" transform="translate(180,122)"/>
<path d="M0 0 C0.33 0.66 0.66 1.32 1 2 C1.66 2.33 2.32 2.66 3 3 C2.34 3 1.68 3 1 3 C1 3.66 1 4.32 1 5 C-1.475 4.01 -1.475 4.01 -4 3 C-3 1 -3 1 0 0 Z " fill="#949494" transform="translate(191,116)"/>
<path d="M0 0 C2.31 0 4.62 0 7 0 C5.60804085 2.7839183 3.84424221 2.97898997 1 4 C0.67 2.68 0.34 1.36 0 0 Z " fill="#D3D3D3" transform="translate(118,25)"/>
</svg>
