<svg version="1.1" xmlns="http://www.w3.org/2000/svg" style="display: block;" viewBox="0 0 1024 1024" width="256" height="256" preserveAspectRatio="none">
<defs>
	<linearGradient id="Gradient1" gradientUnits="userSpaceOnUse" x1="292.081" y1="353.812" x2="779.378" y2="302.363">
		<stop class="stop0" offset="0" stop-opacity="1" stop-color="rgb(153,216,246)"/>
		<stop class="stop1" offset="1" stop-opacity="1" stop-color="rgb(211,236,248)"/>
	</linearGradient>
	<linearGradient id="Gradient2" gradientUnits="userSpaceOnUse" x1="867.915" y1="490.716" x2="274.982" y2="542.549">
		<stop class="stop0" offset="0" stop-opacity="1" stop-color="rgb(77,179,223)"/>
		<stop class="stop1" offset="1" stop-opacity="1" stop-color="rgb(143,210,237)"/>
	</linearGradient>
	<linearGradient id="Gradient3" gradientUnits="userSpaceOnUse" x1="667.116" y1="535.432" x2="168.265" y2="478.205">
		<stop class="stop0" offset="0" stop-opacity="1" stop-color="rgb(63,170,213)"/>
		<stop class="stop1" offset="1" stop-opacity="1" stop-color="rgb(160,219,246)"/>
	</linearGradient>
	<linearGradient id="Gradient4" gradientUnits="userSpaceOnUse" x1="289.709" y1="840.98" x2="965.26" y2="153.442">
		<stop class="stop0" offset="0" stop-opacity="1" stop-color="rgb(132,208,238)"/>
		<stop class="stop1" offset="1" stop-opacity="1" stop-color="rgb(201,234,254)"/>
	</linearGradient>
</defs>
<path transform="translate(0,0)" fill="url(#Gradient4)" d="M 848.597 52.0127 C 854.681 48.9631 857.477 48.8801 864.085 48.0203 L 864.201 601.417 L 864.178 732.117 C 864.165 743.253 864.838 786.25 862.565 795.018 C 845.658 804.977 831.416 809.232 813.552 816.351 L 734.345 848.055 L 534.73 928.111 C 514.281 936.238 434.252 971.185 417.311 972.497 C 410.799 974.364 392.914 973.925 385.372 974.026 C 383.795 963.609 383.858 954.956 384.248 944.499 C 374.336 950.268 323.771 968.991 312.849 971.652 C 277.949 977.346 272.076 980.88 274.548 943.821 C 257.112 951.773 218.327 966.439 200.048 972.49 C 192.527 973.653 167.684 976.736 162.7 970.961 C 160.715 950.563 161.989 908.985 161.985 886.517 L 161.965 723.432 L 161.966 347.691 L 161.977 256.584 C 161.98 240.131 160.54 191.334 164.817 178.276 C 177.212 175.061 190.579 170.27 202.833 166.167 C 205.69 166.04 224.911 159.606 229.167 158.334 L 293.016 139.729 L 454.621 93.44 C 498.488 80.3904 542.45 67.6614 586.504 55.2542 C 600.768 51.3864 608.909 53.5592 623.282 53.0207 C 625.711 52.9297 635.373 50.4585 638.155 49.7548 C 645.645 57.3797 645.442 59.8882 645.435 69.8625 C 679.698 63.5826 697.539 49.5349 732.163 53.9558 C 748.224 49.7822 759.195 47.237 757.199 69.268 C 776.412 63.9164 798.935 56.7612 818.148 53.0396 C 823.72 51.9603 840.699 52.5321 848.597 52.0127 z M 197.234 865.923 L 196.888 194.462 C 194.604 206.331 195.442 238.687 195.454 252.646 L 195.499 364.962 L 194.864 755.687 L 194.84 873.705 C 194.844 895.003 193.907 925.026 196.457 945.161 C 198.711 921.126 196.177 890.711 197.234 865.923 z"/>
<path transform="translate(0,0)" fill="url(#Gradient3)" d="M 202.833 166.167 C 205.69 166.04 224.911 159.606 229.167 158.334 L 293.016 139.729 L 454.621 93.44 C 498.488 80.3904 542.45 67.6614 586.504 55.2542 C 600.768 51.3864 608.909 53.5592 623.282 53.0207 C 625.711 52.9297 635.373 50.4585 638.155 49.7548 C 645.645 57.3797 645.442 59.8882 645.435 69.8625 C 679.698 63.5826 697.539 49.5349 732.163 53.9558 C 729.745 58.3704 647.911 81.612 641.95 81.7869 C 530.972 112.309 420.166 146.106 309.248 177.002 C 310.339 243.255 309.437 312.127 309.348 378.514 L 309.493 676.469 L 309.412 873.166 C 309.423 888.5 308.941 960.939 311.926 970.824 L 312.849 971.652 C 277.949 977.346 272.076 980.88 274.548 943.821 C 257.112 951.773 218.327 966.439 200.048 972.49 C 192.527 973.653 167.684 976.736 162.7 970.961 C 160.715 950.563 161.989 908.985 161.985 886.517 L 161.965 723.432 L 161.966 347.691 L 161.977 256.584 C 161.98 240.131 160.54 191.334 164.817 178.276 C 177.212 175.061 190.579 170.27 202.833 166.167 z M 197.234 865.923 L 196.888 194.462 C 194.604 206.331 195.442 238.687 195.454 252.646 L 195.499 364.962 L 194.864 755.687 L 194.84 873.705 C 194.844 895.003 193.907 925.026 196.457 945.161 C 198.711 921.126 196.177 890.711 197.234 865.923 z"/>
<path transform="translate(0,0)" fill="rgb(94,180,215)" fill-opacity="0.843137" d="M 196.457 945.161 C 193.907 925.026 194.844 895.003 194.84 873.705 L 194.864 755.687 L 195.499 364.962 L 195.454 252.646 C 195.442 238.687 194.604 206.331 196.888 194.462 L 197.234 865.923 C 196.177 890.711 198.711 921.126 196.457 945.161 z"/>
<path transform="translate(0,0)" fill="rgb(138,205,237)" d="M 164.817 178.276 C 177.212 175.061 190.579 170.27 202.833 166.167 C 198.175 171.604 197.555 178.321 197.853 185.245 C 197.195 188.721 197.078 190.926 196.888 194.462 C 194.604 206.331 195.442 238.687 195.454 252.646 L 195.499 364.962 L 194.864 755.687 L 194.84 873.705 C 194.844 895.003 193.907 925.026 196.457 945.161 C 198.711 921.126 196.177 890.711 197.234 865.923 C 198.558 881.878 196.393 966.648 200.048 972.49 C 192.527 973.653 167.684 976.736 162.7 970.961 C 160.715 950.563 161.989 908.985 161.985 886.517 L 161.965 723.432 L 161.966 347.691 L 161.977 256.584 C 161.98 240.131 160.54 191.334 164.817 178.276 z"/>
<path transform="translate(0,0)" fill="rgb(138,205,237)" d="M 202.833 166.167 C 205.69 166.04 224.911 159.606 229.167 158.334 L 293.016 139.729 L 454.621 93.44 C 498.488 80.3904 542.45 67.6614 586.504 55.2542 C 600.768 51.3864 608.909 53.5592 623.282 53.0207 C 625.711 52.9297 635.373 50.4585 638.155 49.7548 C 645.645 57.3797 645.442 59.8882 645.435 69.8625 C 679.698 63.5826 697.539 49.5349 732.163 53.9558 C 729.745 58.3704 647.911 81.612 641.95 81.7869 C 645.202 77.0851 704.974 63.2752 713.667 59.5892 C 715.574 58.7803 719.212 60.1518 722.065 58.1028 L 722.005 56.1424 C 714.74 50.7377 691.641 59.9216 682.892 62.037 C 659.799 67.6202 636.947 76.1019 614.181 82.4777 L 358.17 155.038 C 346.858 158.344 286.6 177.845 279.429 177.876 C 279.971 202.385 280.684 226.451 280.584 250.98 L 280.11 251.404 C 278.607 244.553 281.482 239.471 279.862 234.428 C 277.177 235.372 270.675 241.455 267.356 243.692 L 266.896 247.971 C 261.31 251.634 229.8 231.656 222.697 227.981 C 216.816 224.939 209.872 222.12 204.179 218.828 C 201.93 219.082 201.552 218.981 199.77 220.236 C 195.822 212.48 199.739 191.638 197.853 185.245 C 197.555 178.321 198.175 171.604 202.833 166.167 z"/>
<path transform="translate(0,0)" fill="url(#Gradient2)" d="M 732.163 53.9558 C 748.224 49.7822 759.195 47.237 757.199 69.268 C 776.412 63.9164 798.935 56.7612 818.148 53.0396 C 823.72 51.9603 840.699 52.5321 848.597 52.0127 C 773.4 78.0227 690.696 98.2999 613.656 120.649 L 503.951 152.429 C 478.117 160.138 442.268 171.662 416.349 177.071 C 417.33 243.217 416.517 311.129 416.503 377.497 L 416.458 755.599 L 416.51 908.05 C 416.593 920.847 418.709 961.774 416.856 971.923 L 417.311 972.497 C 410.799 974.364 392.914 973.925 385.372 974.026 C 383.795 963.609 383.858 954.956 384.248 944.499 C 374.336 950.268 323.771 968.991 312.849 971.652 L 311.926 970.824 C 308.941 960.939 309.423 888.5 309.412 873.166 L 309.493 676.469 L 309.348 378.514 C 309.437 312.127 310.339 243.255 309.248 177.002 C 420.166 146.106 530.972 112.309 641.95 81.7869 C 647.911 81.612 729.745 58.3704 732.163 53.9558 z"/>
<path transform="translate(0,0)" fill="url(#Gradient1)" d="M 732.163 53.9558 C 748.224 49.7822 759.195 47.237 757.199 69.268 C 754.937 71.6399 730.692 78.6065 725.931 79.9615 C 621.761 109.609 517.87 140.177 413.88 170.434 C 405.861 172.768 393.382 176.942 385.518 177.46 L 384.789 378.5 C 384.84 406.699 387.195 733.497 385.512 737.374 C 384.123 725.349 385.121 702.522 384.947 689.5 L 383.994 581.415 C 384 575.636 384.492 542.824 383.491 539.253 C 379.171 551.4 383.21 604.403 363.861 598.364 C 363.312 597.812 356.109 590.027 356.47 590.686 C 350.895 580.489 354.415 581.927 342.796 582.459 C 340.883 582.547 333.708 571.046 331.434 569.934 C 325.922 567.098 319.591 568.471 320.012 559.345 C 320.588 546.846 318.188 537.279 315.108 525.391 C 314.107 521.527 316.212 515.874 314.328 511.674 L 313.221 512.621 C 313.32 525.725 311.093 534.871 310.979 546.751 L 311.022 685.511 L 311.034 762.333 C 311.034 768.745 311.37 793.432 310.494 798.411 C 310.129 771.106 310.052 743.798 310.264 716.491 C 310.278 709.044 310.675 682.042 309.493 676.469 L 309.348 378.514 C 309.437 312.127 310.339 243.255 309.248 177.002 C 420.166 146.106 530.972 112.309 641.95 81.7869 C 647.911 81.612 729.745 58.3704 732.163 53.9558 z"/>
</svg>