<?xml version="1.0" encoding="UTF-8"?>
<svg version="1.1" xmlns="http://www.w3.org/2000/svg" width="224" height="224">
<path d="M0 0 C73.92 0 147.84 0 224 0 C224 73.92 224 147.84 224 224 C150.08 224 76.16 224 0 224 C0 150.08 0 76.16 0 0 Z " fill="#FEFEFE" transform="translate(0,0)"/>
<path d="M0 0 C0 0.66 0 1.32 0 2 C0.5775 2.103125 1.155 2.20625 1.75 2.3125 C4.34291468 3.10477948 5.84795774 4.36966495 8 6 C9.2684375 6.495 9.2684375 6.495 10.5625 7 C13.05213037 8.02138682 14.34108763 8.90453175 16 11 C16 11.66 16 12.32 16 13 C17.65 13.66 19.3 14.32 21 15 C21 15.66 21 16.32 21 17 C21.7425 17.28875 22.485 17.5775 23.25 17.875 C25.56739797 18.82302644 27.77917115 19.84845911 30 21 C30 21.66 30 22.32 30 23 C31.36125 23.433125 31.36125 23.433125 32.75 23.875 C39.10896818 26.07618129 39.10896818 26.07618129 41.8046875 28.87109375 C44.07114425 31.0689922 46.28922921 32.58004598 49 34.1875 C50.2684375 34.95126953 50.2684375 34.95126953 51.5625 35.73046875 C53.74971123 36.86964127 55.59221456 37.53739308 58 38 C58 38.66 58 39.32 58 40 C58.66 40 59.32 40 60 40 C60 40.99 60 41.98 60 43 C61.09054688 43.37511719 61.09054688 43.37511719 62.203125 43.7578125 C65.23450343 45.10415097 67.24866422 46.70881052 69.75 48.875 C74.2217699 52.56790307 78.57174349 55.00701693 84 57 C83.4607342 60.41535006 82.83317218 63.79514969 82.11328125 67.17578125 C81.18821484 71.76921446 80.47561394 76.38182378 79.81640625 81.01953125 C79.71422791 81.73137573 79.61204956 82.44322021 79.5067749 83.17663574 C79.08223468 86.14122452 78.65934413 89.10589651 78.25268555 92.07299805 C77.95069963 94.26507733 77.63469809 96.45476824 77.31640625 98.64453125 C77.13537354 99.93721924 76.95434082 101.22990723 76.76782227 102.56176758 C75.99666532 106.01493237 75.17815528 108.22318175 73 111 C70.132244 111.81808392 67.67372262 112.33015612 64.75 112.6875 C63.26511058 112.89611012 61.7807215 113.10831516 60.296875 113.32421875 C59.56388184 113.42919678 58.83088867 113.5341748 58.07568359 113.64233398 C55.77473243 113.99920731 55.77473243 113.99920731 52.7109375 114.953125 C47.49936046 116.42333831 42.21765414 117.21091331 36.875 118.0625 C34.74728649 118.40687722 32.6196783 118.75190588 30.4921875 119.09765625 C29.55745605 119.24726807 28.62272461 119.39687988 27.65966797 119.55102539 C25.09425406 119.98408911 22.54917636 120.48075817 20 121 C16.13029187 121.68358899 12.84996812 121.90072784 9 121 C5.12437745 118.10410885 2.12256536 114.67360631 -1 111 C-1.75410156 110.27296875 -2.50820312 109.5459375 -3.28515625 108.796875 C-5 107 -5 107 -5 105 C-5.556875 104.773125 -6.11375 104.54625 -6.6875 104.3125 C-9.64691361 102.63283282 -11.62408786 100.43248148 -14 98 C-15.485 96.7625 -15.485 96.7625 -17 95.5 C-19.85110033 93.12408306 -22.40798261 90.65373209 -25 88 C-26.3718872 86.60110715 -27.74710791 85.2054785 -29.125 83.8125 C-29.78757813 83.13832031 -30.45015625 82.46414062 -31.1328125 81.76953125 C-33.07943317 79.82446642 -33.07943317 79.82446642 -36 78 C-36 77.34 -36 76.68 -36 76 C-36.66 76 -37.32 76 -38 76 C-40.87581585 73.36383547 -43.38390793 70.55980329 -45.875 67.5625 C-48.45374931 64.49982087 -51.26149172 62.01026121 -54.34375 59.46875 C-56.85912522 57.23813424 -58.8563237 54.58340477 -61 52 C-62.0415625 51.27941406 -63.083125 50.55882812 -64.15625 49.81640625 C-66.99412435 47.49055763 -66.98247759 47.16603761 -67.40234375 43.1875 C-67.27959841 41.78846707 -67.12370046 40.39200896 -66.9375 39 C-66.87111328 38.30132812 -66.80472656 37.60265625 -66.73632812 36.8828125 C-66.45200339 34.06613756 -66.06409462 31.30005775 -65.47265625 28.53125 C-64.78945829 24.87247085 -64.67316197 21.21336216 -64.5 17.5 C-64.43052988 16.01025195 -64.3576974 14.52065631 -64.28125 13.03125 C-64.25095703 12.37705078 -64.22066406 11.72285156 -64.18945312 11.04882812 C-63.96795691 8.65347214 -63.50440842 6.35050242 -63 4 C-62.04633545 3.91435791 -61.0926709 3.82871582 -60.11010742 3.74047852 C-56.57071015 3.42167319 -53.03175765 3.0981461 -49.49291992 2.77319336 C-47.96146164 2.6332327 -46.42988586 2.49455146 -44.89819336 2.35717773 C-42.69612983 2.15945598 -40.49453034 1.95713143 -38.29296875 1.75390625 C-37.60849167 1.6934462 -36.92401459 1.63298615 -36.21879578 1.57069397 C-33.30156974 1.29745131 -30.79306232 0.93102077 -28 0 C-25.45372285 -0.23173983 -22.92623038 -0.42022829 -20.375 -0.5625 C-19.65803955 -0.6042334 -18.9410791 -0.6459668 -18.20239258 -0.68896484 C-4.36637898 -1.45545966 -4.36637898 -1.45545966 0 0 Z " fill="#FD682A" transform="translate(100,41)"/>
<path d="M0 0 C5.09472219 1.30330102 7.37580689 3.28741194 11 7 C13.27655608 8.48119025 15.59545313 9.7270046 18 11 C18 11.66 18 12.32 18 13 C18.52464844 13.22558594 19.04929687 13.45117188 19.58984375 13.68359375 C23.48992813 15.8137857 26.84449839 18.69385738 30.31054688 21.45507812 C32.86815674 23.4639966 34.88828208 24.96276069 38 26 C39.10709861 27.14169544 40.21278508 28.28478441 41.3125 29.43359375 C43.40965237 31.38025602 45.66437585 32.97173116 48 34.625 C53.16132541 38.29761659 57.97518819 42.264968 62.75976562 46.40673828 C65.69086195 48.97537487 65.69086195 48.97537487 69 51 C69 51.66 69 52.32 69 53 C71.33214148 54.20628008 73.49642139 55.1654738 76 56 C78.36506843 58.00121175 78.9893322 58.96799661 80 62 C80.16775597 66.74524999 79.80993746 71.25918778 79.16015625 75.95703125 C78.98419922 77.23384766 78.80824219 78.51066406 78.62695312 79.82617188 C78.53422119 80.48029053 78.44148926 81.13440918 78.34594727 81.80834961 C78.06089038 83.82388099 77.78483302 85.84050546 77.50976562 87.85742188 C76.13127309 97.73745382 76.13127309 97.73745382 75 100 C74.76970044 102.37123246 74.58880058 104.74741943 74.4375 107.125 C74.31181641 109.04699219 74.31181641 109.04699219 74.18359375 111.0078125 C74.12300781 111.99523437 74.06242187 112.98265625 74 114 C72.28125 114.76171875 72.28125 114.76171875 70 115 C67.78125 113.26953125 67.78125 113.26953125 65.5 110.8125 C64.7471875 110.01457031 63.994375 109.21664062 63.21875 108.39453125 C62.4865625 107.60433594 61.754375 106.81414062 61 106 C60.2471875 105.28199219 59.494375 104.56398438 58.71875 103.82421875 C57 102 57 102 57 100 C56.443125 99.773125 55.88625 99.54625 55.3125 99.3125 C52.35308639 97.63283282 50.37591214 95.43248148 48 93 C46.515 91.7625 46.515 91.7625 45 90.5 C42.14889967 88.12408306 39.59201739 85.65373209 37 83 C35.6281128 81.60110715 34.25289209 80.2054785 32.875 78.8125 C32.21242187 78.13832031 31.54984375 77.46414062 30.8671875 76.76953125 C28.92056683 74.82446642 28.92056683 74.82446642 26 73 C26 72.34 26 71.68 26 71 C25.34 71 24.68 71 24 71 C21.12418415 68.36383547 18.61609207 65.55980329 16.125 62.5625 C13.54625069 59.49982087 10.73850828 57.01026121 7.65625 54.46875 C5.14087478 52.23813424 3.1436763 49.58340477 1 47 C-0.0415625 46.27941406 -1.083125 45.55882812 -2.15625 44.81640625 C-4.99412435 42.49055763 -4.98247759 42.16603761 -5.40234375 38.1875 C-5.27959841 36.78846707 -5.12370046 35.39200896 -4.9375 34 C-4.87111328 33.30132812 -4.80472656 32.60265625 -4.73632812 31.8828125 C-4.45205846 29.06668307 -4.06517465 26.30239122 -3.46875 23.53515625 C-2.65284354 19.12246214 -2.63921556 14.62857128 -2.48242188 10.15039062 C-2.30407509 6.33107747 -2.12943746 3.25019402 0 0 Z " fill="#AA3E1A" transform="translate(38,46)"/>
<path d="M0 0 C1.07314453 0.00322266 2.14628906 0.00644531 3.25195312 0.00976562 C4.37150391 0.01814453 5.49105469 0.02652344 6.64453125 0.03515625 C8.34125977 0.04192383 8.34125977 0.04192383 10.07226562 0.04882812 C12.86724052 0.06062127 15.66210945 0.07707975 18.45703125 0.09765625 C18.6271875 0.72414062 18.79734375 1.350625 18.97265625 1.99609375 C19.215 2.81335937 19.45734375 3.630625 19.70703125 4.47265625 C20.05507812 5.69082031 20.05507812 5.69082031 20.41015625 6.93359375 C21.70314081 9.60640512 22.78191188 9.96213713 25.45703125 11.09765625 C26.26140625 11.92265625 27.06578125 12.74765625 27.89453125 13.59765625 C30.40766663 16.04949565 32.15303541 17.05925756 35.45703125 18.09765625 C35.45703125 18.75765625 35.45703125 19.41765625 35.45703125 20.09765625 C36.77703125 20.09765625 38.09703125 20.09765625 39.45703125 20.09765625 C39.45703125 20.75765625 39.45703125 21.41765625 39.45703125 22.09765625 C40.03453125 21.74703125 40.61203125 21.39640625 41.20703125 21.03515625 C43.45703125 20.09765625 43.45703125 20.09765625 47.45703125 21.09765625 C47.45703125 24.06765625 47.45703125 27.03765625 47.45703125 30.09765625 C48.69453125 30.15953125 48.69453125 30.15953125 49.95703125 30.22265625 C54.74660719 31.42005024 57.67159519 34.02953546 61.45703125 37.09765625 C65.68160838 40.34612961 69.87350888 43.37231863 74.45703125 46.09765625 C76.1328353 47.41948692 77.80059716 48.75163186 79.45703125 50.09765625 C48.12859633 58.19509363 48.12859633 58.19509363 40.39453125 54.72265625 C39.75515625 54.18640625 39.11578125 53.65015625 38.45703125 53.09765625 C38.45703125 52.43765625 38.45703125 51.77765625 38.45703125 51.09765625 C37.46703125 50.81921875 37.46703125 50.81921875 36.45703125 50.53515625 C32.20407016 48.49727906 28.61096352 45.61159071 25.45703125 42.09765625 C25.45703125 41.10765625 25.45703125 40.11765625 25.45703125 39.09765625 C22.48703125 38.76765625 19.51703125 38.43765625 16.45703125 38.09765625 C15.96203125 39.08765625 15.96203125 39.08765625 15.45703125 40.09765625 C13.81560162 41.13856285 12.1499091 42.14269951 10.45703125 43.09765625 C8.13775727 41.50259427 5.82684184 39.89735869 3.51953125 38.28515625 C2.86017578 37.83333984 2.20082031 37.38152344 1.52148438 36.91601562 C0.89306641 36.47451172 0.26464844 36.03300781 -0.3828125 35.578125 C-0.96409912 35.17489014 -1.54538574 34.77165527 -2.14428711 34.35620117 C-3.54296875 33.09765625 -3.54296875 33.09765625 -4.54296875 30.09765625 C-5.86977318 29.73921671 -7.20463944 29.41032788 -8.54296875 29.09765625 C-10.65625 27.64453125 -10.65625 27.64453125 -12.85546875 25.84765625 C-15.71106038 23.5452173 -18.57351745 21.34959464 -21.60546875 19.28515625 C-23.05953125 18.20234375 -23.05953125 18.20234375 -24.54296875 17.09765625 C-24.54296875 16.43765625 -24.54296875 15.77765625 -24.54296875 15.09765625 C-25.96609375 14.72640625 -25.96609375 14.72640625 -27.41796875 14.34765625 C-30.97600548 12.92444156 -31.09530897 12.40659288 -32.54296875 9.09765625 C-34.86181746 7.60696779 -37.08826069 6.92658427 -39.73046875 6.09765625 C-42.54296875 5.09765625 -42.54296875 5.09765625 -43.54296875 3.09765625 C-41.97615356 3.01463257 -41.97615356 3.01463257 -40.37768555 2.92993164 C-36.50294017 2.72351308 -32.62850954 2.51163111 -28.75415039 2.2980957 C-27.07714796 2.20643406 -25.40006381 2.11625499 -23.72290039 2.02758789 C-21.31243242 1.89989515 -18.90230846 1.76687653 -16.4921875 1.6328125 C-15.36703987 1.57493309 -15.36703987 1.57493309 -14.21916199 1.5158844 C-9.31223548 1.23592699 -4.92186673 -0.02604162 0 0 Z " fill="#FB9A79" transform="translate(80.54296875,41.90234375)"/>
<path d="M0 0 C0 0.66 0 1.32 0 2 C0.5775 2.103125 1.155 2.20625 1.75 2.3125 C4.34291468 3.10477948 5.84795774 4.36966495 8 6 C9.2684375 6.495 9.2684375 6.495 10.5625 7 C13.05213037 8.02138682 14.34108763 8.90453175 16 11 C16 11.66 16 12.32 16 13 C17.65 13.66 19.3 14.32 21 15 C21 15.66 21 16.32 21 17 C21.7425 17.28875 22.485 17.5775 23.25 17.875 C25.56739797 18.82302644 27.77917115 19.84845911 30 21 C30 21.66 30 22.32 30 23 C31.36125 23.433125 31.36125 23.433125 32.75 23.875 C39.10896818 26.07618129 39.10896818 26.07618129 41.8046875 28.87109375 C44.07114425 31.0689922 46.28922921 32.58004598 49 34.1875 C50.2684375 34.95126953 50.2684375 34.95126953 51.5625 35.73046875 C53.74971123 36.86964127 55.59221456 37.53739308 58 38 C58 38.66 58 39.32 58 40 C58.66 40 59.32 40 60 40 C60 40.99 60 41.98 60 43 C60.72703125 43.25007813 61.4540625 43.50015625 62.203125 43.7578125 C65.23450343 45.10415097 67.24866422 46.70881052 69.75 48.875 C74.2217699 52.56790307 78.57174349 55.00701693 84 57 C83.67 58.98 83.34 60.96 83 63 C82.67 61.68 82.34 60.36 82 59 C78.49788291 59.42150093 74.99889787 59.86512184 71.5 60.3125 C70.51773438 60.43044922 69.53546875 60.54839844 68.5234375 60.66992188 C63.28342415 61.35112361 58.76243775 62.34021315 53.88574219 64.35131836 C50.60882839 65.47855295 47.3138235 65.5322379 43.875 65.625 C39.17333036 65.80411122 34.64080388 66.19373175 30 67 C20.38316964 67.8136292 20.38316964 67.8136292 15.8125 65.125 C14 63 14 63 14 61 C13.401875 60.87625 12.80375 60.7525 12.1875 60.625 C10 60 10 60 7 58 C7 57.34 7 56.68 7 56 C6.45859375 55.76539063 5.9171875 55.53078125 5.359375 55.2890625 C2.34408456 53.6416356 -0.11184012 51.57346656 -2.75 49.375 C-3.73484375 48.55773437 -4.7196875 47.74046875 -5.734375 46.8984375 C-6.48203125 46.27195313 -7.2296875 45.64546875 -8 45 C-6.5769192 41.95054113 -5.48787084 39.63765893 -2.25 38.25 C0.85657712 37.90482476 3.12037551 38.88741781 6 40 C6 40.99 6 41.98 6 43 C6.58523437 43.26683594 7.17046875 43.53367188 7.7734375 43.80859375 C10.03620373 45.01937217 11.71883571 46.3536699 13.625 48.0625 C15.4181258 49.66378483 16.84656316 50.92328158 19 52 C19 52.66 19 53.32 19 54 C27.4521253 58.36238725 37.28574332 55.37386034 46.0625 53.5 C47.21427734 53.26152344 48.36605469 53.02304688 49.55273438 52.77734375 C52.37024239 52.19279852 55.18579171 51.60019417 58 51 C54.84626327 47.55955993 51.99060546 45.27949039 47.83349609 43.04052734 C43.99150984 40.86016178 40.51959054 38.08870993 36.98632812 35.44726562 C33.88685114 33.17794494 31.78817848 31.94704462 28 31 C27.505 26.545 27.505 26.545 27 22 C24.69 22.33 22.38 22.66 20 23 C20 22.34 20 21.68 20 21 C18.68 21 17.36 21 16 21 C16 20.34 16 19.68 16 19 C14.9171875 18.87625 14.9171875 18.87625 13.8125 18.75 C10.41073132 17.84286169 8.54533916 16.39989121 6 14 C6 13.34 6 12.68 6 12 C5.21625 11.79375 4.4325 11.5875 3.625 11.375 C1 10 1 10 -0.3125 7.0625 C-1 4 -1 4 -1 1 C-4.93778511 1.1387078 -8.87514223 1.28718492 -12.8125 1.4375 C-13.93205078 1.47681641 -15.05160156 1.51613281 -16.20507812 1.55664062 C-17.81479492 1.61948242 -17.81479492 1.61948242 -19.45703125 1.68359375 C-20.9416687 1.73858032 -20.9416687 1.73858032 -22.45629883 1.79467773 C-25.1218351 1.90790331 -25.1218351 1.90790331 -28 3 C-35.98222902 3.84078095 -43.97741208 4.16636703 -52 4 C-52 3.67 -52 3.34 -52 3 C-51.37955811 2.94465088 -50.75911621 2.88930176 -50.11987305 2.83227539 C-47.30873363 2.57939652 -44.49812678 2.32101166 -41.6875 2.0625 C-40.71103516 1.97548828 -39.73457031 1.88847656 -38.72851562 1.79882812 C-37.32182617 1.66831055 -37.32182617 1.66831055 -35.88671875 1.53515625 C-35.02264404 1.456604 -34.15856934 1.37805176 -33.26831055 1.29711914 C-30.83913288 1.05212023 -30.83913288 1.05212023 -28 0 C-25.45372285 -0.23173983 -22.92623038 -0.42022829 -20.375 -0.5625 C-19.65803955 -0.6042334 -18.9410791 -0.6459668 -18.20239258 -0.68896484 C-4.36637898 -1.45545966 -4.36637898 -1.45545966 0 0 Z " fill="#FC9F7D" transform="translate(100,41)"/>
<path d="M0 0 C1.07314453 0.00322266 2.14628906 0.00644531 3.25195312 0.00976562 C4.37150391 0.01814453 5.49105469 0.02652344 6.64453125 0.03515625 C8.34125977 0.04192383 8.34125977 0.04192383 10.07226562 0.04882812 C12.86724052 0.06062127 15.66210945 0.07707975 18.45703125 0.09765625 C18.6271875 0.72414062 18.79734375 1.350625 18.97265625 1.99609375 C19.215 2.81335937 19.45734375 3.630625 19.70703125 4.47265625 C20.05507812 5.69082031 20.05507812 5.69082031 20.41015625 6.93359375 C21.70314081 9.60640512 22.78191188 9.96213713 25.45703125 11.09765625 C26.26140625 11.92265625 27.06578125 12.74765625 27.89453125 13.59765625 C30.40766663 16.04949565 32.15303541 17.05925756 35.45703125 18.09765625 C35.45703125 18.75765625 35.45703125 19.41765625 35.45703125 20.09765625 C36.94203125 20.59265625 36.94203125 20.59265625 38.45703125 21.09765625 C38.45703125 21.75765625 38.45703125 22.41765625 38.45703125 23.09765625 C34.73221312 23.59720868 31.00715044 24.09452334 27.28125 24.5859375 C25.21954679 24.86181403 23.15835205 25.14273056 21.1015625 25.453125 C6.3794763 27.61906092 6.3794763 27.61906092 1.0859375 24.86328125 C-0.88473452 23.35826897 -2.70745948 21.76281663 -4.54296875 20.09765625 C-6.20323231 19.08706104 -7.86766977 18.08312624 -9.54296875 17.09765625 C-10.20296875 16.43765625 -10.86296875 15.77765625 -11.54296875 15.09765625 C-12.69796875 14.64390625 -13.85296875 14.19015625 -15.04296875 13.72265625 C-18.54296875 12.09765625 -18.54296875 12.09765625 -19.98046875 9.91015625 C-20.16609375 9.31203125 -20.35171875 8.71390625 -20.54296875 8.09765625 C-21.86296875 8.09765625 -23.18296875 8.09765625 -24.54296875 8.09765625 C-24.54296875 9.74765625 -24.54296875 11.39765625 -24.54296875 13.09765625 C-23.70765625 13.19046875 -23.70765625 13.19046875 -22.85546875 13.28515625 C-19.59309702 14.43139497 -17.85629001 16.59155822 -15.54296875 19.09765625 C-16.20296875 20.08765625 -16.86296875 21.07765625 -17.54296875 22.09765625 C-18.71516418 21.3141991 -19.88060543 20.52062789 -21.04296875 19.72265625 C-21.69265625 19.28179687 -22.34234375 18.8409375 -23.01171875 18.38671875 C-23.51703125 17.96132813 -24.02234375 17.5359375 -24.54296875 17.09765625 C-24.54296875 16.43765625 -24.54296875 15.77765625 -24.54296875 15.09765625 C-25.96609375 14.72640625 -25.96609375 14.72640625 -27.41796875 14.34765625 C-30.97600548 12.92444156 -31.09530897 12.40659288 -32.54296875 9.09765625 C-34.86181746 7.60696779 -37.08826069 6.92658427 -39.73046875 6.09765625 C-42.54296875 5.09765625 -42.54296875 5.09765625 -43.54296875 3.09765625 C-41.97615356 3.01463257 -41.97615356 3.01463257 -40.37768555 2.92993164 C-36.50294017 2.72351308 -32.62850954 2.51163111 -28.75415039 2.2980957 C-27.07714796 2.20643406 -25.40006381 2.11625499 -23.72290039 2.02758789 C-21.31243242 1.89989515 -18.90230846 1.76687653 -16.4921875 1.6328125 C-15.36703987 1.57493309 -15.36703987 1.57493309 -14.21916199 1.5158844 C-9.31223548 1.23592699 -4.92186673 -0.02604162 0 0 Z " fill="#F9997B" transform="translate(80.54296875,41.90234375)"/>
<path d="M0 0 C4.25083 1.88605347 7.85146778 4.2127667 11.5625 7 C14.1725686 8.95477478 16.72252941 10.83531885 19.52734375 12.5 C22.21537268 14.13065262 24.5814274 15.99603985 27 18 C-4.32843492 26.09743738 -4.32843492 26.09743738 -12.0625 22.625 C-12.701875 22.08875 -13.34125 21.5525 -14 21 C-14 20.34 -14 19.68 -14 19 C-14.804375 18.773125 -15.60875 18.54625 -16.4375 18.3125 C-17.7059375 17.6628125 -17.7059375 17.6628125 -19 17 C-19.8125 14.375 -19.8125 14.375 -20 12 C-19.030625 11.566875 -18.06125 11.13375 -17.0625 10.6875 C-13.72268235 9.2985139 -13.72268235 9.2985139 -13 6 C-12.34 6 -11.68 6 -11 6 C-11 5.34 -11 4.68 -11 4 C-7.7933919 -0.36098702 -5.24910074 -0.63351216 0 0 Z " fill="#A43513" transform="translate(133,74)"/>
<path d="M0 0 C0 0.66 0 1.32 0 2 C0.5775 2.103125 1.155 2.20625 1.75 2.3125 C4.34291468 3.10477948 5.84795774 4.36966495 8 6 C9.2684375 6.495 9.2684375 6.495 10.5625 7 C13.05213037 8.02138682 14.34108763 8.90453175 16 11 C16 11.66 16 12.32 16 13 C17.65 13.66 19.3 14.32 21 15 C21 15.66 21 16.32 21 17 C21.7425 17.28875 22.485 17.5775 23.25 17.875 C25.56739797 18.82302644 27.77917115 19.84845911 30 21 C30 21.66 30 22.32 30 23 C31.36125 23.433125 31.36125 23.433125 32.75 23.875 C39.10896818 26.07618129 39.10896818 26.07618129 41.8046875 28.87109375 C44.07114425 31.0689922 46.28922921 32.58004598 49 34.1875 C50.2684375 34.95126953 50.2684375 34.95126953 51.5625 35.73046875 C53.74971123 36.86964127 55.59221456 37.53739308 58 38 C58 38.66 58 39.32 58 40 C58.66 40 59.32 40 60 40 C60 40.99 60 41.98 60 43 C60.804375 43.28875 61.60875 43.5775 62.4375 43.875 C65 45 65 45 66 47 C64.741875 46.87625 63.48375 46.7525 62.1875 46.625 C61.12595703 46.52058594 61.12595703 46.52058594 60.04296875 46.4140625 C58 46 58 46 55 44 C55 43.01 55 42.02 55 41 C53.02 41.33 51.04 41.66 49 42 C49 41.01 49 40.02 49 39 C48.05125 39.144375 47.1025 39.28875 46.125 39.4375 C41.19164445 39.4977854 38.07207429 36.54437287 34.33203125 33.62890625 C31.89658132 31.72148172 31.89658132 31.72148172 28 31 C27.505 26.545 27.505 26.545 27 22 C24.69 22.33 22.38 22.66 20 23 C20 22.34 20 21.68 20 21 C18.68 21 17.36 21 16 21 C16 20.34 16 19.68 16 19 C14.9171875 18.87625 14.9171875 18.87625 13.8125 18.75 C10.41073132 17.84286169 8.54533916 16.39989121 6 14 C6 13.34 6 12.68 6 12 C5.21625 11.79375 4.4325 11.5875 3.625 11.375 C1 10 1 10 -0.3125 7.0625 C-1 4 -1 4 -1 1 C-4.93778511 1.1387078 -8.87514223 1.28718492 -12.8125 1.4375 C-13.93205078 1.47681641 -15.05160156 1.51613281 -16.20507812 1.55664062 C-17.81479492 1.61948242 -17.81479492 1.61948242 -19.45703125 1.68359375 C-20.9416687 1.73858032 -20.9416687 1.73858032 -22.45629883 1.79467773 C-25.1218351 1.90790331 -25.1218351 1.90790331 -28 3 C-35.98222902 3.84078095 -43.97741208 4.16636703 -52 4 C-52 3.67 -52 3.34 -52 3 C-51.37955811 2.94465088 -50.75911621 2.88930176 -50.11987305 2.83227539 C-47.30873363 2.57939652 -44.49812678 2.32101166 -41.6875 2.0625 C-40.71103516 1.97548828 -39.73457031 1.88847656 -38.72851562 1.79882812 C-37.32182617 1.66831055 -37.32182617 1.66831055 -35.88671875 1.53515625 C-35.02264404 1.456604 -34.15856934 1.37805176 -33.26831055 1.29711914 C-30.83913288 1.05212023 -30.83913288 1.05212023 -28 0 C-25.45372285 -0.23173983 -22.92623038 -0.42022829 -20.375 -0.5625 C-19.65803955 -0.6042334 -18.9410791 -0.6459668 -18.20239258 -0.68896484 C-4.36637898 -1.45545966 -4.36637898 -1.45545966 0 0 Z " fill="#F89E7F" transform="translate(100,41)"/>
<path d="M0 0 C7.6023851 1.47482759 13.74634894 6.59624462 19 12 C21.66533035 13.319018 21.66533035 13.319018 24 14 C24 14.66 24 15.32 24 16 C24.99 16.33 25.98 16.66 27 17 C27 17.66 27 18.32 27 19 C23.27518187 19.49955243 19.55011919 19.99686709 15.82421875 20.48828125 C13.76251554 20.76415778 11.7013208 21.04507431 9.64453125 21.35546875 C-5.44086094 23.57485481 -5.44086094 23.57485481 -11.25 20 C-11.8275 19.34 -12.405 18.68 -13 18 C-12.34 16.02 -11.68 14.04 -11 12 C-10.34 12 -9.68 12 -9 12 C-8.731875 11.360625 -8.46375 10.72125 -8.1875 10.0625 C-7 8 -7 8 -4 7 C-2.78130071 4.49552484 -2.78130071 4.49552484 -2 2 C-1.34 2 -0.68 2 0 2 C0 1.34 0 0.68 0 0 Z " fill="#A53614" transform="translate(92,46)"/>
<path d="M0 0 C0.45375 0.61875 0.9075 1.2375 1.375 1.875 C3.68251599 4.89252091 5.30608003 6.76642866 9.15478516 7.29711914 C10.45875244 7.41494751 10.45875244 7.41494751 11.7890625 7.53515625 C12.73007813 7.62216797 13.67109375 7.70917969 14.640625 7.79882812 C16.11789063 7.9293457 16.11789063 7.9293457 17.625 8.0625 C18.61757812 8.15337891 19.61015625 8.24425781 20.6328125 8.33789062 C23.08823868 8.56218436 25.54394389 8.78273107 28 9 C28 8.67 28 8.34 28 8 C28.56847656 8.08378906 29.13695312 8.16757813 29.72265625 8.25390625 C34.76635545 8.91910197 39.00294069 8.9568837 44 8 C43.46875 9.90234375 43.46875 9.90234375 42 12 C39.41940788 12.74038417 37.13777934 13.20643208 34.5 13.5625 C32.95569128 13.79923216 31.41142172 14.03621983 29.8671875 14.2734375 C29.06635742 14.39041992 28.26552734 14.50740234 27.44042969 14.62792969 C25.03695454 14.99436587 22.64901221 15.41256479 20.2578125 15.8515625 C12.10942308 17.33386319 4.32194444 18.4949174 -4 18 C-3.34 17.34 -2.68 16.68 -2 16 C-1.72368207 13.675511 -1.55009511 11.33814521 -1.4375 9 C-1.09567198 2.19134396 -1.09567198 2.19134396 0 0 Z " fill="#F35920" transform="translate(113,144)"/>
<path d="M0 0 C0.495 0.99 0.495 0.99 1 2 C-1.97 1.67 -4.94 1.34 -8 1 C-8.66 2.32 -9.32 3.64 -10 5 C-10.66 5 -11.32 5 -12 5 C-12 5.66 -12 6.32 -12 7 C-12.66 7 -13.32 7 -14 7 C-14.04125 7.61875 -14.0825 8.2375 -14.125 8.875 C-14.558125 9.926875 -14.558125 9.926875 -15 11 C-16.98723268 11.70381157 -18.98777953 12.3711811 -21 13 C-21.33 13.99 -21.66 14.98 -22 16 C-26.6875 12.38671875 -26.6875 12.38671875 -28 11 C-28 10.01 -28 9.02 -28 8 C-28.9075 7.87625 -29.815 7.7525 -30.75 7.625 C-33.58970323 7.07890323 -35.52590591 6.42736197 -38 5 C-38 4.01 -38 3.02 -38 2 C-36.86570557 1.91697632 -36.86570557 1.91697632 -35.70849609 1.83227539 C-32.26378096 1.57852932 -28.8193949 1.32055509 -25.375 1.0625 C-23.59029297 0.93198242 -23.59029297 0.93198242 -21.76953125 0.79882812 C-20.61582031 0.71181641 -19.46210937 0.62480469 -18.2734375 0.53515625 C-17.21560059 0.456604 -16.15776367 0.37805176 -15.06787109 0.29711914 C-11.96985771 0.03593546 -11.96985771 0.03593546 -8.81494141 -0.55297852 C-5.59133316 -1.06489757 -3.15361453 -0.8067386 0 0 Z " fill="#FC7741" transform="translate(134,73)"/>
<path d="M0 0 C0.33 0.66 0.66 1.32 1 2 C0.34 2 -0.32 2 -1 2 C-1.226875 2.721875 -1.45375 3.44375 -1.6875 4.1875 C-3.26335128 7.56432417 -5.20876616 9.55767039 -8 12 C-8.66 12 -9.32 12 -10 12 C-10.66 13.98 -11.32 15.96 -12 18 C-21.58139535 12.11627907 -21.58139535 12.11627907 -24 10 C-24 9.34 -24 8.68 -24 8 C-24.99 8 -25.98 8 -27 8 C-27 7.34 -27 6.68 -27 6 C-27.66 6 -28.32 6 -29 6 C-29 5.34 -29 4.68 -29 4 C-27.24623047 3.92652344 -27.24623047 3.92652344 -25.45703125 3.8515625 C-23.90883196 3.77649829 -22.36065599 3.70095205 -20.8125 3.625 C-20.04357422 3.5940625 -19.27464844 3.563125 -18.48242188 3.53125 C-14.21830086 3.31163862 -10.93042414 2.79676532 -7 1 C-4.67402489 0.6186926 -2.34087842 0.27539746 0 0 Z " fill="#FB6E31" transform="translate(91,46)"/>
<path d="M0 0 C0 0.66 0 1.32 0 2 C0.5775 2.103125 1.155 2.20625 1.75 2.3125 C4.34291468 3.10477948 5.84795774 4.36966495 8 6 C9.2684375 6.495 9.2684375 6.495 10.5625 7 C14.26127604 8.51744658 15.57666552 10.04192723 17.1875 13.6875 C17.5896875 14.8321875 17.5896875 14.8321875 18 16 C17.505 16.495 17.505 16.495 17 17 C17.99 17.99 17.99 17.99 19 19 C18.67 19.66 18.34 20.32 18 21 C17.34 21 16.68 21 16 21 C16 20.34 16 19.68 16 19 C14.9171875 18.87625 14.9171875 18.87625 13.8125 18.75 C10.41073132 17.84286169 8.54533916 16.39989121 6 14 C6 13.34 6 12.68 6 12 C5.21625 11.79375 4.4325 11.5875 3.625 11.375 C1 10 1 10 -0.3125 7.0625 C-1 4 -1 4 -1 1 C-4.93778511 1.1387078 -8.87514223 1.28718492 -12.8125 1.4375 C-13.93205078 1.47681641 -15.05160156 1.51613281 -16.20507812 1.55664062 C-17.81479492 1.61948242 -17.81479492 1.61948242 -19.45703125 1.68359375 C-20.9416687 1.73858032 -20.9416687 1.73858032 -22.45629883 1.79467773 C-25.1218351 1.90790331 -25.1218351 1.90790331 -28 3 C-35.98222902 3.84078095 -43.97741208 4.16636703 -52 4 C-52 3.67 -52 3.34 -52 3 C-51.37955811 2.94465088 -50.75911621 2.88930176 -50.11987305 2.83227539 C-47.30873363 2.57939652 -44.49812678 2.32101166 -41.6875 2.0625 C-40.71103516 1.97548828 -39.73457031 1.88847656 -38.72851562 1.79882812 C-37.32182617 1.66831055 -37.32182617 1.66831055 -35.88671875 1.53515625 C-35.02264404 1.456604 -34.15856934 1.37805176 -33.26831055 1.29711914 C-30.83913288 1.05212023 -30.83913288 1.05212023 -28 0 C-25.45372285 -0.23173983 -22.92623038 -0.42022829 -20.375 -0.5625 C-19.65803955 -0.6042334 -18.9410791 -0.6459668 -18.20239258 -0.68896484 C-4.36637898 -1.45545966 -4.36637898 -1.45545966 0 0 Z " fill="#F09F87" transform="translate(100,41)"/>
<path d="M0 0 C4.28182619 1.89656975 7.89260923 4.2500647 11.625 7.0625 C14.66564797 9.34937389 17.52838151 11.42717754 21 13 C18.53721199 14.231394 16.7204945 14.07159196 14 14 C13.505 12.515 13.505 12.515 13 11 C11.34051852 9.98812105 9.67419438 8.9873454 8 8 C8 7.34 8 6.68 8 6 C6.35 6.66 4.7 7.32 3 8 C3 7.34 3 6.68 3 6 C1.6078125 6.0928125 1.6078125 6.0928125 0.1875 6.1875 C-3 6 -3 6 -4.875 4.5 C-5.24625 4.005 -5.6175 3.51 -6 3 C-9.69232073 8.80221829 -12.51382062 13.97778489 -12 21 C-12.66 21 -13.32 21 -14 21 C-14 20.34 -14 19.68 -14 19 C-14.804375 18.773125 -15.60875 18.54625 -16.4375 18.3125 C-17.7059375 17.6628125 -17.7059375 17.6628125 -19 17 C-19.8125 14.375 -19.8125 14.375 -20 12 C-19.030625 11.566875 -18.06125 11.13375 -17.0625 10.6875 C-13.72268235 9.2985139 -13.72268235 9.2985139 -13 6 C-12.34 6 -11.68 6 -11 6 C-11 5.34 -11 4.68 -11 4 C-7.7933919 -0.36098702 -5.24910074 -0.63351216 0 0 Z " fill="#AD3C16" transform="translate(133,74)"/>
<path d="M0 0 C6.27 0 12.54 0 19 0 C19 0.99 19 1.98 19 3 C17.35178756 4.03013277 15.68496298 5.03114628 14 6 C14 6.66 14 7.32 14 8 C14.99 8 15.98 8 17 8 C17.33 6.68 17.66 5.36 18 4 C26.34332544 2.80809637 34.59323022 2.90716451 43 3 C42.67 3.66 42.34 4.32 42 5 C36.39 5 30.78 5 25 5 C25 5.66 25 6.32 25 7 C25.66 7 26.32 7 27 7 C27 7.66 27 8.32 27 9 C27.99 9 28.98 9 30 9 C30 9.66 30 10.32 30 11 C25.32307692 9.52307692 25.32307692 9.52307692 23.6875 6.875 C23.460625 6.25625 23.23375 5.6375 23 5 C21.68 5 20.36 5 19 5 C19 6.65 19 8.3 19 10 C19.8353125 10.0928125 19.8353125 10.0928125 20.6875 10.1875 C23.94987173 11.33373872 25.68667874 13.49390197 28 16 C27.34 16.99 26.68 17.98 26 19 C24.82780457 18.21654285 23.66236332 17.42297164 22.5 16.625 C21.8503125 16.18414062 21.200625 15.74328125 20.53125 15.2890625 C20.0259375 14.86367188 19.520625 14.43828125 19 14 C19 13.34 19 12.68 19 12 C17.576875 11.62875 17.576875 11.62875 16.125 11.25 C12.56696327 9.82678531 12.44765978 9.30893663 11 6 C8.68115129 4.50931154 6.45470806 3.82892802 3.8125 3 C1 2 1 2 0 0 Z " fill="#F08868" transform="translate(37,45)"/>
<path d="M0 0 C0.66 0.33 1.32 0.66 2 1 C2 2.32 2 3.64 2 5 C4.97 5.495 4.97 5.495 8 6 C8 7.65 8 9.3 8 11 C8.66 11 9.32 11 10 11 C9.8453125 12.1446875 9.8453125 12.1446875 9.6875 13.3125 C9.790625 14.199375 9.89375 15.08625 10 16 C12.3832946 17.81883009 13.95818337 19 17 19 C17 19.66 17 20.32 17 21 C17.66 21.33 18.32 21.66 19 22 C18.34 22 17.68 22 17 22 C17.99 22.99 18.98 23.98 20 25 C20 23.68 20 22.36 20 21 C21.98 21 23.96 21 26 21 C26 21.99 26 22.98 26 24 C25.01 24 24.02 24 23 24 C23 25.65 23 27.3 23 29 C17.0692314 26.79049797 13.71975414 24.25303927 9.60546875 19.33203125 C6.4680634 15.58204543 3.30705027 12.43608487 -0.58203125 9.45703125 C-2.32835945 7.66259483 -2.70731499 6.47102916 -3 4 C-2.67 3.01 -2.34 2.02 -2 1 C-1.34 0.67 -0.68 0.34 0 0 Z " fill="#9A3B1C" transform="translate(46,91)"/>
<path d="M0 0 C-0.47090066 13.16167342 -2.80318435 26.03894035 -5 39 C-5.33 39 -5.66 39 -6 39 C-6.33 35.37 -6.66 31.74 -7 28 C-6.34 28 -5.68 28 -5 28 C-5.24556641 26.31390625 -5.24556641 26.31390625 -5.49609375 24.59375 C-6.0849631 19.88279524 -6.11269251 15.24126159 -6.0625 10.5 C-6.05798828 9.67757812 -6.05347656 8.85515625 -6.04882812 8.0078125 C-6.03718489 6.00517604 -6.01925556 4.00257773 -6 2 C-6.61746094 2.144375 -7.23492187 2.28875 -7.87109375 2.4375 C-13.72140455 3.7197599 -19.01449037 4.19308096 -25 4 C-21.43271092 1.62180728 -18.33439159 1.33367704 -14.1875 0.875 C-13.13852539 0.74544922 -13.13852539 0.74544922 -12.06835938 0.61328125 C-8.02468655 0.136665 -4.06992267 -0.08944885 0 0 Z " fill="#F87241" transform="translate(182,100)"/>
<path d="M0 0 C1.32 0.33 2.64 0.66 4 1 C4 2.32 4 3.64 4 5 C4.66 5 5.32 5 6 5 C5.96519531 5.93972656 5.96519531 5.93972656 5.9296875 6.8984375 C5.91164063 7.71570312 5.89359375 8.53296875 5.875 9.375 C5.85179688 10.18710937 5.82859375 10.99921875 5.8046875 11.8359375 C5.78629949 14.21342243 5.78629949 14.21342243 8 16 C5.23547967 17.38226016 2.9538637 17.09525387 -0.125 17.0625 C-1.22070312 17.05347656 -2.31640625 17.04445313 -3.4453125 17.03515625 C-4.70988281 17.01775391 -4.70988281 17.01775391 -6 17 C-7 14 -7 14 -6 11 C-5.34 11 -4.68 11 -4 11 C-3.896875 10.29875 -3.79375 9.5975 -3.6875 8.875 C-2.90640997 5.60862353 -1.57941257 2.9528148 0 0 Z " fill="#8D2C11" transform="translate(90,51)"/>
<path d="M0 0 C7.09434233 -0.09733092 13.98194143 -0.10087193 21 1 C21 0.67 21 0.34 21 0 C21.56847656 0.08378906 22.13695312 0.16757813 22.72265625 0.25390625 C27.76635545 0.91910197 32.00294069 0.9568837 37 0 C36.67 0.99 36.34 1.98 36 3 C35.02417969 3.06058594 34.04835937 3.12117187 33.04296875 3.18359375 C31.13451172 3.30927734 31.13451172 3.30927734 29.1875 3.4375 C27.92292969 3.51871094 26.65835938 3.59992188 25.35546875 3.68359375 C22.00818107 3.87184547 22.00818107 3.87184547 19 5 C12.5372223 6.96191466 6.73599322 7.22288213 0 7 C0 6.01 0 5.02 0 4 C0.99 3.67 1.98 3.34 3 3 C3 2.34 3 1.68 3 1 C2.01 0.67 1.02 0.34 0 0 Z " fill="#F9561A" transform="translate(120,152)"/>
<path d="M0 0 C2.74812246 1.16266719 4.48394502 2.42895127 6.75 4.4375 C10.17379772 7.40479136 13.72034748 8.59804486 18 10 C17.67 11.98 17.34 13.96 17 16 C16.67 14.68 16.34 13.36 16 12 C15.175 12.165 14.35 12.33 13.5 12.5 C9.58727683 13.05896045 5.94816827 13.06807187 2 13 C2 12.34 2 11.68 2 11 C-0.64 10.34 -3.28 9.68 -6 9 C-5.34 8.67 -4.68 8.34 -4 8 C-3.855625 7.401875 -3.71125 6.80375 -3.5625 6.1875 C-2.89399403 3.58775458 -1.68936688 2.05662055 0 0 Z " fill="#F9A382" transform="translate(166,88)"/>
<path d="M0 0 C0 0.66 0 1.32 0 2 C-0.95712891 2.09087891 -0.95712891 2.09087891 -1.93359375 2.18359375 C-2.75988281 2.26738281 -3.58617187 2.35117188 -4.4375 2.4375 C-5.67306641 2.55931641 -5.67306641 2.55931641 -6.93359375 2.68359375 C-8.98662025 2.78930815 -8.98662025 2.78930815 -10 4 C-12.31952569 4.28101946 -14.63885514 4.44782625 -16.96875 4.62109375 C-17.6390625 4.74613281 -18.309375 4.87117188 -19 5 C-19.33 5.66 -19.66 6.32 -20 7 C-19.34 7 -18.68 7 -18 7 C-18 7.66 -18 8.32 -18 9 C-14.93466836 10.53266582 -11.73245728 10.10276471 -8.375 10.0625 C-7.66859375 10.05798828 -6.9621875 10.05347656 -6.234375 10.04882812 C-4.48954725 10.03703875 -2.744763 10.01910324 -1 10 C-1.33 10.66 -1.66 11.32 -2 12 C-4.5885458 12.28960662 -7.09058837 12.46819231 -9.6875 12.5625 C-14.55237989 12.77055219 -19.19007554 13.19504694 -24 14 C-25.95740193 14.06388388 -27.91670147 14.08638169 -29.875 14.0625 C-30.84179688 14.05347656 -31.80859375 14.04445313 -32.8046875 14.03515625 C-33.52914062 14.02355469 -34.25359375 14.01195313 -35 14 C-35.33 13.34 -35.66 12.68 -36 12 C-32.7 12.33 -29.4 12.66 -26 13 C-26 10.36 -26 7.72 -26 5 C-27.32 4.67 -28.64 4.34 -30 4 C-29.42032471 3.91435791 -28.84064941 3.82871582 -28.2434082 3.74047852 C-25.59957725 3.34912283 -22.95603804 2.95582919 -20.3125 2.5625 C-19.40048828 2.42779297 -18.48847656 2.29308594 -17.54882812 2.15429688 C-16.66259766 2.02216797 -15.77636719 1.89003906 -14.86328125 1.75390625 C-14.05157471 1.63345947 -13.23986816 1.5130127 -12.40356445 1.38891602 C-10.71968279 1.11645045 -9.04230072 0.80205472 -7.37182617 0.45678711 C-4.86246927 -0.02648688 -2.54915302 -0.07283294 0 0 Z " fill="#FB916C" transform="translate(154,94)"/>
<path d="M0 0 C0.75925781 0.05542969 1.51851562 0.11085938 2.30078125 0.16796875 C5.42917998 1.01279001 7.28346325 2.68928878 9.6875 4.8125 C7.19026548 5.49135987 4.69053859 6.15567427 2.1875 6.8125 C1.49140625 7.00328125 0.7953125 7.1940625 0.078125 7.390625 C-4.8537919 8.66927012 -9.21830091 8.99607474 -14.3125 8.8125 C-14.3125 7.4925 -14.3125 6.1725 -14.3125 4.8125 C-13.6525 4.4825 -12.9925 4.1525 -12.3125 3.8125 C-12.9725 3.4825 -13.6325 3.1525 -14.3125 2.8125 C-14.3125 2.1525 -14.3125 1.4925 -14.3125 0.8125 C-12.29427083 0.84505208 -10.27604167 0.87760417 -8.2578125 0.91015625 C-5.19540869 0.75642112 -3.24344447 -0.28891186 0 0 Z " fill="#A53611" transform="translate(150.3125,87.1875)"/>
<path d="M0 0 C0.66 0 1.32 0 2 0 C2 0.66 2 1.32 2 2 C2.5775 1.649375 3.155 1.29875 3.75 0.9375 C6 0 6 0 10 1 C10 4.3 10 7.6 10 11 C3.4 11.66 -3.2 12.32 -10 13 C-9.67 12.34 -9.34 11.68 -9 11 C-6.49609375 10.5859375 -6.49609375 10.5859375 -3.4375 10.375 C-2.42558594 10.30023438 -1.41367188 10.22546875 -0.37109375 10.1484375 C0.41136719 10.09945312 1.19382812 10.05046875 2 10 C1.67 8.02 1.34 6.04 1 4 C-0.32 3.67 -1.64 3.34 -3 3 C-1.68 3 -0.36 3 1 3 C0.67 2.01 0.34 1.02 0 0 Z " fill="#FB9F7E" transform="translate(118,62)"/>
<path d="M0 0 C1.65 0 3.3 0 5 0 C5 0.99 5 1.98 5 3 C6.98 2.67 8.96 2.34 11 2 C11 2.99 11 3.98 11 5 C12.8871875 5.1546875 12.8871875 5.1546875 14.8125 5.3125 C17.60499657 5.64858808 18.74433121 5.80025876 21 7.5625 C21.33 8.036875 21.66 8.51125 22 9 C20.68 11.31 19.36 13.62 18 16 C17.01 16 16.02 16 15 16 C15 15.34 15 14.68 15 14 C13.35 14 11.7 14 10 14 C11.32 13.34 12.64 12.68 14 12 C11.27635307 9.02874881 8.8692819 6.79476931 5.3125 4.875 C2 3 2 3 0 0 Z " fill="#F48D6D" transform="translate(144,80)"/>
<path d="M0 0 C0.99 0.33 1.98 0.66 3 1 C3 1.99 3 2.98 3 4 C2.34 4 1.68 4 1 4 C1.495 4.7425 1.495 4.7425 2 5.5 C3.43636358 9.09090894 3.12851462 12.14456127 3 16 C1.02 16.33 -0.96 16.66 -3 17 C-5.27032103 13.59451845 -5.15124622 12.03255189 -4.55859375 8.07421875 C-3.68257021 4.82129219 -2.05343428 2.64959262 0 0 Z " fill="#7E2811" transform="translate(125,80)"/>
<path d="M0 0 C0 0.66 0 1.32 0 2 C-1.72807318 2.33895656 -3.45751974 2.67091525 -5.1875 3 C-6.63189453 3.2784375 -6.63189453 3.2784375 -8.10546875 3.5625 C-10.7934206 3.96877612 -13.28771019 4.07933572 -16 4 C-16 3.34 -16 2.68 -16 2 C-18.35171131 2.59861742 -20.6859378 3.26924352 -23 4 C-23.33 4.66 -23.66 5.32 -24 6 C-26 5.33333333 -28 4.66666667 -30 4 C-30 4.66 -30 5.32 -30 6 C-30.66 6 -31.32 6 -32 6 C-32.33 6.99 -32.66 7.98 -33 9 C-33 6.69 -33 4.38 -33 2 C-21.92803142 0.46527168 -11.17661864 -0.270766 0 0 Z " fill="#FC7543" transform="translate(152,106)"/>
<path d="M0 0 C0.33 1.32 0.66 2.64 1 4 C1.66 4 2.32 4 3 4 C3.66 4.66 4.32 5.32 5 6 C4.5625 8.0625 4.5625 8.0625 4 10 C4.33 10.33 4.66 10.66 5 11 C5.34892324 15.07077118 4.41404314 18.19975907 3 22 C1.68 21.67 0.36 21.34 -1 21 C-1.09733092 13.90565767 -1.10087193 7.01805857 0 0 Z " fill="#FA5F1F" transform="translate(115,128)"/>
<path d="M0 0 C0.74958984 0.05220703 1.49917969 0.10441406 2.27148438 0.15820312 C4.11887082 0.28763784 5.96574371 0.42436518 7.8125 0.5625 C8.1425 2.2125 8.4725 3.8625 8.8125 5.5625 C8.12800781 5.22476563 7.44351563 4.88703125 6.73828125 4.5390625 C3.21631554 3.36350652 0.68048182 3.56573416 -3 3.9375 C-4.16144531 4.04835938 -5.32289062 4.15921875 -6.51953125 4.2734375 C-7.39996094 4.36882813 -8.28039062 4.46421875 -9.1875 4.5625 C-9.1875 3.9025 -9.1875 3.2425 -9.1875 2.5625 C-13.8075 2.8925 -18.4275 3.2225 -23.1875 3.5625 C-22.8575 2.9025 -22.5275 2.2425 -22.1875 1.5625 C-19.7890625 1.18359375 -19.7890625 1.18359375 -16.8125 1 C-0.6174084 -0.04691225 -0.6174084 -0.04691225 0 0 Z " fill="#FB9571" transform="translate(91.1875,43.4375)"/>
<path d="M0 0 C4.51227759 1.71466548 7.73149817 3.40813116 11.37890625 6.66015625 C14.35137871 9.11692264 17.69405666 11.028181 21 13 C17.88772805 13 15.05847848 12.54372951 12 12 C12 12.66 12 13.32 12 14 C10.68 13.34 9.36 12.68 8 12 C8 11.34 8 10.68 8 10 C7.01 10 6.02 10 5 10 C5 8.35 5 6.7 5 5 C2.525 4.01 2.525 4.01 0 3 C0 2.01 0 1.02 0 0 Z " fill="#F8AA94" transform="translate(131,64)"/>
<path d="M0 0 C-0.14219564 2.20857055 -0.28891847 4.41684987 -0.4375 6.625 C-0.51871094 7.85476562 -0.59992188 9.08453125 -0.68359375 10.3515625 C-0.96663944 13.61532388 -1.41038953 16.77943859 -2 20 C-2.33 20 -2.66 20 -3 20 C-3 15.05 -3 10.1 -3 5 C-3.99 4.67 -4.98 4.34 -6 4 C-6 3.34 -6 2.68 -6 2 C-6.61746094 2.144375 -7.23492187 2.28875 -7.87109375 2.4375 C-13.72140455 3.7197599 -19.01449037 4.19308096 -25 4 C-21.43271092 1.62180728 -18.33439159 1.33367704 -14.1875 0.875 C-13.13852539 0.74544922 -13.13852539 0.74544922 -12.06835938 0.61328125 C-8.02468655 0.136665 -4.06992267 -0.08944885 0 0 Z " fill="#F67F52" transform="translate(182,100)"/>
<path d="M0 0 C0.33 0.99 0.66 1.98 1 3 C1.66 3 2.32 3 3 3 C3.77313045 8.9114744 4.14819277 14.1314592 3 20 C3.99 20 4.98 20 6 20 C6 20.66 6 21.32 6 22 C3.03 22 0.06 22 -3 22 C-1.68 21.34 -0.36 20.68 1 20 C0.33735914 13.93735778 0.33735914 13.93735778 -1 8 C-0.34 8 0.32 8 1 8 C0.67 7.01 0.34 6.02 0 5 C-0.99 5 -1.98 5 -3 5 C-1.125 1.125 -1.125 1.125 0 0 Z " fill="#933114" transform="translate(127,76)"/>
<path d="M0 0 C6.27 0 12.54 0 19 0 C19 0.99 19 1.98 19 3 C16.37403939 4.84526962 14.04872454 5.98375849 11 7 C9.0625 6.00390625 9.0625 6.00390625 7 4.5625 C3.84413449 2.32567041 3.84413449 2.32567041 0 2 C0 1.34 0 0.68 0 0 Z " fill="#ED8F72" transform="translate(37,45)"/>
<path d="M0 0 C0.66 0.33 1.32 0.66 2 1 C2 2.32 2 3.64 2 5 C4.97 5.495 4.97 5.495 8 6 C8 8.31 8 10.62 8 13 C3.05949715 11.73615043 0.13145095 10.08037548 -3 6 C-2.9375 3.25 -2.9375 3.25 -2 1 C-1.34 0.67 -0.68 0.34 0 0 Z " fill="#973718" transform="translate(46,91)"/>
<path d="M0 0 C2.97 0.495 2.97 0.495 6 1 C6.79953138 4.28696233 7.09658936 5.71023192 6 9 C-1.75 9.125 -1.75 9.125 -4 8 C-3.67 6.68 -3.34 5.36 -3 4 C-2.01 4 -1.02 4 0 4 C0 2.68 0 1.36 0 0 Z " fill="#FDA284" transform="translate(122,98)"/>
<path d="M0 0 C1.14229879 3.42689636 0.90861076 5.61102218 0.5625 9.1875 C0.46066406 10.27417969 0.35882813 11.36085938 0.25390625 12.48046875 C0.12822266 13.72763672 0.12822266 13.72763672 0 15 C-1.98 15 -3.96 15 -6 15 C-7 12 -7 12 -6 9 C-5.34 9 -4.68 9 -4 9 C-3.896875 8.2575 -3.79375 7.515 -3.6875 6.75 C-2.95746496 3.82985982 -1.93210602 2.26812446 0 0 Z " fill="#691E0D" transform="translate(90,53)"/>
<path d="M0 0 C3.63 0.33 7.26 0.66 11 1 C11 3.31 11 5.62 11 8 C12.32 8.66 13.64 9.32 15 10 C14.01 10.495 14.01 10.495 13 11 C12.67 11.66 12.34 12.32 12 13 C10.85872377 11.85872377 9.71776264 10.71713121 8.578125 9.57421875 C7.42694314 8.42588635 6.26987213 7.28344889 5.109375 6.14453125 C4.47515625 5.51933594 3.8409375 4.89414063 3.1875 4.25 C2.58292969 3.65703125 1.97835937 3.0640625 1.35546875 2.453125 C0 1 0 1 0 0 Z " fill="#A04323" transform="translate(69,122)"/>
<path d="M0 0 C-0.33 0.99 -0.66 1.98 -1 3 C-3.21484375 3.984375 -3.21484375 3.984375 -5.9375 4.75 C-6.83339844 5.01296875 -7.72929688 5.2759375 -8.65234375 5.546875 C-11 6 -11 6 -13 5 C-13 4.34 -13 3.68 -13 3 C-14.258125 3.12375 -15.51625 3.2475 -16.8125 3.375 C-17.52019531 3.44460937 -18.22789063 3.51421875 -18.95703125 3.5859375 C-21.29988142 3.92665391 -21.29988142 3.92665391 -24 6 C-24.99 5.67 -25.98 5.34 -27 5 C-24.70715742 2.29535381 -23.23829613 1.58895159 -19.7265625 1.26953125 C-18.9015625 1.18896484 -18.0765625 1.10839844 -17.2265625 1.02539062 C-16.36804688 0.95513672 -15.50953125 0.88488281 -14.625 0.8125 C-13.77421875 0.73064453 -12.9234375 0.64878906 -12.046875 0.56445312 C-8.02182267 0.19141479 -4.04643995 -0.10823811 0 0 Z " fill="#F28D6C" transform="translate(109,66)"/>
<path d="M0 0 C0.33 0 0.66 0 1 0 C1.18019982 10.17127858 1.18743521 20.25019819 -2 30 C-2.69458311 32.66020605 -3.34417858 35.32986993 -4 38 C-4.33 38 -4.66 38 -5 38 C-4.35150953 29.54147566 -3.21658242 21.19659145 -1.9375 12.8125 C-1.75123047 11.57435547 -1.56496094 10.33621094 -1.37304688 9.06054688 C-0.91820399 6.03992362 -0.46046929 3.01976976 0 0 Z " fill="#F9D2C4" transform="translate(181,106)"/>
<path d="M0 0 C-0.66 0.66 -1.32 1.32 -2 2 C-3.32 2 -4.64 2 -6 2 C-5.67 2.99 -5.34 3.98 -5 5 C-6.98 5.33 -8.96 5.66 -11 6 C-11.33 7.32 -11.66 8.64 -12 10 C-13.32 9.67 -14.64 9.34 -16 9 C-15.25 7.0625 -15.25 7.0625 -14 5 C-11.875 4.25 -11.875 4.25 -10 4 C-10 3.01 -10 2.02 -10 1 C-6.78548731 -0.60725635 -3.56387464 -0.05748185 0 0 Z " fill="#F79573" transform="translate(66,44)"/>
<path d="M0 0 C0.33 1.65 0.66 3.3 1 5 C0.34 5 -0.32 5 -1 5 C0.04874998 7.62187494 0.64931313 8.79371361 3.125 10.25 C3.74375 10.4975 4.3625 10.745 5 11 C4.34 11.66 3.68 12.32 3 13 C0.36 11.02 -2.28 9.04 -5 7 C-4.67 5.68 -4.34 4.36 -4 3 C-5.35444301 1.22809091 -5.35444301 1.22809091 -7 0 C-4.3333581 -1.33332095 -2.83319697 -0.67102033 0 0 Z " fill="#9B3B1B" transform="translate(87,129)"/>
<path d="M0 0 C0.33 0.66 0.66 1.32 1 2 C0.34 2 -0.32 2 -1 2 C-1.33 2.99 -1.66 3.98 -2 5 C-4.92079805 7.07530387 -6.37546731 8 -10 8 C-9.67 6.68 -9.34 5.36 -9 4 C-9.99 3.67 -10.98 3.34 -12 3 C-8.03302114 1.19682779 -4.3177458 0.50797009 0 0 Z " fill="#F96F38" transform="translate(91,46)"/>
<path d="M0 0 C0.66 0 1.32 0 2 0 C2.33 2.64 2.66 5.28 3 8 C5.31 8.66 7.62 9.32 10 10 C10 10.33 10 10.66 10 11 C3.4 11.66 -3.2 12.32 -10 13 C-9.67 12.34 -9.34 11.68 -9 11 C-6.49609375 10.5859375 -6.49609375 10.5859375 -3.4375 10.375 C-2.42558594 10.30023438 -1.41367188 10.22546875 -0.37109375 10.1484375 C0.41136719 10.09945312 1.19382812 10.05046875 2 10 C1.67 8.02 1.34 6.04 1 4 C-0.32 3.67 -1.64 3.34 -3 3 C-1.68 3 -0.36 3 1 3 C0.67 2.01 0.34 1.02 0 0 Z " fill="#F88D66" transform="translate(118,62)"/>
<path d="M0 0 C2.97 0.495 2.97 0.495 6 1 C6 1.66 6 2.32 6 3 C6.66 3 7.32 3 8 3 C8 3.99 8 4.98 8 6 C8.804375 6.28875 9.60875 6.5775 10.4375 6.875 C13 8 13 8 14 10 C12.741875 9.87625 11.48375 9.7525 10.1875 9.625 C9.47980469 9.55539063 8.77210938 9.48578125 8.04296875 9.4140625 C6 9 6 9 3 7 C2.8125 4.375 2.8125 4.375 3 2 C2.01 2 1.02 2 0 2 C0 1.34 0 0.68 0 0 Z " fill="#F4AA93" transform="translate(152,78)"/>
<path d="M0 0 C2.99847658 1.42104672 5.69635213 3.07047901 8.4375 4.9375 C11.57479312 7.05491401 14.72521214 9.09851027 18 11 C15.53721199 12.231394 13.7204945 12.07159196 11 12 C10.67 11.01 10.34 10.02 10 9 C8.34051852 7.98812105 6.67419438 6.9873454 5 6 C5 5.34 5 4.68 5 4 C3.35 3.67 1.7 3.34 0 3 C0 2.01 0 1.02 0 0 Z " fill="#BF421C" transform="translate(136,76)"/>
<path d="M0 0 C1.28132813 0.00902344 2.56265625 0.01804688 3.8828125 0.02734375 C4.87023437 0.03894531 5.85765625 0.05054688 6.875 0.0625 C7.535 1.7125 8.195 3.3625 8.875 5.0625 C8.215 5.0625 7.555 5.0625 6.875 5.0625 C6.875 4.4025 6.875 3.7425 6.875 3.0625 C0.275 3.0625 -6.325 3.0625 -13.125 3.0625 C-8.00857206 0.50428603 -5.74198409 -0.05219986 0 0 Z " fill="#F8E4DE" transform="translate(93.125,37.9375)"/>
<path d="M0 0 C0.96661363 3.12180401 0.98988909 5.52083795 0.5625 8.75 C0.46066406 9.54921875 0.35882813 10.3484375 0.25390625 11.171875 C0.12822266 12.07679687 0.12822266 12.07679687 0 13 C-0.99 13 -1.98 13 -3 13 C-4.125 6.375 -4.125 6.375 -3 3 C-1.4375 1.3125 -1.4375 1.3125 0 0 Z " fill="#6D210C" transform="translate(124,83)"/>
<path d="M0 0 C0.33 0 0.66 0 1 0 C1.33 6.93 1.66 13.86 2 21 C-0.86234517 18.13765483 -1.47015554 14.90097983 -2 11 C-1.90282302 7.17973001 -1.72433795 3.4486759 0 0 Z " fill="#9A3513" transform="translate(38,56)"/>
<path d="M0 0 C6.27 0 12.54 0 19 0 C18.67 0.66 18.34 1.32 18 2 C12.39 2 6.78 2 1 2 C1 2.66 1 3.32 1 4 C1.66 4 2.32 4 3 4 C3 4.66 3 5.32 3 6 C3.99 6 4.98 6 6 6 C6 6.66 6 7.32 6 8 C3.08482708 6.92598892 1.22189824 6.22189824 -1 4 C-0.67 2.68 -0.34 1.36 0 0 Z " fill="#FD885D" transform="translate(61,48)"/>
<path d="M0 0 C5.61 0 11.22 0 17 0 C17 0.33 17 0.66 17 1 C8.01638277 2.65707093 -0.88310149 4.27643663 -10 5 C-6.71536341 2.81024227 -3.79303725 2.00193437 0 1 C0 0.67 0 0.34 0 0 Z " fill="#E97B51" transform="translate(138,155)"/>
<path d="M0 0 C2.16874252 0.50603992 3.99967627 0.99983813 6 2 C6 2.66 6 3.32 6 4 C6.99 4 7.98 4 9 4 C9 4.66 9 5.32 9 6 C7.02 6.33 5.04 6.66 3 7 C3 6.01 3 5.02 3 4 C1.35 4 -0.3 4 -2 4 C-1.34 2.68 -0.68 1.36 0 0 Z " fill="#FBA186" transform="translate(146,76)"/>
<path d="M0 0 C4.95 0 9.9 0 15 0 C15.33 1.65 15.66 3.3 16 5 C15.319375 4.67 14.63875 4.34 13.9375 4 C10.49159762 2.82692685 7.61602578 2.85819507 4 3 C4 2.34 4 1.68 4 1 C2.68 0.67 1.36 0.34 0 0 Z " fill="#F38864" transform="translate(84,44)"/>
<path d="M0 0 C1.65 0 3.3 0 5 0 C5.79953138 3.28696233 6.09658936 4.71023192 5 8 C4.34 8 3.68 8 3 8 C3 7.34 3 6.68 3 6 C2.01 6 1.02 6 0 6 C0 4.02 0 2.04 0 0 Z " fill="#8E3114" transform="translate(34,80)"/>
<path d="M0 0 C2.31 0 4.62 0 7 0 C7 0.66 7 1.32 7 2 C7.99 2.33 8.98 2.66 10 3 C10 3.66 10 4.32 10 5 C5.545 5.495 5.545 5.495 1 6 C1.99 5.67 2.98 5.34 4 5 C4 4.34 4 3.68 4 3 C2.68 2.67 1.36 2.34 0 2 C0 1.34 0 0.68 0 0 Z " fill="#B84723" transform="translate(109,60)"/>
<path d="M0 0 C0.66 0 1.32 0 2 0 C2 2 2 2 -0.375 4.625 C-3 7 -3 7 -5 7 C-5.66 8.98 -6.32 10.96 -7 13 C-7.66 12.67 -8.32 12.34 -9 12 C-8.2136818 8.89308418 -7.35833149 5.90842742 -6 3 C-3.375 1.5 -3.375 1.5 -1 1 C-0.67 0.67 -0.34 0.34 0 0 Z " fill="#E9581C" transform="translate(86,51)"/>
<path d="M0 0 C2.475 0.495 2.475 0.495 5 1 C5 1.66 5 2.32 5 3 C5.66 3.33 6.32 3.66 7 4 C7 5.65 7 7.3 7 9 C4.625 8.4375 4.625 8.4375 2 7 C0.6875 3.375 0.6875 3.375 0 0 Z " fill="#F79272" transform="translate(99,44)"/>
<path d="M0 0 C1.32 0 2.64 0 4 0 C4 0.66 4 1.32 4 2 C5.32 1.34 6.64 0.68 8 0 C7.938125 0.78375 7.87625 1.5675 7.8125 2.375 C7.874375 3.24125 7.93625 4.1075 8 5 C8.99 5.66 9.98 6.32 11 7 C11 7.99 11 8.98 11 10 C7.56618799 8.855396 6.41427241 7.27405536 4.20703125 4.5 C2.9062097 2.88344506 1.5058335 1.42657911 0 0 Z " fill="#9E4B2D" transform="translate(48,102)"/>
<path d="M0 0 C0.99 0.33 1.98 0.66 3 1 C2.67 5.29 2.34 9.58 2 14 C0.11638447 11.17457671 -0.31902686 10.18940682 -0.6875 7 C-0.77386719 6.319375 -0.86023438 5.63875 -0.94921875 4.9375 C-1 3 -1 3 0 0 Z " fill="#FD773B" transform="translate(177,104)"/>
<path d="M0 0 C0.66 0.33 1.32 0.66 2 1 C1.071875 2.299375 1.071875 2.299375 0.125 3.625 C-1.84654784 6.75628186 -2.98966991 9.46384469 -4 13 C-4.99 12.34 -5.98 11.68 -7 11 C-6.34 9.02 -5.68 7.04 -5 5 C-4.34 5 -3.68 5 -3 5 C-2.690625 4.360625 -2.38125 3.72125 -2.0625 3.0625 C-1 1 -1 1 0 0 Z " fill="#BE4011" transform="translate(86,53)"/>
<path d="M0 0 C1.98 0 3.96 0 6 0 C5.67 1.98 5.34 3.96 5 6 C3.02 6.33 1.04 6.66 -1 7 C-0.67 4.69 -0.34 2.38 0 0 Z " fill="#F75E20" transform="translate(169,144)"/>
<path d="M0 0 C0.66 0 1.32 0 2 0 C2.33 1.32 2.66 2.64 3 4 C5.64 4.33 8.28 4.66 11 5 C10 6.625 10 6.625 8 8 C5.1841095 7.65009645 2.7283142 6.84980278 0 6 C0 4.02 0 2.04 0 0 Z " fill="#9F3718" transform="translate(93,140)"/>
<path d="M0 0 C0.66 0 1.32 0 2 0 C1.39305845 3.15330554 0.3583335 5.18888867 -1.5625 7.75 C-2.24505859 8.67039062 -2.24505859 8.67039062 -2.94140625 9.609375 C-3.46541016 10.29773438 -3.46541016 10.29773438 -4 11 C-4.99 10.67 -5.98 10.34 -7 10 C-7 8.68 -7 7.36 -7 6 C-6.030625 5.566875 -5.06125 5.13375 -4.0625 4.6875 C-0.72268235 3.2985139 -0.72268235 3.2985139 0 0 Z " fill="#D34D17" transform="translate(120,80)"/>
<path d="M0 0 C0.66 0 1.32 0 2 0 C2 1.32 2 2.64 2 4 C3.65 4.33 5.3 4.66 7 5 C6.01 5.33 5.02 5.66 4 6 C4.33 6.99 4.66 7.98 5 9 C2.05043472 7.63055898 -0.52468811 6.12169591 -3 4 C-3 3.34 -3 2.68 -3 2 C-2.01 2 -1.02 2 0 2 C0 1.34 0 0.68 0 0 Z " fill="#FC743E" transform="translate(70,52)"/>
<path d="M0 0 C0.66 0.33 1.32 0.66 2 1 C2.4140625 4.16015625 2.4140625 4.16015625 2.625 8.0625 C2.69976562 9.35285156 2.77453125 10.64320312 2.8515625 11.97265625 C2.90054688 12.97167969 2.94953125 13.97070312 3 15 C2.01 15.495 2.01 15.495 1 16 C0.34 16.99 -0.32 17.98 -1 19 C-0.9278125 17.79601562 -0.855625 16.59203125 -0.78125 15.3515625 C-0.68746911 13.77604351 -0.5937208 12.20052257 -0.5 10.625 C-0.45230469 9.8309375 -0.40460938 9.036875 -0.35546875 8.21875 C-0.09644667 4.11223696 -0.09644667 4.11223696 0 0 Z " fill="#EC6731" transform="translate(117,106)"/>
<path d="M0 0 C0.33 0 0.66 0 1 0 C1 1.65 1 3.3 1 5 C1.99 5 2.98 5 4 5 C4 5.66 4 6.32 4 7 C4.66 7 5.32 7 6 7 C6.33 6.34 6.66 5.68 7 5 C7 5.66 7 6.32 7 7 C7.66 7.33 8.32 7.66 9 8 C8.34 8 7.68 8 7 8 C6.67 8.99 6.34 9.98 6 11 C1.82608696 9.60869565 1.82608696 9.60869565 0 7 C-0.1875 3.3125 -0.1875 3.3125 0 0 Z " fill="#9E4E35" transform="translate(33,81)"/>
<path d="M0 0 C9.77904328 3.85421412 9.77904328 3.85421412 12 8 C10.51882199 7.71872579 9.04006751 7.42466268 7.5625 7.125 C6.73878906 6.96257813 5.91507812 6.80015625 5.06640625 6.6328125 C4.38449219 6.42398438 3.70257813 6.21515625 3 6 C2.67 5.34 2.34 4.68 2 4 C-0.01669827 2.86649466 -0.01669827 2.86649466 -2 2 C-1.34 2 -0.68 2 0 2 C0 1.34 0 0.68 0 0 Z " fill="#F1B4A1" transform="translate(104,45)"/>
<path d="M0 0 C0.33 0.66 0.66 1.32 1 2 C-1.97 1.67 -4.94 1.34 -8 1 C-8.66 2.32 -9.32 3.64 -10 5 C-10.66 5 -11.32 5 -12 5 C-12 3.35 -12 1.7 -12 0 C-7.69211856 -0.92311745 -4.29105809 -1.09771253 0 0 Z " fill="#EA6130" transform="translate(134,73)"/>
<path d="M0 0 C3.48539917 0.64544429 6.02819057 2.10134397 9 4 C8.01 4.495 8.01 4.495 7 5 C7 5.66 7 6.32 7 7 C5.68 6.67 4.36 6.34 3 6 C2.67 4.68 2.34 3.36 2 2 C1.34 2 0.68 2 0 2 C0 1.34 0 0.68 0 0 Z " fill="#B73B17" transform="translate(92,46)"/>
<path d="M0 0 C0.66 1.32 1.32 2.64 2 4 C1.67 4.33 1.34 4.66 1 5 C0.60545777 6.84599688 0.25823134 8.70225822 -0.0625 10.5625 C-0.23910156 11.57441406 -0.41570313 12.58632813 -0.59765625 13.62890625 C-0.73042969 14.41136719 -0.86320312 15.19382812 -1 16 C-1.33 16 -1.66 16 -2 16 C-2.05423638 14.08364783 -2.09289963 12.16685075 -2.125 10.25 C-2.14820313 9.18265625 -2.17140625 8.1153125 -2.1953125 7.015625 C-2.00487687 4.07529894 -1.52670104 2.47638122 0 0 Z " fill="#A64D30" transform="translate(38,46)"/>
<path d="M0 0 C1.65 0.33 3.3 0.66 5 1 C5.33 2.32 5.66 3.64 6 5 C5.01 4.67 4.02 4.34 3 4 C3.33 4.99 3.66 5.98 4 7 C3.34 7.66 2.68 8.32 2 9 C0.68 7.68 -0.64 6.36 -2 5 C-1.01 4.67 -0.02 4.34 1 4 C1.33 3.34 1.66 2.68 2 2 C1.34 1.34 0.68 0.68 0 0 Z " fill="#A44527" transform="translate(90,136)"/>
<path d="M0 0 C0.66 0 1.32 0 2 0 C1.875 1.875 1.875 1.875 1 4 C-0.98723268 4.70381157 -2.98777953 5.3711811 -5 6 C-5.33 6.99 -5.66 7.98 -6 9 C-5.67 6.69 -5.34 4.38 -5 2 C-3.35 2 -1.7 2 0 2 C0 1.34 0 0.68 0 0 Z " fill="#F96026" transform="translate(118,80)"/>
<path d="M0 0 C2.475 0.495 2.475 0.495 5 1 C5 1.99 5 2.98 5 4 C5.61875 4.268125 6.2375 4.53625 6.875 4.8125 C9 6 9 6 11 9 C10.4225 8.690625 9.845 8.38125 9.25 8.0625 C7.15705816 7.07416636 5.25464725 6.4831387 3 6 C3 4.68 3 3.36 3 2 C2.01 2 1.02 2 0 2 C0 1.34 0 0.68 0 0 Z " fill="#FB9065" transform="translate(101,80)"/>
<path d="M0 0 C2.64 0 5.28 0 8 0 C8 0.99 8 1.98 8 3 C5.36 3 2.72 3 0 3 C0 2.01 0 1.02 0 0 Z " fill="#FC5715" transform="translate(120,156)"/>
<path d="M0 0 C0.66 0 1.32 0 2 0 C2 0.99 2 1.98 2 3 C2.66 3 3.32 3 4 3 C4 4.65 4 6.3 4 8 C2.02 6.35 0.04 4.7 -2 3 C-1.34 2.67 -0.68 2.34 0 2 C0 1.34 0 0.68 0 0 Z " fill="#A74830" transform="translate(105,153)"/>
<path d="M0 0 C1.65 1.32 3.3 2.64 5 4 C4.01 5.485 4.01 5.485 3 7 C1.2925002 5.71937515 -0.37373596 4.38232443 -2 3 C-2 2.34 -2 1.68 -2 1 C-1.34 0.67 -0.68 0.34 0 0 Z " fill="#F68F6C" transform="translate(60,57)"/>
<path d="M0 0 C2.64 1.98 5.28 3.96 8 6 C6 7 6 7 2.875 6.0625 C1.92625 5.711875 0.9775 5.36125 0 5 C0 3.35 0 1.7 0 0 Z " fill="#F2D8CE" transform="translate(80,134)"/>
<path d="M0 0 C1.65 0 3.3 0 5 0 C5 0.99 5 1.98 5 3 C5.99 2.67 6.98 2.34 8 2 C8 3.32 8 4.64 8 6 C4.63408134 4.55746343 2.48952921 2.66735273 0 0 Z " fill="#F68863" transform="translate(144,80)"/>
<path d="M0 0 C2.64 1.98 5.28 3.96 8 6 C6 7 6 7 4 6.4375 C3.34 6.293125 2.68 6.14875 2 6 C1.34 6.66 0.68 7.32 0 8 C0 5.36 0 2.72 0 0 Z " fill="#F3D8CE" transform="translate(72,126)"/>
<path d="M0 0 C2.88437779 1.29299694 4.87219421 2.65941363 7 5 C6.4225 4.835 5.845 4.67 5.25 4.5 C2.73335631 3.85537969 2.73335631 3.85537969 -1 4 C-0.67 2.68 -0.34 1.36 0 0 Z " fill="#F6A993" transform="translate(166,88)"/>
<path d="M0 0 C6.75 2.875 6.75 2.875 9 4 C9 4.66 9 5.32 9 6 C6.03 5.01 3.06 4.02 0 3 C0 2.01 0 1.02 0 0 Z " fill="#F5BCAD" transform="translate(131,64)"/>
<path d="M0 0 C1.31625194 2.63250388 0.74813658 3.80179056 0.0625 6.625 C-0.13214844 7.44226563 -0.32679687 8.25953125 -0.52734375 9.1015625 C-0.68332031 9.72804688 -0.83929688 10.35453125 -1 11 C-1.99 10.67 -2.98 10.34 -4 10 C-3.67 8.35 -3.34 6.7 -3 5 C-2.34 5 -1.68 5 -1 5 C-0.67 3.35 -0.34 1.7 0 0 Z " fill="#7C280F" transform="translate(87,57)"/>
<path d="M0 0 C0.99 0 1.98 0 3 0 C3 0.99 3 1.98 3 3 C3.66 3 4.32 3 5 3 C4.67 3.99 4.34 4.98 4 6 C2.68 5.34 1.36 4.68 0 4 C0 2.68 0 1.36 0 0 Z " fill="#FB9471" transform="translate(152,82)"/>
<path d="M0 0 C2.64 0 5.28 0 8 0 C7.67 1.65 7.34 3.3 7 5 C3.535 3.02 3.535 3.02 0 1 C0 0.67 0 0.34 0 0 Z " fill="#F28260" transform="translate(40,46)"/>
<path d="M0 0 C2.97 0.495 2.97 0.495 6 1 C6 1.66 6 2.32 6 3 C6.66 3 7.32 3 8 3 C7.67 3.99 7.34 4.98 7 6 C3.535 4.02 3.535 4.02 0 2 C0 1.34 0 0.68 0 0 Z " fill="#F7D0C7" transform="translate(152,78)"/>
<path d="M0 0 C0.33 0 0.66 0 1 0 C1.1953125 2.05078125 1.390625 4.1015625 1.5859375 6.15234375 C1.72257812 6.76207031 1.85921875 7.37179688 2 8 C2.66 8.33 3.32 8.66 4 9 C4 9.66 4 10.32 4 11 C2.68 11.33 1.36 11.66 0 12 C0 8.04 0 4.08 0 0 Z " fill="#7C2712" transform="translate(90,56)"/>
<path d="M0 0 C-0.33 0.99 -0.66 1.98 -1 3 C-3.31 3 -5.62 3 -8 3 C-5.53387212 -0.1151089 -3.89156016 -0.31553191 0 0 Z " fill="#F55F24" transform="translate(157,152)"/>
<path d="M0 0 C0.99 0 1.98 0 3 0 C2.67 3.63 2.34 7.26 2 11 C1.67 11 1.34 11 1 11 C0.67 7.37 0.34 3.74 0 0 Z " fill="#ED7545" transform="translate(175,128)"/>
<path d="M0 0 C1.32 0.33 2.64 0.66 4 1 C4 1.66 4 2.32 4 3 C4.99 2.67 5.98 2.34 7 2 C7.33 3.65 7.66 5.3 8 7 C5.5 5.625 5.5 5.625 3 4 C3 3.34 3 2.68 3 2 C2.01 1.67 1.02 1.34 0 1 C0 0.67 0 0.34 0 0 Z " fill="#F28863" transform="translate(104,95)"/>
<path d="M0 0 C3.11198065 1.49836105 6.0534615 3.19933758 9 5 C8.01 5.495 8.01 5.495 7 6 C4.64018187 5.06421005 2.30368736 4.06652192 0 3 C0 2.01 0 1.02 0 0 Z " fill="#CE4A20" transform="translate(136,76)"/>
<path d="M0 0 C1.4384798 0.06423833 2.87666999 0.14163547 4.3125 0.25 C4.3125 0.58 4.3125 0.91 4.3125 1.25 C0.33189223 2.42076699 -3.60371717 3.50749403 -7.6875 4.25 C-5.84004374 0.30875998 -4.09551026 -0.02575793 0 0 Z " fill="#E68664" transform="translate(89.6875,67.75)"/>
<path d="M0 0 C5.625 -0.25 5.625 -0.25 9 2 C8.67 2.99 8.34 3.98 8 5 C7.34 5 6.68 5 6 5 C6 4.34 6 3.68 6 3 C5.34 3 4.68 3 4 3 C4 2.34 4 1.68 4 1 C2.68 0.67 1.36 0.34 0 0 Z " fill="#F79674" transform="translate(124,98)"/>
<path d="M0 0 C0.33 1.32 0.66 2.64 1 4 C0.01 4.66 -0.98 5.32 -2 6 C-2.66 4.68 -3.32 3.36 -4 2 C-2.68 1.34 -1.36 0.68 0 0 Z " fill="#FB621F" transform="translate(78,56)"/>
</svg>
