<?xml version="1.0" encoding="UTF-8"?>
<svg version="1.1" xmlns="http://www.w3.org/2000/svg" width="512" height="512">
<path d="M0 0 C1.01790619 0.00215515 2.03581238 0.0043103 3.08456421 0.00653076 C17.69363523 0.05620146 32.02575853 0.30709809 46.375 3.3125 C47.34985352 3.51117676 48.32470703 3.70985352 49.32910156 3.91455078 C97.7109774 14.03517194 141.69928269 35.9516877 177.375 70.3125 C178.3640332 71.26068604 178.3640332 71.26068604 179.37304688 72.22802734 C188.86130305 81.37247479 197.6012044 90.66984009 205.375 101.3125 C206.23306152 102.46355017 207.09113451 103.61459177 207.94921875 104.765625 C213.98736829 112.95680614 219.34595521 121.47054105 224.375 130.3125 C224.73948242 130.94430176 225.10396484 131.57610352 225.47949219 132.22705078 C247.08534998 169.97532572 256.85198095 212.74189997 256.6875 255.9375 C256.68534485 256.95540619 256.6831897 257.97331238 256.68096924 259.02206421 C256.63129854 273.63113523 256.38040191 287.96325853 253.375 302.3125 C253.07698486 303.77478027 253.07698486 303.77478027 252.77294922 305.26660156 C242.65232806 353.6484774 220.7358123 397.63678269 186.375 433.3125 C185.74287598 433.97185547 185.11075195 434.63121094 184.45947266 435.31054688 C175.31502521 444.79880305 166.01765991 453.5387044 155.375 461.3125 C154.22394983 462.17056152 153.07290823 463.02863451 151.921875 463.88671875 C143.73224019 469.92427396 135.22961724 475.30707302 126.375 480.3125 C125.66778809 480.7146875 124.96057617 481.116875 124.23193359 481.53125 C101.09654164 494.5566741 75.92537591 503.30551461 49.9375 508.625 C49.21860596 508.77235596 48.49971191 508.91971191 47.7590332 509.0715332 C33.08339502 511.86090125 18.55831162 512.66142619 3.64770508 512.62817383 C0.70811513 512.6250221 -2.2304558 512.64854926 -5.16992188 512.67382812 C-18.54306192 512.71848737 -31.43916711 511.51301542 -44.625 509.3125 C-46.33055054 509.03031616 -46.33055054 509.03031616 -48.07055664 508.74243164 C-91.33802759 500.97044532 -132.38793216 480.98345309 -165.625 452.3125 C-166.37007813 451.67828125 -167.11515625 451.0440625 -167.8828125 450.390625 C-181.38779833 438.57948485 -194.05918743 425.82889772 -204.625 411.3125 C-205.48149066 410.16255169 -206.33826433 409.01281411 -207.1953125 407.86328125 C-213.23534209 399.67315742 -218.61867614 391.16870382 -223.625 382.3125 C-224.0271875 381.60528809 -224.429375 380.89807617 -224.84375 380.16943359 C-237.8691741 357.03404164 -246.61801461 331.86287591 -251.9375 305.875 C-252.08485596 305.15610596 -252.23221191 304.43721191 -252.3840332 303.6965332 C-255.35789088 288.05024391 -255.99800362 272.57681954 -255.9375 256.6875 C-255.93534485 255.66959381 -255.9331897 254.65168762 -255.93096924 253.60293579 C-255.88129854 238.99386477 -255.63040191 224.66174147 -252.625 210.3125 C-252.42632324 209.33764648 -252.22764648 208.36279297 -252.02294922 207.35839844 C-241.90232806 158.9765226 -219.9858123 114.98821731 -185.625 79.3125 C-184.99287598 78.65314453 -184.36075195 77.99378906 -183.70947266 77.31445312 C-174.56502521 67.82619695 -165.26765991 59.0862956 -154.625 51.3125 C-153.47394983 50.45443848 -152.32290823 49.59636549 -151.171875 48.73828125 C-142.98224019 42.70072604 -134.47961724 37.31792698 -125.625 32.3125 C-124.91778809 31.9103125 -124.21057617 31.508125 -123.48193359 31.09375 C-100.34654164 18.0683259 -75.17537591 9.31948539 -49.1875 4 C-48.46860596 3.85264404 -47.74971191 3.70528809 -47.0090332 3.5534668 C-31.36274391 0.57960912 -15.88931954 -0.06050362 0 0 Z M-108.625 99.3125 C-107.10762365 102.87792723 -105.02099649 105.16707015 -102.29273987 107.89644241 C-101.37734153 108.81705625 -100.46194319 109.73767008 -99.5188055 110.68618131 C-98.4964333 111.70422931 -97.47396673 112.72218256 -96.45141602 113.74005127 C-95.36999319 114.82377785 -94.28900685 115.90794013 -93.20842075 116.99250102 C-90.23409057 119.97519937 -87.25353094 122.9516044 -84.27192354 125.92702579 C-81.05903342 129.13540081 -77.85189125 132.3495126 -74.64401245 135.56289673 C-68.35794525 141.85786904 -62.06646844 148.14740793 -55.77305198 154.43503192 C-50.660749 159.54282362 -45.55039479 164.6525574 -40.44143677 169.76369476 C-39.35199244 170.85359879 -39.35199244 170.85359879 -38.24053913 171.96552108 C-36.76525518 173.44144446 -35.28997572 174.91737234 -33.81470072 176.39330468 C-19.97330388 190.24040788 -6.12577737 204.0813682 7.72384202 217.92024669 C19.61917663 229.80664174 31.50925228 241.69827622 43.39550781 253.59375 C57.1869672 267.39590012 70.98164942 281.19481581 84.78152943 294.98854709 C86.25150275 296.45788328 87.72147188 297.92722367 89.19143677 299.3965683 C89.91476226 300.11958524 90.63808775 300.84260218 91.38333219 301.58752872 C96.49184989 306.69431617 101.59803608 311.80342779 106.70333862 316.91342926 C112.91950881 323.13519484 119.13920146 329.35341271 125.36350894 335.56703809 C128.54191576 338.74017064 131.71866906 341.91491451 134.89114761 345.09397507 C137.79082919 347.99958185 140.69502439 350.9005934 143.60301316 353.79788551 C144.65856696 354.85119067 145.7124082 355.90621519 146.76442707 356.96305099 C148.1859492 358.39058557 149.61414443 359.81146615 151.04273987 361.23192215 C151.83679009 362.02564767 152.63084032 362.81937319 153.44895267 363.637151 C155.20104549 365.53126529 155.20104549 365.53126529 157.375 365.3125 C160.38071066 361.20911559 162.84257632 356.72002143 165.375 352.3125 C165.77315918 351.62687988 166.17131836 350.94125977 166.58154297 350.23486328 C192.0645883 305.84994907 197.60010785 253.48255084 184.375 204.3125 C170.5945126 156.39317562 137.95873094 114.39586509 94.375 90 C30.16580032 55.13760807 -47.95497243 57.19215902 -108.625 99.3125 Z M-155.625 146.3125 C-184.59154007 189.20257021 -196.97675696 239.80101743 -187.625 291.0625 C-177.55325607 342.14738208 -148.08362678 386.65334944 -104.95556641 415.79150391 C-62.46419261 443.52262257 -11.53149704 453.16339083 38.21630859 443.77636719 C44.01313783 442.54895299 49.70462473 441.02759836 55.375 439.3125 C56.08881836 439.09754883 56.80263672 438.88259766 57.53808594 438.66113281 C76.07013352 432.92400193 93.26093671 424.0248193 109.375 413.3125 C107.85004691 409.71357434 105.72477207 407.41776414 102.96760559 404.67132568 C102.04100128 403.74341721 101.11439697 402.81550873 100.15971375 401.85948181 C99.12975735 400.83819843 98.09970972 399.81700706 97.06958008 398.79589844 C95.98662379 397.71514389 94.9041153 396.63394047 93.82202148 395.55232239 C91.49116648 393.22440041 89.15718966 390.89967044 86.82074928 388.57735443 C83.12126306 384.90015734 79.42889853 381.21586454 75.73747253 377.53057861 C69.89185799 371.69634866 64.04159369 365.86680693 58.18928689 360.03929067 C47.725755 349.62001958 37.267681 339.19527796 26.81493682 328.76518464 C23.14987917 325.10849951 19.48203175 321.45464316 15.81186545 317.8030858 C13.51993348 315.521862 11.23008474 313.2385553 8.94072723 310.95474815 C7.88511897 309.90258557 6.82864138 308.85129427 5.77119255 307.80098152 C0.56731167 302.63142154 -4.53828379 297.4579586 -9.1858263 291.77223587 C-10.67090916 290.04522671 -10.67090916 290.04522671 -13.625 289.3125 C-13.625 288.6525 -13.625 287.9925 -13.625 287.3125 C-15.45833333 285.14583333 -15.45833333 285.14583333 -17.625 283.3125 C-18.285 283.3125 -18.945 283.3125 -19.625 283.3125 C-20.285 281.9925 -20.945 280.6725 -21.625 279.3125 C-22.285 279.3125 -22.945 279.3125 -23.625 279.3125 C-23.955 278.3225 -24.285 277.3325 -24.625 276.3125 C-25.285 276.3125 -25.945 276.3125 -26.625 276.3125 C-27.285 274.9925 -27.945 273.6725 -28.625 272.3125 C-29.285 272.3125 -29.945 272.3125 -30.625 272.3125 C-30.625 271.6525 -30.625 270.9925 -30.625 270.3125 C-31.285 270.3125 -31.945 270.3125 -32.625 270.3125 C-33.285 268.9925 -33.945 267.6725 -34.625 266.3125 C-35.285 266.3125 -35.945 266.3125 -36.625 266.3125 C-36.625 265.6525 -36.625 264.9925 -36.625 264.3125 C-38.2497188 262.58296063 -39.91309062 260.95357175 -41.625 259.3125 C-43.16936897 257.77354038 -44.71084623 256.23167548 -46.25 254.6875 C-47.00539062 253.93210937 -47.76078125 253.17671875 -48.5390625 252.3984375 C-49.80485896 251.13264104 -51.05469307 249.85022357 -52.2734375 248.5390625 C-53.56764843 247.08848887 -53.56764843 247.08848887 -55.625 247.3125 C-56.285 245.9925 -56.945 244.6725 -57.625 243.3125 C-58.285 243.3125 -58.945 243.3125 -59.625 243.3125 C-59.625 242.6525 -59.625 241.9925 -59.625 241.3125 C-60.285 241.3125 -60.945 241.3125 -61.625 241.3125 C-62.285 239.9925 -62.945 238.6725 -63.625 237.3125 C-64.285 237.3125 -64.945 237.3125 -65.625 237.3125 C-65.955 236.3225 -66.285 235.3325 -66.625 234.3125 C-67.285 234.3125 -67.945 234.3125 -68.625 234.3125 C-69.285 232.9925 -69.945 231.6725 -70.625 230.3125 C-71.285 230.3125 -71.945 230.3125 -72.625 230.3125 C-72.955 229.3225 -73.285 228.3325 -73.625 227.3125 C-75.00014541 225.6037354 -75.00014541 225.6037354 -76.625 224.3125 C-77.285 224.3125 -77.945 224.3125 -78.625 224.3125 C-78.851875 223.755625 -79.07875 223.19875 -79.3125 222.625 C-81.55924503 218.66644924 -84.84226388 215.935131 -88.375 213.125 C-90.625 211.3125 -90.625 211.3125 -91.625 209.3125 C-92.285 209.3125 -92.945 209.3125 -93.625 209.3125 C-93.88152344 208.71695313 -94.13804687 208.12140625 -94.40234375 207.5078125 C-95.73469687 205.11553629 -97.05868605 203.88521801 -99.1875 202.1875 C-102.52777778 199.50694444 -102.52777778 199.50694444 -103.625 197.3125 C-104.285 197.3125 -104.945 197.3125 -105.625 197.3125 C-105.851875 196.755625 -106.07875 196.19875 -106.3125 195.625 C-108.73920254 191.34938123 -112.05750373 188.17333181 -116.625 186.3125 C-116.625 185.6525 -116.625 184.9925 -116.625 184.3125 C-117.285 184.3125 -117.945 184.3125 -118.625 184.3125 C-118.625 183.6525 -118.625 182.9925 -118.625 182.3125 C-119.285 182.3125 -119.945 182.3125 -120.625 182.3125 C-120.625 181.6525 -120.625 180.9925 -120.625 180.3125 C-121.285 180.3125 -121.945 180.3125 -122.625 180.3125 C-122.955 179.3225 -123.285 178.3325 -123.625 177.3125 C-124.285 177.3125 -124.945 177.3125 -125.625 177.3125 C-126.12 175.8275 -126.12 175.8275 -126.625 174.3125 C-127.285 174.3125 -127.945 174.3125 -128.625 174.3125 C-129.285 172.9925 -129.945 171.6725 -130.625 170.3125 C-131.285 170.3125 -131.945 170.3125 -132.625 170.3125 C-132.851875 169.755625 -133.07875 169.19875 -133.3125 168.625 C-135.51502123 164.74436736 -138.69651689 162.03716975 -142.1875 159.3125 C-144.76977053 157.19371393 -146.57390086 154.94047078 -148.625 152.3125 C-151.78905455 148.86597227 -151.78905455 148.86597227 -155.625 146.3125 Z " fill="#000000" transform="translate(255.625,-0.3125)"/>
</svg>
