<?xml version="1.0" encoding="UTF-8"?>
<svg version="1.1" xmlns="http://www.w3.org/2000/svg" width="128" height="128">
<path d="M0 0 C0.89879883 0.02819824 1.79759766 0.05639648 2.72363281 0.08544922 C3.7498877 0.13983154 3.7498877 0.13983154 4.796875 0.1953125 C4.79557618 0.79184663 4.79427736 1.38838076 4.79293919 2.00299168 C4.76370622 16.53459413 4.77314409 31.06581814 4.82534122 45.5973444 C4.8496566 52.62484547 4.86100173 59.65191588 4.84155273 66.67944336 C4.82281869 73.46191127 4.84057396 80.24350445 4.88055229 87.025877 C4.88984427 89.61299609 4.88692187 92.20018891 4.87156868 94.78727913 C4.85214341 98.41260517 4.87619954 102.03523839 4.91040039 105.66040039 C4.8945842 106.72926987 4.87876801 107.79813934 4.86247253 108.8993988 C4.96156323 114.36067358 5.36141616 117.38019254 9.35227966 121.29124451 C9.99396811 121.81364432 10.63565657 122.33604414 11.29679012 122.87427425 C11.79181813 123.31021688 12.28684614 123.7461595 12.796875 124.1953125 C12.796875 124.8553125 12.796875 125.5153125 12.796875 126.1953125 C10.2354431 126.5595114 7.67329081 126.91194048 5.109375 127.2578125 C4.38814453 127.36158203 3.66691406 127.46535156 2.92382812 127.57226562 C-1.08376261 128.10295116 -4.23004141 128.18122584 -8.203125 127.1953125 C-8.88375 127.3809375 -9.564375 127.5665625 -10.265625 127.7578125 C-12.92871964 128.35915645 -13.89489406 127.5911204 -16.203125 126.1953125 C-17.72363281 124.58227539 -17.72363281 124.58227539 -19.15625 122.66796875 C-19.68968018 121.96293213 -20.22311035 121.25789551 -20.77270508 120.53149414 C-21.32724365 119.7811792 -21.88178223 119.03086426 -22.453125 118.2578125 C-23.31103638 117.11397095 -23.31103638 117.11397095 -24.1862793 115.94702148 C-25.86618534 113.70201523 -27.53488775 111.44899501 -29.203125 109.1953125 C-30.07879178 108.02816892 -30.95502286 106.86144831 -31.83203125 105.6953125 C-37.203125 98.46979819 -37.203125 98.46979819 -37.203125 96.1953125 C-35.883125 96.1953125 -34.563125 96.1953125 -33.203125 96.1953125 C-33.22644142 94.9816803 -33.22644142 94.9816803 -33.25022888 93.74353027 C-33.39087677 86.09373405 -33.49725643 78.44457041 -33.5658102 70.79381561 C-33.60224099 66.86100311 -33.65159836 62.9292647 -33.73120117 58.99707031 C-33.80763419 55.19738827 -33.84919157 51.39873473 -33.8672657 47.5983429 C-33.88013404 46.15342527 -33.90526435 44.7085598 -33.9432354 43.26408386 C-34.264083 30.54498195 -34.264083 30.54498195 -29.87915039 25.46679688 C-28.68110292 24.3463846 -27.45588341 23.25419766 -26.203125 22.1953125 C-25.02832105 21.01586218 -23.86051573 19.82935504 -22.703125 18.6328125 C-20.92082214 16.87405327 -19.13019116 15.12407879 -17.33886719 13.37451172 C-14.0921821 10.17524237 -11.18788055 6.97967587 -8.453125 3.3203125 C-5.79493207 0.12159566 -4.1032427 -0.16707014 0 0 Z M-7.203125 9.1953125 C-9.47529348 11.03269077 -9.47529348 11.03269077 -9.3984375 13.796875 C-9.37523438 14.79460938 -9.35203125 15.79234375 -9.328125 16.8203125 C-9.31007813 17.82320312 -9.29203125 18.82609375 -9.2734375 19.859375 C-9.25023438 20.63023438 -9.22703125 21.40109375 -9.203125 22.1953125 C-8.213125 21.8653125 -7.223125 21.5353125 -6.203125 21.1953125 C-6.203125 17.2353125 -6.203125 13.2753125 -6.203125 9.1953125 C-6.533125 9.1953125 -6.863125 9.1953125 -7.203125 9.1953125 Z M-14.765625 16.1328125 C-18.02090083 20.22277444 -17.69649911 23.16289659 -17.203125 28.1953125 C-16.584375 27.8859375 -15.965625 27.5765625 -15.328125 27.2578125 C-13.953125 26.5703125 -12.578125 25.8828125 -11.203125 25.1953125 C-11.203125 21.5653125 -11.203125 17.9353125 -11.203125 14.1953125 C-12.6056025 14.09479445 -12.6056025 14.09479445 -14.765625 16.1328125 Z M-22.265625 23.1953125 C-24.56167837 25.56543211 -24.47001837 26.20122826 -24.453125 29.3828125 C-24.370625 30.6409375 -24.288125 31.8990625 -24.203125 33.1953125 C-21.5125722 31.97523306 -21.5125722 31.97523306 -19.203125 30.1953125 C-19.13164301 28.84287333 -19.11913046 27.48696883 -19.140625 26.1328125 C-19.16125 24.8334375 -19.181875 23.5340625 -19.203125 22.1953125 C-20.43517933 22.12260025 -20.43517933 22.12260025 -22.265625 23.1953125 Z M-12.6796875 28.3515625 C-15.32191421 31.54933432 -14.70599518 34.99790991 -14.44921875 38.96484375 C-14.36800781 39.70089844 -14.28679688 40.43695313 -14.203125 41.1953125 C-11.563125 39.8753125 -8.923125 38.5553125 -6.203125 37.1953125 C-6.203125 33.2353125 -6.203125 29.2753125 -6.203125 25.1953125 C-8.69251032 25.1953125 -10.72677094 26.98053537 -12.6796875 28.3515625 Z M-26.203125 27.1953125 C-28.61434359 29.15165225 -28.61434359 29.15165225 -28.328125 32.8203125 C-28.286875 33.9340625 -28.245625 35.0478125 -28.203125 36.1953125 C-27.213125 35.8653125 -26.223125 35.5353125 -25.203125 35.1953125 C-25.203125 32.5553125 -25.203125 29.9153125 -25.203125 27.1953125 C-25.533125 27.1953125 -25.863125 27.1953125 -26.203125 27.1953125 Z M-18.765625 32.6328125 C-21.53411831 35.54327982 -21.53971907 36.12037824 -21.515625 39.9453125 C-21.43556345 41.36354566 -21.33908363 42.78134277 -21.203125 44.1953125 C-19.223125 43.2053125 -17.243125 42.2153125 -15.203125 41.1953125 C-15.203125 37.8953125 -15.203125 34.5953125 -15.203125 31.1953125 C-16.54746196 31.11377067 -16.54746196 31.11377067 -18.765625 32.6328125 Z M-31.203125 32.1953125 C-32.55930999 33.32065355 -32.55930999 33.32065355 -32.265625 36.2578125 C-32.245 37.2271875 -32.224375 38.1965625 -32.203125 39.1953125 C-31.543125 38.8653125 -30.883125 38.5353125 -30.203125 38.1953125 C-30.203125 36.2153125 -30.203125 34.2353125 -30.203125 32.1953125 C-30.533125 32.1953125 -30.863125 32.1953125 -31.203125 32.1953125 Z M-26.203125 38.1953125 C-26.56610436 40.17278372 -26.56610436 40.17278372 -26.390625 42.3203125 C-26.32875 43.5990625 -26.266875 44.8778125 -26.203125 46.1953125 C-24.883125 45.8653125 -23.563125 45.5353125 -22.203125 45.1953125 C-22.203125 42.2253125 -22.203125 39.2553125 -22.203125 36.1953125 C-23.66537516 36.10286247 -23.66537516 36.10286247 -26.203125 38.1953125 Z M-29.203125 40.1953125 C-30.61889977 41.37955576 -30.61889977 41.37955576 -30.265625 44.7578125 C-30.245 45.8921875 -30.224375 47.0265625 -30.203125 48.1953125 C-29.213125 47.8653125 -28.223125 47.5353125 -27.203125 47.1953125 C-27.203125 44.8853125 -27.203125 42.5753125 -27.203125 40.1953125 C-27.863125 40.1953125 -28.523125 40.1953125 -29.203125 40.1953125 Z M-32.203125 42.1953125 C-32.203125 44.5053125 -32.203125 46.8153125 -32.203125 49.1953125 C-31.873125 49.1953125 -31.543125 49.1953125 -31.203125 49.1953125 C-31.203125 46.8853125 -31.203125 44.5753125 -31.203125 42.1953125 C-31.533125 42.1953125 -31.863125 42.1953125 -32.203125 42.1953125 Z M-9.203125 42.1953125 C-9.203125 46.1553125 -9.203125 50.1153125 -9.203125 54.1953125 C-8.213125 54.1953125 -7.223125 54.1953125 -6.203125 54.1953125 C-6.203125 49.9053125 -6.203125 45.6153125 -6.203125 41.1953125 C-7.4267318 41.1207769 -7.4267318 41.1207769 -9.203125 42.1953125 Z M-17.203125 45.1953125 C-17.203125 48.4953125 -17.203125 51.7953125 -17.203125 55.1953125 C-15.223125 55.1953125 -13.243125 55.1953125 -11.203125 55.1953125 C-11.203125 51.2353125 -11.203125 47.2753125 -11.203125 43.1953125 C-13.28740709 43.1953125 -15.30130464 44.41507851 -17.203125 45.1953125 Z M-24.203125 48.1953125 C-24.203125 51.1653125 -24.203125 54.1353125 -24.203125 57.1953125 C-22.553125 56.8653125 -20.903125 56.5353125 -19.203125 56.1953125 C-19.203125 53.2253125 -19.203125 50.2553125 -19.203125 47.1953125 C-22.1285894 46.9717057 -22.1285894 46.9717057 -24.203125 48.1953125 Z M-27.203125 49.1953125 C-28.61889977 50.37955576 -28.61889977 50.37955576 -28.265625 53.7578125 C-28.245 54.8921875 -28.224375 56.0265625 -28.203125 57.1953125 C-27.213125 57.1953125 -26.223125 57.1953125 -25.203125 57.1953125 C-25.203125 54.5553125 -25.203125 51.9153125 -25.203125 49.1953125 C-25.863125 49.1953125 -26.523125 49.1953125 -27.203125 49.1953125 Z M-32.203125 51.1953125 C-32.203125 53.5053125 -32.203125 55.8153125 -32.203125 58.1953125 C-31.543125 58.1953125 -30.883125 58.1953125 -30.203125 58.1953125 C-30.203125 55.8853125 -30.203125 53.5753125 -30.203125 51.1953125 C-30.863125 51.1953125 -31.523125 51.1953125 -32.203125 51.1953125 Z M-14.203125 58.1953125 C-14.203125 61.8253125 -14.203125 65.4553125 -14.203125 69.1953125 C-11.68137581 70.6425261 -11.68137581 70.6425261 -6.203125 70.1953125 C-6.203125 66.2353125 -6.203125 62.2753125 -6.203125 58.1953125 C-8.843125 58.1953125 -11.483125 58.1953125 -14.203125 58.1953125 Z M-21.203125 59.1953125 C-21.203125 62.4953125 -21.203125 65.7953125 -21.203125 69.1953125 C-19.223125 69.1953125 -17.243125 69.1953125 -15.203125 69.1953125 C-15.203125 65.8953125 -15.203125 62.5953125 -15.203125 59.1953125 C-17.183125 59.1953125 -19.163125 59.1953125 -21.203125 59.1953125 Z M-30.203125 60.1953125 C-30.203125 62.5053125 -30.203125 64.8153125 -30.203125 67.1953125 C-29.213125 67.5253125 -28.223125 67.8553125 -27.203125 68.1953125 C-27.203125 65.5553125 -27.203125 62.9153125 -27.203125 60.1953125 C-28.193125 60.1953125 -29.183125 60.1953125 -30.203125 60.1953125 Z M-26.203125 60.1953125 C-26.203125 62.8353125 -26.203125 65.4753125 -26.203125 68.1953125 C-24.883125 68.1953125 -23.563125 68.1953125 -22.203125 68.1953125 C-22.203125 65.5553125 -22.203125 62.9153125 -22.203125 60.1953125 C-23.523125 60.1953125 -24.843125 60.1953125 -26.203125 60.1953125 Z M-32.203125 61.1953125 C-32.203125 63.1753125 -32.203125 65.1553125 -32.203125 67.1953125 C-31.873125 67.1953125 -31.543125 67.1953125 -31.203125 67.1953125 C-31.203125 65.2153125 -31.203125 63.2353125 -31.203125 61.1953125 C-31.533125 61.1953125 -31.863125 61.1953125 -32.203125 61.1953125 Z M-32.203125 70.1953125 C-32.203125 72.1753125 -32.203125 74.1553125 -32.203125 76.1953125 C-31.213125 76.6903125 -31.213125 76.6903125 -30.203125 77.1953125 C-30.203125 74.8853125 -30.203125 72.5753125 -30.203125 70.1953125 C-30.863125 70.1953125 -31.523125 70.1953125 -32.203125 70.1953125 Z M-28.203125 71.1953125 C-28.203125 73.5053125 -28.203125 75.8153125 -28.203125 78.1953125 C-27.213125 78.5253125 -26.223125 78.8553125 -25.203125 79.1953125 C-25.203125 76.5553125 -25.203125 73.9153125 -25.203125 71.1953125 C-26.193125 71.1953125 -27.183125 71.1953125 -28.203125 71.1953125 Z M-24.203125 71.1953125 C-24.203125 74.1653125 -24.203125 77.1353125 -24.203125 80.1953125 C-21.728125 80.6903125 -21.728125 80.6903125 -19.203125 81.1953125 C-19.203125 78.2253125 -19.203125 75.2553125 -19.203125 72.1953125 C-20.853125 71.8653125 -22.503125 71.5353125 -24.203125 71.1953125 Z M-17.203125 72.1953125 C-17.28403471 73.81949995 -17.34227495 75.44482995 -17.390625 77.0703125 C-17.42542969 77.97523437 -17.46023437 78.88015625 -17.49609375 79.8125 C-17.39941406 80.59882812 -17.30273438 81.38515625 -17.203125 82.1953125 C-14.38802507 84.4726626 -14.38802507 84.4726626 -11.203125 84.1953125 C-11.203125 80.5653125 -11.203125 76.9353125 -11.203125 73.1953125 C-14.173125 72.7003125 -14.173125 72.7003125 -17.203125 72.1953125 Z M-9.203125 74.1953125 C-9.203125 78.1553125 -9.203125 82.1153125 -9.203125 86.1953125 C-8.213125 86.1953125 -7.223125 86.1953125 -6.203125 86.1953125 C-6.203125 82.2353125 -6.203125 78.2753125 -6.203125 74.1953125 C-7.193125 74.1953125 -8.183125 74.1953125 -9.203125 74.1953125 Z M-32.203125 79.1953125 C-32.203125 81.5053125 -32.203125 83.8153125 -32.203125 86.1953125 C-31.873125 86.1953125 -31.543125 86.1953125 -31.203125 86.1953125 C-31.203125 83.8853125 -31.203125 81.5753125 -31.203125 79.1953125 C-31.533125 79.1953125 -31.863125 79.1953125 -32.203125 79.1953125 Z M-30.203125 80.1953125 C-30.203125 82.5053125 -30.203125 84.8153125 -30.203125 87.1953125 C-29.213125 87.5253125 -28.223125 87.8553125 -27.203125 88.1953125 C-27.203125 85.8853125 -27.203125 83.5753125 -27.203125 81.1953125 C-28.193125 80.8653125 -29.183125 80.5353125 -30.203125 80.1953125 Z M-26.203125 82.1953125 C-26.203125 84.8353125 -26.203125 87.4753125 -26.203125 90.1953125 C-24.223125 91.1853125 -24.223125 91.1853125 -22.203125 92.1953125 C-22.203125 89.2253125 -22.203125 86.2553125 -22.203125 83.1953125 C-23.523125 82.8653125 -24.843125 82.5353125 -26.203125 82.1953125 Z M-21.203125 84.1953125 C-21.43205602 87.22864855 -21.55727022 90.16898064 -21.203125 93.1953125 C-19.49277037 95.35672794 -19.49277037 95.35672794 -17.203125 96.1953125 C-16.543125 96.1953125 -15.883125 96.1953125 -15.203125 96.1953125 C-15.203125 92.8953125 -15.203125 89.5953125 -15.203125 86.1953125 C-17.183125 85.5353125 -19.163125 84.8753125 -21.203125 84.1953125 Z M-14.203125 87.1953125 C-14.55016129 90.92273928 -14.73757101 94.48091271 -14.203125 98.1953125 C-10.73215755 101.44140588 -10.73215755 101.44140588 -6.203125 102.1953125 C-6.203125 98.2353125 -6.203125 94.2753125 -6.203125 90.1953125 C-8.843125 89.2053125 -11.483125 88.2153125 -14.203125 87.1953125 Z M-32.203125 89.1953125 C-32.203125 91.1753125 -32.203125 93.1553125 -32.203125 95.1953125 C-31.213125 95.6903125 -31.213125 95.6903125 -30.203125 96.1953125 C-30.203125 93.8853125 -30.203125 91.5753125 -30.203125 89.1953125 C-30.863125 89.1953125 -31.523125 89.1953125 -32.203125 89.1953125 Z M-28.203125 92.1953125 C-28.45328373 95.61174009 -28.45328373 95.61174009 -28.203125 99.1953125 C-26.718125 100.1853125 -26.718125 100.1853125 -25.203125 101.1953125 C-25.203125 98.5553125 -25.203125 95.9153125 -25.203125 93.1953125 C-26.193125 92.8653125 -27.183125 92.5353125 -28.203125 92.1953125 Z M-24.203125 95.1953125 C-24.62084304 98.52731435 -24.62084304 98.52731435 -24.203125 102.1953125 C-21.84479728 104.66740046 -21.84479728 104.66740046 -19.203125 106.1953125 C-19.203125 103.2253125 -19.203125 100.2553125 -19.203125 97.1953125 C-21.678125 96.2053125 -21.678125 96.2053125 -24.203125 95.1953125 Z M-17.203125 100.1953125 C-17.99752532 105.87346505 -17.99752532 105.87346505 -15.8671875 110.90625 C-14.04125203 112.43922278 -14.04125203 112.43922278 -11.203125 114.1953125 C-11.09497275 112.42582155 -11.01746417 110.65443763 -10.953125 108.8828125 C-10.90671875 107.89667969 -10.8603125 106.91054687 -10.8125 105.89453125 C-10.94193732 103.07675286 -10.94193732 103.07675286 -13.09375 101.33984375 C-15.09612896 100.03634175 -15.09612896 100.03634175 -17.203125 100.1953125 Z M-9.203125 105.1953125 C-9.28394594 107.15297531 -9.34223278 109.11157978 -9.390625 111.0703125 C-9.42542969 112.16085938 -9.46023437 113.25140625 -9.49609375 114.375 C-9.39941406 115.30570313 -9.30273438 116.23640625 -9.203125 117.1953125 C-7.718125 118.1853125 -7.718125 118.1853125 -6.203125 119.1953125 C-6.12230406 117.23764969 -6.06401722 115.27904522 -6.015625 113.3203125 C-5.98082031 112.22976562 -5.94601563 111.13921875 -5.91015625 110.015625 C-6.05517578 108.61957031 -6.05517578 108.61957031 -6.203125 107.1953125 C-7.193125 106.5353125 -8.183125 105.8753125 -9.203125 105.1953125 Z M-13.203125 121.1953125 C-12.203125 123.1953125 -12.203125 123.1953125 -12.203125 123.1953125 Z M-14.203125 124.1953125 C-13.873125 125.1853125 -13.543125 126.1753125 -13.203125 127.1953125 C-13.203125 126.2053125 -13.203125 125.2153125 -13.203125 124.1953125 C-13.533125 124.1953125 -13.863125 124.1953125 -14.203125 124.1953125 Z " fill="#000000" transform="translate(76.203125,-0.1953125)"/>
</svg>
