<?xml version="1.0" standalone="no"?>
<!DOCTYPE svg PUBLIC "-//W3C//DTD SVG 20010904//EN"
 "http://www.w3.org/TR/2001/REC-SVG-20010904/DTD/svg10.dtd">
<svg version="1.0" xmlns="http://www.w3.org/2000/svg"
 width="225.000000pt" height="225.000000pt" viewBox="0 0 225.000000 225.000000"
 preserveAspectRatio="xMidYMid meet">

<g transform="translate(0.000000,225.000000) scale(0.100000,-0.100000)"
fill="#000000" stroke="none">
<path d="M1282 1903 c2 -6 -29 -48 -67 -94 -39 -46 -131 -156 -205 -244 -157
-188 -204 -244 -285 -339 -33 -39 -115 -136 -182 -216 -133 -160 -149 -176
-177 -181 -11 -2 -21 -11 -23 -19 -4 -12 -3 -12 5 -2 16 23 44 9 56 -26 l11
-32 23 22 c13 13 22 17 22 10 0 -7 5 -10 11 -6 8 4 7 9 -2 15 -10 6 -3 20 27
56 21 26 51 64 66 83 45 59 90 106 84 87 -4 -11 -2 -16 5 -12 6 4 8 13 5 21
-3 8 23 49 61 97 179 221 236 288 241 283 7 -8 32 14 32 27 0 6 -7 2 -15 -9
-8 -10 -15 -16 -15 -12 0 17 113 147 123 141 6 -3 7 -1 3 5 -4 6 6 24 21 40
15 15 21 19 13 8 -15 -21 -15 -21 7 -3 12 11 19 25 17 32 -3 8 6 21 20 30 14
10 23 21 20 26 -3 5 -1 9 3 9 5 0 16 13 26 29 12 20 24 29 37 26 23 -4 36 10
19 21 -8 5 -9 3 -4 -6 5 -9 4 -11 -4 -6 -9 6 -9 11 0 22 12 15 23 19 15 6 -3
-5 1 -9 8 -9 8 0 11 8 9 18 -3 10 2 26 11 34 21 22 20 38 -5 61 -11 10 -19 13
-17 7z"/>
<path d="M940 1738 c-85 -89 -229 -239 -320 -333 -91 -93 -219 -226 -286 -295
-66 -69 -152 -158 -190 -198 -44 -47 -75 -71 -85 -69 -23 6 -43 -35 -35 -67 7
-29 65 -98 66 -78 0 6 -4 12 -9 12 -6 0 -8 9 -6 21 3 15 0 19 -10 15 -9 -3
-15 1 -15 9 0 8 4 15 9 15 5 0 7 9 4 20 -3 12 0 20 6 20 7 0 9 6 6 13 -7 13
13 -11 30 -36 7 -11 32 -16 82 -19 40 -2 67 0 60 4 -7 4 -29 8 -49 8 -42 0
-43 1 -27 33 7 16 3 13 -15 -8 -14 -16 -27 -27 -30 -24 -2 2 16 27 40 54 25
28 43 44 39 38 -12 -24 6 -13 55 33 28 26 50 52 50 58 0 6 -21 -11 -45 -39
-25 -27 -45 -46 -45 -41 0 10 202 234 213 235 4 1 0 -11 -10 -26 -9 -16 9 -1
40 32 31 33 56 64 57 68 0 4 -18 -11 -40 -35 -22 -24 -40 -38 -40 -33 0 16
125 136 134 128 4 -4 4 1 0 12 -6 14 -4 17 8 12 10 -3 23 3 35 16 l18 22 -22
-19 c-36 -30 -27 -4 10 32 18 18 37 29 42 25 4 -5 5 -3 2 3 -4 6 5 22 20 35
l26 24 -12 -25 c-11 -23 -11 -24 3 -6 9 10 13 23 10 28 -8 12 66 89 78 82 5
-3 7 0 6 8 -2 7 3 12 10 10 6 -1 11 1 11 5 -3 19 2 33 12 33 5 0 7 -5 3 -12
-16 -25 16 4 38 35 19 28 20 30 3 17 -11 -8 -4 3 14 23 38 40 56 51 25 15
l-19 -23 23 19 c12 11 20 21 17 24 -8 8 55 82 68 79 7 -1 11 3 10 9 -1 6 22
34 51 63 42 41 52 57 48 77 -2 13 -7 24 -11 24 -3 0 -76 -73 -161 -162z m-80
-172 c0 -3 -4 -8 -10 -11 -5 -3 -10 -1 -10 4 0 6 5 11 10 11 6 0 10 -2 10 -4z"/>
<path d="M1404 1822 c-88 -110 -179 -236 -166 -228 7 4 26 27 42 52 18 25 36
42 42 38 6 -4 9 -3 6 2 -6 9 68 119 80 119 4 0 6 2 5 5 -2 8 66 85 71 79 2 -2
-99 -148 -225 -324 -126 -176 -280 -391 -342 -478 -153 -216 -201 -281 -208
-285 -12 -5 24 -82 38 -82 8 0 12 4 8 9 -7 12 44 87 57 83 5 -1 7 2 3 8 -3 5
-1 10 4 10 6 0 10 3 8 8 -4 13 107 171 117 165 5 -3 6 -1 2 5 -4 6 17 44 47
84 30 40 66 93 81 118 16 25 33 50 40 55 6 6 42 55 79 110 73 109 112 159 104
134 -3 -9 1 -16 8 -16 10 0 11 5 4 18 -8 15 1 34 42 91 50 70 79 106 66 82 -3
-6 1 -11 10 -11 14 0 82 94 76 104 -5 5 -13 3 -12 -3 0 -4 -3 -10 -8 -13 -4
-3 -16 -24 -26 -45 -13 -28 -21 -36 -27 -27 -5 9 7 34 34 73 22 32 46 67 53
76 17 25 -1 62 -29 62 -16 -1 -41 -23 -84 -78z"/>
<path d="M1680 1875 c-13 -14 -29 -25 -36 -25 -7 0 -18 -8 -24 -17 -11 -17
-11 -17 -6 -1 7 24 -14 35 -26 14 -7 -12 -13 -14 -22 -7 -9 8 -19 4 -36 -14
-13 -14 -20 -28 -17 -32 4 -3 7 -1 7 6 0 7 7 11 14 8 10 -4 13 -1 10 7 -3 8 0
17 6 21 7 4 9 -3 5 -23 -3 -20 -1 -29 9 -29 8 0 12 6 10 12 -3 7 2 18 11 25
35 29 7 -39 -63 -150 -21 -33 -42 -57 -47 -53 -4 5 -5 3 -1 -4 4 -7 -4 -29
-17 -50 -39 -64 -41 -69 -9 -33 17 19 31 38 32 42 0 4 11 18 25 32 48 48 34 6
-38 -116 -40 -68 -153 -259 -251 -426 l-179 -303 13 -40 c8 -22 16 -42 20 -44
3 -2 36 -6 71 -9 36 -3 74 -8 85 -11 18 -6 18 -6 0 9 -18 14 -17 17 13 72 17
32 29 59 27 61 -1 2 -17 -23 -34 -56 -26 -48 -37 -60 -62 -63 -16 -3 -30 -2
-30 2 0 4 -16 6 -35 5 -20 -2 -35 0 -33 4 10 23 327 576 354 618 19 29 34 55
34 59 0 3 35 65 78 136 47 81 78 124 80 113 2 -9 -1 -22 -7 -28 -6 -6 -11 -20
-11 -30 0 -12 -5 -17 -14 -14 -11 4 -13 -1 -10 -18 2 -13 0 -27 -6 -30 -5 -3
-10 -12 -10 -18 0 -7 4 -6 10 3 5 8 15 15 21 15 7 0 14 7 16 15 4 12 3 12 -5
2 -8 -11 -10 -11 -15 1 -4 11 0 15 14 12 14 -3 19 2 19 18 0 17 2 19 9 8 7
-10 -5 -42 -37 -105 -64 -125 -112 -226 -107 -226 3 0 16 21 29 48 15 28 25
39 26 28 0 -10 -9 -34 -21 -52 -11 -19 -17 -34 -12 -34 16 0 52 87 41 98 -7 7
-7 16 0 27 6 12 11 14 16 6 4 -6 2 -11 -4 -11 -6 0 -8 -5 -4 -11 5 -8 10 -6
16 5 5 9 6 21 2 28 -4 7 -3 8 4 4 7 -4 12 -3 12 3 0 5 -3 11 -7 14 -5 2 -2 2
5 0 9 -2 12 4 8 20 -3 12 -3 16 0 8 5 -10 14 -2 30 25 47 77 22 21 -94 -213
-65 -131 -125 -256 -135 -278 -9 -22 -26 -60 -37 -85 -12 -25 -17 -40 -11 -35
13 14 61 110 61 124 0 6 5 11 10 11 6 0 10 8 10 18 1 25 26 57 33 40 3 -7 6
-1 6 14 1 15 6 30 12 33 6 4 8 13 6 19 -3 7 -1 19 5 27 8 11 9 10 4 -3 -3 -10
-2 -18 2 -18 9 0 42 75 42 96 0 8 3 13 8 11 4 -3 20 21 36 53 22 43 32 55 41
47 9 -9 7 -22 -9 -58 -16 -35 -23 -43 -28 -30 -4 10 -7 5 -7 -16 -1 -17 -21
-73 -45 -125 -164 -352 -158 -336 -144 -374 7 -19 16 -33 20 -32 8 3 47 85
141 293 73 165 130 280 138 283 4 2 5 10 2 18 -3 8 0 14 6 14 6 0 11 7 11 16
0 9 5 12 12 8 7 -5 8 -3 3 5 -4 7 -3 23 3 34 5 12 15 35 21 50 6 15 16 25 21
22 6 -3 10 -1 10 6 0 7 2 10 5 7 3 -3 2 -13 -1 -22 -5 -14 -9 -15 -16 -4 -7 9
-8 3 -4 -17 5 -24 4 -27 -5 -15 -9 12 -10 11 -6 -7 3 -13 1 -26 -4 -29 -5 -3
-9 -12 -9 -21 0 -8 -13 -43 -29 -77 -27 -56 -91 -223 -91 -235 0 -3 4 0 9 7 7
11 9 11 14 -2 4 -9 2 -16 -4 -16 -6 0 -7 -5 -3 -11 9 -16 24 10 16 29 -3 9 -1
13 4 9 6 -3 15 7 21 24 6 16 8 31 3 34 -4 3 -13 -9 -19 -27 -6 -17 -13 -29
-16 -26 -3 3 4 25 15 49 11 24 20 37 20 29 0 -12 3 -11 11 3 5 9 8 21 5 26 -3
5 1 26 8 47 8 22 15 34 15 27 1 -6 -4 -24 -9 -38 -8 -20 -7 -26 2 -23 7 3 20
24 29 49 21 59 77 179 83 179 7 0 -5 -32 -38 -100 -14 -29 -26 -58 -26 -62 0
-5 -8 -28 -19 -51 -19 -43 -53 -130 -90 -226 -11 -30 -19 -57 -17 -59 6 -5 46
87 46 104 0 7 5 16 10 19 6 4 10 -7 10 -26 0 -53 14 -22 19 44 1 5 6 5 11 2 6
-3 10 1 10 9 0 8 -4 18 -10 21 -5 3 -10 1 -10 -6 0 -7 -2 -10 -5 -7 -3 3 -3
13 1 22 6 15 7 15 21 -1 13 -16 14 -15 8 12 -3 18 -2 25 3 17 10 -15 66 123
56 140 -4 6 -3 8 4 4 6 -3 14 3 17 15 4 11 9 18 11 16 3 -3 -2 -22 -11 -43 -9
-22 -32 -83 -51 -136 -29 -80 -33 -101 -24 -120 10 -21 10 -21 -3 -5 -13 16
-15 15 -25 -10 -5 -16 -24 -64 -41 -109 -17 -44 -31 -88 -31 -97 0 -9 -4 -18
-9 -22 -5 -3 -12 -19 -16 -36 -7 -31 -31 -35 -29 -5 1 9 -3 16 -8 16 -6 0 -8
-9 -5 -21 4 -15 2 -19 -10 -15 -8 3 -17 6 -20 6 -3 0 -1 6 5 13 14 16 56 125
44 112 -5 -5 -17 -32 -27 -58 -11 -29 -27 -52 -39 -57 -20 -7 -19 -9 8 -19 16
-7 35 -10 42 -7 8 3 16 1 19 -3 2 -5 14 -11 25 -14 15 -4 23 2 34 26 41 88 74
201 46 157 -6 -10 -9 -5 -8 18 1 37 18 55 18 20 1 -22 2 -21 17 6 12 23 13 34
4 48 -14 22 -15 39 -1 18 9 -13 11 -13 20 0 5 8 7 23 4 33 -3 9 -1 17 4 17 11
0 24 26 57 115 14 39 30 78 36 87 5 10 9 26 9 35 0 10 11 36 25 58 13 22 25
50 25 62 0 12 5 25 10 28 17 11 -4 -63 -75 -264 -14 -40 -23 -76 -20 -79 3 -3
5 0 5 7 0 7 5 9 10 6 6 -3 10 -13 10 -21 0 -8 -3 -13 -7 -11 -5 3 -9 -6 -10
-20 0 -14 -9 -33 -18 -42 -15 -15 -16 -14 -10 14 5 26 5 28 -6 11 -9 -14 -9
-24 -1 -37 7 -10 9 -26 5 -35 -6 -16 -7 -16 -14 2 -6 17 -8 16 -20 -9 -9 -20
-10 -30 -1 -39 8 -8 9 -5 5 12 -4 16 -3 21 5 16 16 -9 15 -16 -5 -62 -9 -22
-18 -52 -20 -67 -2 -15 -8 -37 -13 -48 -8 -14 -7 -32 5 -66 9 -26 20 -52 24
-58 5 -5 12 -23 16 -40 l8 -30 18 40 c10 22 18 47 18 55 -1 16 1 19 -21 -39
-5 -13 -11 -21 -14 -19 -3 3 4 32 15 63 11 32 17 63 14 69 -4 6 1 5 10 -3 15
-12 17 -11 17 4 0 18 35 145 120 435 155 529 211 736 203 757 -13 38 -25 45
-44 27 -11 -10 -19 -22 -19 -28 0 -9 -21 -10 -72 -5 -40 4 -78 8 -84 8 -7 1
-14 10 -17 21 -3 11 -13 20 -22 20 -11 0 -15 -5 -11 -16 3 -8 2 -12 -3 -9 -5
3 -12 2 -14 -2 -3 -5 -41 -7 -85 -5 -75 3 -81 5 -86 28 -8 30 -17 30 -46 -1z
m111 -58 c-10 -9 -11 -8 -5 6 3 10 9 15 12 12 3 -3 0 -11 -7 -18z m-227 -167
c-6 -6 -10 -3 -10 10 0 13 4 16 10 10 7 -7 7 -13 0 -20z m81 -18 c-5 -14 -7
-14 -15 -2 -5 9 -4 20 3 28 14 17 22 0 12 -26z m11 -20 c-17 -16 -18 -16 -5 5
7 12 15 20 18 17 3 -2 -3 -12 -13 -22z m5 -135 c-10 -9 -11 -8 -5 6 3 10 9 15
12 12 3 -3 0 -11 -7 -18z m-39 -29 c-7 -7 -12 -8 -12 -2 0 6 3 14 7 17 3 4 9
5 12 2 2 -3 -1 -11 -7 -17z m368 7 c0 -8 -4 -15 -10 -15 -5 0 -7 7 -4 15 4 8
8 15 10 15 2 0 4 -7 4 -15z m-79 -32 c-12 -20 -14 -14 -5 12 4 9 9 14 11 11 3
-2 0 -13 -6 -23z m49 -48 c-6 -15 -13 -25 -17 -22 -3 4 0 21 8 38 16 39 24 24
9 -16z m-272 3 c-2 -6 -12 -12 -21 -14 -9 -1 -15 2 -11 7 3 5 10 7 15 4 5 -4
9 -1 9 4 0 6 3 11 6 11 3 0 4 -5 2 -12z m173 -85 c-12 -20 -14 -14 -5 12 4 9
9 14 11 11 3 -2 0 -13 -6 -23z m-290 -56 c-10 -9 -11 -8 -5 6 3 10 9 15 12 12
3 -3 0 -11 -7 -18z m244 3 c3 -5 1 -10 -4 -10 -6 0 -11 5 -11 10 0 6 2 10 4
10 3 0 8 -4 11 -10z m52 -422 c-3 -8 -6 -5 -6 6 -1 11 2 17 5 13 3 -3 4 -12 1
-19z m-183 -84 c3 -8 2 -12 -4 -9 -6 3 -10 10 -10 16 0 14 7 11 14 -7z m-28
-81 c-11 -20 -15 -23 -16 -10 0 17 21 49 28 42 2 -2 -3 -16 -12 -32z"/>
<path d="M1181 1807 c-42 -49 -43 -50 -7 -17 32 29 64 71 54 70 -2 -1 -23 -24
-47 -53z"/>
<path d="M1365 1833 c-11 -15 -32 -41 -46 -58 -38 -45 -75 -102 -58 -88 9 7
20 9 24 5 5 -4 5 -2 2 4 -6 11 41 85 62 98 16 10 53 66 44 66 -5 0 -17 -12
-28 -27z"/>
<path d="M964 1798 l-19 -23 23 19 c21 18 27 26 19 26 -2 0 -12 -10 -23 -22z"/>
<path d="M1526 1765 c-4 -15 -15 -39 -26 -54 -10 -14 -30 -45 -44 -69 -15 -23
-31 -40 -36 -37 -6 3 -7 -1 -4 -10 4 -8 0 -23 -7 -32 -8 -9 -9 -14 -3 -10 6 4
31 39 55 78 24 40 51 74 61 77 11 2 26 19 34 36 14 28 14 29 -1 12 -8 -11 -15
-24 -15 -30 0 -5 -3 -7 -6 -4 -3 4 0 16 6 28 8 14 8 26 2 32 -6 6 -12 0 -16
-17z"/>
<path d="M1230 1741 c0 -5 5 -13 10 -16 6 -3 10 -2 10 4 0 5 -4 13 -10 16 -5
3 -10 2 -10 -4z"/>
<path d="M1504 1675 c-9 -14 -15 -27 -13 -30 3 -2 12 10 21 26 21 36 15 39 -8
4z"/>
<path d="M824 1658 l-19 -23 23 19 c21 18 27 26 19 26 -2 0 -12 -10 -23 -22z"/>
<path d="M1049 1653 c-13 -16 -12 -17 4 -4 9 7 17 15 17 17 0 8 -8 3 -21 -13z"/>
<path d="M1210 1630 c-17 -22 -29 -40 -27 -40 3 0 20 18 37 40 17 22 29 40 27
40 -3 0 -20 -18 -37 -40z"/>
<path d="M1415 1650 c-4 -6 -11 -8 -16 -5 -5 3 -6 -2 -2 -11 4 -11 2 -15 -4
-11 -6 4 -17 -1 -24 -10 -12 -14 -12 -16 0 -8 11 6 13 4 8 -8 -10 -27 -1 -20
27 23 14 22 24 40 22 40 -3 0 -8 -5 -11 -10z"/>
<path d="M1159 1563 c-13 -16 -12 -17 4 -4 9 7 17 15 17 17 0 8 -8 3 -21 -13z"/>
<path d="M1210 1565 c-7 -9 -11 -17 -9 -20 3 -2 10 5 17 15 14 24 10 26 -8 5z"/>
<path d="M1335 1534 c-9 -15 -12 -23 -6 -20 11 7 35 46 28 46 -3 0 -12 -12
-22 -26z"/>
<path d="M909 1493 c-13 -16 -12 -17 4 -4 9 7 17 15 17 17 0 8 -8 3 -21 -13z"/>
<path d="M1355 1484 c-9 -15 -12 -23 -6 -20 11 7 35 46 28 46 -3 0 -12 -12
-22 -26z"/>
<path d="M1149 1483 c-13 -16 -12 -17 4 -4 9 7 17 15 17 17 0 8 -8 3 -21 -13z"/>
<path d="M1089 1473 c-13 -16 -12 -17 4 -4 9 7 17 15 17 17 0 8 -8 3 -21 -13z"/>
<path d="M1400 1470 c-6 -12 -16 -18 -23 -14 -7 4 -9 4 -5 -1 4 -4 1 -20 -8
-36 -21 -41 -10 -36 17 9 13 20 27 43 32 50 4 6 6 12 3 12 -3 0 -10 -9 -16
-20z"/>
<path d="M1542 1465 c5 -5 -11 -42 -33 -84 -23 -42 -37 -71 -31 -66 6 6 27 40
47 77 27 50 33 68 23 74 -7 4 -10 3 -6 -1z"/>
<path d="M1320 1430 c-6 -11 -8 -20 -6 -20 3 0 10 9 16 20 6 11 8 20 6 20 -3
0 -10 -9 -16 -20z"/>
<path d="M574 1398 l-19 -23 23 19 c21 18 27 26 19 26 -2 0 -12 -10 -23 -22z"/>
<path d="M1069 1373 c-13 -16 -12 -17 4 -4 9 7 17 15 17 17 0 8 -8 3 -21 -13z"/>
<path d="M1330 1360 c-6 -11 -8 -20 -6 -20 3 0 10 9 16 20 6 11 8 20 6 20 -3
0 -10 -9 -16 -20z"/>
<path d="M999 1353 c-13 -16 -12 -17 4 -4 9 7 17 15 17 17 0 8 -8 3 -21 -13z"/>
<path d="M939 1273 c-13 -16 -12 -17 4 -4 9 7 17 15 17 17 0 8 -8 3 -21 -13z"/>
<path d="M1435 1249 c-4 -6 -5 -12 -2 -15 2 -3 7 2 10 11 7 17 1 20 -8 4z"/>
<path d="M546 1225 c-11 -8 -15 -15 -9 -15 6 0 16 7 23 15 16 19 11 19 -14 0z"/>
<path d="M899 1223 c-13 -16 -12 -17 4 -4 9 7 17 15 17 17 0 8 -8 3 -21 -13z"/>
<path d="M1183 1218 c-15 -20 -25 -38 -20 -38 3 0 12 11 21 25 17 26 16 35 -1
13z"/>
<path d="M1490 1189 c0 -5 5 -7 10 -4 6 3 10 8 10 11 0 2 -4 4 -10 4 -5 0 -10
-5 -10 -11z"/>
<path d="M1385 1159 c-4 -6 -5 -12 -2 -15 2 -3 7 2 10 11 7 17 1 20 -8 4z"/>
<path d="M1410 1090 c-22 -44 -38 -80 -35 -80 3 0 23 36 45 80 22 44 38 80 35
80 -3 0 -23 -36 -45 -80z"/>
<path d="M1360 1110 c-6 -11 -8 -20 -6 -20 3 0 10 9 16 20 6 11 8 20 6 20 -3
0 -10 -9 -16 -20z"/>
<path d="M1160 1090 c-6 -11 -8 -20 -6 -20 3 0 10 9 16 20 6 11 8 20 6 20 -3
0 -10 -9 -16 -20z"/>
<path d="M350 1015 c-24 -25 -40 -45 -35 -44 10 1 92 89 83 89 -2 0 -24 -20
-48 -45z"/>
<path d="M1130 1040 c-6 -11 -8 -20 -6 -20 3 0 10 9 16 20 6 11 8 20 6 20 -3
0 -10 -9 -16 -20z"/>
<path d="M1300 1000 c-6 -11 -8 -20 -6 -20 3 0 10 9 16 20 6 11 8 20 6 20 -3
0 -10 -9 -16 -20z"/>
<path d="M1356 983 c-6 -14 -5 -15 5 -6 7 7 10 15 7 18 -3 3 -9 -2 -12 -12z"/>
<path d="M1599 944 c-5 -15 -8 -29 -5 -31 2 -2 8 10 14 26 13 38 5 41 -9 5z"/>
<path d="M1070 940 c-6 -11 -8 -20 -6 -20 3 0 10 9 16 20 6 11 8 20 6 20 -3 0
-10 -9 -16 -20z"/>
<path d="M540 880 c-9 -6 -10 -10 -3 -10 6 0 15 5 18 10 8 12 4 12 -15 0z"/>
<path d="M1225 860 c-9 -16 -13 -30 -11 -30 3 0 12 14 21 30 9 17 13 30 11 30
-3 0 -12 -13 -21 -30z"/>
<path d="M1566 865 c-9 -26 -7 -32 5 -12 6 10 9 21 6 23 -2 3 -7 -2 -11 -11z"/>
<path d="M513 843 c0 -9 4 -10 14 -2 7 6 13 12 13 14 0 1 -6 2 -13 2 -8 0 -14
-6 -14 -14z"/>
<path d="M609 843 c-13 -16 -12 -17 4 -4 9 7 17 15 17 17 0 8 -8 3 -21 -13z"/>
<path d="M1620 831 c0 -6 4 -13 10 -16 6 -3 7 1 4 9 -7 18 -14 21 -14 7z"/>
<path d="M519 813 c-13 -16 -12 -17 4 -4 9 7 17 15 17 17 0 8 -8 3 -21 -13z"/>
<path d="M914 808 c0 -10 1 -18 3 -18 1 0 7 8 12 18 7 13 6 19 -2 19 -7 0 -13
-9 -13 -19z"/>
<path d="M1542 805 c-17 -37 -14 -45 4 -12 9 16 14 31 11 33 -2 2 -9 -7 -15
-21z"/>
<path d="M665 790 c-3 -6 1 -7 9 -4 18 7 21 14 7 14 -6 0 -13 -4 -16 -10z"/>
<path d="M1298 727 c-21 -39 -35 -73 -33 -75 2 -2 20 28 40 68 20 40 35 74 33
75 -2 2 -20 -28 -40 -68z"/>
<path d="M326 773 c-6 -14 -5 -15 5 -6 7 7 10 15 7 18 -3 3 -9 -2 -12 -12z"/>
<path d="M1170 760 c-6 -11 -8 -20 -6 -20 3 0 10 9 16 20 6 11 8 20 6 20 -3 0
-10 -9 -16 -20z"/>
<path d="M1745 760 c-4 -12 -5 -24 -2 -27 3 -2 8 5 12 17 4 12 5 24 2 27 -3 2
-8 -5 -12 -17z"/>
<path d="M270 766 c0 -2 7 -6 15 -10 8 -3 15 -1 15 4 0 6 -7 10 -15 10 -8 0
-15 -2 -15 -4z"/>
<path d="M609 753 c-13 -16 -12 -17 4 -4 16 13 21 21 13 21 -2 0 -10 -8 -17
-17z"/>
<path d="M430 753 c0 -5 16 -9 36 -9 20 -1 53 -7 73 -14 20 -6 50 -10 66 -7
25 3 22 4 -11 6 -23 0 -47 8 -54 16 -13 15 -110 22 -110 8z"/>
<path d="M1516 743 c-6 -14 -5 -15 5 -6 7 7 10 15 7 18 -3 3 -9 -2 -12 -12z"/>
<path d="M1490 679 c-12 -23 -19 -43 -17 -46 3 -2 8 5 12 16 3 12 11 18 17 15
6 -4 9 -1 6 7 -3 8 -1 22 4 32 5 9 6 17 4 17 -3 0 -15 -18 -26 -41z"/>
<path d="M150 701 c0 -6 4 -13 10 -16 6 -3 7 1 4 9 -7 18 -14 21 -14 7z"/>
<path d="M914 703 c10 -11 37 -12 30 -2 -3 5 -12 9 -21 9 -9 0 -13 -3 -9 -7z"/>
<path d="M413 653 c9 -2 23 -2 30 0 6 3 -1 5 -18 5 -16 0 -22 -2 -12 -5z"/>
<path d="M565 634 c303 -41 838 -104 849 -100 6 2 4 5 -5 5 -9 1 -75 10 -145
20 -205 31 -631 82 -724 86 l-85 4 110 -15z"/>
<path d="M1288 643 c7 -3 16 -2 19 1 4 3 -2 6 -13 5 -11 0 -14 -3 -6 -6z"/>
<path d="M1443 523 c9 -2 23 -2 30 0 6 3 -1 5 -18 5 -16 0 -22 -2 -12 -5z"/>
</g>
</svg>
