<?xml version="1.0" standalone="no"?>
<!DOCTYPE svg PUBLIC "-//W3C//DTD SVG 20010904//EN"
 "http://www.w3.org/TR/2001/REC-SVG-20010904/DTD/svg10.dtd">
<svg version="1.0" xmlns="http://www.w3.org/2000/svg"
 width="275.000000pt" height="183.000000pt" viewBox="0 0 275.000000 183.000000"
 preserveAspectRatio="xMidYMid meet">

<g transform="translate(0.000000,183.000000) scale(0.100000,-0.100000)"
fill="#000000" stroke="none">
<path d="M1 1770 c1 -43 6 -60 15 -60 8 0 14 -4 14 -9 0 -5 3 -17 7 -26 5 -15
3 -16 -15 -6 -27 14 -29 0 -4 -22 27 -24 32 -21 32 17 0 19 4 37 9 41 5 3 27
-17 48 -44 28 -38 45 -50 65 -51 14 0 33 -2 41 -5 9 -4 17 4 23 25 5 17 13 32
18 33 10 2 104 100 125 132 8 11 -6 0 -31 -25 -109 -108 -157 -150 -171 -150
-9 0 -36 23 -60 51 -44 50 -45 53 -30 75 8 13 20 24 27 25 6 0 1 4 -11 9 -33
13 -28 30 9 30 57 0 20 13 -47 17 l-66 3 2 -60z"/>
<path d="M466 1805 c-6 -22 -22 -30 -48 -26 -5 0 -8 -18 -8 -40 0 -36 2 -40
15 -29 12 10 20 9 41 -5 l26 -17 -33 -35 c-34 -35 -78 -65 -65 -45 6 10 -29
42 -46 42 -5 0 -8 -9 -8 -20 0 -16 -11 -22 -60 -32 -73 -15 -82 -38 -15 -38
44 0 44 0 34 -26 -12 -34 -5 -43 13 -15 17 28 36 27 60 -4 11 -14 24 -22 30
-19 6 4 5 9 -3 15 -11 6 -9 14 9 36 13 15 30 45 39 65 l16 37 58 -40 c77 -52
78 -71 2 -104 -53 -24 -57 -24 -82 -9 l-26 17 23 -25 22 -25 -25 -11 c-14 -7
-35 -12 -46 -12 -17 0 -18 3 -9 20 13 24 11 24 -25 6 -17 -9 -46 -13 -74 -11
-128 12 -151 13 -151 4 0 -5 24 -9 53 -9 l52 0 -25 -20 c-14 -11 -40 -20 -58
-20 -25 0 -40 -9 -68 -40 -20 -22 -42 -40 -49 -40 -7 0 -17 15 -23 33 l-10 32
-1 -47 c-1 -40 2 -46 15 -41 14 5 14 2 -2 -23 l-19 -29 27 17 c26 17 26 17 66
-26 30 -33 42 -56 47 -90 7 -43 9 -45 21 -28 12 18 10 26 -19 75 -17 31 -40
58 -49 60 -30 8 -20 41 26 86 l44 43 18 -31 c11 -19 22 -27 28 -22 11 9 117
34 121 29 1 -2 6 -10 11 -20 8 -15 11 -15 43 2 l34 17 -64 10 c-35 6 -71 13
-81 17 -11 5 -18 1 -23 -13 -7 -23 -44 -28 -63 -9 -9 9 -2 17 29 35 45 25 53
28 44 13 -10 -16 6 -12 51 12 l42 22 32 -27 c41 -35 53 -34 75 7 25 45 123 87
126 54 1 -15 18 59 18 83 1 9 -19 25 -49 39 -27 13 -50 26 -50 29 0 3 30 39
68 79 51 56 70 70 82 63 12 -8 12 -12 -3 -29 -19 -21 -40 -82 -28 -82 4 0 17
20 28 43 19 39 24 43 51 39 17 -2 33 1 37 9 6 9 3 11 -9 6 -9 -4 -31 0 -48 9
-29 15 -29 16 -12 35 14 16 15 19 2 19 -8 0 -43 -27 -77 -60 -87 -83 -92 -85
-126 -50 -22 23 -26 32 -16 43 20 24 72 30 94 10 11 -10 17 -13 13 -6 -4 7 1
25 10 40 15 25 15 26 0 8 -14 -17 -19 -18 -37 -7 -11 7 -24 10 -29 7 -6 -4
-10 -1 -10 4 0 21 -18 11 -24 -14z m-86 -216 c0 -5 -4 -9 -8 -9 -5 0 -9 7 -9
15 0 8 4 12 9 9 4 -3 8 -9 8 -15z"/>
<path d="M798 1823 c7 -3 16 -2 19 1 4 3 -2 6 -13 5 -11 0 -14 -3 -6 -6z"/>
<path d="M938 1818 c8 -8 17 -8 34 0 22 10 21 11 -11 11 -27 1 -32 -2 -23 -11z"/>
<path d="M1055 1805 c33 -28 50 -32 42 -11 -3 7 0 19 6 25 8 8 -1 11 -33 11
l-45 -1 30 -24z"/>
<path d="M1165 1820 l-30 -7 37 -16 c47 -21 51 -21 44 1 -5 15 0 18 31 20 21
2 39 5 42 7 7 8 -90 4 -124 -5z"/>
<path d="M1281 1800 c-38 -18 -50 -29 -41 -35 8 -5 16 -2 22 9 7 12 14 14 28
6 25 -14 27 -13 33 10 3 12 14 20 27 20 11 0 18 5 15 10 -9 14 -23 11 -84 -20z"/>
<path d="M1460 1819 c-25 -3 -37 -7 -28 -7 9 -1 20 -6 23 -12 9 -14 -26 -62
-41 -56 -9 4 -14 -2 -14 -15 l0 -21 33 21 c17 11 31 25 30 31 -2 5 7 10 20 10
12 0 40 9 62 19 l40 19 -30 1 c-17 1 -35 5 -40 9 -6 4 -30 5 -55 1z"/>
<path d="M1626 1814 c-4 -11 5 -19 30 -30 20 -8 41 -13 47 -11 7 2 -3 7 -21
11 -27 6 -33 12 -29 27 6 23 -18 26 -27 3z"/>
<path d="M1730 1826 c0 -2 7 -6 15 -10 8 -3 15 -1 15 4 0 6 -7 10 -15 10 -8 0
-15 -2 -15 -4z"/>
<path d="M1965 1808 c-51 -26 -51 -26 -37 -40 22 -22 12 -30 -25 -24 l-38 7
41 -20 c40 -18 42 -21 49 -76 3 -31 4 -59 2 -62 -3 -2 -18 2 -34 10 -15 8 -53
22 -83 32 -30 10 -59 21 -65 26 -12 12 -25 11 -25 -1 0 -5 18 -14 41 -20 l40
-11 -31 -29 -31 -29 -57 25 c-31 13 -48 18 -38 9 11 -8 25 -15 32 -15 7 0 19
-13 28 -30 19 -39 -4 -42 -29 -4 -15 23 -21 26 -58 20 -22 -4 -47 -11 -56 -17
-14 -9 -14 -10 2 -5 11 4 17 0 17 -10 0 -11 -6 -14 -16 -10 -8 3 -12 2 -9 -4
3 -6 -1 -10 -9 -10 -10 0 -13 6 -10 18 3 9 -5 -1 -18 -23 -21 -34 -28 -40 -54
-37 -23 3 -27 1 -16 -9 21 -22 14 -36 -25 -52 l-38 -15 42 -1 c38 -1 43 -4 54
-36 10 -26 19 -35 36 -35 20 0 23 -5 23 -43 l0 -44 45 0 c25 0 45 1 45 3 0 1
-17 12 -37 24 -35 20 -36 23 -19 35 17 13 17 14 -4 35 -17 17 -24 19 -36 9
-17 -14 -14 -16 -46 36 l-25 41 36 37 c42 42 47 44 75 19 15 -14 28 -17 46
-12 24 7 24 8 -14 24 l-38 17 28 30 c15 16 33 29 39 29 19 0 108 -98 102 -112
-3 -8 7 -21 25 -31 l31 -18 -17 26 -17 26 73 -7 c68 -6 127 -23 88 -24 -18 -1
-70 -39 -54 -40 6 0 37 9 69 20 64 22 75 24 75 12 0 -16 -101 -147 -122 -159
-21 -11 -17 -12 35 -13 44 0 61 -4 74 -20 13 -15 25 -18 53 -14 34 5 149 -28
151 -44 1 -4 2 -23 2 -42 l2 -35 -65 -12 c-36 -7 -85 -12 -109 -13 l-43 0 5
33 c4 17 9 49 13 70 10 58 -11 45 -36 -23 -12 -33 -26 -60 -29 -60 -4 0 -16 7
-27 15 -22 17 -38 20 -29 5 4 -6 -11 -10 -39 -10 -36 0 -44 -3 -40 -15 6 -15
-30 -35 -88 -50 -24 -6 -29 -2 -52 42 l-24 49 26 35 c18 24 20 29 6 17 -27
-24 -29 -23 -85 17 -61 44 -63 35 -4 -17 59 -52 59 -68 -2 -68 -68 0 -89 8
-102 37 -7 14 -10 26 -9 28 2 1 19 6 38 12 32 10 29 11 -40 12 l-75 0 38 -20
37 -20 -27 -37 c-15 -20 -29 -39 -30 -41 -2 -3 -9 1 -15 7 -21 21 -27 13 -16
-18 5 -17 7 -38 3 -48 -6 -15 -8 -15 -26 7 -14 18 -19 19 -19 7 0 -11 -9 -16
-32 -16 -31 0 -34 4 -49 51 -16 50 -8 77 15 48 6 -8 22 -23 35 -34 l24 -20
-12 22 c-6 12 -16 25 -21 28 -13 8 -13 25 1 25 6 0 25 11 44 25 29 23 32 28
21 50 -12 27 -26 33 -26 11 0 -7 -7 -19 -15 -26 -11 -9 -21 -6 -52 17 l-37 28
28 -38 28 -37 -23 -19 c-41 -32 -75 -63 -62 -57 12 7 43 -30 43 -51 0 -22 -25
-14 -55 17 -16 17 -35 28 -42 26 -7 -3 -13 2 -14 12 0 9 -7 -2 -16 -25 -8 -24
-18 -43 -21 -43 -14 1 -83 68 -75 73 7 4 86 20 107 21 11 1 38 96 32 111 -3 6
-5 2 -5 -7 -1 -23 0 -23 -72 8 -70 29 -86 26 -34 -6 50 -31 32 -50 -45 -50
-51 0 -58 -3 -68 -25 -7 -15 -8 -27 -2 -30 6 -4 10 1 10 10 0 21 31 31 123 38
66 5 76 3 67 -8 -20 -24 -120 -57 -152 -50 -41 10 -35 1 26 -34 30 -16 57 -35
61 -41 4 -6 -4 -23 -16 -37 l-24 -26 25 13 c35 19 102 23 112 8 13 -22 10 -26
-49 -53 -54 -24 -58 -25 -70 -9 -7 10 -13 22 -13 27 0 4 -4 6 -10 2 -5 -3 -7
-12 -4 -20 3 -7 1 -23 -6 -34 -13 -26 -1 -27 40 -6 16 8 31 12 33 7 3 -4 -12
-41 -33 -82 l-38 -75 -14 35 c-10 24 -12 43 -6 59 7 21 7 22 -6 12 -12 -10
-23 -7 -60 18 -25 17 -47 35 -50 40 -9 14 69 44 95 36 40 -12 17 1 -56 34
l-70 31 33 -31 c19 -17 31 -33 28 -36 -3 -3 -29 -10 -57 -14 -65 -10 -78 -22
-56 -47 22 -24 21 -32 -2 -32 -10 0 -34 -7 -52 -15 l-34 -16 43 5 c56 6 54
-11 -6 -50 -83 -54 -96 -56 -125 -26 -14 15 -35 56 -47 92 -25 74 -28 79 -39
61 -5 -7 -15 -11 -24 -9 -14 3 -13 8 3 43 11 22 19 45 20 51 0 6 8 18 17 25 9
8 14 9 10 3 -4 -8 2 -11 18 -10 21 1 25 6 25 33 0 24 8 38 33 57 l32 26 -29 0
c-28 0 -28 0 -21 46 11 75 12 76 71 72 41 -2 54 0 54 11 0 10 -10 12 -39 8
-45 -6 -75 17 -66 49 3 10 -2 4 -10 -13 -8 -18 -23 -33 -32 -33 -9 0 -13 -3
-10 -6 3 -4 0 -16 -8 -28 -22 -30 -19 -37 12 -30 23 6 25 5 18 -12 -4 -10 -10
-47 -13 -81 l-4 -61 -62 -23 c-33 -13 -67 -23 -73 -22 -21 2 -15 -14 12 -31
l24 -16 -30 -48 -30 -47 27 -3 c20 -3 25 -8 21 -24 -4 -13 5 -7 28 19 l33 38
11 -28 c6 -16 11 -33 11 -39 0 -14 63 -128 71 -128 3 0 14 9 24 20 16 18 19
18 47 4 29 -15 30 -15 23 6 -6 20 -4 21 62 18 44 -2 68 -7 68 -15 0 -7 -22
-28 -50 -48 l-50 -35 -11 26 -11 26 -16 -26 c-12 -17 -13 -27 -6 -32 6 -4 8
-19 5 -37 -6 -29 -5 -30 13 -13 13 12 27 15 46 10 25 -6 27 -5 23 21 -2 24 4
34 45 63 40 29 53 33 82 28 40 -8 42 -15 15 -75 -17 -36 -18 -42 -4 -37 9 3
20 6 26 6 5 0 7 12 3 29 -6 28 -5 29 57 48 43 13 65 16 70 9 4 -6 8 -1 8 12 0
16 6 22 23 21 37 -2 72 -15 70 -27 -2 -6 10 -4 27 6 16 9 32 14 35 10 10 -10
-30 -63 -65 -88 -31 -22 -38 -14 -19 23 9 18 9 20 -1 10 -10 -9 -19 -9 -41 3
-34 17 -34 18 -13 -53 9 -30 12 -58 8 -62 -14 -13 -123 -40 -128 -33 -2 4 -7
24 -11 45 -7 34 -9 36 -21 20 -7 -10 -14 -26 -14 -35 0 -37 -84 -92 -187 -122
-24 -8 -38 10 -44 53 -4 22 5 28 81 62 77 35 100 54 36 29 -19 -7 -26 -6 -27
3 0 6 -4 2 -9 -10 -8 -20 -17 -23 -61 -23 -41 0 -50 3 -45 15 4 11 -2 15 -24
15 l-29 0 21 37 c12 21 15 32 8 26 -8 -7 -21 -13 -30 -13 -19 0 -44 46 -34 62
4 6 -13 -2 -37 -19 -24 -17 -51 -33 -59 -36 -8 -3 6 -6 32 -6 26 -1 49 -5 52
-10 3 -5 -19 -26 -49 -47 -30 -20 -55 -39 -55 -41 0 -2 23 8 51 22 l51 26 54
-32 c44 -27 74 -57 62 -63 -5 -3 -75 -54 -112 -82 l-35 -25 -46 69 c-35 53
-51 69 -65 65 -12 -3 -20 3 -26 20 l-9 25 -35 -18 -35 -19 31 -1 c28 0 33 -4
38 -35 6 -31 9 -34 26 -25 32 17 46 11 68 -29 12 -21 22 -41 22 -44 0 -2 -17
-16 -38 -31 -32 -22 -43 -24 -70 -16 l-33 9 31 -36 c53 -60 58 -80 27 -110
-26 -26 -27 -26 -47 -8 -11 10 -20 24 -20 32 0 8 -5 11 -10 8 -9 -6 -171 122
-186 146 -3 5 8 26 25 46 17 20 29 38 27 40 -2 2 -49 -11 -105 -29 -83 -26
-103 -36 -107 -54 -3 -13 -18 -27 -35 -33 -37 -13 -37 -18 1 -18 20 0 26 3 18
9 -10 6 -9 8 3 8 9 0 19 -6 21 -13 5 -16 -22 -137 -31 -137 -3 0 -14 12 -24
28 -18 27 -18 27 -12 2 16 -61 17 -70 6 -70 -6 0 -11 -11 -11 -24 0 -25 28
-36 91 -36 37 0 36 -6 -3 -55 -18 -22 -23 -32 -13 -23 16 13 33 15 82 11 35
-3 63 -10 63 -14 0 -24 22 -3 50 46 l32 55 30 -17 c53 -32 53 -40 4 -62 -25
-11 -46 -22 -46 -25 0 -3 17 -6 38 -6 36 1 40 5 110 105 41 58 78 103 82 100
12 -7 7 -19 -46 -118 -45 -83 -51 -102 -19 -67 23 25 37 25 60 0 10 -11 28
-20 39 -20 18 1 15 6 -18 34 l-40 34 37 54 c21 29 46 64 56 77 l18 24 21 -54
c12 -30 21 -49 21 -42 1 6 17 21 37 33 40 26 37 32 -26 53 -35 11 -46 20 -48
39 -3 22 3 25 69 40 39 10 74 20 77 23 12 12 -10 18 -31 8 -30 -15 -108 -35
-113 -30 -2 2 13 16 33 31 36 25 37 27 16 32 -13 4 -23 11 -22 18 0 14 99 90
107 82 3 -4 -6 -31 -21 -61 l-27 -55 50 35 c27 19 52 35 55 35 4 0 5 -21 3
-47 -2 -38 -6 -47 -19 -45 -12 2 -22 -11 -32 -40 -8 -24 -18 -51 -22 -61 -7
-16 -5 -16 20 -5 19 8 23 14 13 18 -13 4 -13 10 -1 37 11 28 18 33 46 33 17 0
39 5 47 10 12 8 11 10 -8 10 -51 0 -34 72 27 115 34 24 45 27 59 18 14 -9 23
-5 52 22 l35 34 39 -33 38 -33 -23 -41 c-13 -23 -27 -42 -30 -42 -17 0 -77 31
-90 46 -12 15 -15 10 -24 -37 -9 -50 -12 -54 -35 -51 l-25 4 29 -31 c16 -17
32 -28 36 -26 3 2 13 22 20 45 8 25 18 39 26 36 7 -3 28 -8 47 -11 29 -6 36
-4 39 12 3 15 13 18 75 18 l71 0 31 -56 c17 -31 31 -59 31 -63 0 -11 -123 -6
-180 8 -54 12 -55 12 -68 -12 -7 -14 -10 -27 -7 -30 3 -3 5 0 5 6 0 8 28 12
90 12 l90 0 -6 -27 c-4 -16 -13 -45 -21 -67 -18 -53 -17 -54 16 -22 24 24 32
26 50 17 26 -14 26 -10 1 31 -11 18 -20 36 -20 39 0 3 24 11 53 18 28 8 79 26
111 42 45 21 64 25 78 18 22 -12 22 -13 -69 -153 l-64 -98 -30 42 -31 42 -45
-43 c-42 -42 -45 -43 -58 -25 -8 10 -12 24 -8 30 3 6 3 8 -1 4 -9 -8 -103 18
-133 38 -16 10 -23 24 -23 47 l-1 32 -17 -27 c-18 -30 -32 -36 -32 -15 0 6 -5
30 -11 52 l-11 40 -19 -37 c-21 -41 -26 -41 -99 -3 -17 9 -30 11 -30 6 0 -8
80 -44 193 -86 53 -20 65 -31 48 -48 -8 -8 -26 -8 -68 1 -31 6 -58 10 -61 8
-2 -3 -6 -22 -9 -43 l-5 -39 37 -1 c27 -1 34 2 26 10 -23 23 -9 34 53 45 99
19 133 16 139 -10 4 -12 1 -28 -5 -35 -21 -26 16 -13 82 27 36 22 68 40 72 40
4 0 1 -18 -7 -40 l-14 -40 27 0 c21 0 44 20 111 95 46 52 86 95 90 94 15 -1
142 -163 137 -175 -8 -20 210 -19 287 1 72 19 77 19 77 0 0 -12 16 -15 85 -15
l85 0 0 60 c0 66 8 72 50 43 14 -10 26 -17 28 -15 10 9 22 -4 36 -43 25 -63
43 -58 51 14 5 47 10 58 21 54 16 -6 13 20 -7 75 -12 32 -14 29 29 60 32 23
37 30 25 40 -12 12 -17 8 -14 -11 1 -5 -3 -6 -9 -2 -5 3 -26 -5 -46 -19 -21
-14 -41 -23 -45 -20 -8 4 -153 -32 -177 -45 -9 -5 -4 -18 18 -46 29 -39 36
-68 24 -99 -5 -12 -20 -16 -60 -16 -58 0 -59 1 -44 30 5 10 17 44 25 76 13 51
13 59 0 74 -14 16 -11 23 43 80 l58 63 41 -36 c22 -20 44 -33 48 -29 5 4 5 2
2 -4 -4 -6 2 -19 13 -29 21 -19 28 -7 8 13 -9 9 -7 13 5 18 10 3 22 26 28 50
12 48 19 51 80 32 43 -12 47 -22 23 -50 -12 -13 -14 -21 -6 -31 9 -11 52 -150
52 -169 0 -5 -18 -8 -40 -8 -44 0 -53 -15 -17 -26 42 -13 48 -23 31 -55 -19
-37 -11 -37 37 2 l39 31 26 -31 c30 -36 44 -39 44 -11 0 24 39 130 48 130 4 0
19 -18 35 -39 31 -45 35 -85 10 -100 -14 -8 -9 -10 25 -11 35 0 42 3 42 20 0
11 -7 20 -15 20 -11 0 -15 12 -15 50 0 38 4 50 15 50 23 0 19 47 -5 60 -29 16
-28 70 1 70 19 0 17 3 -12 23 -19 13 -35 33 -37 46 -3 22 -1 23 32 17 48 -9
47 10 -1 23 -51 14 -63 14 -63 -3 0 -34 -22 -23 -61 31 -52 70 -65 84 -72 77
-3 -3 -3 3 0 15 5 18 92 82 111 80 4 0 22 -21 40 -45 22 -31 30 -50 24 -57 -5
-7 -13 -23 -17 -37 -5 -21 -3 -20 14 8 13 20 29 32 43 33 l23 0 -22 9 c-13 5
-23 18 -23 29 0 12 8 21 23 24 l22 4 -23 2 c-28 1 -46 18 -58 54 l-9 27 -59
-40 c-68 -46 -120 -55 -88 -14 4 5 -3 -2 -16 -16 -24 -27 -52 -107 -52 -151 0
-36 -8 -39 -48 -22 l-33 14 3 95 4 95 57 24 c59 23 97 23 97 -1 0 -7 20 8 45
34 l45 47 20 -25 c23 -30 25 -22 6 25 -17 39 -16 40 37 49 33 6 38 4 46 -16 5
-13 6 -29 4 -35 -3 -7 -1 -13 5 -13 6 0 10 46 11 116 1 108 -1 116 -19 121
-25 7 -25 11 0 43 21 27 27 85 9 95 -5 4 -19 -1 -29 -10 -18 -16 -21 -16 -59
11 -45 32 -50 44 -23 61 15 9 24 6 52 -18 18 -16 35 -29 37 -29 8 0 -10 25
-27 37 -9 6 -26 34 -40 62 -25 55 -35 62 -45 31 -3 -11 -11 -20 -17 -20 -6 0
-8 -3 -5 -7 4 -3 16 2 27 12 18 16 20 16 20 2 0 -22 -34 -39 -65 -31 -28 7
-30 13 -14 48 7 14 17 22 25 19 8 -3 11 -10 7 -17 -3 -6 5 -2 18 10 41 36 46
35 98 -6 l52 -41 -3 102 c-2 71 -7 104 -15 107 -7 2 -13 -3 -13 -12 0 -26 -16
-26 -81 -1 -34 14 -64 25 -65 25 -1 0 -4 -17 -8 -39 -7 -45 -19 -51 -118 -51
l-66 0 -14 63 c-9 37 -11 67 -5 74 6 8 -7 22 -42 45 -36 23 -51 40 -51 56 0
19 4 22 28 16 20 -4 23 -3 12 5 -12 8 -11 17 10 61 13 28 29 55 35 60 14 12
108 -17 99 -31 -3 -5 13 -34 35 -66 23 -31 41 -49 41 -40 0 10 6 17 13 17 6 0
22 3 35 6 20 6 22 3 22 -34 0 -34 -3 -40 -25 -44 -14 -3 -25 -1 -25 5 0 9 -23
7 -97 -8 l-31 -7 8 38 c21 102 21 105 2 86 -9 -9 -31 -27 -47 -39 l-30 -22 34
-1 c30 0 33 -2 27 -25 -3 -14 -9 -36 -12 -50 l-6 -25 80 0 c64 0 83 -3 90 -16
7 -12 13 -5 31 35 12 28 25 51 29 51 10 0 63 -56 85 -90 17 -24 17 -24 17 -2
0 12 6 22 13 22 6 0 -3 10 -20 21 -18 12 -33 23 -33 25 0 16 35 54 46 50 18
-7 19 45 2 63 -10 11 -10 14 0 18 6 3 12 16 12 29 0 21 -4 24 -27 22 -24 -3
-29 2 -38 30 -5 17 -12 32 -16 32 -4 0 -4 -13 1 -30 l9 -30 -52 -1 c-68 -2
-90 1 -101 11 -5 5 -19 4 -32 -2 -20 -10 -28 -8 -50 13 -14 13 -35 36 -45 51
l-19 26 37 13 c40 13 33 17 97 -63 l21 -27 54 19 c42 14 55 23 56 39 1 12 -4
21 -10 21 -7 0 -25 10 -40 22 -27 21 -27 21 -17 1 9 -17 7 -24 -14 -43 l-24
-24 -27 20 c-39 30 -38 39 7 53 63 19 47 31 -38 31 l-78 0 -29 -50 c-17 -27
-33 -50 -36 -50 -4 0 -33 15 -65 33 -39 22 -58 39 -58 51 1 11 -2 14 -10 8 -6
-5 -20 -6 -31 -1 -24 9 -51 11 -42 3 9 -9 -22 -66 -32 -60 -7 5 -31 -35 -31
-50 0 -3 24 15 54 40 29 25 57 46 61 46 16 0 105 -64 102 -74 -2 -5 -23 -17
-48 -25 -24 -9 -59 -24 -78 -34 l-33 -19 -40 33 c-23 18 -39 26 -36 18 2 -8
21 -25 42 -39 34 -22 37 -27 31 -58 -3 -18 -9 -40 -12 -48 -4 -10 10 -7 50 10
57 26 67 25 67 -6 0 -10 7 -18 15 -18 8 0 15 -4 15 -9 0 -15 -18 -23 -22 -10
-2 7 -12 7 -31 0 -16 -6 -38 -11 -49 -11 -12 0 -46 -17 -75 -37 -46 -31 -56
-35 -76 -25 -12 6 -34 16 -49 22 -52 18 -23 79 38 81 28 1 28 1 4 8 -23 6 -25
12 -25 67 0 32 -4 74 -9 93 -8 33 -8 34 20 27 l29 -8 -25 28 -25 27 40 -6 c36
-6 37 -5 12 4 -22 9 -26 14 -16 25 15 18 12 17 -36 -8z m-55 -215 l48 -27 -25
-32 -24 -32 -54 26 c-30 15 -54 31 -54 36 -1 12 40 56 52 56 5 0 31 -12 57
-27z m797 -25 c9 -17 -20 -38 -52 -38 -38 0 -44 5 -38 31 5 16 13 19 45 17 22
-1 42 -6 45 -10z m-847 -52 c25 -12 46 -30 48 -40 3 -15 -2 -16 -40 -11 -96
13 -118 28 -102 69 7 19 27 15 94 -18z m318 -32 c-2 -10 4 -19 12 -21 12 -4
12 -3 1 5 -7 5 -9 12 -4 15 4 3 17 -2 28 -10 14 -11 16 -17 8 -20 -7 -3 -13
-11 -13 -19 0 -23 -36 -16 -70 13 -30 25 -31 27 -14 40 25 19 56 17 52 -3z
m92 -120 c0 -7 -34 -52 -76 -102 l-32 -36 -35 19 -35 19 45 53 c42 49 49 53
89 53 24 0 44 -3 44 -6z m-219 -23 c19 -9 26 -20 25 -41 -1 -15 -4 -26 -7 -24
-4 2 -10 -3 -13 -12 -5 -13 -14 -15 -44 -9 -20 3 -41 11 -46 15 -10 10 40 94
52 88 4 -2 19 -10 33 -17z m312 -23 c9 -21 17 -41 19 -45 4 -7 -87 -32 -119
-33 -41 0 -37 22 13 65 42 37 46 43 29 47 -12 3 -7 5 12 5 27 0 33 -5 46 -39z
m31 -136 c10 -29 16 -55 13 -58 -6 -6 -130 -34 -133 -31 -6 6 -54 121 -54 128
0 7 85 17 135 15 15 -1 25 -15 39 -54z m134 -21 c23 -12 41 -31 48 -49 l11
-30 -86 -11 c-48 -6 -93 -11 -100 -11 -7 0 9 27 34 60 25 33 48 60 51 60 3 0
21 -9 42 -19z m-950 -107 c-13 16 -9 22 18 35 20 9 35 9 60 1 19 -7 34 -14 34
-16 0 -3 -9 -23 -21 -45 -20 -40 -21 -41 -42 -23 -12 10 -16 12 -9 4 16 -18
15 -25 -2 -43 -18 -18 -80 -12 -146 12 -53 20 -53 28 -7 109 l31 55 45 -49
c25 -28 43 -45 39 -40z m365 -18 c-1 -27 -6 -53 -11 -58 -6 -6 -29 0 -63 18
l-54 27 33 -31 c18 -17 42 -34 52 -37 18 -6 19 -8 5 -33 -8 -15 -23 -38 -33
-52 -10 -14 -12 -21 -4 -16 15 9 182 -32 182 -44 0 -4 -7 -29 -15 -55 -8 -27
-12 -52 -9 -56 11 -18 -29 0 -57 27 -18 16 -29 23 -25 16 5 -8 -8 -30 -35 -60
-60 -66 -66 -68 -97 -39 -15 13 -35 27 -45 31 -18 6 -17 9 7 53 28 49 28 65
-1 42 -14 -12 -16 -12 -11 2 4 10 -4 22 -24 35 -23 15 -28 25 -25 47 3 26 2
27 -41 27 -40 0 -44 2 -39 21 6 21 6 21 -16 2 -38 -34 -43 -34 -39 2 4 30 10
35 70 61 87 37 91 37 103 7 5 -14 12 -23 15 -20 3 3 1 14 -5 25 -6 12 -11 25
-11 31 0 9 27 22 60 27 8 2 23 15 33 29 16 22 26 26 61 23 l41 -3 -2 -49z
m429 23 c7 -20 13 -27 18 -19 5 8 10 9 14 2 4 -7 -9 -15 -31 -21 -87 -23 -174
-41 -196 -41 -30 0 -43 28 -24 47 19 19 86 41 114 38 13 -1 23 1 23 6 0 4 12
6 26 3 16 -3 23 -1 19 6 -3 5 1 10 10 10 9 0 21 -14 27 -31z m-1132 -34 c0
-12 -59 -4 -71 11 -11 14 -10 18 6 30 17 13 22 12 42 -10 13 -14 23 -28 23
-31z m1335 25 c-3 -4 3 -7 13 -6 9 0 16 -4 15 -10 -1 -6 6 -10 15 -10 50 0 73
-5 67 -14 -4 -6 -11 -8 -16 -5 -5 4 -9 -3 -9 -14 0 -10 6 -22 13 -24 7 -4 6
-6 -4 -6 -9 -1 -20 6 -23 15 -3 8 -10 13 -15 10 -11 -7 -60 13 -79 31 -11 11
-11 13 0 13 10 0 9 3 -2 10 -13 9 -13 11 0 19 15 11 33 4 25 -9z m-445 -8 c0
-13 -77 -159 -96 -181 -1 -1 -25 4 -53 14 -55 18 -54 10 -16 116 15 45 18 47
68 56 82 16 97 15 97 -5z m394 -40 c9 -58 7 -132 -4 -132 -12 0 -120 79 -120
88 0 22 39 81 55 84 45 7 63 -3 69 -40z m-1215 -27 l42 -45 11 30 c6 17 15 29
22 27 6 -2 49 -17 96 -32 47 -15 86 -29 88 -30 2 -2 -27 -85 -34 -93 -2 -3
-24 2 -101 27 -31 9 -33 8 -33 -15 0 -23 2 -24 81 -24 87 0 86 1 64 -52 -4
-11 7 -30 39 -64 25 -26 45 -48 43 -49 -1 -1 -29 -8 -62 -15 -45 -11 -70 -24
-100 -53 l-40 -38 94 46 c98 49 144 54 100 12 -13 -12 -38 -39 -54 -61 l-31
-38 -57 13 c-31 8 -57 17 -57 20 0 4 -12 10 -26 13 -16 4 -24 12 -21 21 6 15
-19 10 -86 -18 -33 -14 -39 -14 -43 -2 -5 13 -8 13 -20 0 -8 -8 -23 -19 -32
-24 -30 -17 -8 -21 35 -6 23 8 51 11 67 7 l26 -7 -25 -38 c-28 -41 -40 -45
-66 -21 -16 15 -16 14 -1 -19 16 -34 19 -35 60 -30 37 5 47 2 70 -20 15 -15
45 -35 65 -45 l37 -18 -57 -40 -58 -40 -38 15 c-26 11 -39 24 -43 41 -19 83
-23 89 -59 83 -30 -5 -95 11 -95 24 0 2 13 24 30 48 16 24 25 45 20 47 -11 3
9 24 110 116 52 47 56 49 78 35 12 -9 22 -23 22 -33 0 -32 13 -30 48 11 l35
40 25 -23 c23 -21 25 -21 17 -3 -20 51 -18 64 10 77 l28 13 -29 6 c-16 4 -38
10 -49 14 l-20 7 20 -13 c11 -6 22 -13 24 -15 4 -4 -68 -87 -80 -92 -4 -2 -27
9 -50 24 l-43 27 47 43 c25 24 41 44 35 44 -7 0 -21 -9 -32 -19 -16 -15 -41
-21 -108 -25 -48 -3 -89 -3 -92 2 -2 4 -1 23 3 42 5 27 12 36 30 38 22 3 23 1
17 -29 -8 -40 1 -34 13 9 12 41 -8 45 -76 16 -29 -13 -53 -22 -53 -21 1 17 49
95 54 90 5 -5 6 1 2 13 -5 16 1 24 30 37 34 17 74 15 74 -3 0 -4 -12 -13 -27
-19 -16 -5 -37 -17 -48 -26 -17 -14 -18 -17 -5 -25 22 -14 32 -12 71 14 l35
24 33 -39 c37 -45 28 -56 -37 -46 l-37 6 24 -20 c16 -13 36 -19 63 -17 49 3
69 23 42 43 -10 8 -21 15 -24 15 -3 0 -27 27 -54 60 -38 48 -47 65 -42 85 4
14 10 25 15 25 5 0 27 -20 50 -45z m1411 21 c0 -25 -24 -36 -40 -18 -13 14
-12 15 3 9 11 -4 17 -1 17 8 0 8 5 15 10 15 6 0 10 -6 10 -14z m-497 -43 c4
-2 -11 -31 -34 -64 -44 -62 -67 -72 -103 -46 -17 12 -17 15 -1 55 20 50 57 74
100 66 17 -4 33 -8 38 -11z m481 -80 c20 -25 36 -53 36 -62 0 -10 -26 -28 -69
-47 l-69 -32 -23 45 c-27 53 -38 61 -51 39 -9 -15 -20 -17 -86 -11 -85 7 -112
13 -112 23 0 4 14 24 30 44 29 35 32 36 67 26 20 -5 53 -21 73 -34 26 -19 36
-21 38 -11 2 12 98 62 123 66 4 1 23 -20 43 -46z m-1737 -15 c30 -28 30 -63 1
-73 -23 -6 -22 -8 20 -21 10 -3 10 -9 2 -23 -10 -19 -12 -19 -48 -4 -47 19
-50 22 -32 34 11 7 6 9 -16 4 -30 -6 -32 -4 -41 34 l-11 40 42 15 c55 19 56
19 83 -6z m706 0 c31 -12 29 -17 -23 -45 -44 -24 -66 -19 -78 17 -10 26 -8 30
16 39 15 5 34 7 42 4 8 -3 28 -10 43 -15z m638 -4 c14 -8 -22 -55 -40 -53 -9
1 -35 1 -58 0 -33 -1 -40 -4 -38 -18 2 -10 6 -48 9 -85 l5 -68 -52 0 c-29 0
-62 3 -74 6 -19 5 -21 9 -11 27 6 12 34 45 61 74 52 55 47 68 -12 32 -18 -11
-35 -18 -38 -15 -12 12 20 40 88 76 60 31 82 38 113 34 22 -3 43 -7 47 -10z
m-1167 -61 c4 -9 3 -19 -2 -22 -4 -3 -25 -19 -45 -35 -21 -16 -40 -27 -42 -24
-5 5 67 97 76 98 4 0 10 -8 13 -17z m604 -19 c11 -7 7 -54 -3 -54 -14 0 -28
-26 -17 -33 4 -2 1 -2 -5 -1 -7 2 -25 -8 -41 -21 l-28 -24 -27 34 -27 34 19
45 c26 59 60 65 129 20z m-718 -6 c0 -30 -1 -31 -16 -16 -9 9 -14 24 -11 32
11 27 27 17 27 -16z m1340 -8 c0 -6 9 -6 26 0 14 6 47 10 74 10 46 0 49 -2 84
-50 20 -27 33 -50 28 -50 -4 0 -38 -9 -75 -19 l-68 -19 -29 57 -30 56 6 -47 6
-46 -54 -12 -55 -13 8 -41 c4 -22 11 -49 14 -58 6 -14 -9 -25 -76 -58 -46 -22
-88 -40 -95 -40 -15 0 -47 67 -39 80 4 6 24 19 46 30 60 31 46 33 -18 3 -32
-15 -73 -27 -90 -27 -40 1 -38 -2 13 -19 21 -8 39 -20 39 -28 0 -15 -19 -39
-30 -39 -4 0 -19 -9 -34 -20 l-28 -19 -16 34 c-12 25 -13 35 -4 39 7 3 6 5 -4
5 -8 1 -25 21 -37 46 l-22 45 26 -16 c16 -11 24 -24 21 -35 -3 -12 0 -16 10
-12 8 3 12 12 9 19 -3 8 -2 13 2 12 4 -1 30 8 57 21 29 14 74 25 107 26 78 5
126 31 110 61 -5 11 -12 45 -16 77 l-6 57 70 0 c39 0 70 -4 70 -10z m-393 -83
c-4 -11 16 -39 25 -34 2 1 0 -2 -4 -7 -5 -6 -15 -2 -26 10 -13 13 -15 22 -8
31 14 16 19 16 13 0z m-216 -56 c-17 -32 -86 -89 -97 -79 -2 2 -6 22 -10 44
l-6 41 53 16 c80 23 82 22 60 -22z m126 -26 c-1 -31 -4 -35 -28 -35 -27 0 -43
14 -44 35 0 8 41 29 67 34 3 0 6 -15 5 -34z m138 -5 c3 -5 1 -10 -4 -10 -6 0
-11 5 -11 10 0 6 2 10 4 10 3 0 8 -4 11 -10z m-115 -10 c0 -5 -2 -10 -4 -10
-3 0 -8 5 -11 10 -3 6 -1 10 4 10 6 0 11 -4 11 -10z m-260 -47 c0 -27 3 -34
10 -23 11 17 34 6 94 -45 39 -33 39 -33 23 -59 l-17 -26 39 0 c65 0 69 -24 21
-106 -22 -38 -40 -74 -40 -81 0 -18 -15 -16 -59 7 l-39 19 41 78 c26 51 34 72
21 61 -10 -9 -23 -16 -29 -15 -5 1 -14 -18 -20 -43 -11 -44 -12 -45 -53 -44
-35 1 -50 9 -106 58 -62 54 -64 58 -54 86 5 17 13 32 18 35 4 2 51 -13 104
-35 l97 -39 -7 47 c-11 77 -53 104 -54 35 0 -12 -5 -25 -11 -29 -11 -7 -109
34 -109 46 0 10 109 110 120 110 5 0 10 -17 10 -37z m-229 -10 c48 -23 58 -33
62 -58 3 -17 -2 -43 -12 -60 -9 -16 -17 -31 -17 -33 -1 -2 -38 15 -82 37 l-80
40 26 51 c15 27 31 50 36 50 5 0 35 -12 67 -27z m527 -92 l42 -59 -47 -16
c-26 -9 -50 -16 -54 -16 -8 0 -64 90 -64 102 0 10 68 57 76 52 3 -1 24 -30 47
-63z m602 -22 l49 -31 -31 -26 c-17 -15 -40 -46 -50 -69 -15 -33 -24 -43 -43
-43 -13 0 -27 4 -30 10 -6 10 44 190 53 190 2 0 26 -14 52 -31z m-2330 7 c0
-15 -20 -76 -25 -76 -20 0 -105 23 -105 29 0 6 105 58 123 60 4 1 7 -5 7 -13z
m1460 4 c0 -5 -2 -10 -4 -10 -3 0 -8 5 -11 10 -3 6 -1 10 4 10 6 0 11 -4 11
-10z m145 -21 c-3 -4 -12 -6 -20 -3 -8 4 -13 10 -10 15 3 4 12 6 20 3 8 -4 13
-10 10 -15z m295 -11 c0 -5 -6 -8 -13 -5 -17 6 -22 -50 -6 -69 9 -11 8 -14 -3
-14 -8 0 -24 -9 -36 -20 -29 -27 -33 -26 -61 17 l-24 37 23 16 c76 51 120 66
120 38z m507 -72 l27 -24 -49 -31 c-78 -49 -98 -37 -57 36 27 49 40 52 79 19z
m-2387 -6 l39 0 13 -57 c7 -32 14 -50 16 -40 5 24 16 21 55 -13 19 -17 41 -30
50 -30 19 0 31 -31 16 -40 -16 -11 -99 -21 -110 -14 -5 3 -9 21 -9 40 0 19 -4
34 -10 34 -5 0 -10 -19 -10 -42 -1 -40 -4 -45 -48 -73 -26 -16 -50 -31 -54
-33 -3 -2 -21 11 -38 28 l-32 32 51 23 50 24 -62 67 c-34 36 -62 74 -62 83 0
19 50 31 83 19 13 -4 41 -8 62 -8z m348 5 c5 -9 4 -35 -2 -60 -15 -64 -43 -62
-73 5 l-22 50 32 9 c46 13 55 13 65 -4z m1414 -70 c-24 -39 -68 -95 -76 -95
-4 0 -25 14 -46 30 -21 17 -44 29 -52 27 -7 -2 -9 -2 -5 1 4 2 3 10 -3 17 -9
10 1 21 45 50 30 20 58 41 61 47 4 5 24 -7 45 -28 22 -21 35 -42 31 -49z m702
-33 c14 -42 15 -52 3 -75 l-14 -26 -37 38 c-34 35 -37 41 -26 62 18 34 41 59
51 54 4 -3 15 -27 23 -53z m-1070 3 c36 -21 106 -86 106 -98 0 -8 -49 -57 -57
-57 -4 0 -39 32 -77 70 -69 68 -70 69 -51 90 23 26 27 25 79 -5z m923 -10 c25
-19 52 -35 59 -35 8 0 14 -3 14 -7 -1 -11 -151 -115 -157 -109 -5 4 3 54 23
164 2 12 7 22 10 22 3 0 26 -16 51 -35z m-232 -18 c1 -32 -11 -26 -17 8 -4 16
-1 24 6 22 6 -2 11 -15 11 -30z m-45 11 c0 -4 -7 -8 -15 -8 -8 0 -15 4 -15 8
0 5 7 9 15 9 8 0 15 -4 15 -9z m-230 -18 c0 -6 -9 -29 -21 -51 -21 -41 -35
-45 -53 -16 -8 13 -4 23 19 47 29 30 55 39 55 20z m-305 -110 c3 -5 1 -10 -4
-10 -6 0 -11 5 -11 10 0 6 2 10 4 10 3 0 8 -4 11 -10z"/>
<path d="M1770 935 c0 -18 19 -40 26 -32 4 4 0 15 -9 24 -9 10 -17 13 -17 8z"/>
<path d="M1738 883 c6 -2 18 -2 25 0 6 3 1 5 -13 5 -14 0 -19 -2 -12 -5z"/>
<path d="M1839 823 c-13 -16 -12 -17 4 -4 16 13 21 21 13 21 -2 0 -10 -8 -17
-17z"/>
<path d="M2040 480 c0 -5 5 -10 11 -10 5 0 7 5 4 10 -3 6 -8 10 -11 10 -2 0
-4 -4 -4 -10z"/>
<path d="M2060 320 c-8 -5 -12 -12 -9 -15 4 -3 12 1 19 10 14 17 11 19 -10 5z"/>
<path d="M2710 1813 c32 -15 33 -16 13 -22 l-22 -6 24 -12 c24 -11 25 -10 25
23 0 33 -1 34 -37 34 l-38 -1 35 -16z"/>
<path d="M1820 1810 c0 -6 7 -10 15 -10 8 0 15 2 15 4 0 2 -7 6 -15 10 -8 3
-15 1 -15 -4z"/>
<path d="M1868 1813 c7 -3 16 -2 19 1 4 3 -2 6 -13 5 -11 0 -14 -3 -6 -6z"/>
<path d="M168 1788 c5 -18 7 -19 10 -6 2 9 11 19 20 21 10 3 6 5 -10 6 -22 1
-25 -2 -20 -21z"/>
<path d="M767 1804 c-3 -6 3 -17 14 -24 28 -21 24 -30 -13 -31 -26 -1 -23 -3
17 -10 27 -4 50 -7 52 -6 1 1 -13 20 -31 41 -18 22 -35 35 -39 30z"/>
<path d="M253 1783 c-1 -13 7 -18 30 -20 28 -1 29 0 10 7 -13 5 -23 14 -23 20
0 17 -16 11 -17 -7z"/>
<path d="M1768 1778 c-2 -7 0 -33 6 -58 l10 -45 6 43 c4 24 13 48 21 53 8 5 9
9 2 9 -6 0 -18 3 -26 6 -8 3 -16 -1 -19 -8z"/>
<path d="M141 1767 c2 -1 14 -10 25 -20 20 -16 22 -17 28 -1 4 12 2 15 -9 11
-8 -4 -17 -2 -20 3 -4 6 -11 10 -17 10 -6 0 -9 -1 -7 -3z"/>
<path d="M218 1763 c7 -3 16 -2 19 1 4 3 -2 6 -13 5 -11 0 -14 -3 -6 -6z"/>
<path d="M1330 1754 c0 -9 11 -14 31 -14 35 0 31 15 -6 22 -17 4 -25 1 -25 -8z"/>
<path d="M1555 1750 c-3 -6 -18 -8 -33 -4 -23 4 -24 4 -9 -6 14 -9 16 -15 7
-26 -9 -10 -5 -10 19 2 17 9 31 22 31 30 0 16 -6 18 -15 4z"/>
<path d="M1006 1736 c4 -10 -11 -24 -48 -45 l-53 -31 -27 33 c-20 24 -30 29
-38 21 -21 -21 -7 -49 25 -52 17 -2 35 -8 41 -13 6 -5 18 -3 30 6 25 19 34 19
34 -2 1 -10 10 -1 22 22 26 51 23 48 47 35 31 -16 26 -5 -9 20 -21 15 -28 17
-24 6z"/>
<path d="M1660 1740 c-8 -5 -31 -10 -50 -11 l-35 0 45 -13 c25 -7 54 -17 65
-21 20 -8 20 -8 0 14 -16 19 -17 24 -5 31 8 6 11 10 5 10 -5 0 -17 -5 -25 -10z"/>
<path d="M1090 1714 c0 -17 -4 -23 -12 -18 -6 4 0 -13 14 -38 l25 -45 -48 -42
c-35 -30 -57 -41 -81 -41 l-33 -1 29 -15 c28 -16 29 -15 52 14 21 27 29 30 66
26 43 -4 43 -4 15 9 l-29 14 52 41 c52 41 52 41 87 27 20 -8 37 -15 39 -15 22
0 -36 -89 -58 -90 -11 0 -19 -8 -19 -20 -1 -11 -3 -24 -4 -30 -1 -5 -3 -17 -4
-25 -1 -10 -12 -15 -33 -16 -31 0 -32 -1 -10 -11 23 -11 30 -28 11 -28 -6 0
-8 -8 -5 -18 5 -13 -6 -27 -41 -52 -56 -39 -102 -48 -120 -23 -11 14 -13 14
-13 2 0 -28 44 -40 161 -44 63 -1 136 -6 163 -9 75 -10 81 -5 79 58 -1 46 2
55 20 65 20 10 20 10 -5 5 -24 -5 -31 0 -58 42 -36 57 -36 62 -9 72 20 8 20 8
0 26 -19 17 -20 17 -28 -26 -5 -23 -6 -45 -1 -48 4 -4 11 -20 14 -38 6 -28 4
-32 -22 -37 -52 -12 -50 -13 14 -14 67 -1 72 -7 55 -70 -6 -23 -8 -23 -82 -17
-41 4 -78 11 -81 16 -3 5 -28 10 -55 12 l-50 3 59 28 c32 15 66 27 75 27 10 0
4 8 -16 21 -32 20 -35 42 -7 53 8 3 14 19 14 37 0 32 51 104 65 91 3 -3 4 0 1
8 -4 8 5 29 18 45 l25 30 -41 42 -41 42 -52 -45 c-29 -24 -57 -44 -64 -44 -6
0 -11 18 -11 45 0 25 -4 45 -10 45 -5 0 -10 -12 -10 -26z m190 -56 c0 -17 -40
-6 -51 13 -17 32 10 46 33 16 10 -12 18 -25 18 -29z"/>
<path d="M1340 1725 c-10 -71 -10 -71 30 -104 21 -17 42 -31 45 -31 4 0 5 18
3 40 -3 30 0 40 11 40 11 0 10 4 -5 15 -27 20 -34 19 -34 -8 0 -43 -14 -39
-31 10 -10 26 -18 44 -19 38z"/>
<path d="M149 1696 c-18 -14 -19 -18 -6 -13 10 4 36 7 58 7 30 0 37 3 33 15
-8 21 -56 16 -85 -9z"/>
<path d="M325 1681 l-40 -7 37 -5 c22 -3 44 0 54 8 20 14 16 15 -51 4z"/>
<path d="M1463 1683 c-22 -8 -14 -21 19 -32 l31 -11 -19 22 c-10 13 -19 24
-19 24 0 1 -6 -1 -12 -3z"/>
<path d="M1537 1652 c-10 -10 -17 -35 -17 -56 l0 -38 -53 4 c-40 2 -60 -2 -86
-18 l-34 -22 44 -7 c24 -4 50 -12 57 -17 17 -14 15 -2 -4 27 l-16 25 62 0 c57
0 61 1 55 20 -4 12 -1 28 6 36 10 12 9 13 -5 8 -20 -8 -21 5 0 34 18 27 13 29
-9 4z"/>
<path d="M610 1637 c0 -22 3 -23 68 -19 68 4 69 4 80 -24 10 -24 8 -40 -7 -89
-17 -51 -17 -62 -5 -71 8 -6 14 -21 14 -33 0 -18 -6 -21 -39 -21 -21 0 -53 -3
-70 -6 l-31 -6 0 45 c0 27 5 47 13 50 6 3 -1 6 -17 6 -26 1 -28 -1 -21 -26 19
-68 16 -73 -68 -99 -71 -23 -76 -26 -67 -45 10 -17 6 -21 -25 -35 -41 -17 -49
-14 -76 30 l-19 31 0 -27 c0 -37 -10 -58 -27 -58 -10 0 -11 -5 -5 -16 5 -9 8
-26 6 -38 -3 -12 -2 -15 2 -9 4 9 15 11 32 6 l27 -6 -27 24 c-28 24 -28 24 -9
48 l18 24 37 -28 37 -28 -22 -23 c-20 -22 -21 -24 -5 -24 14 0 17 -5 12 -22
-13 -42 -11 -50 13 -66 l24 -16 -17 33 c-10 18 -16 35 -13 37 2 2 28 13 58 23
l54 20 -47 -6 c-45 -5 -48 -4 -48 17 0 13 10 45 23 72 22 48 25 49 72 33 11
-3 7 2 -10 11 l-30 18 45 13 c25 8 70 16 100 19 30 2 74 7 98 10 32 5 42 3 42
-7 0 -12 76 -78 116 -102 13 -7 64 28 64 45 0 6 -15 7 -42 3 -35 -6 -40 -5
-35 9 5 12 1 14 -23 10 -24 -5 -31 -2 -44 24 -23 45 -21 49 34 61 77 17 80 16
70 -20 -9 -30 -9 -31 9 -15 18 16 19 16 25 -8 6 -23 9 -24 30 -14 23 10 24 12
10 34 -15 22 -14 23 13 27 25 4 24 4 -7 6 -62 3 -82 12 -76 34 4 17 1 16 -23
-7 -22 -21 -37 -26 -79 -26 l-52 0 0 59 c0 33 3 62 8 64 4 2 35 2 69 -1 59 -4
62 -6 69 -35 l6 -30 14 33 c8 18 13 35 10 37 -2 2 -36 7 -75 10 l-71 6 6 51
c7 50 7 51 -13 34 -19 -18 -52 -16 -160 7 -19 4 -23 1 -23 -18z"/>
<path d="M1625 1640 c-27 -12 -33 -19 -20 -19 11 0 31 8 45 19 30 24 27 24
-25 0z"/>
<path d="M906 1623 c-3 -3 -5 -18 -5 -32 1 -17 3 -20 6 -8 5 19 24 22 40 6 7
-7 12 -4 16 11 3 14 1 20 -6 17 -7 -2 -19 -1 -28 4 -9 5 -19 5 -23 2z"/>
<path d="M35 1579 c-45 -20 -28 -24 24 -5 19 7 31 15 25 18 -5 3 -27 -3 -49
-13z"/>
<path d="M127 1589 c-9 -6 -14 -15 -11 -21 4 -6 3 -8 -3 -5 -10 6 -103 -47
-103 -58 0 -4 4 -3 10 0 5 3 27 -3 49 -14 l39 -20 8 27 c4 15 7 29 6 32 0 3
11 6 25 7 14 0 30 7 37 13 8 10 5 11 -18 6 -26 -7 -28 -5 -24 18 3 15 5 26 4
26 0 0 -9 -5 -19 -11z"/>
<path d="M2031 1547 c2 -2 24 -12 49 -21 l45 -18 -19 21 c-11 12 -31 21 -49
21 -17 0 -28 -2 -26 -3z"/>
<path d="M96 1435 c4 -8 7 -15 9 -15 2 0 5 7 9 15 3 9 0 15 -9 15 -9 0 -12 -6
-9 -15z"/>
<path d="M1600 1410 l-20 -40 26 10 c40 16 57 13 49 -7 -4 -10 -10 -24 -13
-32 -4 -10 5 -8 30 7 19 12 40 22 45 22 5 0 29 -22 52 -50 35 -42 40 -53 31
-70 -18 -34 -3 -22 19 16 20 34 30 64 11 34 -8 -12 -20 -5 -67 41 -32 31 -73
64 -90 73 -18 9 -33 21 -33 26 0 23 -21 7 -40 -30z"/>
<path d="M38 1424 c-38 -20 -36 -28 2 -9 17 9 30 18 30 20 0 7 -1 6 -32 -11z"/>
<path d="M1560 1426 c0 -2 7 -7 16 -10 8 -3 12 -2 9 4 -6 10 -25 14 -25 6z"/>
<path d="M1098 1413 c6 -2 18 -2 25 0 6 3 1 5 -13 5 -14 0 -19 -2 -12 -5z"/>
<path d="M1822 1363 c1 -24 3 -43 5 -43 1 0 10 15 19 33 9 17 13 29 9 25 -5
-4 -14 0 -22 10 -11 15 -13 12 -11 -25z"/>
<path d="M421 1385 c0 -18 28 -61 29 -44 0 8 -7 24 -15 35 -8 10 -14 15 -14 9z"/>
<path d="M1206 1345 c-9 -26 -7 -32 5 -12 6 10 9 21 6 23 -2 3 -7 -2 -11 -11z"/>
<path d="M225 1281 c-6 -5 -19 -11 -30 -14 -11 -3 -4 -5 17 -6 29 -1 36 2 32
14 -7 18 -7 18 -19 6z"/>
<path d="M1860 1230 c-15 -12 -34 -18 -47 -15 -16 4 -23 -1 -28 -16 -4 -13
-12 -18 -22 -15 -8 4 -2 -9 13 -27 34 -39 38 -40 24 -3 -9 25 -7 28 25 42 44
18 44 18 55 -8 8 -19 9 -15 8 20 -1 23 -2 42 -2 42 -1 0 -12 -9 -26 -20z"/>
<path d="M247 1220 c-3 -11 -3 -20 -1 -20 2 0 8 9 14 20 6 11 7 20 2 20 -6 0
-12 -9 -15 -20z"/>
<path d="M818 1207 c-31 -9 -38 -16 -45 -46 -6 -26 -15 -37 -31 -39 -22 -3
-22 -4 8 -38 16 -19 30 -38 30 -43 0 -4 -25 -25 -55 -46 -30 -20 -55 -39 -55
-41 0 -1 27 8 60 22 70 28 74 29 66 9 -4 -12 -2 -13 12 -6 23 12 68 61 56 61
-5 0 14 20 41 45 46 40 48 44 25 44 -19 0 -33 -12 -59 -53 -32 -52 -34 -53
-59 -40 -44 23 -53 52 -30 97 17 34 23 38 44 33 22 -6 24 -4 16 11 -8 13 -6
20 6 30 19 14 20 14 -30 0z"/>
<path d="M900 1205 c0 -8 -9 -24 -19 -34 -17 -17 -17 -20 -4 -25 9 -4 17 -5
19 -4 6 7 16 78 10 78 -3 0 -6 -7 -6 -15z"/>
<path d="M208 1166 c-20 -15 -23 -32 -8 -41 5 -3 16 8 25 25 17 32 11 38 -17
16z"/>
<path d="M2710 1164 c-8 -11 -10 -16 -5 -11 4 4 18 -1 29 -10 13 -12 17 -13
10 -3 -6 8 -13 21 -16 29 -3 10 -7 9 -18 -5z"/>
<path d="M1400 1125 c0 -19 11 -19 36 0 18 14 18 14 -8 15 -18 0 -28 -5 -28
-15z"/>
<path d="M12 1071 c-14 -46 -15 -61 -2 -41 8 13 13 13 31 2 19 -12 20 -12 14
10 -13 40 -24 68 -28 68 -2 0 -9 -17 -15 -39z"/>
<path d="M239 1103 c19 -3 44 -11 56 -19 29 -19 85 -35 85 -25 0 5 -20 14 -45
21 -25 7 -45 17 -45 21 0 5 -19 8 -42 7 -40 -1 -40 -2 -9 -5z"/>
<path d="M238 1060 c45 -68 48 -81 27 -96 -10 -7 -19 -26 -20 -41 -6 -76 -19
-135 -31 -140 -7 -3 -34 6 -59 18 l-47 23 4 53 c2 40 0 53 -11 53 -10 0 -12
-10 -6 -46 5 -34 3 -49 -7 -55 -22 -14 -28 -11 -43 24 -8 17 -14 26 -15 20 0
-7 -7 -13 -15 -13 -10 0 -15 -10 -15 -32 0 -24 10 -43 42 -75 40 -41 41 -44
25 -60 -14 -15 -21 -15 -37 -5 -32 20 -35 14 -8 -15 24 -25 25 -30 12 -47 -19
-27 -18 -36 7 -36 19 0 20 -4 15 -36 -4 -19 -9 -43 -12 -52 -5 -15 -4 -15 6 0
6 10 16 56 22 104 l12 86 58 29 c31 16 62 29 67 29 5 0 17 -23 26 -51 23 -68
29 -57 8 16 l-17 58 30 23 c16 13 34 24 39 24 6 0 19 8 30 17 19 14 17 15 -32
10 -29 -3 -53 -3 -53 1 0 4 23 30 50 59 28 29 50 55 50 58 0 3 -9 5 -21 5 -19
0 -21 5 -18 44 3 32 1 42 -7 35 -8 -6 -17 -5 -25 3 -8 7 -23 20 -34 28 -17 13
-17 11 3 -20z m62 -124 c0 -2 -7 -7 -16 -10 -8 -3 -12 -2 -9 4 6 10 25 14 25
6z m-175 -194 c-2 -2 -13 2 -24 10 -12 8 -18 17 -15 21 3 3 14 -2 25 -11 10
-9 17 -18 14 -20z"/>
<path d="M110 1033 c-36 -7 -46 -20 -20 -28 16 -5 28 -1 43 14 12 12 17 20 12
20 -6 -1 -21 -4 -35 -6z"/>
<path d="M417 1023 c-15 -16 -19 -16 -27 -3 -7 11 -11 8 -20 -15 -6 -16 -10
-43 -8 -59 3 -30 4 -29 40 32 20 34 36 62 35 62 -2 0 -11 -8 -20 -17z"/>
<path d="M193 998 c-27 -9 -33 -16 -33 -39 0 -26 4 -29 30 -29 34 0 40 15 10
23 -29 7 -25 21 13 40 36 18 28 20 -20 5z"/>
<path d="M611 993 c3 -19 -2 -27 -9 -16 -5 8 -8 -1 -9 -22 -1 -40 -2 -39 32
-23 27 12 33 36 13 56 -13 13 -29 16 -27 5z"/>
<path d="M70 945 c-11 -13 -10 -14 4 -9 9 3 16 10 16 15 0 13 -6 11 -20 -6z"/>
<path d="M757 928 c-15 -18 -46 -55 -71 -83 -25 -27 -44 -51 -42 -52 2 -2 15
1 30 6 18 7 26 18 26 34 0 30 84 112 103 101 8 -5 7 -2 -2 9 -7 9 -15 17 -16
17 -1 0 -14 -15 -28 -32z"/>
<path d="M556 941 c-4 -5 -2 -12 3 -15 5 -4 12 -2 15 3 4 5 2 12 -3 15 -5 4
-12 2 -15 -3z"/>
<path d="M360 885 c0 -16 3 -25 7 -22 11 12 33 -15 34 -42 l1 -26 12 28 c7 16
18 32 25 37 9 5 4 10 -16 14 -15 4 -36 15 -45 23 -17 15 -18 14 -18 -12z"/>
<path d="M492 775 c-9 -17 -14 -18 -48 -7 -39 12 -58 8 -51 -12 20 -53 21 -52
-58 -87 -66 -29 -75 -36 -70 -54 14 -44 11 -48 -63 -72 -40 -14 -72 -27 -70
-29 2 -2 47 11 100 28 l96 32 -6 38 c-4 36 -3 39 31 53 56 23 62 20 82 -43
l17 -59 24 24 c13 12 29 23 35 23 7 0 10 3 7 6 -4 3 -15 1 -26 -5 -18 -9 -23
-6 -41 23 -12 18 -21 36 -21 39 0 3 38 29 85 57 47 28 85 54 85 57 0 3 -11 -2
-25 -11 -31 -20 -45 -20 -60 1 -11 15 -13 15 -23 -2z"/>
<path d="M310 519 c-7 -24 -14 -47 -16 -50 -1 -3 11 -23 28 -44 18 -21 46 -67
64 -104 l33 -66 1 43 c0 23 -4 42 -8 42 -4 0 -6 16 -4 36 4 34 3 35 -16 25
-18 -9 -23 -6 -42 26 l-22 37 29 24 c25 21 26 23 6 17 -18 -5 -23 -2 -23 12 0
10 -4 24 -9 32 -7 11 -12 3 -21 -30z"/>
<path d="M53 483 c-29 -6 -28 -14 2 -36 l25 -18 0 31 c0 16 -1 29 -2 29 -2 -1
-13 -4 -25 -6z"/>
<path d="M0 428 c0 -19 2 -20 10 -8 13 19 13 30 0 30 -5 0 -10 -10 -10 -22z"/>
<path d="M778 138 c-4 -27 -11 -60 -14 -75 -5 -23 -4 -26 7 -16 7 7 24 13 36
13 13 0 38 8 56 17 l32 18 -52 3 -52 3 -3 42 -3 42 -7 -47z"/>
<path d="M658 85 c3 -16 7 -42 7 -57 0 -17 5 -28 14 -28 15 0 10 31 -14 84
l-14 31 7 -30z"/>
<path d="M0 15 c0 -8 4 -15 10 -15 5 0 7 7 4 15 -8 19 -14 19 -14 0z"/>
<path d="M756 12 c-2 -4 21 -8 52 -9 41 0 50 2 32 7 -34 11 -78 12 -84 2z"/>
</g>
</svg>
