<?xml version="1.0" standalone="no"?>
<!DOCTYPE svg PUBLIC "-//W3C//DTD SVG 20010904//EN"
 "http://www.w3.org/TR/2001/REC-SVG-20010904/DTD/svg10.dtd">
<svg version="1.0" xmlns="http://www.w3.org/2000/svg"
 width="274.000000pt" height="184.000000pt" viewBox="0 0 274.000000 184.000000"
 preserveAspectRatio="xMidYMid meet">

<g transform="translate(0.000000,184.000000) scale(0.100000,-0.100000)"
fill="#000000" stroke="none">
<path d="M850 1779 c0 -5 -5 -7 -12 -3 -7 4 -8 3 -4 -4 10 -17 36 -15 36 3 0
8 -4 15 -10 15 -5 0 -10 -5 -10 -11z"/>
<path d="M1052 1745 c-11 -13 -9 -15 8 -15 11 0 20 7 20 15 0 19 -11 19 -28 0z"/>
<path d="M712 1695 c-11 -13 -9 -15 8 -15 11 0 20 7 20 15 0 19 -11 19 -28 0z"/>
<path d="M930 1671 c0 -5 -8 -12 -17 -14 -14 -4 -13 -5 4 -6 24 -1 39 14 23
24 -5 3 -10 2 -10 -4z"/>
<path d="M582 1615 c-11 -13 -9 -15 8 -15 11 0 20 7 20 15 0 19 -11 19 -28 0z"/>
<path d="M782 1585 c-11 -13 -9 -15 8 -15 11 0 20 7 20 15 0 19 -11 19 -28 0z"/>
<path d="M454 1541 c4 -5 0 -12 -6 -14 -8 -3 -6 -6 5 -6 9 -1 17 6 17 14 0 8
-5 15 -11 15 -5 0 -8 -4 -5 -9z"/>
<path d="M652 1505 c-11 -13 -9 -15 8 -15 11 0 20 7 20 15 0 19 -11 19 -28 0z"/>
<path d="M313 1456 c-10 -11 -9 -15 1 -19 16 -7 26 1 26 20 0 17 -12 16 -27
-1z"/>
<path d="M523 1426 c-10 -11 -9 -15 1 -19 16 -7 26 1 26 20 0 17 -12 16 -27
-1z"/>
<path d="M183 1376 c-10 -11 -9 -15 1 -19 16 -7 26 1 26 20 0 17 -12 16 -27
-1z"/>
<path d="M391 1346 c-9 -10 -8 -15 4 -20 10 -4 15 1 15 14 0 24 -4 25 -19 6z"/>
<path d="M52 1302 c-7 -2 -12 -19 -12 -38 0 -23 -6 -38 -20 -46 -27 -17 -26
-32 1 -17 21 11 21 10 18 -114 -4 -108 -7 -128 -24 -148 -15 -17 -16 -21 -4
-17 14 5 16 -9 17 -122 1 -105 -1 -129 -13 -134 -8 -3 -15 -10 -15 -15 0 -6 7
-8 15 -5 12 5 14 -13 11 -122 -2 -86 -7 -129 -14 -132 -18 -6 -14 -22 4 -22
11 0 14 -6 10 -20 -3 -11 -9 -29 -12 -41 -5 -18 -3 -20 14 -15 15 5 22 1 27
-13 4 -12 12 -17 24 -14 24 6 38 -27 17 -39 -8 -5 -18 -24 -22 -43 -7 -38 -30
-47 -42 -17 -4 9 -13 18 -20 19 -15 4 -17 -103 -2 -112 6 -3 10 -1 10 4 0 6 7
11 16 11 8 0 13 4 10 9 -3 5 1 11 9 15 18 7 19 2 4 -27 -7 -12 -8 -19 -4 -15
4 4 14 0 22 -10 14 -16 14 -16 9 1 -3 11 0 17 10 17 8 0 13 -4 9 -9 -3 -6 3
-8 14 -6 11 2 22 -3 25 -12 6 -14 8 -14 20 2 13 18 14 18 25 -4 9 -16 9 -26 2
-35 -8 -9 -7 -13 2 -13 8 0 14 5 14 11 0 6 4 20 8 31 6 17 5 18 -5 5 -10 -13
-11 -12 -6 3 4 13 2 16 -7 11 -7 -5 -7 -1 2 10 13 16 15 15 28 -15 7 -17 13
-38 13 -45 0 -8 4 -14 9 -14 5 0 7 9 4 20 -4 14 0 20 11 20 9 0 16 6 16 13 1
6 7 1 15 -13 14 -23 15 -21 12 44 -1 47 -6 71 -15 74 -16 5 -13 -38 3 -51 6
-5 4 -7 -5 -4 -8 2 -14 9 -13 15 3 14 -34 35 -47 27 -5 -3 -12 6 -16 20 -3 14
-12 25 -19 25 -8 0 -21 7 -30 16 -15 16 -16 16 -13 -2 2 -11 -2 -18 -10 -17
-6 2 -12 -1 -12 -7 0 -5 -11 -9 -25 -8 -26 2 -32 12 -14 24 6 3 16 0 21 -7 8
-11 9 -11 5 2 -5 17 30 57 66 76 22 11 67 5 67 -9 0 -5 -4 -7 -9 -4 -5 4 -7
-2 -4 -13 4 -18 6 -18 44 3 34 18 41 19 49 6 7 -11 8 -6 4 18 -5 25 -3 32 10
32 9 0 16 4 16 8 0 11 56 43 64 35 3 -3 6 -1 6 5 0 7 7 12 15 12 8 0 15 4 15
8 0 4 14 16 30 25 34 20 31 23 50 -57 9 -39 8 -51 -2 -58 -22 -15 -148 -92
-168 -104 -11 -6 -17 -13 -14 -17 3 -3 36 14 73 38 85 54 131 78 131 68 0 -5
6 1 12 12 11 19 11 19 19 0 7 -19 8 -18 8 2 1 28 49 63 60 44 6 -9 10 -6 15
11 7 22 7 22 16 3 l9 -20 0 20 c1 17 3 17 11 5 12 -19 13 -53 1 -46 -5 3 -12
-2 -16 -12 -7 -16 -8 -15 -15 3 -8 19 -9 19 -9 -1 -1 -23 -45 -59 -60 -49 -5
2 -12 -3 -16 -13 -7 -16 -8 -15 -15 3 -8 19 -9 19 -9 -2 -1 -17 -24 -36 -98
-82 -54 -33 -102 -62 -108 -64 -5 -3 -8 -7 -5 -10 3 -3 52 23 110 58 74 46
106 61 112 52 5 -8 8 -7 8 6 0 17 15 24 23 10 2 -5 2 -2 1 5 -2 7 11 21 29 32
30 18 32 19 39 2 5 -14 7 -13 7 5 1 30 19 38 24 11 4 -20 4 -19 6 5 0 17 5 26
11 22 6 -4 10 -38 9 -78 -2 -81 9 -141 31 -174 15 -23 19 -23 207 -23 l193 0
0 335 0 335 23 -1 c12 0 31 -4 42 -8 19 -8 18 -9 -7 -21 -16 -7 -28 -17 -28
-22 0 -12 6 -10 42 12 33 20 74 25 115 14 19 -5 9 -14 -64 -59 -48 -29 -89
-58 -91 -64 -2 -6 44 17 102 52 l105 64 53 -9 c65 -12 67 -14 34 -29 -14 -7
-26 -16 -26 -22 0 -5 16 0 36 12 35 21 83 26 118 12 16 -6 4 -16 -62 -55 -45
-26 -85 -53 -89 -59 -10 -16 13 -5 107 53 84 51 86 52 145 45 33 -3 75 -8 94
-12 22 -4 32 -2 28 4 -4 6 -35 14 -69 17 -81 10 -86 14 -47 38 28 17 43 19 99
13 36 -4 97 -9 135 -11 39 -2 84 -6 100 -9 115 -18 115 -18 115 -1 0 9 5 16
11 16 6 0 9 -8 6 -19 -4 -16 3 -19 50 -25 30 -3 59 -4 64 -1 5 4 9 1 9 -4 0
-6 12 -11 28 -11 15 0 62 -7 105 -15 43 -8 84 -15 90 -15 9 0 11 24 7 86 -3
47 -2 88 3 91 20 12 1 22 -65 31 -50 8 -76 8 -85 1 -7 -6 -18 -9 -25 -6 -7 3
-4 6 7 7 46 2 -14 20 -86 24 -41 3 -74 6 -74 7 0 0 -12 2 -27 3 -23 2 -28 -1
-28 -21 0 -12 -5 -23 -11 -23 -5 0 -7 -5 -4 -10 4 -6 11 -8 16 -5 11 7 25 -23
15 -33 -4 -3 -12 0 -17 8 -8 11 -12 12 -15 3 -6 -14 -63 -7 -79 10 -7 7 -4 8
8 4 11 -4 17 -1 18 8 1 8 2 21 3 28 1 6 -1 17 -5 22 -5 7 0 11 11 12 23 2 35
-30 21 -54 -9 -15 -10 -14 -7 9 3 15 2 30 -2 32 -4 2 -8 -11 -9 -29 -1 -21 4
-35 12 -39 19 -7 24 3 21 42 -1 17 3 33 8 35 29 11 -11 19 -91 20 -61 1 -79 3
-58 8 22 6 16 7 -23 5 -32 -2 -48 0 -40 5 7 5 8 9 2 9 -6 0 -57 7 -113 15 -79
12 -106 13 -117 4 -11 -9 -14 -8 -14 5 0 9 -8 16 -20 16 -11 0 -20 -4 -20 -10
0 -5 -5 -10 -11 -10 -5 0 -7 5 -4 10 3 6 2 10 -4 10 -5 0 -12 -8 -14 -17 -4
-14 -5 -12 -6 5 -1 14 -7 22 -18 22 -48 1 -137 14 -218 32 -49 11 -139 26
-200 33 -60 7 -148 20 -195 28 -47 9 -121 18 -165 21 -44 4 -112 13 -152 22
l-72 16 -124 -76 c-68 -42 -127 -76 -132 -76 -4 0 -5 12 -2 26 3 18 1 24 -9
20 -7 -3 -16 0 -20 6 -4 7 -3 8 4 4 7 -4 12 -2 12 4 0 6 6 8 13 5 6 -4 4 0 -6
8 -18 15 -18 15 0 20 17 4 17 5 -1 6 -12 1 -16 6 -12 16 3 8 1 15 -4 15 -6 0
-10 10 -9 23 0 21 1 21 9 2 7 -17 12 -11 9 11 0 4 5 10 13 15 10 7 10 12 -4
26 -10 9 -18 12 -18 6 0 -6 5 -13 12 -15 9 -3 9 -6 0 -12 -17 -10 -27 21 -12
39 7 8 19 15 26 15 8 0 14 7 14 15 0 8 -4 15 -9 15 -9 0 -26 66 -22 88 1 7 -9
12 -24 12 -14 0 -25 4 -25 8 0 15 -48 7 -71 -13 -13 -11 -18 -13 -11 -5 16 19
15 30 -3 30 -8 0 -15 -5 -15 -12 0 -6 -7 -3 -16 8 -8 10 -12 13 -8 5 5 -11 2
-13 -14 -9 -12 3 -23 1 -26 -6 -2 -6 -5 -5 -5 4 -1 17 -41 38 -59 32z m111
-61 c3 -15 1 -18 -11 -14 -11 5 -14 2 -9 -10 4 -11 1 -17 -8 -17 -8 0 -15 -7
-15 -16 0 -8 -5 -12 -11 -9 -7 5 -5 13 6 25 9 10 14 24 10 29 -3 6 -3 16 0 21
10 17 32 11 38 -9z m-57 -82 c3 -6 0 -15 -7 -20 -12 -7 -11 -9 1 -10 8 -1 18
-1 23 0 4 0 7 -5 7 -13 0 -8 3 -21 6 -29 3 -8 -2 -17 -11 -21 -9 -3 -14 -2
-11 3 6 9 -18 34 -25 26 -3 -2 -5 14 -4 35 0 40 8 50 21 29z m71 -15 c-9 -9
-28 6 -21 18 4 6 10 6 17 -1 6 -6 8 -13 4 -17z m26 -9 c-3 -9 -8 -14 -10 -11
-3 3 -2 9 2 15 9 16 15 13 8 -4z m54 -22 c-3 -10 -5 -4 -5 12 0 17 2 24 5 18
2 -7 2 -21 0 -30z m-37 -18 c-10 -12 -10 -15 0 -15 17 0 4 -13 -15 -16 -15 -2
-13 7 8 34 5 6 12 12 14 12 3 0 0 -7 -7 -15z m77 -20 c-1 -25 -3 -31 -10 -20
-7 13 -2 55 8 55 2 0 3 -16 2 -35z m-37 -14 c0 -11 -10 -22 -22 -26 -14 -4
-18 -8 -10 -12 17 -7 15 -23 -4 -23 -11 0 -14 8 -12 28 2 19 8 27 21 26 9 -1
17 4 17 12 0 8 2 14 5 14 3 0 5 -8 5 -19z m-115 -21 c-3 -5 -11 -10 -16 -10
-6 0 -7 5 -4 10 3 6 11 10 16 10 6 0 7 -4 4 -10z m15 -24 c0 -15 -36 -14 -49
0 -3 4 2 4 11 1 10 -3 20 -2 23 3 9 14 15 12 15 -4z m-106 -126 c-6 -6 -10 -2
-11 12 -2 16 1 18 10 9 7 -7 8 -14 1 -21z m812 23 c-10 -11 -36 -12 -36 -2 0
5 10 9 22 9 12 0 18 -3 14 -7z m334 -3 c0 -5 -9 -10 -20 -10 -11 0 -20 5 -20
10 0 6 9 10 20 10 11 0 20 -4 20 -10z m-891 -40 l-24 -19 25 -1 c44 0 180 -23
180 -30 0 -19 -52 -29 -97 -19 -27 6 -61 13 -78 16 -16 3 -36 10 -43 16 -9 7
-18 5 -30 -7 -10 -9 -24 -16 -30 -16 -7 0 -12 -4 -12 -8 0 -5 46 -15 103 -23
l102 -15 -31 -17 c-26 -13 -42 -15 -90 -7 -33 5 -72 11 -89 13 -46 6 -39 36
18 75 27 17 52 32 57 32 4 0 13 7 20 15 7 8 19 15 27 15 11 0 8 -6 -8 -20z
m866 -19 c1 -10 -4 -18 -10 -18 -9 0 -12 18 -6 46 2 11 15 -11 16 -28z m60 10
c3 -5 1 -12 -5 -16 -5 -3 -10 1 -10 9 0 18 6 21 15 7z m559 -20 c3 -5 0 -11
-8 -14 -8 -3 -17 1 -20 9 -6 15 19 20 28 5z m-929 -11 c-3 -5 -11 -10 -16 -10
-6 0 -7 5 -4 10 3 6 11 10 16 10 6 0 7 -4 4 -10z m-299 -19 c-6 -9 -66 -33
-66 -26 0 6 52 34 63 35 5 0 6 -4 3 -9z m1429 -30 c-1 -11 -7 -27 -15 -36 -12
-14 -12 -18 1 -26 8 -5 9 -9 3 -9 -7 0 -15 -11 -18 -24 -7 -28 -42 -44 -59
-27 -11 11 -9 12 28 15 16 1 19 7 17 30 -2 19 3 33 17 42 12 9 18 21 14 31 -6
14 -7 14 -18 -1 -11 -15 -13 -15 -19 -1 -3 9 -2 13 3 10 5 -3 12 -1 16 5 11
17 32 11 30 -9z m55 4 c10 -12 10 -15 -4 -15 -9 0 -16 7 -16 15 0 8 2 15 4 15
2 0 9 -7 16 -15z m230 -15 c-13 -8 -12 -10 3 -10 9 0 17 -5 17 -11 0 -13 42
-1 52 15 5 8 8 7 8 -2 0 -7 -8 -15 -17 -19 -10 -3 -26 -13 -35 -21 -16 -14
-18 -13 -18 2 0 16 -1 16 -16 2 -18 -18 -39 -22 -28 -4 4 7 3 8 -4 4 -16 -10
-15 21 1 39 6 8 21 14 32 14 17 1 17 -1 5 -9z m-416 -30 c-6 -6 -10 -3 -10 10
0 13 4 16 10 10 7 -7 7 -13 0 -20z m353 -29 c-15 -6 -18 6 -10 35 l7 29 6 -30
c3 -16 2 -32 -3 -34z m-1767 29 c-27 -21 -66 -27 -55 -9 4 6 9 8 12 5 3 -3 15
1 27 9 31 22 45 18 16 -5z m90 0 c0 -5 -9 -14 -20 -20 -11 -6 -20 -9 -20 -6 0
2 -3 11 -6 20 -5 12 0 16 20 16 14 0 26 -4 26 -10z m655 4 c13 -5 14 -8 3 -15
-19 -13 -28 -11 -28 6 0 17 2 18 25 9z m718 -8 c3 -8 -1 -20 -9 -26 -10 -9
-14 -9 -14 -1 0 6 5 11 11 11 8 0 8 5 -1 15 -7 9 -8 15 -2 15 5 0 12 -6 15
-14z m602 -7 c-4 -5 -1 -9 4 -9 6 0 11 5 11 12 0 6 2 9 5 7 10 -11 -8 -47 -21
-42 -8 3 -14 -1 -14 -8 0 -11 -3 -11 -10 1 -5 8 -10 11 -10 7 0 -5 -6 -5 -12
0 -19 11 -39 13 -32 2 3 -5 0 -9 -6 -9 -23 0 -3 25 21 26 44 2 49 4 49 20 0 8
5 12 10 9 6 -4 8 -11 5 -16z m-2245 -6 c25 -2 46 -6 48 -8 2 -1 -13 -12 -33
-24 -28 -16 -45 -19 -81 -14 -47 6 -61 20 -50 49 5 13 14 15 39 9 17 -3 52 -9
77 -12z m1044 2 l39 -6 -36 -25 c-30 -20 -44 -23 -79 -18 -73 10 -76 13 -35
39 21 12 46 21 55 19 9 -1 34 -6 56 -9z m1092 -12 c4 -16 14 -33 23 -40 9 -7
14 -13 11 -13 -38 -9 -53 -9 -41 -1 11 7 11 13 0 32 -17 30 -20 49 -8 49 5 0
12 -12 15 -27z m-756 6 c0 -5 5 -7 12 -3 7 5 8 3 3 -5 -5 -9 -10 -10 -18 -2
-15 15 -30 14 -21 -1 4 -7 3 -8 -5 -4 -6 4 -9 12 -6 17 8 12 35 11 35 -2z
m710 -6 c0 -3 -7 -3 -15 1 -15 5 -22 -9 -7 -17 4 -2 1 -2 -7 0 -9 2 -11 -2 -7
-14 6 -14 4 -15 -4 -7 -16 16 5 55 25 48 8 -4 15 -8 15 -11z m-1805 -3 c-3 -5
-11 -10 -16 -10 -6 0 -7 5 -4 10 3 6 11 10 16 10 6 0 7 -4 4 -10z m911 -12 c3
-3 -11 -15 -29 -26 -26 -15 -46 -19 -81 -15 -25 3 -46 8 -46 12 0 3 17 15 37
27 28 16 45 19 75 14 21 -4 41 -10 44 -12z m597 -21 c-2 -4 -9 -4 -15 -1 -7 5
-9 0 -6 -14 5 -18 2 -21 -18 -20 -20 2 -24 7 -22 28 2 19 8 25 26 24 14 -1 22
4 23 15 0 12 2 11 8 -4 5 -11 6 -23 4 -28z m-1693 24 c0 -6 -4 -13 -10 -16 -5
-3 -10 1 -10 9 0 9 5 16 10 16 6 0 10 -4 10 -9z m1393 -4 c3 -8 -1 -14 -8 -14
-7 0 -11 6 -8 14 3 7 6 13 8 13 2 0 5 -6 8 -13z m-1309 -5 c3 -5 -6 -15 -19
-22 -14 -7 -25 -17 -25 -22 0 -5 -4 -6 -10 -3 -14 9 -12 42 3 48 20 9 45 8 51
-1z m1759 -4 c-4 -7 -8 -16 -8 -20 0 -8 -55 -52 -59 -47 -2 2 -6 19 -10 38 -5
31 -4 33 17 27 12 -3 29 -1 37 4 21 14 33 12 23 -2z m62 2 c3 -5 -3 -10 -14
-10 -12 0 -21 5 -21 10 0 6 6 10 14 10 8 0 18 -4 21 -10z m189 -24 c-6 -16 -8
-17 -16 -2 -11 19 0 42 13 29 6 -6 7 -18 3 -27z m-866 15 c23 -6 22 -7 -17
-29 -31 -18 -49 -22 -78 -17 -77 13 -80 16 -42 36 34 18 94 23 137 10z m777
-1 c3 -5 -1 -10 -10 -10 -9 0 -13 5 -10 10 3 6 8 10 10 10 2 0 7 -4 10 -10z
m-1794 -33 c7 -26 5 -27 -23 -25 -34 3 -53 29 -35 47 20 20 50 8 58 -22z m31
-2 c3 -14 1 -25 -3 -25 -5 0 -9 6 -9 14 0 8 -3 22 -7 32 -4 11 -3 15 4 11 6
-4 13 -18 15 -32z m-232 15 c0 -5 -4 -10 -10 -10 -5 0 -10 5 -10 10 0 6 5 10
10 10 6 0 10 -4 10 -10z m1338 4 c22 -6 22 -7 -12 -30 -29 -20 -42 -23 -80
-18 -25 4 -46 9 -46 13 0 3 12 13 28 23 29 17 72 22 110 12z m-1518 -24 c-28
-22 -44 -21 -48 3 -3 14 4 17 35 17 l38 0 -25 -20z m255 10 c-3 -5 -11 -10
-16 -10 -6 0 -7 5 -4 10 3 6 11 10 16 10 6 0 7 -4 4 -10z m1793 -10 c-11 -18
-28 -27 -28 -16 0 16 14 36 26 36 12 0 12 -4 2 -20z m69 14 c-3 -3 -12 -4 -19
-1 -8 3 -5 6 6 6 11 1 17 -2 13 -5z m-1817 -14 c0 -5 -2 -10 -4 -10 -3 0 -8 5
-11 10 -3 6 -1 10 4 10 6 0 11 -4 11 -10z m1935 -21 c-6 -9 -35 -1 -35 10 0 4
3 11 7 14 8 9 34 -13 28 -24z m-2045 -5 c0 -15 -15 -19 -23 -6 -2 4 -2 2 -1
-5 4 -16 -15 -28 -27 -16 -4 4 -6 18 -3 29 4 16 11 20 30 16 13 -2 24 -11 24
-18z m1968 5 c3 -11 1 -11 -7 1 -7 10 -11 11 -11 3 0 -7 -4 -13 -10 -13 -5 0
-10 6 -10 14 0 18 33 14 38 -5z m159 -11 c-3 -7 -5 -2 -5 12 0 14 2 19 5 13 2
-7 2 -19 0 -25z m-1872 12 c3 -5 1 -10 -4 -10 -6 0 -11 5 -11 10 0 6 2 10 4
10 3 0 8 -4 11 -10z m1829 -15 c-9 -22 -34 -27 -34 -6 0 23 8 31 25 24 8 -2
11 -11 9 -18z m-1994 -15 c22 -83 22 -79 -12 -100 l-33 -20 -12 43 -12 42 5
-45 c5 -43 4 -46 -28 -65 -54 -32 -64 -35 -64 -15 0 10 3 17 6 15 4 -2 7 21 8
52 2 61 16 89 32 63 8 -12 10 -10 10 8 0 26 17 30 23 5 4 -15 5 -14 6 3 3 47
59 59 71 14z m1830 26 c0 -2 -7 -6 -15 -10 -8 -3 -15 -1 -15 4 0 6 7 10 15 10
8 0 15 -2 15 -4z m-1796 -37 c7 -37 8 -64 2 -58 -9 9 -24 89 -16 89 4 0 10
-14 14 -31z m60 21 c34 -13 33 -26 -4 -45 -32 -17 -32 -17 -43 33 -6 25 6 28
47 12z m86 -34 c0 -8 3 -21 6 -30 3 -9 2 -16 -4 -16 -5 0 -12 14 -14 30 -3 17
-1 30 4 30 4 0 8 -6 8 -14z m-21 -51 c1 -17 -1 -17 -9 -5 -5 8 -9 26 -9 40 0
23 1 23 9 5 5 -11 9 -29 9 -40z m-28 2 c6 -22 3 -30 -16 -43 -27 -18 -40 -13
-48 16 -3 13 2 28 16 41 26 24 39 20 48 -14z m-71 -57 c0 -20 -2 -22 -10 -10
-5 8 -10 26 -10 40 0 20 2 22 10 10 5 -8 10 -26 10 -40z m-27 -11 c6 -22 2
-28 -27 -42 -33 -15 -34 -15 -40 6 -10 37 -7 46 22 61 30 16 37 13 45 -25z
m162 -13 c-5 -32 -4 -38 5 -26 10 13 11 12 6 -3 -3 -10 -6 -25 -6 -33 0 -33
-19 -10 -30 36 -14 57 -8 88 9 50 l11 -25 -3 27 c-2 15 0 25 5 22 5 -3 7 -25
3 -48z m-46 -3 c25 -94 25 -90 -7 -107 -23 -12 -32 -13 -35 -3 -3 7 -6 5 -6
-5 -3 -56 -42 35 -41 94 l1 23 15 -25 15 -25 -5 25 c-4 20 1 29 22 43 15 9 28
17 29 17 1 0 7 -17 12 -37z m-190 -34 c1 -9 -18 -29 -40 -44 -33 -21 -43 -24
-50 -13 -7 10 -9 9 -9 -4 0 -11 -7 -18 -17 -18 -15 0 -16 2 -3 10 8 5 11 10 6
10 -6 0 -5 5 2 12 7 7 12 19 12 28 0 16 60 58 60 43 0 -4 6 1 12 12 11 19 11
19 19 0 4 -11 8 -27 8 -36z m-276 -33 c-4 -6 0 -6 9 2 14 11 19 9 32 -10 11
-15 16 -17 16 -8 0 13 1 13 10 0 13 -20 -7 -31 -38 -19 -13 5 -27 7 -32 4 -8
-5 -20 18 -20 41 0 8 6 11 15 8 8 -4 12 -11 8 -18z m-49 -22 c3 -8 2 -12 -4
-9 -6 3 -10 10 -10 16 0 14 7 11 14 -7z m46 -64 c0 -6 -41 -33 -44 -28 -1 2
-7 10 -14 20 -11 14 -9 16 23 15 19 -1 35 -3 35 -7z m44 -116 c4 -11 2 -15 -8
-11 -8 3 -17 -1 -20 -9 -4 -11 0 -13 18 -8 14 3 27 -1 35 -10 15 -18 4 -21
-19 -6 -9 5 -19 5 -27 -2 -15 -12 -15 -12 -17 24 -1 15 2 24 6 22 4 -3 8 0 8
5 0 17 17 13 24 -5z m-181 -49 c-7 -21 -13 -19 -13 6 0 11 4 18 10 14 5 -3 7
-12 3 -20z m72 6 c-9 -16 15 -23 33 -10 9 7 14 9 10 5 -4 -5 -3 -15 2 -21 7
-9 6 -14 -4 -18 -8 -3 -20 1 -26 8 -7 8 -16 13 -20 10 -5 -3 -7 3 -5 12 5 24
4 23 11 23 3 0 3 -4 -1 -9z m162 -26 c0 -8 -4 -12 -9 -9 -5 3 -6 10 -3 15 9
13 12 11 12 -6z"/>
<path d="M90 1116 c0 -2 7 -7 16 -10 8 -3 12 -2 9 4 -6 10 -25 14 -25 6z"/>
<path d="M2240 746 c0 -2 7 -6 15 -10 8 -3 15 -1 15 4 0 6 -7 10 -15 10 -8 0
-15 -2 -15 -4z"/>
<path d="M2019 673 c-13 -16 -12 -17 4 -4 16 13 21 21 13 21 -2 0 -10 -8 -17
-17z"/>
<path d="M2175 670 c-4 -6 -11 -8 -16 -5 -5 4 -9 -1 -9 -9 0 -9 5 -16 10 -16
6 0 10 4 10 9 0 5 8 11 18 13 12 2 13 6 5 11 -6 4 -14 3 -18 -3z"/>
<path d="M381 524 c0 -11 3 -14 6 -6 3 7 2 16 -1 19 -3 4 -6 -2 -5 -13z"/>
<path d="M391 484 c0 -11 3 -14 6 -6 3 7 2 16 -1 19 -3 4 -6 -2 -5 -13z"/>
<path d="M571 364 c0 -11 3 -14 6 -6 3 7 2 16 -1 19 -3 4 -6 -2 -5 -13z"/>
<path d="M411 394 c0 -11 3 -14 6 -6 3 7 2 16 -1 19 -3 4 -6 -2 -5 -13z"/>
<path d="M431 304 c0 -11 3 -14 6 -6 3 7 2 16 -1 19 -3 4 -6 -2 -5 -13z"/>
<path d="M442 260 c0 -14 2 -19 5 -12 2 6 2 18 0 25 -3 6 -5 1 -5 -13z"/>
<path d="M17 233 c-4 -3 -7 -13 -7 -21 0 -18 13 -7 16 13 2 17 1 18 -9 8z"/>
<path d="M180 210 c0 -5 4 -10 9 -10 6 0 13 5 16 10 3 6 -1 10 -9 10 -9 0 -16
-4 -16 -10z"/>
<path d="M260 200 c0 -22 -16 -27 -23 -7 -3 6 -6 1 -6 -12 -1 -17 3 -22 15
-17 9 3 22 6 30 6 19 0 18 36 -1 44 -10 4 -15 -1 -15 -14z"/>
<path d="M691 194 c0 -11 3 -14 6 -6 3 7 2 16 -1 19 -3 4 -6 -2 -5 -13z"/>
<path d="M701 154 c0 -11 3 -14 6 -6 3 7 2 16 -1 19 -3 4 -6 -2 -5 -13z"/>
<path d="M592 145 c0 -11 3 -29 8 -40 11 -25 11 1 0 35 -6 20 -8 21 -8 5z"/>
<path d="M621 144 c0 -11 3 -14 6 -6 3 7 2 16 -1 19 -3 4 -6 -2 -5 -13z"/>
<path d="M700 123 c0 -5 5 -15 10 -23 8 -12 10 -11 10 8 0 12 -4 22 -10 22 -5
0 -10 -3 -10 -7z"/>
<path d="M631 88 c0 -15 4 -30 9 -33 6 -3 10 -1 10 6 0 6 8 18 18 26 15 13 15
13 -5 4 -18 -9 -22 -8 -26 7 -3 10 -5 7 -6 -10z"/>
<path d="M611 54 c0 -11 3 -14 6 -6 3 7 2 16 -1 19 -3 4 -6 -2 -5 -13z"/>
<path d="M40 50 c0 -5 -5 -9 -11 -7 -6 1 -14 -4 -17 -12 -3 -9 0 -11 8 -6 10
6 12 4 7 -9 -5 -13 -2 -17 10 -14 9 2 18 9 21 17 3 9 0 11 -8 6 -9 -5 -10 -2
-5 14 3 11 4 21 1 21 -3 0 -6 -4 -6 -10z"/>
<path d="M726 42 c-2 -4 -1 -14 5 -22 7 -12 9 -10 9 8 0 23 -5 28 -14 14z"/>
<path d="M125 20 c3 -5 8 -10 11 -10 2 0 4 5 4 10 0 6 -5 10 -11 10 -5 0 -7
-4 -4 -10z"/>
<path d="M270 14 c0 -8 5 -12 10 -9 6 3 10 10 10 16 0 5 -4 9 -10 9 -5 0 -10
-7 -10 -16z"/>
<path d="M540 20 c-8 -5 -10 -10 -5 -10 6 0 17 5 25 10 8 5 11 10 5 10 -5 0
-17 -5 -25 -10z"/>
<path d="M90 10 c0 -5 5 -10 11 -10 5 0 7 5 4 10 -3 6 -8 10 -11 10 -2 0 -4
-4 -4 -10z"/>
</g>
</svg>
