<?xml version="1.0" encoding="UTF-8"?>
<svg version="1.1" xmlns="http://www.w3.org/2000/svg" width="800" height="800">
<path d="M0 0 C264 0 528 0 800 0 C800 264 800 528 800 800 C536 800 272 800 0 800 C0 536 0 272 0 0 Z " fill="#FEFEFE" transform="translate(0,0)"/>
<path d="M0 0 C0.85555481 -0.00199402 1.71110962 -0.00398804 2.59259033 -0.00604248 C14.08114843 -0.00299959 25.2472506 0.82063817 36.625 2.375 C38.42811028 2.59085252 40.23145464 2.80477073 42.03515625 3.015625 C71.24944074 6.72177768 100.12143988 15.58107365 126.625 28.375 C127.91795069 28.98180931 129.21091925 29.58858056 130.50390625 30.1953125 C146.30493411 37.74079198 161.77839088 46.63772637 175.625 57.375 C177.02298828 58.3959375 177.02298828 58.3959375 178.44921875 59.4375 C189.97225218 67.87266173 200.70350198 77.09845832 210.625 87.375 C213.05942227 89.82495287 215.50550516 92.25906627 217.984375 94.6640625 C224.0195579 100.56118567 229.44366103 106.71929628 234.625 113.375 C235.07601074 113.94959961 235.52702148 114.52419922 235.99169922 115.11621094 C254.03451768 138.19977617 269.24669329 163.93922134 279.625 191.375 C280.07649414 192.56440186 280.07649414 192.56440186 280.53710938 193.77783203 C308.29349426 267.85897229 306.26668198 350.384587 273.83007812 422.74511719 C270.9399391 429.05236547 267.86530844 435.24105368 264.625 441.375 C264.13773438 442.31730469 263.65046875 443.25960938 263.1484375 444.23046875 C251.42666146 466.39706758 236.18716404 486.35894557 219.10546875 504.6484375 C217.52476388 506.38596821 215.9951162 508.17238099 214.5390625 510.015625 C212.7565738 512.21281515 210.97795949 513.94177517 208.8125 515.75 C206.18768848 517.98880982 203.7051308 520.26534494 201.3125 522.75 C183.61257303 540.69019747 160.78309253 554.6619196 138.625 566.375 C137.66424561 566.89223633 137.66424561 566.89223633 136.68408203 567.41992188 C112.6929696 580.29044808 86.39065131 589.42712432 59.625 594.375 C61.53023483 588.39138724 63.69243267 582.60025631 66.1796875 576.8359375 C66.51713989 576.04423157 66.85459229 575.25252563 67.20227051 574.43682861 C69.05931647 570.08459589 70.93648974 565.74123621 72.81884766 561.39990234 C76.41991033 553.06812586 79.92830307 544.75761595 82.96875 536.203125 C91.33428481 513.04020642 91.33428481 513.04020642 101.875 508.0625 C104.30743297 507.05574235 106.7482624 506.14172387 109.23486328 505.27783203 C113.17920448 503.78792664 116.71066527 501.67176183 120.3125 499.5 C121.00609619 499.08951416 121.69969238 498.67902832 122.41430664 498.25610352 C145.99963674 484.05189851 168.087094 464.22428185 184.38232422 442.06201172 C185.60364961 440.40398451 186.84877916 438.76623502 188.09765625 437.12890625 C214.56426269 401.88377193 231.57179591 355.75934874 231.828125 311.51953125 C231.83513931 310.70376114 231.84215363 309.88799103 231.84938049 309.04750061 C231.86679122 306.42744358 231.8732335 303.80761277 231.875 301.1875 C231.87567474 300.29105774 231.87634949 299.39461548 231.87704468 298.4710083 C231.86079756 284.8862881 231.34525948 271.72373948 228.625 258.375 C228.44807617 257.47233398 228.27115234 256.56966797 228.08886719 255.63964844 C221.86340976 224.42634462 209.97742602 192.9028953 190.625 167.375 C189.73281208 166.14566402 188.84234271 164.91507989 187.953125 163.68359375 C181.39000926 154.66797951 174.38662239 146.373092 166.625 138.375 C166.10824707 137.83246582 165.59149414 137.28993164 165.05908203 136.73095703 C145.9159958 116.64515187 122.63272325 101.23452067 97.625 89.375 C97.00850586 89.0773877 96.39201172 88.77977539 95.75683594 88.47314453 C65.49720211 73.97407359 33.13356065 68.14849414 -0.1875 68.125 C-1.05082947 68.12432526 -1.91415894 68.12365051 -2.8036499 68.12295532 C-16.52026128 68.13993879 -29.88095254 68.71153021 -43.375 71.375 C-44.25172363 71.54660645 -45.12844727 71.71821289 -46.03173828 71.89501953 C-59.21004296 74.57085385 -71.81945191 78.59482238 -84.375 83.375 C-86.03595703 84.00728516 -86.03595703 84.00728516 -87.73046875 84.65234375 C-115.65126777 95.84327129 -140.71331292 112.61124275 -162.375 133.375 C-162.90480469 133.87757324 -163.43460938 134.38014648 -163.98046875 134.89794922 C-171.74311358 142.29412714 -178.68431763 150.03565203 -185.08398438 158.63964844 C-185.92507113 159.77021664 -186.77244514 160.89614296 -187.62695312 162.01660156 C-224.20774452 209.98903402 -238.65993972 272.15980512 -231.125 331.625 C-230.6094851 335.22205382 -230.01656118 338.79847269 -229.375 342.375 C-229.24641602 343.13441895 -229.11783203 343.89383789 -228.98535156 344.67626953 C-222.55655184 381.57234531 -205.41672617 417.73048982 -181.375 446.375 C-180.57835937 447.35597656 -179.78171875 448.33695313 -178.9609375 449.34765625 C-168.68391407 461.89794722 -157.29854085 473.54032743 -144.375 483.375 C-143.84003906 483.79168945 -143.30507813 484.20837891 -142.75390625 484.63769531 C-134.1386666 491.33355334 -125.15734777 497.10391948 -115.6640625 502.4765625 C-114.87862061 502.9295874 -114.09317871 503.3826123 -113.28393555 503.84936523 C-110.96213564 505.06706793 -108.70617252 506.08162904 -106.28833008 507.07446289 C-96.67714443 511.22912988 -91.62094302 515.25665836 -87.58482361 525.02462769 C-86.62299823 527.5247701 -85.71787604 530.04143148 -84.8125 532.5625 C-84.13100059 534.32407875 -83.44346716 536.08333375 -82.75024414 537.84033203 C-81.31782254 541.48566413 -79.91368752 545.14013541 -78.52734375 548.80322266 C-76.39510366 554.38652467 -74.09868943 559.89148105 -71.75 565.38671875 C-71.37488785 566.26468613 -70.9997757 567.1426535 -70.61329651 568.04722595 C-69.87443255 569.77345858 -69.13486799 571.49939151 -68.39456177 573.2250061 C-66.67581454 577.23570716 -64.97136522 581.25223717 -63.27734375 585.2734375 C-62.98138306 585.96737106 -62.68542236 586.66130463 -62.38049316 587.37626648 C-60.375 592.14599064 -60.375 592.14599064 -60.375 594.375 C-84.39572016 590.5697374 -107.54025995 581.87490396 -129.375 571.375 C-129.99487793 571.07867676 -130.61475586 570.78235352 -131.25341797 570.47705078 C-161.41956637 555.99099146 -189.04920847 536.3736509 -212.375 512.375 C-214.66452411 510.07159999 -216.95801421 507.77673021 -219.296875 505.5234375 C-224.80867239 500.17652293 -229.6481525 494.41678554 -234.375 488.375 C-234.91012207 487.69985352 -235.44524414 487.02470703 -235.99658203 486.32910156 C-250.3377237 468.15063858 -262.75025641 448.4630458 -272.375 427.375 C-272.6730957 426.72273438 -272.97119141 426.07046875 -273.27832031 425.3984375 C-275.10017739 421.37832263 -276.8543917 417.33350372 -278.56787109 413.26611328 C-279.30878205 411.53014949 -280.08440014 409.80910625 -280.86328125 408.08984375 C-295.02101335 375.46218621 -300.86731023 337.00363717 -300.625 301.625 C-300.62156586 300.79672699 -300.61813171 299.96845398 -300.61459351 299.11508179 C-300.31925151 238.11560038 -281.86496425 178.22994978 -246.375 128.375 C-245.983125 127.81619141 -245.59125 127.25738281 -245.1875 126.68164062 C-238.57908306 117.28277934 -231.40525156 108.53390719 -223.77001953 99.95361328 C-222.00276214 97.95377318 -220.28599234 95.91256839 -218.5625 93.875 C-215.74742243 90.65776849 -212.65753326 87.90805498 -209.3984375 85.1484375 C-207.34691028 83.35038083 -205.45980459 81.4592574 -203.5625 79.5 C-198.82744873 74.70967575 -193.65464054 70.54716977 -188.375 66.375 C-187.39789063 65.59253906 -186.42078125 64.81007813 -185.4140625 64.00390625 C-170.97788232 52.6404143 -155.62462333 42.92588011 -139.375 34.375 C-138.70259277 34.01954102 -138.03018555 33.66408203 -137.33740234 33.29785156 C-94.86124122 11.00807004 -47.88349051 0.0293477 0 0 Z " fill="#64B5F5" transform="translate(400.375,99.625)"/>
<path d="M0 0 C3.41939472 1.27658906 6.39484503 2.74913229 9.45703125 4.73046875 C10.73586182 5.55212524 10.73586182 5.55212524 12.04052734 6.39038086 C13.41265381 7.27995483 13.41265381 7.27995483 14.8125 8.1875 C16.80021792 9.46441901 18.78851934 10.74043006 20.77734375 12.015625 C22.31817627 13.0046582 22.31817627 13.0046582 23.89013672 14.01367188 C28.86319744 17.19005922 33.8677552 20.3153743 38.875 23.4375 C39.86757813 24.05689453 40.86015625 24.67628906 41.8828125 25.31445312 C43.90361815 26.5751751 45.92461478 27.83559102 47.94580078 29.09570312 C53.06962851 32.29041586 58.19143114 35.48836706 63.3125 38.6875 C64.81659424 39.62710571 64.81659424 39.62710571 66.35107422 40.58569336 C72.411141 44.37410366 78.46068656 48.17860459 84.5 52 C93.80344069 57.88646409 103.13134894 63.73322606 112.48046875 69.546875 C115.75623154 71.58651138 119.01277017 73.64747343 122.23828125 75.765625 C122.83656738 76.15266602 123.43485352 76.53970703 124.05126953 76.93847656 C125.54462682 77.90730937 127.02869602 78.8904206 128.51171875 79.875 C131.59583882 81.26939024 132.7807236 80.87872643 136 80 C138.0869497 79.03189388 138.0869497 79.03189388 140.08984375 77.76953125 C141.24891235 77.07065796 141.24891235 77.07065796 142.43139648 76.35766602 C143.25841064 75.84776123 144.0854248 75.33785645 144.9375 74.8125 C145.812854 74.28003662 146.68820801 73.74757324 147.59008789 73.19897461 C155.0218874 68.65581851 162.37233153 63.98512504 169.70800781 59.28881836 C176.00050234 55.26111279 182.32796849 51.29593629 188.6875 47.375 C195.31612059 43.2877508 201.92261283 39.1692203 208.5 35 C215.14095145 30.79103422 221.80971348 26.63008694 228.5 22.5 C235.49947151 18.17769482 242.48105221 13.82875767 249.4375 9.4375 C250.59958984 8.70466797 250.59958984 8.70466797 251.78515625 7.95703125 C255.89432563 5.35794531 259.96724478 2.71619805 264 0 C264.66 0.33 265.32 0.66 266 1 C265.50822266 2.16418457 265.01644531 3.32836914 264.50976562 4.52783203 C248.57597102 42.24962624 232.66634833 79.98103662 216.86328125 117.7578125 C216.51765137 118.58399582 216.17202148 119.41017914 215.81591797 120.26139832 C214.02534289 124.54306035 212.24037392 128.82697509 210.4609375 133.11328125 C207.47986325 140.27285392 204.42930701 147.40286409 201.38848877 154.53720093 C194.9142614 169.73193235 188.49230674 184.94766505 182.125 200.1875 C175.90455463 215.07507326 169.65566288 229.95022527 163.375 244.8125 C162.58276242 246.68749947 161.79052608 248.56249947 160.99829102 250.4375 C159.82468121 253.21496681 158.65103654 255.99241887 157.47731018 258.76983643 C153.68279528 267.74931334 149.89144542 276.73012016 146.10552979 285.71322632 C145.42126453 287.33643933 144.73666488 288.95951143 144.05169678 290.58242798 C140.62871576 298.69296819 137.21713469 306.80489142 134 315 C133.34 315 132.68 315 132 315 C131.4440918 313.66267822 131.4440918 313.66267822 130.87695312 312.29833984 C119.47077043 284.86531409 107.96346859 257.47578057 96.3984375 230.109375 C94.8072129 226.34378328 93.216078 222.57815367 91.625 218.8125 C91.22921753 217.87587524 90.83343506 216.93925049 90.42565918 215.97424316 C84.03461722 200.84728198 77.68113807 185.70486642 71.34674072 170.55410767 C66.6723064 159.37390759 61.9808102 148.2016675 57.24658203 137.04663086 C53.31225734 127.76442955 49.42622362 118.46224911 45.53900146 109.1602478 C39.19626305 93.98320656 32.81900972 78.82183559 26.375 63.6875 C20.94558263 50.93246689 15.52091935 38.17550879 10.13043213 25.40396118 C9.42613218 23.73611434 8.72103119 22.06860551 8.01507568 20.40145874 C7.04040971 18.09928706 6.06865327 15.7959086 5.09765625 13.4921875 C4.66920662 12.48251167 4.66920662 12.48251167 4.23210144 11.45243835 C2.64734555 7.68207709 1.24122266 3.89690554 0 0 Z " fill="#FD3D01" transform="translate(267,434)"/>
<path d="M0 0 C0.66 0 1.32 0 2 0 C3.24016912 6.89919328 4.25064675 13.72837623 4.75390625 20.72265625 C4.93589858 23.16181977 4.93589858 23.16181977 6 26 C6.09151102 27.51363754 6.1279005 29.03096273 6.12939453 30.54736328 C6.13254669 31.46486359 6.13569885 32.38236389 6.13894653 33.32766724 C6.1369223 34.31524017 6.13489807 35.30281311 6.1328125 36.3203125 C6.13376923 37.33471405 6.13472595 38.3491156 6.13571167 39.39425659 C6.13639217 41.5377407 6.13454691 43.68122688 6.13037109 45.82470703 C6.12500999 49.11886172 6.13032616 52.41288075 6.13671875 55.70703125 C6.13605816 57.78645864 6.1347774 59.86588594 6.1328125 61.9453125 C6.13483673 62.9369339 6.13686096 63.9285553 6.13894653 64.95022583 C6.13579437 65.86142181 6.13264221 66.7726178 6.12939453 67.71142578 C6.12859894 68.51734161 6.12780334 69.32325745 6.12698364 70.15359497 C6 72 6 72 5 73 C4.666246 74.77995862 4.38769927 76.57032917 4.1328125 78.36328125 C3.96910156 79.47896484 3.80539062 80.59464844 3.63671875 81.74414062 C3.30176801 84.07984675 2.96837355 86.41577672 2.63671875 88.75195312 C0.36782141 104.16814319 0.36782141 104.16814319 -2 111 C-2.99 111.495 -2.99 111.495 -4 112 C-2.92277675 103.74944916 -1.3187672 95.58377223 0.18359375 87.40234375 C0.51037109 85.59830078 0.51037109 85.59830078 0.84375 83.7578125 C1.04162109 82.6764502 1.23949219 81.59508789 1.44335938 80.48095703 C2.58237428 73.35811731 3.16158801 66.35545863 3.203125 59.14453125 C3.20991272 58.32803604 3.21670044 57.51154083 3.22369385 56.67030334 C3.24054397 54.05099611 3.24688193 51.4318578 3.25 48.8125 C3.25233643 47.92137512 3.25467285 47.03025024 3.25708008 46.11212158 C3.26990489 33.16459459 2.58379149 20.67899956 0.28125 7.91308594 C-0.10802479 5.26520634 -0.10234537 2.66950834 0 0 Z " fill="#7BB7E7" transform="translate(629,352)"/>
<path d="M0 0 C0.33 0 0.66 0 1 0 C1.02777514 1.33320679 1.04673341 2.66659713 1.0625 4 C1.07410156 4.7425 1.08570313 5.485 1.09765625 6.25 C1 9 1 9 0.5065918 12.66064453 C-0.02535243 16.83267945 -0.17716024 20.97674702 -0.203125 25.1796875 C-0.20991272 25.94244995 -0.21670044 26.7052124 -0.22369385 27.49108887 C-0.2405951 29.95243453 -0.24688892 32.4136001 -0.25 34.875 C-0.25233643 35.7128302 -0.25467285 36.5506604 -0.25708008 37.41387939 C-0.27252266 52.11908049 0.75340954 66.44894509 3 81 C2.34 81 1.68 81 1 81 C-2.22098066 66.15864629 -3.41803199 51.70149508 -3.4375 36.5625 C-3.44322021 35.7747821 -3.44894043 34.98706421 -3.45483398 34.17547607 C-3.51434251 22.50603592 -2.23357729 11.44867901 0 0 Z " fill="#7DB7E6" transform="translate(168,363)"/>
<path d="M0 0 C1.27586975 0.00498505 1.27586975 0.00498505 2.57751465 0.0100708 C35.99480393 0.16320262 35.99480393 0.16320262 43.8125 5.375 C42.83023438 5.28412109 42.83023438 5.28412109 41.828125 5.19140625 C40.91546875 5.10761719 40.0028125 5.02382812 39.0625 4.9375 C38.18078125 4.85628906 37.2990625 4.77507812 36.390625 4.69140625 C35.20984375 4.58699219 34.0290625 4.48257813 32.8125 4.375 C31.62648193 4.25040405 31.62648193 4.25040405 30.41650391 4.12329102 C21.68734131 3.27595472 12.99527897 3.1888551 4.23339844 3.18969727 C1.7127158 3.18752176 -0.8075199 3.1693296 -3.328125 3.15039062 C-14.41146912 3.1134867 -25.2028201 3.91352254 -36.1875 5.375 C-35.8575 4.715 -35.5275 4.055 -35.1875 3.375 C-32.87974349 2.71310775 -30.67827819 2.20426556 -28.32421875 1.7734375 C-27.61230881 1.642789 -26.90039886 1.5121405 -26.16691589 1.37753296 C-17.4666234 -0.08265023 -8.79848296 -0.08159037 0 0 Z " fill="#7BB6E5" transform="translate(398.1875,164.625)"/>
<path d="M0 0 C0.66 0.33 1.32 0.66 2 1 C-0.31 6.61 -2.62 12.22 -5 18 C-7 15 -7 15 -7 12 C-7.66 12 -8.32 12 -9 12 C-9 12.66 -9 13.32 -9 14 C-9.66 14 -10.32 14 -11 14 C-11.33 13.01 -11.66 12.02 -12 11 C-12.99 11 -13.98 11 -15 11 C-15 11.99 -15 12.98 -15 14 C-18.95835609 17.0924657 -23.19194182 17.94059735 -28 19 C-25.78989457 16.62650666 -23.51210004 14.93332115 -20.76171875 13.22265625 C-19.94123047 12.70896484 -19.12074219 12.19527344 -18.27539062 11.66601562 C-17.42138672 11.13685547 -16.56738281 10.60769531 -15.6875 10.0625 C-14.00347939 9.01240299 -12.31987623 7.96163618 -10.63671875 6.91015625 C-9.4444165 6.16596436 -9.4444165 6.16596436 -8.22802734 5.40673828 C-5.45063848 3.65314255 -2.71984556 1.84133101 0 0 Z " fill="#F64109" transform="translate(531,434)"/>
<path d="M0 0 C0.66 0.33 1.32 0.66 2 1 C1.37344935 4.66402203 0.35781607 7.87061201 -1.06640625 11.30078125 C-1.46923828 12.27724609 -1.87207031 13.25371094 -2.28710938 14.25976562 C-2.70798828 15.26716797 -3.12886719 16.27457031 -3.5625 17.3125 C-4.19961914 18.85260742 -4.19961914 18.85260742 -4.84960938 20.42382812 C-5.89570928 22.95092341 -6.94595916 25.47620894 -8 28 C-8.66 28 -9.32 28 -10 28 C-12.31 22.39 -14.62 16.78 -17 11 C-16.01 11 -15.02 11 -14 11 C-14 12.32 -14 13.64 -14 15 C-13.34 15 -12.68 15 -12 15 C-11.67 15.99 -11.34 16.98 -11 18 C-10.34 16.02 -9.68 14.04 -9 12 C-7.68 12 -6.36 12 -5 12 C-5 11.01 -5 10.02 -5 9 C-4.01 8.67 -3.02 8.34 -2 8 C-1.19787372 6.12612784 -1.19787372 6.12612784 -0.8125 3.9375 C-0.65394531 3.20402344 -0.49539063 2.47054687 -0.33203125 1.71484375 C-0.16767578 0.86599609 -0.16767578 0.86599609 0 0 Z " fill="#EB4A18" transform="translate(409,721)"/>
<path d="M0 0 C2.59724306 2.59724306 3.65638138 5.56862821 5.0390625 8.90625 C5.46764053 9.92700623 5.46764053 9.92700623 5.90487671 10.96838379 C6.50732452 12.4064757 7.10733251 13.84559179 7.70507812 15.28564453 C8.62248847 17.49395446 9.54891406 19.69831796 10.4765625 21.90234375 C11.0604367 23.29925322 11.64378792 24.69638142 12.2265625 26.09375 C12.50464752 26.75524048 12.78273254 27.41673096 13.06924438 28.0982666 C15 32.76921972 15 32.76921972 15 35 C12.56070386 34.54994536 10.12388223 34.09035124 7.6875 33.625 C6.65206055 33.43550781 6.65206055 33.43550781 5.59570312 33.2421875 C2.16296686 32.57885682 -0.05246458 31.96502361 -3 30 C0.3 30 3.6 30 7 30 C7.35432642 23.62212448 7.2491873 19.49946094 4.08984375 13.9453125 C1.58489642 9.4741162 0 5.16613137 0 0 Z " fill="#71B5E9" transform="translate(325,659)"/>
<path d="M0 0 C3.59758392 1.32273512 6.63737135 2.9194198 9.8125 5.0625 C10.99779297 5.85333984 10.99779297 5.85333984 12.20703125 6.66015625 C12.79871094 7.10230469 13.39039063 7.54445313 14 8 C14 8.33 14 8.66 14 9 C12.35 9 10.7 9 9 9 C9.66 12.3 10.32 15.6 11 19 C11.66 19 12.32 19 13 19 C13 22.63 13 26.26 13 30 C11.04045279 27.06067919 9.76956899 24.30370498 8.3984375 21.0546875 C7.90859375 19.89582031 7.41875 18.73695313 6.9140625 17.54296875 C6.40617187 16.33253906 5.89828125 15.12210937 5.375 13.875 C4.85441073 12.64442797 4.33358006 11.41395804 3.8125 10.18359375 C0 1.13647073 0 1.13647073 0 0 Z M10 14 C12 15 12 15 12 15 Z " fill="#F83C05" transform="translate(267,434)"/>
<path d="M0 0 C0.66 0 1.32 0 2 0 C-0.31252143 7.36165991 -3.16190727 14.45910934 -6.13354492 21.57470703 C-6.93543778 23.49506143 -7.73275733 25.41726353 -8.52929688 27.33984375 C-11.26681363 33.93310326 -14.06445846 40.49229345 -17 47 C-17.33 47 -17.66 47 -18 47 C-18 45.35 -18 43.7 -18 42 C-17.34 42 -16.68 42 -16 42 C-16 40.35 -16 38.7 -16 37 C-15.34 37 -14.68 37 -14 37 C-13.855625 36.278125 -13.71125 35.55625 -13.5625 34.8125 C-13.04166667 32.20833333 -12.52083333 29.60416667 -12 27 C-11.34 27 -10.68 27 -10 27 C-9.855625 26.2575 -9.71125 25.515 -9.5625 24.75 C-9.09812508 22.47972261 -8.58136431 20.24240521 -8 18 C-7.34 18 -6.68 18 -6 18 C-5.83165067 16.22932584 -5.66538091 14.45845388 -5.5 12.6875 C-5.4071875 11.70136719 -5.314375 10.71523438 -5.21875 9.69921875 C-4.95961143 6.95297861 -4.95961143 6.95297861 -5 4 C-3.68 4 -2.36 4 -1 4 C-0.67 2.68 -0.34 1.36 0 0 Z " fill="#E44F21" transform="translate(437,656)"/>
<path d="M0 0 C1.18029454 3.92696128 0.56886395 5.91561903 -0.9375 9.75 C-1.31777344 10.73484375 -1.69804687 11.7196875 -2.08984375 12.734375 C-2.39019531 13.48203125 -2.69054687 14.2296875 -3 15 C-3.66 15 -4.32 15 -5 15 C-5.33 17.64 -5.66 20.28 -6 23 C-5.01 23 -4.02 23 -3 23 C-3 23.33 -3 23.66 -3 24 C-0.36 24.33 2.28 24.66 5 25 C1.55080374 27.29946417 -1.1381022 27.80769035 -5.1875 28.625 C-7.09595703 29.01558594 -7.09595703 29.01558594 -9.04296875 29.4140625 C-10.50669922 29.70410156 -10.50669922 29.70410156 -12 30 C-9.8197371 23.12052968 -7.19745965 16.54944102 -4.3125 9.9375 C-3.89677734 8.97650391 -3.48105469 8.01550781 -3.05273438 7.02539062 C-2.03848513 4.68212514 -1.02085998 2.34039113 0 0 Z " fill="#72B4E8" transform="translate(472,664)"/>
<path d="M0 0 C0.66 0 1.32 0 2 0 C4.03435531 3.72965139 5 5.66905042 5 10 C5.66 10 6.32 10 7 10 C7.20625 10.886875 7.4125 11.77375 7.625 12.6875 C9.01604124 17.66275701 11.39039052 22.19363155 13.66015625 26.81640625 C14.96990857 29.92849995 15.59326509 32.66075664 16 36 C16.66 36 17.32 36 18 36 C19.42258812 39.82320557 20.24042276 42.91281305 20 47 C18.34925258 44.52387887 17.25481666 42.44088258 16.12060547 39.72802734 C15.760383 38.87058929 15.40016052 38.01315125 15.02902222 37.12973022 C14.45391403 35.74680283 14.45391403 35.74680283 13.8671875 34.3359375 C13.47048859 33.38812408 13.07378967 32.44031067 12.66506958 31.46377563 C11.8281026 29.46215723 10.99268108 27.459892 10.15869141 25.45703125 C8.87650493 22.3786132 7.58903473 19.30244586 6.30078125 16.2265625 C5.48927053 14.28398481 4.67806213 12.34128079 3.8671875 10.3984375 C3.47973358 9.47243744 3.09227966 8.54643738 2.69308472 7.59237671 C2.33916656 6.74124298 1.98524841 5.89010925 1.62060547 5.01318359 C1.15000198 3.88425186 1.15000198 3.88425186 0.66989136 2.73251343 C0 1 0 1 0 0 Z " fill="#E44E22" transform="translate(372,683)"/>
<path d="M0 0 C0.99 0.33 1.98 0.66 3 1 C2.07058594 1.78503906 1.14117187 2.57007813 0.18359375 3.37890625 C-6.11379936 8.72297355 -12.22301177 14.08866321 -18 20 C-18.33 20 -18.66 20 -19 20 C-19.125 17.625 -19.125 17.625 -19 15 C-18.34 14.34 -17.68 13.68 -17 13 C-15.68 13 -14.36 13 -13 13 C-12.938125 12.29875 -12.87625 11.5975 -12.8125 10.875 C-11.70798798 6.9667267 -9.71769008 4.99642752 -7 2 C-6.67 2.66 -6.34 3.32 -6 4 C-4.02 3.34 -2.04 2.68 0 2 C0 1.34 0 0.68 0 0 Z " fill="#72B6EB" transform="translate(253,216)"/>
<path d="M0 0 C0.33 0.99 0.66 1.98 1 3 C1.66 3 2.32 3 3 3 C2.67 3.99 2.34 4.98 2 6 C1.175 6.309375 0.35 6.61875 -0.5 6.9375 C-1.325 7.288125 -2.15 7.63875 -3 8 C-3.88693303 10.04105639 -3.88693303 10.04105639 -4 12 C-6.07553648 12.5534764 -7.84365964 13 -10 13 C-11.41694624 14.11534724 -12.78679815 15.29130156 -14.125 16.5 C-14.84945312 17.1496875 -15.57390625 17.799375 -16.3203125 18.46875 C-16.87460937 18.9740625 -17.42890625 19.479375 -18 20 C-18.66 19.67 -19.32 19.34 -20 19 C-19.57178955 18.60208252 -19.1435791 18.20416504 -18.70239258 17.79418945 C-16.73819579 15.96792411 -14.77533995 14.14022353 -12.8125 12.3125 C-12.13896484 11.68666016 -11.46542969 11.06082031 -10.77148438 10.41601562 C-7.11251634 7.00692833 -3.50895212 3.56346011 0 0 Z " fill="#6BB4ED" transform="translate(569,560)"/>
<path d="M0 0 C2.9765625 2.6640625 2.9765625 2.6640625 3.1875 5.6875 C3.125625 6.450625 3.06375 7.21375 3 8 C2.34 7.67 1.68 7.34 1 7 C0.67 7.66 0.34 8.32 0 9 C-0.66 9 -1.32 9 -2 9 C-1.979375 9.969375 -1.95875 10.93875 -1.9375 11.9375 C-2 15 -2 15 -3 16 C-3.36760731 18.32817964 -3.70241581 20.6618385 -4 23 C-4.99 23 -5.98 23 -7 23 C-7.66 23.33 -8.32 23.66 -9 24 C-6.80148049 15.63019764 -3.50929804 7.88172441 0 0 Z " fill="#FDEDE0" transform="translate(497,518)"/>
<path d="M0 0 C5.97706566 2.85269043 11.47683622 6.10298891 17 9.75 C18.16208984 10.50990234 18.16208984 10.50990234 19.34765625 11.28515625 C21.2343132 12.51963549 23.11832738 13.75794226 25 15 C24.360625 15.12375 23.72125 15.2475 23.0625 15.375 C22.381875 15.58125 21.70125 15.7875 21 16 C20.67 16.66 20.34 17.32 20 18 C19.34 18 18.68 18 18 18 C17 15 17 15 17 13 C15.54688391 11.67372219 15.54688391 11.67372219 13.6875 10.4375 C13.07261719 10.00308594 12.45773437 9.56867188 11.82421875 9.12109375 C9.88952097 7.83689445 9.88952097 7.83689445 7 7 C6.67 7.66 6.34 8.32 6 9 C4.68 8.34 3.36 7.68 2 7 C2.33 5.68 2.66 4.36 3 3 C2.01 2.67 1.02 2.34 0 2 C0 1.34 0 0.68 0 0 Z " fill="#EA4A1A" transform="translate(299,454)"/>
<path d="M0 0 C1.65 0 3.3 0 5 0 C1.65787199 7.17334792 -2.07455807 13.97173309 -6.25 20.6875 C-6.68618652 21.39455078 -7.12237305 22.10160156 -7.57177734 22.83007812 C-10.75025832 27.87512916 -10.75025832 27.87512916 -13 29 C-12.3547078 26.06984666 -11.4319105 23.51243525 -10.125 20.8125 C-9.79757812 20.11769531 -9.47015625 19.42289063 -9.1328125 18.70703125 C-8 17 -8 17 -5 16 C-4.7834375 14.824375 -4.7834375 14.824375 -4.5625 13.625 C-4 11 -4 11 -3 9 C-2.34 9 -1.68 9 -1 9 C-0.31292445 6.50935112 0 4.62113708 0 2 C0 1.34 0 0.68 0 0 Z " fill="#76B5E5" transform="translate(660,540)"/>
<path d="M0 0 C0.33 0 0.66 0 1 0 C1.2537426 7.48540677 0.49747338 14.65472912 -1 22 C-1.33 22.33 -1.66 22.66 -2 23 C-2.23678716 25.69235776 -2.42198025 28.36498156 -2.5625 31.0625 C-2.60568359 31.82111328 -2.64886719 32.57972656 -2.69335938 33.36132812 C-2.79973633 35.24065438 -2.90039934 37.12030244 -3 39 C-5 37 -5 37 -5.1171875 34.04296875 C-4.39110474 22.48419959 -2.37737264 11.32680111 0 0 Z " fill="#80BAE7" transform="translate(106,339)"/>
<path d="M0 0 C0 0.99 0 1.98 0 3 C-5.52631579 5.95593635 -5.52631579 5.95593635 -8.6875 6.25 C-11.33720813 6.81335412 -11.33720813 6.81335412 -12.5625 9.9375 C-13.05271956 11.28770474 -13.53045862 12.64246586 -14 14 C-14.70148209 15.77355848 -15.4100443 17.54433 -16.125 19.3125 C-16.45757812 20.15425781 -16.79015625 20.99601563 -17.1328125 21.86328125 C-18 24 -18 24 -19 26 C-19.66 25.67 -20.32 25.34 -21 25 C-14.46383564 5.74781766 -14.46383564 5.74781766 -7.125 1.8125 C-4.59314584 0.75814848 -2.73392014 0 0 0 Z " fill="#7DB7E6" transform="translate(506,608)"/>
<path d="M0 0 C0.66 0 1.32 0 2 0 C2.99 2.31 3.98 4.62 5 7 C5.66 6.67 6.32 6.34 7 6 C7 8.31 7 10.62 7 13 C7.33 12.34 7.66 11.68 8 11 C8.66 11.33 9.32 11.66 10 12 C9.979375 12.99 9.95875 13.98 9.9375 15 C9.92918572 19.06568074 10.43531533 22.97662176 11 27 C8.17521191 22.76281787 6.37607307 18.17125495 4.375 13.5 C3.95476562 12.53707031 3.53453125 11.57414063 3.1015625 10.58203125 C2.50601562 9.19564453 2.50601562 9.19564453 1.8984375 7.78125 C1.53411621 6.93626953 1.16979492 6.09128906 0.79443359 5.22070312 C0 3 0 3 0 0 Z " fill="#EA4A19" transform="translate(333,589)"/>
<path d="M0 0 C0.96679688 0.51949219 1.93359375 1.03898438 2.9296875 1.57421875 C3.55601074 1.9096167 4.18233398 2.24501465 4.82763672 2.59057617 C6.19747905 3.32450195 7.56628943 4.06035696 8.93408203 4.7980957 C13.61725468 7.31014021 18.3528497 9.60955128 23.2421875 11.69921875 C25 13 25 13 25.7578125 15.64453125 C25.83773438 16.42183594 25.91765625 17.19914063 26 18 C25.34 18 24.68 18 24 18 C23.9278125 17.37351562 23.855625 16.74703125 23.78125 16.1015625 C23.20589028 13.80982055 23.20589028 13.80982055 20.96875 13.0234375 C20.1540625 12.80945313 19.339375 12.59546875 18.5 12.375 C16.03125 11.7109375 16.03125 11.7109375 14 11 C13.67 10.34 13.34 9.68 13 9 C10.47266765 8.34444881 10.47266765 8.34444881 8 8 C8 7.34 8 6.68 8 6 C7.05125 5.7525 6.1025 5.505 5.125 5.25 C2 4 2 4 0.8046875 1.921875 C0.53914063 1.28765625 0.27359375 0.6534375 0 0 Z " fill="#7AB7E6" transform="translate(282,601)"/>
<path d="M0 0 C-3.45206166 1.23920162 -6.85002587 2.20649072 -10.4375 2.9375 C-13.85203969 3.66351508 -16.79305018 4.74197719 -19.9765625 6.19921875 C-25.71338036 8.46958103 -31.95198914 10.74901717 -38 9 C-33.83442822 7.7047844 -29.66735353 6.4144702 -25.5 5.125 C-24.32695312 4.76019531 -23.15390625 4.39539063 -21.9453125 4.01953125 C-4.50798427 -1.36840725 -4.50798427 -1.36840725 0 0 Z " fill="#7CB6E4" transform="translate(337,108)"/>
<path d="M0 0 C3.62276315 1.3255581 6.63505348 2.94346955 9.8125 5.125 C10.60269531 5.66382813 11.39289063 6.20265625 12.20703125 6.7578125 C12.79871094 7.16773438 13.39039063 7.57765625 14 8 C12 9 12 9 8.875 8.0625 C7.92625 7.711875 6.9775 7.36125 6 7 C6 6.34 6 5.68 6 5 C5.34 5 4.68 5 4 5 C4.72123047 5.58201172 4.72123047 5.58201172 5.45703125 6.17578125 C7.45749498 8.54088647 7.48876068 10.12691453 7.6875 13.1875 C7.75324219 14.08855469 7.81898438 14.98960937 7.88671875 15.91796875 C7.92410156 16.60503906 7.96148437 17.29210937 8 18 C5.84575398 14.76863097 4.37764626 11.43389904 2.875 7.875 C2.59785156 7.22917969 2.32070313 6.58335937 2.03515625 5.91796875 C0 1.13585283 0 1.13585283 0 0 Z " fill="#E35329" transform="translate(267,434)"/>
<path d="M0 0 C1.65 0 3.3 0 5 0 C1.41057681 3.82285276 -2.93185348 6.41993704 -7.3125 9.25 C-8.15490234 9.8171875 -8.99730469 10.384375 -9.86523438 10.96875 C-16.12844411 15.00384369 -16.12844411 15.00384369 -20.54296875 14.984375 C-23 14 -23 14 -24 12 C-23.01 12.103125 -22.02 12.20625 -21 12.3125 C-16.71692997 12.35611578 -14.11388973 10.50884146 -10.69921875 8.09375 C-9 7 -9 7 -7 7 C-6.67 6.01 -6.34 5.02 -6 4 C-4.68 4 -3.36 4 -2 4 C-2 3.34 -2 2.68 -2 2 C-1.34 2 -0.68 2 0 2 C0 1.34 0 0.68 0 0 Z " fill="#FEE4D0" transform="translate(419,501)"/>
<path d="M0 0 C1.32 0 2.64 0 4 0 C4 0.66 4 1.32 4 2 C4.66386719 1.99355469 5.32773437 1.98710938 6.01171875 1.98046875 C9.10826954 2.22005589 11.2127352 2.59362096 14 4 C16.82703331 8.50253797 19.47960429 14.00610655 18.61328125 19.4140625 C18.41089844 19.93742188 18.20851563 20.46078125 18 21 C17.70609375 20.05898438 17.4121875 19.11796875 17.109375 18.1484375 C14.63054668 11.02109048 12.7609863 6.60020846 5.625 3.125 C3.76809931 2.37049291 1.89776257 1.64487078 0 1 C0 0.67 0 0.34 0 0 Z " fill="#E4FAFE" transform="translate(294,607)"/>
<path d="M0 0 C-7.50404655 4.74001686 -14.95463629 9.22249288 -23 13 C-22.67 11.68 -22.34 10.36 -22 9 C-20.35 9 -18.7 9 -17 9 C-17 8.34 -17 7.68 -17 7 C-16.01 7 -15.02 7 -14 7 C-13.67 6.01 -13.34 5.02 -13 4 C-11.68 4 -10.36 4 -9 4 C-8.67 3.01 -8.34 2.02 -8 1 C-2.59770115 -1.29885057 -2.59770115 -1.29885057 0 0 Z " fill="#76B5E6" transform="translate(563,652)"/>
<path d="M0 0 C0.66 0 1.32 0 2 0 C2.66 0.99 3.32 1.98 4 3 C4.66 3 5.32 3 6 3 C6 3.66 6 4.32 6 5 C6.66 5 7.32 5 8 5 C8 5.66 8 6.32 8 7 C7.01 7 6.02 7 5 7 C5.28875 7.61488281 5.5775 8.22976563 5.875 8.86328125 C6.24625 9.67152344 6.6175 10.47976563 7 11.3125 C7.37125 12.11300781 7.7425 12.91351562 8.125 13.73828125 C9 16 9 16 9 19 C9.66 19 10.32 19 11 19 C11 20.98 11 22.96 11 25 C9.24905956 22.37358934 8.06855068 20.03248145 6.8359375 17.1484375 C6.43632812 16.21515625 6.03671875 15.281875 5.625 14.3203125 C5.2125 13.34835937 4.8 12.37640625 4.375 11.375 C3.95476562 10.3953125 3.53453125 9.415625 3.1015625 8.40625 C0 1.13570414 0 1.13570414 0 0 Z " fill="#E94C1F" transform="translate(344,617)"/>
<path d="M0 0 C0.33 0.66 0.66 1.32 1 2 C0.08892907 4.09010389 -0.89804997 6.00786257 -2 8 C-3.0424665 9.89539364 -4.08407442 11.79125967 -5.125 13.6875 C-5.64320313 14.61949219 -6.16140625 15.55148437 -6.6953125 16.51171875 C-8.09666681 19.0225398 -8.09666681 19.0225398 -9 22 C-9.66 22 -10.32 22 -11 22 C-11 22.66 -11 23.32 -11 24 C-11.66 24 -12.32 24 -13 24 C-11.4691271 18.51510109 -8.85170412 14.02252324 -5.9375 9.1875 C-5.47794922 8.41212891 -5.01839844 7.63675781 -4.54492188 6.83789062 C-1.16502638 1.16502638 -1.16502638 1.16502638 0 0 Z " fill="#E3F7FE" transform="translate(204,273)"/>
<path d="M0 0 C0.99 0.33 1.98 0.66 3 1 C0.21312902 2.84070559 -2.58025127 4.67128178 -5.375 6.5 C-6.1690625 7.02464844 -6.963125 7.54929687 -7.78125 8.08984375 C-8.54179687 8.58613281 -9.30234375 9.08242188 -10.0859375 9.59375 C-10.7876709 10.05458984 -11.4894043 10.51542969 -12.21240234 10.99023438 C-14 12 -14 12 -16 12 C-16 11.34 -16 10.68 -16 10 C-15.01 10 -14.02 10 -13 10 C-13 8.02 -13 6.04 -13 4 C-11.96875 4.0825 -10.9375 4.165 -9.875 4.25 C-5.38142014 3.96009162 -3.60961485 2.54313773 0 0 Z " fill="#FEEBDE" transform="translate(520,439)"/>
<path d="M0 0 C0.66 0 1.32 0 2 0 C-0.37086553 9.82921333 -4.80406523 18.85066954 -9 28 C-10.09658936 24.71023192 -9.79953138 23.28696233 -9 20 C-8.34 20 -7.68 20 -7 20 C-6.34 17.03 -5.68 14.06 -5 11 C-4.34 11 -3.68 11 -3 11 C-2.87625 10.29875 -2.7525 9.5975 -2.625 8.875 C-1.96161655 5.82343613 -1.02788045 2.94659062 0 0 Z " fill="#E34F23" transform="translate(506,492)"/>
<path d="M0 0 C2.16874252 0.50603992 3.99967627 0.99983813 6 2 C8.3400417 1.71758117 10.67504723 1.38749213 13 1 C9.82848903 3.11434065 7.13567139 4.01955937 3.5 5.125 C2.3553125 5.47820313 1.210625 5.83140625 0.03125 6.1953125 C-3 7 -3 7 -6 7 C-5.67 5.68 -5.34 4.36 -5 3 C-3.68 3 -2.36 3 -1 3 C-0.67 2.01 -0.34 1.02 0 0 Z " fill="#72B5EB" transform="translate(485,682)"/>
<path d="M0 0 C2.8601731 2.8601731 3.77745477 6.39184838 5.125 10.125 C5.54072266 11.25615234 5.54072266 11.25615234 5.96484375 12.41015625 C6.64817 14.27163121 7.32473389 16.13558602 8 18 C4 18 4 18 2 17 C2 14.69 2 12.38 2 10 C1.67 10 1.34 10 1 10 C0.67 6.7 0.34 3.4 0 0 Z " fill="#FDECDD" transform="translate(304,523)"/>
<path d="M0 0 C0.33 0 0.66 0 1 0 C1.71513514 20.73891892 1.71513514 20.73891892 -5 28 C-4.30654365 21.7515933 -3.20358931 15.65596779 -1.9375 9.5 C-1.75123047 8.5821875 -1.56496094 7.664375 -1.37304688 6.71875 C-0.91801873 4.47861146 -0.46028733 2.23906274 0 0 Z " fill="#DAF3FD" transform="translate(695,450)"/>
<path d="M0 0 C1.44497027 5.07896267 0.35605555 9.28788891 -2 14 C-2.66 14 -3.32 14 -4 14 C-4.12375 14.5775 -4.2475 15.155 -4.375 15.75 C-5.00648824 18.02335767 -5.88858191 19.9253529 -7 22 C-8.1817019 18.4548943 -7.7911988 17.85982494 -6.34765625 14.55078125 C-5.98349609 13.70322266 -5.61933594 12.85566406 -5.24414062 11.98242188 C-4.65922852 10.66081055 -4.65922852 10.66081055 -4.0625 9.3125 C-3.67642578 8.41982422 -3.29035156 7.52714844 -2.89257812 6.60742188 C-1.93688877 4.40107732 -0.97244531 2.19899853 0 0 Z " fill="#FDE8D9" transform="translate(445,642)"/>
<path d="M0 0 C1.83553796 2.75330694 2.40778129 4.11657204 3.0703125 7.23046875 C3.33134766 8.43413086 3.33134766 8.43413086 3.59765625 9.66210938 C3.77167969 10.49548828 3.94570312 11.32886719 4.125 12.1875 C4.30675781 13.03248047 4.48851562 13.87746094 4.67578125 14.74804688 C5.12292753 16.8308072 5.56222376 18.91525006 6 21 C5.34 20.67 4.68 20.34 4 20 C3.375 17.9375 3.375 17.9375 3 16 C2.01 16 1.02 16 0 16 C0 14.68 0 13.36 0 12 C-0.66 11.67 -1.32 11.34 -2 11 C-1.67 10.67 -1.34 10.34 -1 10 C-0.76712992 8.31816052 -0.58735834 6.6287584 -0.4375 4.9375 C-0.35371094 4.01839844 -0.26992187 3.09929687 -0.18359375 2.15234375 C-0.12300781 1.44207031 -0.06242188 0.73179687 0 0 Z " fill="#75B7EA" transform="translate(171,448)"/>
<path d="M0 0 C0.66 0.33 1.32 0.66 2 1 C0.35 4.96 -1.3 8.92 -3 13 C-4 9 -4 9 -3 6 C-4.97536745 6.34786708 -4.97536745 6.34786708 -7 7 C-7.33 7.66 -7.66 8.32 -8 9 C-9.32 8.67 -10.64 8.34 -12 8 C-8.04 5.36 -4.08 2.72 0 0 Z " fill="#E15428" transform="translate(531,434)"/>
<path d="M0 0 C2.6441363 3.96620445 4.33292752 8.18337859 6.1875 12.5625 C6.56841797 13.43841797 6.94933594 14.31433594 7.34179688 15.21679688 C7.69693359 16.05404297 8.05207031 16.89128906 8.41796875 17.75390625 C8.74563232 18.52033447 9.0732959 19.2867627 9.41088867 20.07641602 C10 22 10 22 9 24 C7 21 7 21 7 18 C6.01 17.67 5.02 17.34 4 17 C3.34 13.7 2.68 10.4 2 7 C1.34 7 0.68 7 0 7 C0 4.69 0 2.38 0 0 Z " fill="#79B6E5" transform="translate(313,630)"/>
<path d="M0 0 C0.33 0.99 0.66 1.98 1 3 C-0.1446875 3.8971875 -0.1446875 3.8971875 -1.3125 4.8125 C-3.93086132 6.78002672 -3.93086132 6.78002672 -5.375 8.75 C-8.03453157 10.79579352 -10.77610921 10.18248438 -14 10 C-11.44928686 7.17071068 -8.53378728 5.32106736 -5.3125 3.3125 C-4.31863281 2.68988281 -3.32476562 2.06726563 -2.30078125 1.42578125 C-1.54152344 0.95527344 -0.78226562 0.48476563 0 0 Z " fill="#E95023" transform="translate(488,461)"/>
<path d="M0 0 C0.66 0.33 1.32 0.66 2 1 C0.61068357 2.44379943 -0.78676578 3.87977512 -2.1875 5.3125 C-2.96480469 6.11300781 -3.74210938 6.91351562 -4.54296875 7.73828125 C-6.90305695 9.91076308 -9.19647888 11.46130013 -12 13 C-11.39735099 7.57615894 -11.39735099 7.57615894 -9.75 5.1875 C-7.56277518 3.70331173 -5.57518929 3.51503786 -3 3 C-1.20614008 1.5420814 -1.20614008 1.5420814 0 0 Z " fill="#72B4EA" transform="translate(605,616)"/>
<path d="M0 0 C0.92840128 2.50781565 1.16613255 3.60579952 0.109375 6.11328125 C-0.33921875 6.83902344 -0.7878125 7.56476562 -1.25 8.3125 C-3.5180562 12.12839399 -5.33747204 15.88743083 -7 20 C-7.66 20 -8.32 20 -9 20 C-9.33 20.99 -9.66 21.98 -10 23 C-10.66 22.67 -11.32 22.34 -12 22 C-11.70754395 21.47567383 -11.41508789 20.95134766 -11.11376953 20.41113281 C-9.78327937 18.02458918 -8.45412724 15.63730292 -7.125 13.25 C-6.43470703 12.0125 -6.43470703 12.0125 -5.73046875 10.75 C-5.28574219 9.95078125 -4.84101562 9.1515625 -4.3828125 8.328125 C-3.97434082 7.5949707 -3.56586914 6.86181641 -3.14501953 6.10644531 C-2.04989264 4.09178544 -1.01238002 2.05728631 0 0 Z " fill="#E1F7FD" transform="translate(666,537)"/>
<path d="M0 0 C0.66 0.33 1.32 0.66 2 1 C-6.4640748 8.73474409 -6.4640748 8.73474409 -11 11.875 C-14.03009465 13.66737491 -14.03009465 13.66737491 -15 16 C-18.0625 16.625 -18.0625 16.625 -21 17 C-17.66463728 13.39713952 -13.94934979 10.71621631 -9.9375 7.9375 C-4.69671073 4.29934884 -4.69671073 4.29934884 0 0 Z " fill="#7CB5E3" transform="translate(547,580)"/>
<path d="M0 0 C3.16860855 2.65478014 4.50301588 5.83999806 6.1875 9.5625 C6.71730469 10.71878906 7.24710938 11.87507813 7.79296875 13.06640625 C9 16 9 16 9 18 C8.01 18.33 7.02 18.66 6 19 C4.72746564 15.35206816 3.67170806 11.8063457 3 8 C2.34 8 1.68 8 1 8 C0.67 5.36 0.34 2.72 0 0 Z " fill="#74B4E8" transform="translate(185,493)"/>
<path d="M0 0 C1.32 0.33 2.64 0.66 4 1 C0.8796258 3.00728948 -2.24703035 5.00457109 -5.375 7 C-6.26445312 7.57234375 -7.15390625 8.1446875 -8.0703125 8.734375 C-8.92109375 9.27578125 -9.771875 9.8171875 -10.6484375 10.375 C-11.43395996 10.87773437 -12.21948242 11.38046875 -13.02880859 11.8984375 C-15 13 -15 13 -17 13 C-16.67 12.01 -16.34 11.02 -16 10 C-15.01 10 -14.02 10 -13 10 C-13 9.34 -13 8.68 -13 8 C-11.75264433 7.3490741 -10.50198168 6.70448331 -9.25 6.0625 C-8.55390625 5.70285156 -7.8578125 5.34320313 -7.140625 4.97265625 C-5 4 -5 4 -2.796875 3.55859375 C-2.20390625 3.37425781 -1.6109375 3.18992187 -1 3 C-0.67 2.01 -0.34 1.02 0 0 Z " fill="#FEE5D3" transform="translate(460,476)"/>
<path d="M0 0 C-3.16870924 2.56405217 -6.45644204 4.30033027 -10.125 6.0625 C-14.39350744 8.06356256 -14.39350744 8.06356256 -18 11 C-18.33 10.01 -18.66 9.02 -19 8 C-18.67 7.34 -18.34 6.68 -18 6 C-15.68060793 5.2863409 -13.34476551 4.6252708 -11 4 C-9.32367583 3.35800351 -7.65249487 2.70105843 -6 2 C-6 1.34 -6 0.68 -6 0 C-3 -1 -3 -1 0 0 Z " fill="#E6FBFD" transform="translate(510,605)"/>
<path d="M0 0 C0.66 0.33 1.32 0.66 2 1 C0.73768339 3.92042535 -0.53633386 6.83560306 -1.8125 9.75 C-2.16892578 10.575 -2.52535156 11.4 -2.89257812 12.25 C-3.24384766 13.04921875 -3.59511719 13.8484375 -3.95703125 14.671875 C-4.43619995 15.77160645 -4.43619995 15.77160645 -4.92504883 16.89355469 C-6.07170371 19.14050866 -7.43449236 21.02703147 -9 23 C-9.37719697 18.59936872 -8.26899521 16.69762183 -6 13 C-4.91174056 10.74139829 -3.84994865 8.46988703 -2.8125 6.1875 C-2.01779297 4.44533203 -2.01779297 4.44533203 -1.20703125 2.66796875 C-0.80871094 1.78753906 -0.41039062 0.90710938 0 0 Z " fill="#DFF7FE" transform="translate(614,488)"/>
<path d="M0 0 C2.32100162 3.48150244 3.67675155 7.10566684 5.125 11 C5.40214844 11.72445313 5.67929688 12.44890625 5.96484375 13.1953125 C7.11095711 16.25537872 8 18.70542099 8 22 C7.34 22 6.68 22 6 22 C5.67 20.02 5.34 18.04 5 16 C4.01 15.67 3.02 15.34 2 15 C1.66223316 13.2508503 1.32996329 11.50063855 1 9.75 C0.814375 8.77546875 0.62875 7.8009375 0.4375 6.796875 C0 4 0 4 0 0 Z " fill="#7AB8E9" transform="translate(177,470)"/>
<path d="M0 0 C0 3 0 3 -2 6 C-0.68 6 0.64 6 2 6 C1.67 6.99 1.34 7.98 1 9 C-1.06640625 9.94921875 -1.06640625 9.94921875 -3.5625 10.6875 C-4.80193359 11.06455078 -4.80193359 11.06455078 -6.06640625 11.44921875 C-6.70449219 11.63097656 -7.34257812 11.81273437 -8 12 C-7.23570339 10.55901389 -6.46327445 9.12233946 -5.6875 7.6875 C-5.25824219 6.88699219 -4.82898438 6.08648437 -4.38671875 5.26171875 C-3.09940446 3.16212728 -1.81593292 1.64552279 0 0 Z " fill="#6BB3EB" transform="translate(166,212)"/>
<path d="M0 0 C0.33 0.99 0.66 1.98 1 3 C0.29875 3.43570313 -0.4025 3.87140625 -1.125 4.3203125 C-6.95262843 7.97841622 -12.57980499 11.76013399 -18 16 C-18.66 15.67 -19.32 15.34 -20 15 C-17.23033367 12.87347549 -14.45906702 10.74904651 -11.6875 8.625 C-10.90181641 8.02171875 -10.11613281 7.4184375 -9.30664062 6.796875 C-8.54931641 6.21679688 -7.79199219 5.63671875 -7.01171875 5.0390625 C-6.31522217 4.50490723 -5.61872559 3.97075195 -4.90112305 3.42041016 C-3.30516646 2.22800288 -1.65762139 1.10508093 0 0 Z " fill="#E1F8FE" transform="translate(271,205)"/>
<path d="M0 0 C6.57879137 2.19293046 12.14941317 5.2954276 18 9 C15.11604263 10.44197868 12.17569521 10.58833581 9 11 C9.33 9.35 9.66 7.7 10 6 C8.68 6.33 7.36 6.66 6 7 C5.67 6.01 5.34 5.02 5 4 C2.49552484 2.78130071 2.49552484 2.78130071 0 2 C0 1.34 0 0.68 0 0 Z " fill="#71B5E9" transform="translate(528,129)"/>
<path d="M0 0 C2.475 0.495 2.475 0.495 5 1 C5 1.66 5 2.32 5 3 C5.53625 3.103125 6.0725 3.20625 6.625 3.3125 C9.62502044 4.18092697 12.2379535 5.55620296 15 7 C15 7.66 15 8.32 15 9 C17.475 9.495 17.475 9.495 20 10 C20 10.66 20 11.32 20 12 C15.28914613 10.62749022 11.3165464 8.59889808 7.1875 6 C6.60291016 5.64421875 6.01832031 5.2884375 5.41601562 4.921875 C1.12991071 2.25982143 1.12991071 2.25982143 0 0 Z " fill="#79B4E5" transform="translate(239,652)"/>
<path d="M0 0 C-5.61 3.96 -11.22 7.92 -17 12 C-17.33 11.01 -17.66 10.02 -18 9 C-17.34 8.34 -16.68 7.68 -16 7 C-14.68 7 -13.36 7 -12 7 C-12 6.34 -12 5.68 -12 5 C-11.01 5 -10.02 5 -9 5 C-8.62875 4.071875 -8.62875 4.071875 -8.25 3.125 C-6.05756043 -0.60214727 -4.06146667 -1.35382222 0 0 Z " fill="#E1F6FD" transform="translate(543,585)"/>
<path d="M0 0 C7.36698315 4.27841977 14.70761551 8.59552884 22 13 C18.85179059 14.04940314 18.00659136 14.066855 15 13 C13 11 13 11 12 9 C11.29875 8.731875 10.5975 8.46375 9.875 8.1875 C6.21606461 6.6762006 2.95215293 4.65438534 0 2 C0 1.34 0 0.68 0 0 Z " fill="#E54D20" transform="translate(370,498)"/>
<path d="M0 0 C0.66 0.33 1.32 0.66 2 1 C0.35 1.66 -1.3 2.32 -3 3 C-3 3.66 -3 4.32 -3 5 C-3.88042969 5.26554687 -4.76085937 5.53109375 -5.66796875 5.8046875 C-6.82941406 6.15789062 -7.99085938 6.51109375 -9.1875 6.875 C-10.33605469 7.22304687 -11.48460937 7.57109375 -12.66796875 7.9296875 C-15.50871157 8.84218871 -18.24885465 9.84980364 -21 11 C-21 10.34 -21 9.68 -21 9 C-18.43792942 7.87401363 -15.87536301 6.74918012 -13.3125 5.625 C-12.59126953 5.30789062 -11.87003906 4.99078125 -11.12695312 4.6640625 C-9.72102404 4.04776482 -8.31366825 3.43470977 -6.90478516 2.82519531 C-5.30071663 2.13027713 -3.70239349 1.42211856 -2.10546875 0.7109375 C-1.41066406 0.47632812 -0.71585937 0.24171875 0 0 Z " fill="#7AB7E7" transform="translate(296,118)"/>
<path d="M0 0 C1.23642182 3.52093631 0.73593563 5.63076944 -0.4375 9.125 C-1.61678198 12.49839463 -1.61678198 12.49839463 -2 16 C-4.5 17.625 -4.5 17.625 -7 19 C-5.17778624 12.38757278 -2.94776396 6.19479329 0 0 Z " fill="#FDE4D4" transform="translate(415,713)"/>
<path d="M0 0 C0.33 0.66 0.66 1.32 1 2 C0.09176973 4.43557572 -0.86828071 6.76195517 -1.9375 9.125 C-2.22818359 9.78371094 -2.51886719 10.44242188 -2.81835938 11.12109375 C-3.53860198 12.75049505 -4.26841143 14.37566132 -5 16 C-6.0013988 12.99580359 -6.51421457 10.12290635 -7 7 C-6.01 6.67 -5.02 6.34 -4 6 C-2.90833725 4.06669397 -2.90833725 4.06669397 -2 2 C-1.34 1.34 -0.68 0.68 0 0 Z " fill="#EC471A" transform="translate(449,630)"/>
<path d="M0 0 C0.99 0.33 1.98 0.66 3 1 C-0.63 6.28 -4.26 11.56 -8 17 C-8.66 16.34 -9.32 15.68 -10 15 C-9.08333333 13.625 -8.16666667 12.25 -7.25 10.875 C-6.70601562 10.05902344 -6.16203125 9.24304688 -5.6015625 8.40234375 C-3.734375 5.6015625 -1.8671875 2.80078125 0 0 Z " fill="#E2F8FE" transform="translate(159,217)"/>
<path d="M0 0 C3.68266103 0.59950296 7.34543185 1.24758891 11 2 C11 1.34 11 0.68 11 0 C12.32 0 13.64 0 15 0 C14.67 1.98 14.34 3.96 14 6 C9.27934033 4.45730076 4.58335908 2.92205381 0 1 C0 0.67 0 0.34 0 0 Z " fill="#73B5E9" transform="translate(489,184)"/>
<path d="M0 0 C5.65870771 -0.49206154 9.37505713 0.80163023 14.5546875 3.04296875 C17.73933871 4.2893578 20.60600785 4.70487025 24 5 C24 5.99 24 6.98 24 8 C15.93519961 5.86662595 7.96053614 3.49320448 0 1 C0 0.67 0 0.34 0 0 Z " fill="#79B6E7" transform="translate(463,175)"/>
<path d="M0 0 C-1.72721684 1.27348212 -3.45686238 2.54367057 -5.1875 3.8125 C-6.15042969 4.52019531 -7.11335937 5.22789062 -8.10546875 5.95703125 C-10.6779333 7.77268437 -13.27720484 9.42207301 -16 11 C-16 10.01 -16 9.02 -16 8 C-15.01 8 -14.02 8 -13 8 C-12.835 7.2575 -12.67 6.515 -12.5 5.75 C-9.98024299 1.13044549 -5.11147591 -1.7038253 0 0 Z " fill="#E0F7FD" transform="translate(231,153)"/>
<path d="M0 0 C1.35304209 4.05912626 0.15216503 5.77149591 -1.4375 9.6875 C-1.91058594 10.86699219 -2.38367188 12.04648437 -2.87109375 13.26171875 C-3.24363281 14.16535156 -3.61617187 15.06898438 -4 16 C-4.22236328 15.08734375 -4.22236328 15.08734375 -4.44921875 14.15625 C-4.84946704 12.58932053 -5.3126335 11.03805076 -5.8125 9.5 C-6 7 -6 7 -4.1875 4.875 C-3.465625 4.25625 -2.74375 3.6375 -2 3 C-1.34 2.01 -0.68 1.02 0 0 Z " fill="#74B5EA" transform="translate(182,313)"/>
<path d="M0 0 C1 2 1 2 0.875 4 C0 6 0 6 -2.0625 6.8125 C-6.46698224 8.59303537 -9.54787232 11.79628846 -13 15 C-13.66 14.67 -14.32 14.34 -15 14 C-10.05 9.38 -5.1 4.76 0 0 Z " fill="#7AB7E6" transform="translate(564,565)"/>
<path d="M0 0 C1.8125 0.125 1.8125 0.125 4 1 C5.75 4.0625 5.75 4.0625 7 7 C7.66 7 8.32 7 9 7 C9.99 10.3 10.98 13.6 12 17 C9.55191412 14.55191412 7.86997098 12.47865363 6 9.625 C5.48179687 8.83480469 4.96359375 8.04460937 4.4296875 7.23046875 C2.90293583 4.84856929 1.42070486 2.44676948 0 0 Z " fill="#78B5E4" transform="translate(586,259)"/>
<path d="M0 0 C0.7425 0.350625 1.485 0.70125 2.25 1.0625 C5.1322726 2.04509293 6.21176345 2.0326802 9 1 C4.375 5.875 4.375 5.875 1 7 C0.67 6.34 0.34 5.68 0 5 C-0.99 5 -1.98 5 -3 5 C-3 3 -3 3 -1.5 1.375 C-1.005 0.92125 -0.51 0.4675 0 0 Z " fill="#6FB5EB" transform="translate(579,632)"/>
<path d="M0 0 C0 4.54960762 -2.12127294 7.07105996 -5.1875 10.3125 C-5.785625 10.869375 -6.38375 11.42625 -7 12 C-7.99 11.67 -8.98 11.34 -10 11 C-8.89718873 9.72799029 -7.79269231 8.45744147 -6.6875 7.1875 C-6.07261719 6.47980469 -5.45773437 5.77210938 -4.82421875 5.04296875 C-3.26665665 3.29863261 -1.67341125 1.63221959 0 0 Z " fill="#E7F9FE" transform="translate(623,600)"/>
<path d="M0 0 C0.99 0.33 1.98 0.66 3 1 C3.309375 2.134375 3.61875 3.26875 3.9375 4.4375 C4.288125 5.613125 4.63875 6.78875 5 8 C5.680625 8.33 6.36125 8.66 7.0625 9 C7.701875 9.33 8.34125 9.66 9 10 C9.75 13.625 9.75 13.625 10 17 C0 5.46153846 0 5.46153846 0 0 Z " fill="#76B4E5" transform="translate(140,548)"/>
<path d="M0 0 C2.64 0.33 5.28 0.66 8 1 C8 1.99 8 2.98 8 4 C9.32 3.67 10.64 3.34 12 3 C12.33 4.98 12.66 6.96 13 9 C11.01716521 7.88147781 9.03882377 6.75498675 7.0625 5.625 C5.40927734 4.68527344 5.40927734 4.68527344 3.72265625 3.7265625 C1 2 1 2 0 0 Z " fill="#FEE6D8" transform="translate(344,481)"/>
<path d="M0 0 C0.66 0.33 1.32 0.66 2 1 C0.6875 3 0.6875 3 -1 5 C-1.99 5 -2.98 5 -4 5 C-4.33 5.66 -4.66 6.32 -5 7 C-4.34 7 -3.68 7 -3 7 C-3 7.66 -3 8.32 -3 9 C-4.98 9.99 -4.98 9.99 -7 11 C-6.67 9.68 -6.34 8.36 -6 7 C-7.65 7.33 -9.3 7.66 -11 8 C-8.83385197 5.69125289 -6.60793392 3.94709819 -3.9375 2.25 C-2.89916016 1.57710938 -2.89916016 1.57710938 -1.83984375 0.890625 C-1.23269531 0.59671875 -0.62554687 0.3028125 0 0 Z " fill="#ED4915" transform="translate(501,453)"/>
<path d="M0 0 C0.33 1.32 0.66 2.64 1 4 C0.319375 4.45375 -0.36125 4.9075 -1.0625 5.375 C-5.16788939 9.04364584 -7.97314102 13.42918125 -11 18 C-11.66 17.67 -12.32 17.34 -13 17 C-11.58435393 15.10339726 -10.16751545 13.20770483 -8.75 11.3125 C-7.56664062 9.72888672 -7.56664062 9.72888672 -6.359375 8.11328125 C-4.28173517 5.37175982 -2.16319353 2.6742232 0 0 Z " fill="#E3F9FE" transform="translate(221,250)"/>
<path d="M0 0 C0.33 0 0.66 0 1 0 C1 1.98 1 3.96 1 6 C0.01 6 -0.98 6 -2 6 C-2.226875 6.845625 -2.45375 7.69125 -2.6875 8.5625 C-4.25736398 12.67404851 -6.34299048 15.50393484 -9 19 C-9.33 18.34 -9.66 17.68 -10 17 C-9.21142578 15.21240234 -9.21142578 15.21240234 -7.9453125 13.0859375 C-7.49542969 12.32539063 -7.04554688 11.56484375 -6.58203125 10.78125 C-6.10121094 9.9871875 -5.62039062 9.193125 -5.125 8.375 C-4.65191406 7.57320312 -4.17882812 6.77140625 -3.69140625 5.9453125 C-1.10690226 1.61571608 -1.10690226 1.61571608 0 0 Z " fill="#78B5E5" transform="translate(147,238)"/>
<path d="M0 0 C0.66 0 1.32 0 2 0 C1.29807915 4.93321834 -0.63530775 9.25974682 -2.5625 13.8125 C-2.89185547 14.60076172 -3.22121094 15.38902344 -3.56054688 16.20117188 C-4.36958906 18.13583796 -5.18423852 20.06815753 -6 22 C-7.01451745 18.4953449 -6.90401378 17.10254916 -5.25 13.8125 C-3.09654647 9.31118395 -1.48493109 4.75852919 0 0 Z " fill="#E1592D" transform="translate(487,537)"/>
<path d="M0 0 C0.33 0 0.66 0 1 0 C0.19201471 6.86787494 -1.87079449 11.88382559 -5 18 C-5.66 18 -6.32 18 -7 18 C-5.06375702 11.79522136 -2.74390859 5.89174281 0 0 Z " fill="#FEE1CF" transform="translate(514,478)"/>
<path d="M0 0 C0 0.66 0 1.32 0 2 C-0.99 2 -1.98 2 -3 2 C-3 2.99 -3 3.98 -3 5 C-6.95835609 8.0924657 -11.19194182 8.94059735 -16 10 C-13.4696646 7.21234235 -10.60660199 5.32536505 -7.4375 3.3125 C-6.46683594 2.68988281 -5.49617187 2.06726563 -4.49609375 1.42578125 C-2 0 -2 0 0 0 Z " fill="#E64E20" transform="translate(519,443)"/>
<path d="M0 0 C0.66 0.33 1.32 0.66 2 1 C0.54782324 2.50596108 -0.91192861 4.00462104 -2.375 5.5 C-3.18710938 6.3353125 -3.99921875 7.170625 -4.8359375 8.03125 C-7 10 -7 10 -9 10 C-9.66 11.32 -10.32 12.64 -11 14 C-11.33 13.01 -11.66 12.02 -12 11 C-10.37660195 9.29115995 -8.70680947 7.62553283 -7 6 C-6.34 6 -5.68 6 -5 6 C-4.731875 5.38125 -4.46375 4.7625 -4.1875 4.125 C-3 2 -3 2 0 0 Z " fill="#DEF5FE" transform="translate(198,176)"/>
<path d="M0 0 C2.1875 -0.3125 2.1875 -0.3125 5 0 C7.8125 2.5 7.8125 2.5 10 5 C7.36 5.33 4.72 5.66 2 6 C0 2.25 0 2.25 0 0 Z " fill="#6CB4EB" transform="translate(578,162)"/>
<path d="M0 0 C0.66 0.33 1.32 0.66 2 1 C-3.75 5 -3.75 5 -6 5 C-6.165 5.61875 -6.33 6.2375 -6.5 6.875 C-8.90181375 10.27756949 -12.00162134 10.22612026 -16 11 C-12.94900596 7.67633258 -9.76550484 5.45775774 -5.875 3.1875 C-4.82054687 2.56230469 -3.76609375 1.93710938 -2.6796875 1.29296875 C-1.35324219 0.65294922 -1.35324219 0.65294922 0 0 Z " fill="#78B3E4" transform="translate(250,140)"/>
<path d="M0 0 C3.0148635 2.90621977 5.65605355 5.96433449 8.25 9.25 C8.95640625 10.14203125 9.6628125 11.0340625 10.390625 11.953125 C10.92171875 12.62859375 11.4528125 13.3040625 12 14 C11.01 14.33 10.02 14.66 9 15 C8.443125 14.0925 7.88625 13.185 7.3125 12.25 C5.19968252 8.93206812 5.19968252 8.93206812 2.25 6.9375 C0 5 0 5 -0.3125 2.25 C-0.209375 1.5075 -0.10625 0.765 0 0 Z " fill="#E4F8FE" transform="translate(164,585)"/>
<path d="M0 0 C0.66 0 1.32 0 2 0 C2.66 0.66 3.32 1.32 4 2 C5.32 2 6.64 2 8 2 C8.33 5.3 8.66 8.6 9 12 C4.99027798 8.32442148 2.54664585 4.81033104 0 0 Z " fill="#6EB3E8" transform="translate(158,576)"/>
<path d="M0 0 C0.33 0.99 0.66 1.98 1 3 C-2.96 7.29 -6.92 11.58 -11 16 C-11.66 15.67 -12.32 15.34 -13 15 C-12.31292969 14.25234375 -11.62585938 13.5046875 -10.91796875 12.734375 C-10.0077189 11.73966898 -9.09756787 10.74487252 -8.1875 9.75 C-7.73568359 9.25886719 -7.28386719 8.76773438 -6.81835938 8.26171875 C-4.39181973 5.60492352 -2.09650029 2.92534924 0 0 Z " fill="#7AB5E3" transform="translate(583,544)"/>
<path d="M0 0 C1.77433812 0.93084971 3.54435149 1.86994613 5.3125 2.8125 C6.29863281 3.33457031 7.28476562 3.85664063 8.30078125 4.39453125 C10.61665068 5.7719876 12.23611001 6.99530591 14 9 C11.61435923 8.42415568 9.33317216 7.77772405 7 7 C6.67 7.66 6.34 8.32 6 9 C3 5.25 3 5.25 3 3 C2.01 3 1.02 3 0 3 C0 2.01 0 1.02 0 0 Z " fill="#E94D1D" transform="translate(325,470)"/>
<path d="M0 0 C1.32 0 2.64 0 4 0 C4.28875 0.639375 4.5775 1.27875 4.875 1.9375 C5.82823451 4.15206079 5.82823451 4.15206079 8 5 C8 5.66 8 6.32 8 7 C8.99 7 9.98 7 11 7 C12.75 9.375 12.75 9.375 14 12 C13.67 12.66 13.34 13.32 13 14 C10.83031809 11.85714108 8.66416525 9.71091768 6.5 7.5625 C5.87996094 6.95083984 5.25992188 6.33917969 4.62109375 5.70898438 C4.03457031 5.12568359 3.44804688 4.54238281 2.84375 3.94140625 C2.02680664 3.13231812 2.02680664 3.13231812 1.19335938 2.30688477 C0 1 0 1 0 0 Z " fill="#7DB8E5" transform="translate(560,230)"/>
<path d="M0 0 C6.67107494 2.49294867 12.86363979 5.38340123 19 9 C15.23375329 10.25541557 13.62811066 9.37061958 10 8 C10 7.34 10 6.68 10 6 C9.278125 5.71125 8.55625 5.4225 7.8125 5.125 C5.20833333 4.08333333 2.60416667 3.04166667 0 2 C0 1.34 0 0.68 0 0 Z " fill="#DEF7FE" transform="translate(497,188)"/>
<path d="M0 0 C0.99 0.33 1.98 0.66 3 1 C4.07494348 3.47473252 4.94567717 5.81449301 5.75 8.375 C5.98332031 9.06078125 6.21664063 9.7465625 6.45703125 10.453125 C8.13127309 15.60618073 8.13127309 15.60618073 7 19 C5.82905995 16.2100561 4.66309073 13.41821403 3.5 10.625 C2.99919922 9.43390625 2.99919922 9.43390625 2.48828125 8.21875 C2.17246094 7.45820312 1.85664063 6.69765625 1.53125 5.9140625 C1.23798828 5.2123291 0.94472656 4.5105957 0.64257812 3.78759766 C0 2 0 2 0 0 Z " fill="#E55222" transform="translate(310,535)"/>
<path d="M0 0 C1.32 0.33 2.64 0.66 4 1 C2.84414715 4.91211733 1.64465038 7.8745041 -1 11 C-2.23076923 4.6 -2.23076923 4.6 -1.0625 1.5625 C-0.711875 1.046875 -0.36125 0.53125 0 0 Z " fill="#6DB2EA" transform="translate(190,288)"/>
<path d="M0 0 C0.99 0.33 1.98 0.66 3 1 C4.1875 4.0625 4.1875 4.0625 5 7 C6.32 6.34 7.64 5.68 9 5 C8.67 7.97 8.34 10.94 8 14 C5.66635648 11.07096942 3.95039164 8.11431797 2.3125 4.75 C1.65701172 3.41195313 1.65701172 3.41195313 0.98828125 2.046875 C0.66214844 1.37140625 0.33601562 0.6959375 0 0 Z " fill="#71B3E7" transform="translate(602,283)"/>
<path d="M0 0 C0.99 0.33 1.98 0.66 3 1 C3 1.66 3 2.32 3 3 C3.99 3 4.98 3 6 3 C6.71614583 4.72526042 7.43229167 6.45052083 8.1484375 8.17578125 C9.06806692 10.26533932 9.06806692 10.26533932 11 13 C10.01 13.495 10.01 13.495 9 14 C7.49412261 12.04594482 5.99521356 10.08718716 4.5 8.125 C4.07074219 7.56941406 3.64148438 7.01382813 3.19921875 6.44140625 C0 2.2265625 0 2.2265625 0 0 Z " fill="#E4F8FD" transform="translate(636,214)"/>
<path d="M0 0 C5.94 1.485 5.94 1.485 12 3 C11.67 2.01 11.34 1.02 11 0 C13.475 0.99 13.475 0.99 16 2 C13.50840482 4.49159518 12.50698662 4.77128348 9 5 C6.20609654 4.2725308 3.55324585 3.35417479 1 2 C0.67 1.34 0.34 0.68 0 0 Z " fill="#E6FAFE" transform="translate(328,691)"/>
<path d="M0 0 C5.06896927 4.76175901 10.77462269 10.32386806 13 17 C8.65377412 15.48480199 6.69218328 12.16725241 4.25 8.5 C3.83878906 7.90574219 3.42757812 7.31148437 3.00390625 6.69921875 C0 2.27818729 0 2.27818729 0 0 Z " fill="#7BB5E2" transform="translate(207,532)"/>
<path d="M0 0 C0.66 0 1.32 0 2 0 C3.25664978 2.90600261 4 4.79604584 4 8 C5.32 8.33 6.64 8.66 8 9 C8 9.66 8 10.32 8 11 C7.34 11 6.68 11 6 11 C5.67 12.32 5.34 13.64 5 15 C4.16013916 13.06532058 3.32831973 11.12714871 2.5 9.1875 C2.0359375 8.10855469 1.571875 7.02960938 1.09375 5.91796875 C0 3 0 3 0 0 Z " fill="#EA4D22" transform="translate(287,480)"/>
<path d="M0 0 C0.66 0 1.32 0 2 0 C1.52269162 1.4589426 1.04308958 2.91713496 0.5625 4.375 C0.29566406 5.18710937 0.02882813 5.99921875 -0.24609375 6.8359375 C-1 9 -1 9 -2 11 C-2.66 11 -3.32 11 -4 11 C-4.33 8.69 -4.66 6.38 -5 4 C-3.68 4 -2.36 4 -1 4 C-0.67 2.68 -0.34 1.36 0 0 Z " fill="#ED4513" transform="translate(437,656)"/>
<path d="M0 0 C0.886875 0.515625 1.77375 1.03125 2.6875 1.5625 C6.28919911 3.1255015 7.36632903 3.14747504 11 2 C11.763125 1.814375 12.52625 1.62875 13.3125 1.4375 C13.869375 1.293125 14.42625 1.14875 15 1 C13.4375 3.5 13.4375 3.5 11 6 C7.5 6.5625 7.5 6.5625 4 6 C1.5625 4.125 1.5625 4.125 0 2 C0 1.34 0 0.68 0 0 Z " fill="#E95023" transform="translate(392,512)"/>
<path d="M0 0 C0.66 0.33 1.32 0.66 2 1 C1.01 2.485 1.01 2.485 0 4 C-0.99 4 -1.98 4 -3 4 C-3 4.66 -3 5.32 -3 6 C-4.32 6 -5.64 6 -7 6 C-7.33 6.99 -7.66 7.98 -8 9 C-9.32 8.67 -10.64 8.34 -12 8 C-8.04 5.36 -4.08 2.72 0 0 Z " fill="#E65021" transform="translate(472,471)"/>
<path d="M0 0 C2.97246802 2.54782974 4.41535288 5.45340883 6 9 C6 9.66 6 10.32 6 11 C5.01 10.67 4.02 10.34 3 10 C2.3125 7.9375 2.3125 7.9375 2 6 C0.35 6.66 -1.3 7.32 -3 8 C-2.34 7.01 -1.68 6.02 -1 5 C-0.61500109 3.34450469 -0.27206865 1.6777567 0 0 Z " fill="#70B5EA" transform="translate(659,250)"/>
<path d="M0 0 C-5.11356021 2.98291012 -11.10482642 4.36844835 -17 4 C-15 1 -15 1 -11.875 0.3125 C-7.87788744 -0.00984779 -4.00719146 -0.0703016 0 0 Z " fill="#E4F9FE" transform="translate(342,105)"/>
<path d="M0 0 C0 0.66 0 1.32 0 2 C1.65 1.67 3.3 1.34 5 1 C2.3104472 3.6895528 -0.45327417 4.69331154 -4 6 C-4.99 5.67 -5.98 5.34 -7 5 C-7.33 4.01 -7.66 3.02 -8 2 C-6.68 2.33 -5.36 2.66 -4 3 C-4 2.34 -4 1.68 -4 1 C-2 0 -2 0 0 0 Z " fill="#6FB3EA" transform="translate(513,674)"/>
<path d="M0 0 C0.66 0.33 1.32 0.66 2 1 C0.53751886 4.88056075 -1.31854481 6.04133478 -5 7.8125 C-5.886875 8.25207031 -6.77375 8.69164062 -7.6875 9.14453125 C-8.450625 9.42683594 -9.21375 9.70914063 -10 10 C-10.66 9.67 -11.32 9.34 -12 9 C-8.04 6.03 -4.08 3.06 0 0 Z " fill="#E2F8FE" transform="translate(580,639)"/>
<path d="M0 0 C1.20220203 3.53094302 0.79532349 6.12898982 0.0625 9.75 C-0.13214844 10.73484375 -0.32679688 11.7196875 -0.52734375 12.734375 C-0.68332031 13.48203125 -0.83929687 14.2296875 -1 15 C-3.76223278 12.23776722 -3.57856291 9.79293383 -4 6 C-3.01 6 -2.02 6 -1 6 C-0.67 4.02 -0.34 2.04 0 0 Z " fill="#EDFAFD" transform="translate(628,442)"/>
<path d="M0 0 C1.23666047 3.57257469 0.89093449 6.35526801 0 10 C-0.99 10.495 -0.99 10.495 -2 11 C-2.72159424 12.64363134 -3.39351421 14.31050386 -4 16 C-4.66 16 -5.32 16 -6 16 C-4.25192871 10.53262809 -2.34205919 5.24175152 0 0 Z " fill="#FEE0D1" transform="translate(532,435)"/>
<path d="M0 0 C0.33 0.99 0.66 1.98 1 3 C-4.94 8.445 -4.94 8.445 -11 14 C-11.66 13.67 -12.32 13.34 -13 13 C-8.71 8.71 -4.42 4.42 0 0 Z " fill="#E5FBFE" transform="translate(237,233)"/>
<path d="M0 0 C5.61 0.33 11.22 0.66 17 1 C17.33 2.32 17.66 3.64 18 5 C15.56070386 4.54994536 13.12388223 4.09035124 10.6875 3.625 C9.65206055 3.43550781 9.65206055 3.43550781 8.59570312 3.2421875 C5.16296686 2.57885682 2.94753542 1.96502361 0 0 Z " fill="#80B8E1" transform="translate(322,689)"/>
<path d="M0 0 C1.60876172 4.02190431 0.49934552 7.07314269 -1 11 C-3.125 12.9375 -3.125 12.9375 -5 14 C-3.45730076 9.27934033 -1.92205381 4.58335908 0 0 Z " fill="#FEE2D2" transform="translate(455,618)"/>
<path d="M0 0 C0.33 0 0.66 0 1 0 C0.67 2.31 0.34 4.62 0 7 C-0.99 7.33 -1.98 7.66 -3 8 C-4.68538601 9.99665314 -4.68538601 9.99665314 -6 12 C-6.66 11.67 -7.32 11.34 -8 11 C-6.69144447 9.16384919 -5.37805538 7.33114211 -4.0625 5.5 C-3.33160156 4.4790625 -2.60070312 3.458125 -1.84765625 2.40625 C-1.23792969 1.6121875 -0.62820313 0.818125 0 0 Z " fill="#77B4E4" transform="translate(596,526)"/>
<path d="M0 0 C0.66 0.33 1.32 0.66 2 1 C1.01 1.33 0.02 1.66 -1 2 C-1.268125 2.639375 -1.53625 3.27875 -1.8125 3.9375 C-3 6 -3 6 -6 7.3125 C-9 8 -9 8 -11 7 C-9.21475351 5.80286983 -7.4215972 4.61752721 -5.625 3.4375 C-4.62726563 2.77621094 -3.62953125 2.11492187 -2.6015625 1.43359375 C-1.74304688 0.96050781 -0.88453125 0.48742187 0 0 Z " fill="#E94F21" transform="translate(426,500)"/>
<path d="M0 0 C-1.78881736 1.00508801 -3.58114696 2.00392736 -5.375 3 C-6.37273437 3.556875 -7.37046875 4.11375 -8.3984375 4.6875 C-11 6 -11 6 -13 6 C-13.33 5.01 -13.66 4.02 -14 3 C-10.535 2.505 -10.535 2.505 -7 2 C-7 1.34 -7 0.68 -7 0 C-3.98968256 -0.93423645 -3.13349732 -1.04449911 0 0 Z " fill="#72B3E6" transform="translate(297,191)"/>
<path d="M0 0 C0.66 0.33 1.32 0.66 2 1 C2.33 1.99 2.66 2.98 3 4 C-0.82320557 5.42258812 -3.91281305 6.24042276 -8 6 C-5.63404067 3.38499232 -3.13950774 1.61000397 0 0 Z " fill="#EC4B1D" transform="translate(458,480)"/>
<path d="M0 0 C0.66 0.33 1.32 0.66 2 1 C1.95875 1.78375 1.9175 2.5675 1.875 3.375 C1.71271266 6.16116119 1.71271266 6.16116119 4 8 C4.56520003 10.65537372 4.73788198 13.29144713 5 16 C2.39473112 13.39473112 1.65865776 10.82060766 0.375 7.375 C-0.07101562 6.18648438 -0.51703125 4.99796875 -0.9765625 3.7734375 C-1.31429688 2.85820312 -1.65203125 1.94296875 -2 1 C-1.34 0.67 -0.68 0.34 0 0 Z " fill="#E74C21" transform="translate(282,464)"/>
<path d="M0 0 C1.65 0 3.3 0 5 0 C2.69716746 2.54131358 0.32686207 4.07110295 -2.6875 5.6875 C-3.89986328 6.34298828 -3.89986328 6.34298828 -5.13671875 7.01171875 C-5.75160156 7.33785156 -6.36648438 7.66398437 -7 8 C-6.67 6.68 -6.34 5.36 -6 4 C-4.68 4 -3.36 4 -2 4 C-2 3.34 -2 2.68 -2 2 C-1.34 2 -0.68 2 0 2 C0 1.34 0 0.68 0 0 Z " fill="#FEE9D9" transform="translate(483,461)"/>
<path d="M0 0 C0.33 0 0.66 0 1 0 C1.68041782 5.27323808 -0.75213663 9.39388711 -3 14 C-3.66 14 -4.32 14 -5 14 C-3.45730076 9.27934033 -1.92205381 4.58335908 0 0 Z " fill="#FEE5D4" transform="translate(426,687)"/>
<path d="M0 0 C0 3.99897642 -1.35316035 5.06701552 -4 8 C-5.63356951 9.37368345 -7.2925002 10.71937515 -9 12 C-9.66 11.67 -10.32 11.34 -11 11 C-7.37 7.37 -3.74 3.74 0 0 Z " fill="#DBF5FE" transform="translate(611,612)"/>
<path d="M0 0 C0.66 0.33 1.32 0.66 2 1 C2.625 3.5625 2.625 3.5625 3 6 C-0.75 9 -0.75 9 -3 9 C-2.01 6.03 -1.02 3.06 0 0 Z " fill="#75B5E9" transform="translate(484,635)"/>
<path d="M0 0 C0.33 0 0.66 0 1 0 C1.20551329 3.69923924 0.68248981 5.74718637 -1 9 C-0.67 9.66 -0.34 10.32 0 11 C-1.65 11.66 -3.3 12.32 -5 13 C-3.58192622 8.52761347 -1.88695626 4.28853694 0 0 Z " fill="#E2F6FE" transform="translate(676,516)"/>
<path d="M0 0 C3.42931954 3.7559214 4.56429083 8.23466745 6 13 C5.34 13 4.68 13 4 13 C4 12.34 4 11.68 4 11 C3.34 11 2.68 11 2 11 C0.57741188 7.17679443 -0.24042276 4.08718695 0 0 Z " fill="#FEE2D0" transform="translate(279,464)"/>
<path d="M0 0 C2.475 0.495 2.475 0.495 5 1 C5 4.63 5 8.26 5 12 C3.20931427 9.3139714 2.33944209 7.3373411 1.375 4.3125 C1.11460937 3.50425781 0.85421875 2.69601562 0.5859375 1.86328125 C0.39257812 1.24839844 0.19921875 0.63351562 0 0 Z " fill="#E84A18" transform="translate(275,452)"/>
<path d="M0 0 C1.26403575 3.59566927 0.73990566 6.05299344 -0.25 9.6875 C-0.62898437 11.14736328 -0.62898437 11.14736328 -1.015625 12.63671875 C-1.34046875 13.41660156 -1.6653125 14.19648438 -2 15 C-2.99 15.33 -3.98 15.66 -5 16 C-3.41078475 10.63904723 -1.81027062 5.29156027 0 0 Z " fill="#E5F9FE" transform="translate(685,492)"/>
<path d="M0 0 C4.29 0 8.58 0 13 0 C9.61885051 1.69057475 7.3700175 2.45815467 3.75 3.125 C2.41195313 3.37636719 2.41195313 3.37636719 1.046875 3.6328125 C0.37140625 3.75398437 -0.3040625 3.87515625 -1 4 C-0.67 2.68 -0.34 1.36 0 0 Z " fill="#82B7E1" transform="translate(461,690)"/>
<path d="M0 0 C4.92307692 4.30769231 4.92307692 4.30769231 5.3125 7.8125 C5.209375 8.534375 5.10625 9.25625 5 10 C4.34 10 3.68 10 3 10 C0 3.375 0 3.375 0 0 Z " fill="#E4F9FE" transform="translate(335,680)"/>
<path d="M0 0 C0.33 0.66 0.66 1.32 1 2 C-0.98 4.97 -2.96 7.94 -5 11 C-5.99 10.67 -6.98 10.34 -8 10 C-5.36 6.7 -2.72 3.4 0 0 Z " fill="#E1F6FD" transform="translate(632,589)"/>
<path d="M0 0 C1.81612488 0.95144598 3.62781081 1.91136933 5.4375 2.875 C6.44683594 3.40867187 7.45617187 3.94234375 8.49609375 4.4921875 C11 6 11 6 12 8 C7.03533083 6.83184255 3.7615584 5.64757179 0 2 C0 1.34 0 0.68 0 0 Z " fill="#7AB4E1" transform="translate(264,590)"/>
<path d="M0 0 C0.33 1.32 0.66 2.64 1 4 C1.66 4.33 2.32 4.66 3 5 C2.01 5.495 2.01 5.495 1 6 C-0.0409066 7.64142963 -1.04504326 9.30712215 -2 11 C-2.66 10.67 -3.32 10.34 -4 10 C-2.68 6.7 -1.36 3.4 0 0 Z " fill="#FEE8DA" transform="translate(484,549)"/>
<path d="M0 0 C0.99 0 1.98 0 3 0 C2.34 3.63 1.68 7.26 1 11 C0.34 10.67 -0.32 10.34 -1 10 C-0.67 6.7 -0.34 3.4 0 0 Z " fill="#E0F7FE" transform="translate(106,328)"/>
<path d="M0 0 C2.74792483 3.40219265 6 7.48464588 6 12 C5.01 12.33 4.02 12.66 3 13 C2.49242138 11.58603098 1.99425075 10.16868271 1.5 8.75 C1.08234375 7.56664062 1.08234375 7.56664062 0.65625 6.359375 C0 4 0 4 0 0 Z " fill="#DEF5FD" transform="translate(606,291)"/>
<path d="M0 0 C1.32 0.33 2.64 0.66 4 1 C3.02501855 2.5027237 2.04490611 4.00211963 1.0625 5.5 C0.51722656 6.3353125 -0.02804688 7.170625 -0.58984375 8.03125 C-1.05519531 8.6809375 -1.52054688 9.330625 -2 10 C-2.33 10 -2.66 10 -3 10 C-3 8.35 -3 6.7 -3 5 C-2.34 5 -1.68 5 -1 5 C-0.67 3.35 -0.34 1.7 0 0 Z " fill="#77B3E6" transform="translate(205,266)"/>
<path d="M0 0 C-5.1468192 3.16727335 -9.158256 3.35050464 -15 3 C-5.21459227 -2.08583691 -5.21459227 -2.08583691 0 0 Z " fill="#D8F3FD" transform="translate(481,690)"/>
<path d="M0 0 C-0.66 1.65 -1.32 3.3 -2 5 C-2.33 4.34 -2.66 3.68 -3 3 C-3.7425 3.350625 -4.485 3.70125 -5.25 4.0625 C-8.21122875 5.0720098 -9.12062561 4.87980884 -12 4 C-10.3767313 3.3291288 -8.75132422 2.66342971 -7.125 2 C-6.22007812 1.62875 -5.31515625 1.2575 -4.3828125 0.875 C-2 0 -2 0 0 0 Z " fill="#E3F7FD" transform="translate(523,674)"/>
<path d="M0 0 C0.33 0 0.66 0 1 0 C1.33 2.64 1.66 5.28 2 8 C0.35 8.33 -1.3 8.66 -3 9 C-2.01 6.03 -1.02 3.06 0 0 Z " fill="#FCE6D8" transform="translate(436,663)"/>
<path d="M0 0 C1.32 0 2.64 0 4 0 C4 0.66 4 1.32 4 2 C6.64 2.33 9.28 2.66 12 3 C12 3.99 12 4.98 12 6 C10.55903414 5.57405412 9.12231288 5.13373367 7.6875 4.6875 C6.88699219 4.44386719 6.08648437 4.20023438 5.26171875 3.94921875 C2.90035427 2.95817977 1.66120007 1.91925057 0 0 Z " fill="#76B5E8" transform="translate(261,665)"/>
<path d="M0 0 C3 2 3 2 4 4 C4.33 4 4.66 4 5 4 C5 6.64 5 9.28 5 12 C1.66226291 8.35883227 1.02135098 4.71392758 0 0 Z " fill="#72B3E7" transform="translate(120,506)"/>
<path d="M0 0 C1.65 0 3.3 0 5 0 C2.62590004 2.62400522 0.18635171 4.44568209 -3 6 C-5.3125 5.6875 -5.3125 5.6875 -7 5 C-5.35 4.67 -3.7 4.34 -2 4 C-2 3.34 -2 2.68 -2 2 C-1.34 2 -0.68 2 0 2 C0 1.34 0 0.68 0 0 Z " fill="#FDECDC" transform="translate(419,501)"/>
<path d="M0 0 C0.33 0 0.66 0 1 0 C1.08086147 1.79093191 1.13912702 3.58289628 1.1875 5.375 C1.22230469 6.37273437 1.25710937 7.37046875 1.29296875 8.3984375 C1.19628906 9.25695312 1.09960938 10.11546875 1 11 C0.01 11.66 -0.98 12.32 -2 13 C-1.85769192 11.58297487 -1.71099254 10.1663904 -1.5625 8.75 C-1.48128906 7.96109375 -1.40007812 7.1721875 -1.31640625 6.359375 C-1.02365007 4.17635361 -0.57935581 2.1226818 0 0 Z " fill="#DCF4FD" transform="translate(172,348)"/>
<path d="M0 0 C1.32 0.66 2.64 1.32 4 2 C1.69 4.31 -0.62 6.62 -3 9 C-3.33 8.34 -3.66 7.68 -4 7 C-3.67 6.01 -3.34 5.02 -3 4 C-2.01 4 -1.02 4 0 4 C-0.33 3.01 -0.66 2.02 -1 1 C-0.67 0.67 -0.34 0.34 0 0 Z " fill="#75B6E7" transform="translate(230,235)"/>
<path d="M0 0 C2.22825644 2.22825644 2.69239369 3.65761628 3.625 6.625 C4.01558594 7.85089844 4.01558594 7.85089844 4.4140625 9.1015625 C4.60742188 9.72804688 4.80078125 10.35453125 5 11 C2 10 2 10 0 7 C-0.07905064 4.66800612 -0.08798769 2.33167378 0 0 Z " fill="#FEDCCE" transform="translate(371,682)"/>
<path d="M0 0 C0.99 0.33 1.98 0.66 3 1 C0.69 3.64 -1.62 6.28 -4 9 C-4.33 8.01 -4.66 7.02 -5 6 C-3.59554165 3.7363436 -1.8032087 1.9791315 0 0 Z " fill="#7AB6E5" transform="translate(221,247)"/>
<path d="M0 0 C0.66 0 1.32 0 2 0 C0.50902342 3.7952131 -1.75700849 5.61042731 -5 8 C-5.33 7.34 -5.66 6.68 -6 6 C-5.67 5.34 -5.34 4.68 -5 4 C-4.01 4 -3.02 4 -2 4 C-1.34 2.68 -0.68 1.36 0 0 Z " fill="#E4F9FD" transform="translate(574,552)"/>
<path d="M0 0 C0.66 0.33 1.32 0.66 2 1 C2 1.66 2 2.32 2 3 C1 4 0 5 -1 6 C-2.36011609 7.98188345 -3.69791204 9.97951869 -5 12 C-5.33 11.34 -5.66 10.68 -6 10 C-4.78515625 7.6171875 -4.78515625 7.6171875 -3.0625 4.875 C-2.21365234 3.50988281 -2.21365234 3.50988281 -1.34765625 2.1171875 C-0.90292969 1.41851563 -0.45820312 0.71984375 0 0 Z " fill="#75B6E9" transform="translate(605,511)"/>
<path d="M0 0 C2.64 0.33 5.28 0.66 8 1 C8.66 2.65 9.32 4.3 10 6 C6.40992874 4.66654496 3.20429093 3.1056769 0 1 C0 0.67 0 0.34 0 0 Z " fill="#FCE1D4" transform="translate(318,465)"/>
<path d="M0 0 C2.94721162 2.74395564 5.19168608 5.38337216 7 9 C6.67 9.66 6.34 10.32 6 11 C5.731875 10.360625 5.46375 9.72125 5.1875 9.0625 C4.11332248 6.66868314 4.11332248 6.66868314 1 6 C0.67 4.02 0.34 2.04 0 0 Z " fill="#7BB5E3" transform="translate(651,237)"/>
<path d="M0 0 C4.875 4.625 4.875 4.625 6 8 C4.02 7.34 2.04 6.68 0 6 C0 4.02 0 2.04 0 0 Z " fill="#75B6EA" transform="translate(636,216)"/>
<path d="M0 0 C0.99 0.33 1.98 0.66 3 1 C3 1.99 3 2.98 3 4 C3.66 4 4.32 4 5 4 C5 6.31 5 8.62 5 11 C3.33167423 8.49751135 2.37618326 6.58850813 1.375 3.8125 C1.11460937 3.09707031 0.85421875 2.38164063 0.5859375 1.64453125 C0.39257812 1.10183594 0.19921875 0.55914063 0 0 Z " fill="#E1F8FE" transform="translate(317,639)"/>
<path d="M0 0 C0.598125 0.185625 1.19625 0.37125 1.8125 0.5625 C4.16408762 1.22093687 4.16408762 1.22093687 7 0 C6.67 0.99 6.34 1.98 6 3 C6.39397335 5.63804589 6.39397335 5.63804589 7 8 C4.35247996 5.42215154 2.05567935 3.08351902 0 0 Z " fill="#74B6E9" transform="translate(170,592)"/>
<path d="M0 0 C2.96404505 2.80804268 5.44499019 5.18315774 7 9 C6.34 9 5.68 9 5 9 C5 8.34 5 7.68 5 7 C4.34 7 3.68 7 3 7 C3 6.34 3 5.68 3 5 C2.01 4.67 1.02 4.34 0 4 C0 2.68 0 1.36 0 0 Z " fill="#DCF6FE" transform="translate(156,575)"/>
<path d="M0 0 C2.40072955 2.88087546 4.47291037 5.56404834 6 9 C5.01 9 4.02 9 3 9 C0.72162458 6.72162458 0.03353711 5.49187763 -0.1875 2.25 C-0.125625 1.5075 -0.06375 0.765 0 0 Z " fill="#DDF6FD" transform="translate(140,550)"/>
<path d="M0 0 C-1.28813342 0.83878455 -2.58063256 1.67086783 -3.875 2.5 C-4.59429687 2.9640625 -5.31359375 3.428125 -6.0546875 3.90625 C-8 5 -8 5 -10 5 C-10 4.34 -10 3.68 -10 3 C-9.01 3 -8.02 3 -7 3 C-7 2.01 -7 1.02 -7 0 C-3.98968256 -0.93423645 -3.13349732 -1.04449911 0 0 Z " fill="#FEE3D4" transform="translate(434,496)"/>
<path d="M0 0 C-1.0625 1.5 -1.0625 1.5 -3 3 C-6.6875 3.1875 -6.6875 3.1875 -10 3 C-6.86618053 -0.60389239 -4.59270471 -1.53090157 0 0 Z " fill="#F24617" transform="translate(484,468)"/>
<path d="M0 0 C3.37503669 1.1858237 5.64722731 2.27573689 8 5 C6.02 5 4.04 5 2 5 C1.34 3.35 0.68 1.7 0 0 Z " fill="#EA4C21" transform="translate(281,443)"/>
<path d="M0 0 C0.33 0 0.66 0 1 0 C1.25 6.625 1.25 6.625 -1 10 C-1.66 10 -2.32 10 -3 10 C-2.01 6.7 -1.02 3.4 0 0 Z " fill="#76B5E6" transform="translate(476,654)"/>
<path d="M0 0 C0.66 0.33 1.32 0.66 2 1 C0.68 4.3 -0.64 7.6 -2 11 C-2.66 9.68 -3.32 8.36 -4 7 C-3.06434658 4.35435928 -1.54985485 2.37036624 0 0 Z " fill="#E2F8FE" transform="translate(481,639)"/>
<path d="M0 0 C2.18975773 3.28463659 2.99806563 6.20696275 4 10 C2.68 10 1.36 10 0 10 C0 6.7 0 3.4 0 0 Z " fill="#FCDED0" transform="translate(322,565)"/>
<path d="M0 0 C0.99 0.33 1.98 0.66 3 1 C2.0479279 2.00596297 1.08812654 3.00461563 0.125 4 C-0.40867187 4.556875 -0.94234375 5.11375 -1.4921875 5.6875 C-3 7 -3 7 -5 7 C-4.34 5.68 -3.68 4.36 -3 3 C-2.34 3 -1.68 3 -1 3 C-0.67 2.01 -0.34 1.02 0 0 Z " fill="#E4FAFE" transform="translate(558,568)"/>
<path d="M0 0 C0.99 0.33 1.98 0.66 3 1 C0.525 4.465 0.525 4.465 -2 8 C-2.33 6.68 -2.66 5.36 -3 4 C-1.5625 1.75 -1.5625 1.75 0 0 Z " fill="#E1F9FE" transform="translate(592,528)"/>
<path d="M0 0 C2.5625 0.25 2.5625 0.25 5 1 C5.33 1.66 5.66 2.32 6 3 C4.68 3 3.36 3 2 3 C1.67 3.66 1.34 4.32 1 5 C0.34 5 -0.32 5 -1 5 C-1.33 4.01 -1.66 3.02 -2 2 C-1.34 1.34 -0.68 0.68 0 0 Z " fill="#F24312" transform="translate(318,467)"/>
<path d="M0 0 C1.12894876 0.93274109 2.25300876 1.87140122 3.375 2.8125 C4.00148438 3.33457031 4.62796875 3.85664063 5.2734375 4.39453125 C7 6 7 6 9 9 C4.5937814 7.65365543 2.56922298 5.80625626 0 2 C0 1.34 0 0.68 0 0 Z " fill="#EBFEFE" transform="translate(559,230)"/>
<path d="M0 0 C0 0.66 0 1.32 0 2 C-1.32 2.33 -2.64 2.66 -4 3 C-4 3.66 -4 4.32 -4 5 C-5.65 5 -7.3 5 -9 5 C-6.45523312 2.20075644 -3.92372883 0 0 0 Z " fill="#DCF6FE" transform="translate(297,191)"/>
<path d="M0 0 C0.66 0.33 1.32 0.66 2 1 C0.3125 4 0.3125 4 -2 7 C-4.75 7.375 -4.75 7.375 -7 7 C-4.66666667 4.66666667 -2.33333333 2.33333333 0 0 Z " fill="#7BB9E8" transform="translate(214,164)"/>
<path d="M0 0 C0.95904856 3.83619425 0.91892116 5.32431536 0 9 C-0.99 9 -1.98 9 -3 9 C-2.01 6.03 -1.02 3.06 0 0 Z " fill="#FEE1D0" transform="translate(445,642)"/>
<path d="M0 0 C0.66 0 1.32 0 2 0 C2.99 2.97 3.98 5.94 5 9 C4.01 9.495 4.01 9.495 3 10 C0 3.375 0 3.375 0 0 Z " fill="#E65021" transform="translate(333,589)"/>
<path d="M0 0 C1.00000429 4.00001715 0.80688405 6.05523353 0 10 C-0.99 9.67 -1.98 9.34 -3 9 C-2.01 6.03 -1.02 3.06 0 0 Z " fill="#FDE2D4" transform="translate(495,523)"/>
<path d="M0 0 C2.6855594 2.6855594 3.06049974 5.37621328 4 9 C3.01 9.33 2.02 9.66 1 10 C0.67 6.7 0.34 3.4 0 0 Z " fill="#FDE3D3" transform="translate(304,523)"/>
<path d="M0 0 C0.95465783 2.16967689 1.14401212 3.56328793 0.3984375 5.82421875 C-0.35870385 7.5684743 -1.17609198 9.28627131 -2 11 C-3.09658936 7.71023192 -2.79953138 6.28696233 -2 3 C-1.34 3 -0.68 3 0 3 C0 2.01 0 1.02 0 0 Z " fill="#E74A1B" transform="translate(499,509)"/>
<path d="M0 0 C2.97 0.99 5.94 1.98 9 3 C8.67 3.99 8.34 4.98 8 6 C6.66402348 5.19185349 5.331275 4.37836819 4 3.5625 C3.2575 3.11003906 2.515 2.65757812 1.75 2.19140625 C1.1725 1.79824219 0.595 1.40507812 0 1 C0 0.67 0 0.34 0 0 Z " fill="#FEE4D5" transform="translate(280,441)"/>
<path d="M0 0 C0 0.66 0 1.32 0 2 C-3.2491277 4.3208055 -6.05879291 5.43697042 -10 6 C-7.35570758 3.077361 -4.105808 0 0 0 Z " fill="#E2F6FE" transform="translate(286,197)"/>
<path d="M0 0 C3.94120709 0.56302958 6.7508723 1.6791945 10 4 C10 4.66 10 5.32 10 6 C6.00499382 4.6302836 3.19990508 2.74277578 0 0 Z " fill="#DDF5FE" transform="translate(555,143)"/>
<path d="M0 0 C0 0.99 0 1.98 0 3 C-3.3 3.66 -6.6 4.32 -10 5 C-3.33333333 0 -3.33333333 0 0 0 Z " fill="#80BBE8" transform="translate(274,128)"/>
<path d="M0 0 C2.64 1.98 5.28 3.96 8 6 C7.01 6.33 6.02 6.66 5 7 C2.3125 5.25 2.3125 5.25 0 3 C0 2.01 0 1.02 0 0 Z " fill="#7AB3E4" transform="translate(248,577)"/>
<path d="M0 0 C0.66 0 1.32 0 2 0 C1.46930939 3.82097239 0.50298434 6.06171403 -2 9 C-2.20140476 5.37471432 -1.85776765 3.13498292 0 0 Z " fill="#E34E1B" transform="translate(487,537)"/>
<path d="M0 0 C0.66 0.33 1.32 0.66 2 1 C0.8125 3 0.8125 3 -1 5 C-3.6875 5.25 -3.6875 5.25 -6 5 C-2.25 1.125 -2.25 1.125 0 0 Z " fill="#E55222" transform="translate(501,453)"/>
<path d="M0 0 C2.15377564 2.62198774 3.40072174 4.64404172 4 8 C3.01 8 2.02 8 1 8 C0.67 5.36 0.34 2.72 0 0 Z " fill="#7BBAEB" transform="translate(668,266)"/>
<path d="M0 0 C3.53600465 1.91135386 5.78972846 3.62642766 8 7 C6.68 6.67 5.36 6.34 4 6 C4 5.34 4 4.68 4 4 C2.68 3.34 1.36 2.68 0 2 C0 1.34 0 0.68 0 0 Z " fill="#E2F9FE" transform="translate(544,217)"/>
<path d="M0 0 C0 3.20395416 -0.74335022 5.09399739 -2 8 C-2.99 8 -3.98 8 -5 8 C-3.8141763 4.62496331 -2.72426311 2.35277269 0 0 Z " fill="#7CBAE8" transform="translate(166,212)"/>
<path d="M0 0 C1.98 0.99 3.96 1.98 6 3 C6 3.99 6 4.98 6 6 C3.11562221 4.70700306 1.12780579 3.34058637 -1 1 C-0.67 0.67 -0.34 0.34 0 0 Z " fill="#E1F7FD" transform="translate(573,153)"/>
</svg>
