<?xml version="1.0" encoding="UTF-8"?>
<svg version="1.1" xmlns="http://www.w3.org/2000/svg" width="128" height="128">
<path d="M0 0 C9.06044003 5.72150009 14.49735946 12.9338802 17.109375 23.33203125 C17.85206582 27.87177824 18.23230285 32.22031488 18.22290039 36.81811523 C18.22277954 38.07603882 18.22265869 39.3339624 18.22253418 40.63000488 C18.21741821 41.93288452 18.21230225 43.23576416 18.20703125 44.578125 C18.20602417 45.78988403 18.20501709 47.00164307 18.20397949 48.25012207 C18.19876578 52.75660149 18.18480455 57.26306737 18.171875 61.76953125 C18.15125 71.85515625 18.130625 81.94078125 18.109375 92.33203125 C-4.990625 92.33203125 -28.090625 92.33203125 -51.890625 92.33203125 C-51.931875 82.32890625 -51.973125 72.32578125 -52.015625 62.01953125 C-52.03383301 58.88283936 -52.05204102 55.74614746 -52.07080078 52.5144043 C-52.07664773 49.99918793 -52.08174281 47.48396966 -52.0859375 44.96875 C-52.09616943 43.68633423 -52.10640137 42.40391846 -52.11694336 41.0826416 C-52.11951361 27.71092318 -50.82257273 16.14123101 -41.59375 5.93359375 C-31.02929874 -4.0008673 -13.08168767 -6.3829614 0 0 Z M-38.484375 16.22265625 C-42.13944591 21.70526262 -43.43176307 26.7030899 -42.890625 33.33203125 C-41.26307856 34.95957769 -39.44924177 34.45940202 -37.203125 34.46142578 C-36.20539062 34.46457794 -35.20765625 34.4677301 -34.1796875 34.47097778 C-33.09429687 34.46895355 -32.00890625 34.46692932 -30.890625 34.46484375 C-29.23160156 34.46627884 -29.23160156 34.46627884 -27.5390625 34.46774292 C-25.19531192 34.46842492 -22.85155947 34.46656929 -20.5078125 34.46240234 C-16.90620712 34.45705439 -13.30472647 34.46234672 -9.703125 34.46875 C-7.43229139 34.46808922 -5.16145786 34.46680807 -2.890625 34.46484375 C-1.80523437 34.46686798 -0.71984375 34.46889221 0.3984375 34.47097778 C1.39617187 34.46782562 2.39390625 34.46467346 3.421875 34.46142578 C4.74638672 34.46023239 4.74638672 34.46023239 6.09765625 34.45901489 C8.10705392 34.55473799 8.10705392 34.55473799 9.109375 33.33203125 C9.85931168 26.28262645 7.79731528 19.99487214 3.6015625 14.27734375 C-2.09703017 8.1016596 -8.44905727 5.17774224 -16.828125 4.76953125 C-26.0369096 5.13272759 -32.78851978 9.07596998 -38.484375 16.22265625 Z M-42.890625 40.33203125 C-42.98358315 41.77492912 -43.00809013 43.2223291 -43.00415039 44.66821289 C-43.00407486 45.58909195 -43.00399933 46.50997101 -43.00392151 47.45875549 C-42.99876022 48.45978806 -42.99359894 49.46082062 -42.98828125 50.4921875 C-42.9868663 51.51179062 -42.98545135 52.53139374 -42.98399353 53.58189392 C-42.97837597 56.85280232 -42.9658205 60.12364338 -42.953125 63.39453125 C-42.94811226 65.60611881 -42.94354896 67.81770743 -42.93945312 70.02929688 C-42.92840084 75.46356482 -42.91164563 80.89779322 -42.890625 86.33203125 C-40.48406505 87.53531122 -38.97618714 87.45888748 -36.2890625 87.46142578 C-34.85747803 87.46615402 -34.85747803 87.46615402 -33.39697266 87.47097778 C-32.36362793 87.46895355 -31.3302832 87.46692932 -30.265625 87.46484375 C-29.20778809 87.46580048 -28.14995117 87.4667572 -27.06005859 87.46774292 C-24.82063742 87.46842426 -22.58121427 87.46657318 -20.34179688 87.46240234 C-16.90490299 87.45705347 -13.4681398 87.46234892 -10.03125 87.46875 C-7.85937471 87.46808921 -5.6874995 87.46680803 -3.515625 87.46484375 C-2.48228027 87.46686798 -1.44893555 87.46889221 -0.38427734 87.47097778 C0.5701123 87.46782562 1.52450195 87.46467346 2.5078125 87.46142578 C3.35005371 87.46063019 4.19229492 87.45983459 5.06005859 87.45901489 C7.17525963 87.46202286 7.17525963 87.46202286 9.109375 86.33203125 C9.13464502 79.79924339 9.15220792 73.26646804 9.16430664 66.73364258 C9.16934817 64.50935393 9.17618123 62.28506862 9.18481445 60.06079102 C9.19688798 56.87124816 9.20260496 53.68174896 9.20703125 50.4921875 C9.21219254 49.49115494 9.21735382 48.49012238 9.22267151 47.45875549 C9.22274704 46.53787643 9.22282257 45.61699738 9.22290039 44.66821289 C9.225121 43.85324844 9.22734161 43.038284 9.22962952 42.19862366 C9.31465745 40.31725269 9.31465745 40.31725269 8.109375 39.33203125 C6.54938452 39.23356158 4.98496956 39.20404507 3.421875 39.20263672 C2.42414063 39.19948456 1.42640625 39.1963324 0.3984375 39.19308472 C-1.22964844 39.19612106 -1.22964844 39.19612106 -2.890625 39.19921875 C-3.99664062 39.19826202 -5.10265625 39.1973053 -6.2421875 39.19631958 C-8.58593808 39.19563758 -10.92969053 39.19749321 -13.2734375 39.20166016 C-16.87504288 39.20700811 -20.47652353 39.20171578 -24.078125 39.1953125 C-26.34895861 39.19597328 -28.61979214 39.19725443 -30.890625 39.19921875 C-32.51871094 39.1961824 -32.51871094 39.1961824 -34.1796875 39.19308472 C-35.17742188 39.19623688 -36.17515625 39.19938904 -37.203125 39.20263672 C-38.52763672 39.20383011 -38.52763672 39.20383011 -39.87890625 39.20504761 C-41.88830392 39.10932451 -41.88830392 39.10932451 -42.890625 40.33203125 Z " fill="#4DDAA4" transform="translate(80.890625,10.66796875)"/>
<path d="M0 0 C25.74 0 51.48 0 78 0 C78 4.62 78 9.24 78 14 C52.26 14 26.52 14 0 14 C0 9.38 0 4.76 0 0 Z " fill="#4EDAA3" transform="translate(25,106)"/>
<path d="M0 0 C5.94 0 11.88 0 18 0 C18 5.28 18 10.56 18 16 C12.06 16 6.12 16 0 16 C0 10.72 0 5.44 0 0 Z " fill="#32CCA1" transform="translate(69,79)"/>
<path d="M0 0 C5.94 0 11.88 0 18 0 C18 5.28 18 10.56 18 16 C12.06 16 6.12 16 0 16 C0 10.72 0 5.44 0 0 Z " fill="#6AE7A6" transform="translate(41,79)"/>
<path d="M0 0 C5.94 0 11.88 0 18 0 C18 5.28 18 10.56 18 16 C12.06 16 6.12 16 0 16 C0 10.72 0 5.44 0 0 Z " fill="#32CCA1" transform="translate(69,53)"/>
<path d="M0 0 C5.94 0 11.88 0 18 0 C18 5.28 18 10.56 18 16 C12.06 16 6.12 16 0 16 C0 10.72 0 5.44 0 0 Z " fill="#69E7A6" transform="translate(41,53)"/>
<path d="M0 0 C1.65 0 3.3 0 5 0 C5 13.86 5 27.72 5 42 C3.35 42 1.7 42 0 42 C0 28.14 0 14.28 0 0 Z " fill="#52D7A2" transform="translate(61,53)"/>
<path d="M0 0 C10.125 1.125 10.125 1.125 14 4 C13.14256944 8.46465599 10.59899629 11.02444613 7.5625 14.25 C7.05912109 14.80429687 6.55574219 15.35859375 6.03710938 15.9296875 C4.73772575 17.33088206 3.37301326 18.670873 2 20 C1.34 20 0.68 20 0 20 C0 13.4 0 6.8 0 0 Z " fill="#40D5A3" transform="translate(65,19)"/>
<path d="M0 0 C0 6.6 0 13.2 0 20 C-4.15529195 17.92235403 -6.15595827 15.96865998 -9.25 12.5625 C-10.14203125 11.59441406 -11.0340625 10.62632813 -11.953125 9.62890625 C-14 7 -14 7 -14 4 C-12.80029246 3.31793277 -11.58964795 2.65509103 -10.375 2 C-9.70210937 1.62875 -9.02921875 1.2575 -8.3359375 0.875 C-6 0 -6 0 0 0 Z " fill="#58E0A6" transform="translate(63,19)"/>
<path d="M0 0 C3 0 3 0 4.6484375 1.57421875 C5.21820313 2.27160156 5.78796875 2.96898437 6.375 3.6875 C8.47525707 6.20691665 10.55770941 8.61724996 12.9375 10.875 C15 13 15 13 15 15 C8.73 15 2.46 15 -4 15 C-4 7.125 -4 7.125 -2 3.5625 C-1.62875 2.88316406 -1.2575 2.20382813 -0.875 1.50390625 C-0.58625 1.00761719 -0.2975 0.51132812 0 0 Z " fill="#6CE9A6" transform="translate(45,27)"/>
<path d="M0 0 C0.99 0 1.98 0 3 0 C3.68485921 1.17710176 4.34692828 2.36746945 5 3.5625 C5.37125 4.22378906 5.7425 4.88507812 6.125 5.56640625 C7 8 7 8 7 15 C0.73 15 -5.54 15 -12 15 C-10.08423353 11.16846706 -8.4721758 9.28789908 -5.4375 6.375 C-2.30957946 3.48929319 -2.30957946 3.48929319 0 0 Z " fill="#2FCCA1" transform="translate(80,27)"/>
<path d="M0 0 C5.94 0 11.88 0 18 0 C18 1.65 18 3.3 18 5 C12.06 5 6.12 5 0 5 C0 3.35 0 1.7 0 0 Z " fill="#32CCA0" transform="translate(69,71)"/>
<path d="M0 0 C5.94 0 11.88 0 18 0 C18 1.65 18 3.3 18 5 C12.06 5 6.12 5 0 5 C0 3.35 0 1.7 0 0 Z " fill="#6AE7A6" transform="translate(41,71)"/>
</svg>
