<?xml version="1.0" standalone="no"?>
<!DOCTYPE svg PUBLIC "-//W3C//DTD SVG 20010904//EN"
 "http://www.w3.org/TR/2001/REC-SVG-20010904/DTD/svg10.dtd">
<svg version="1.0" xmlns="http://www.w3.org/2000/svg"
 width="194.000000pt" height="259.000000pt" viewBox="0 0 194.000000 259.000000"
 preserveAspectRatio="xMidYMid meet">

<g transform="translate(0.000000,259.000000) scale(0.100000,-0.100000)"
fill="#000000" stroke="none">
<path d="M835 1830 c-377 -59 -680 -338 -756 -695 -13 -62 -16 -285 -4 -304 4
-8 280 -11 900 -11 l893 0 7 76 c24 256 -69 501 -261 685 -128 122 -258 192
-434 234 -81 19 -266 27 -345 15z m196 -161 c-11 -49 -10 -51 56 -71 24 -7 43
-15 43 -19 0 -4 -29 -10 -65 -14 l-65 -7 0 -54 c0 -30 -4 -54 -8 -54 -5 0 -19
23 -32 51 -22 47 -26 50 -52 45 -15 -3 -43 -9 -60 -12 l-33 -5 48 43 47 43
-30 45 c-16 24 -28 46 -26 48 2 2 28 -9 57 -24 l53 -27 36 43 c39 48 47 40 31
-31z m-374 -81 c-23 -95 -23 -94 32 -114 28 -10 51 -21 51 -25 0 -3 -27 -9
-60 -13 l-60 -7 -1 -37 c0 -20 -4 -45 -8 -55 -5 -15 -12 -8 -31 33 l-24 52
-41 -7 c-22 -3 -50 -9 -63 -12 -18 -4 -13 4 24 40 48 44 48 45 31 71 -9 14
-25 38 -34 52 l-17 26 61 -31 61 -30 34 38 c38 45 53 51 45 19z m778 -38 c-12
-57 -11 -60 8 -66 11 -3 36 -13 56 -22 l36 -16 -65 -10 -65 -11 -3 -53 c-4
-61 -13 -60 -42 5 -19 43 -22 45 -50 39 -16 -3 -45 -9 -62 -13 l-33 -6 48 44
47 44 -30 47 c-16 27 -30 50 -30 52 0 2 26 -10 57 -27 l57 -31 35 42 c20 23
39 41 42 42 4 0 1 -27 -6 -60z m-317 -201 c73 -25 111 -50 166 -109 57 -61 95
-141 103 -215 l6 -55 -422 0 -421 0 0 23 c0 90 64 216 142 280 121 99 277 127
426 76z m-727 -96 c-18 -63 -15 -68 45 -87 31 -10 54 -20 51 -22 -2 -2 -31 -8
-63 -12 l-59 -7 -3 -45 c-5 -77 -11 -79 -43 -17 -26 51 -33 57 -52 51 -36 -11
-91 -23 -94 -20 -2 2 17 20 42 40 25 21 45 42 45 47 0 6 -14 30 -30 55 -17 24
-28 44 -25 44 4 0 31 -13 61 -30 l53 -29 38 46 c41 49 50 45 34 -14z m1275 25
c-3 -13 -9 -40 -12 -60 -6 -36 -6 -36 45 -55 28 -10 51 -21 51 -24 0 -4 -27
-9 -60 -13 -59 -7 -60 -7 -61 -39 -1 -18 -4 -43 -8 -56 -6 -22 -9 -19 -31 28
-24 50 -26 51 -60 46 -19 -3 -46 -8 -60 -11 -22 -6 -20 -1 19 40 l45 46 -32
45 c-17 25 -27 45 -22 45 5 0 30 -11 57 -25 l48 -25 35 39 c40 45 55 51 46 19z
m-1376 -336 c0 -5 -13 -7 -30 -4 -23 3 -30 0 -30 -12 0 -10 9 -16 25 -16 14 0
25 -4 25 -9 0 -4 -12 -6 -27 -3 -23 4 -25 2 -20 -17 3 -14 1 -21 -9 -21 -10 0
-14 13 -14 45 l0 45 40 0 c22 0 40 -4 40 -8z m550 -7 c9 -10 9 -15 1 -15 -6 0
-11 5 -11 10 0 6 -9 10 -20 10 -29 0 -24 -17 10 -35 17 -9 30 -19 30 -23 0
-14 -23 -32 -39 -32 -13 1 -13 2 2 11 25 15 21 26 -13 38 -16 5 -30 17 -30 25
0 27 50 35 70 11z m580 -3 c0 -12 -3 -12 -15 -2 -8 7 -25 10 -40 6 -43 -11
-28 -76 17 -76 13 0 18 8 18 25 0 15 6 25 14 25 21 0 15 -40 -7 -52 -23 -12
-60 -4 -81 18 -21 21 -20 29 6 54 26 24 88 25 88 2z m242 -27 c2 -30 -1 -45
-9 -45 -6 0 -18 -3 -26 -6 -19 -7 -48 22 -40 41 3 9 16 18 29 21 13 3 24 12
24 20 0 8 4 14 9 14 5 0 11 -20 13 -45z m-1324 -18 c2 -15 -1 -27 -7 -27 -6 0
-11 6 -11 14 0 8 -3 22 -7 32 -4 12 -2 15 8 12 8 -2 15 -17 17 -31z m40 0 c2
-15 -1 -27 -6 -27 -6 0 -9 8 -7 18 1 9 -3 23 -9 31 -9 11 -8 13 4 9 8 -2 16
-17 18 -31z m87 22 c4 -6 4 -13 0 -17 -4 -4 -10 -1 -12 6 -8 20 -33 14 -33 -9
0 -18 5 -20 26 -16 23 4 24 3 11 -10 -12 -12 -19 -13 -36 -4 -11 7 -21 17 -21
24 0 30 51 50 65 26z m70 1 c-4 -6 -11 -8 -16 -5 -5 4 -9 -5 -9 -19 0 -14 -4
-26 -10 -26 -5 0 -10 13 -10 28 0 22 5 28 26 30 15 1 23 -2 19 -8z m73 -12
c-10 -20 -13 -21 -16 -5 -2 9 -10 17 -18 17 -25 0 -11 -35 16 -40 39 -8 31
-34 -11 -38 -35 -3 -36 -2 -34 31 3 47 11 57 46 57 28 0 29 -1 17 -22z m56 0
l7 -23 11 23 c6 12 15 22 21 22 17 0 -41 -85 -60 -87 -16 -2 -16 -1 0 3 21 7
22 27 1 59 -14 22 -14 25 -1 25 8 0 18 -10 21 -22z m267 -10 c6 -25 5 -28 -17
-28 -13 0 -27 0 -31 -1 -5 0 -9 7 -11 15 -2 9 2 16 8 16 6 0 8 -4 5 -10 -3 -5
1 -10 9 -10 9 0 14 8 13 20 -1 15 -6 18 -20 14 -13 -4 -17 -2 -12 6 13 21 48
7 56 -22z m49 10 l17 -22 7 22 c4 12 11 22 16 22 5 0 1 -13 -8 -30 -21 -37
-28 -37 -47 0 -18 35 -11 39 15 8z m90 -8 c0 -16 -4 -30 -10 -30 -5 0 -10 14
-10 30 0 17 5 30 10 30 6 0 10 -13 10 -30z m88 -2 c2 -16 -1 -28 -7 -28 -6 0
-11 12 -11 26 0 31 -23 28 -28 -4 -5 -32 -22 -27 -22 7 0 27 3 29 33 28 27 -2
32 -6 35 -29z m47 10 c-1 -17 5 -24 24 -28 40 -8 33 -34 -11 -38 -35 -3 -36
-2 -34 31 2 29 12 57 20 57 1 0 2 -10 1 -22z m45 2 c-6 -11 -12 -20 -14 -20
-2 0 -6 9 -9 20 -4 15 0 20 14 20 17 0 18 -3 9 -20z m220 -5 c0 -16 6 -25 16
-25 12 0 15 7 12 25 -4 17 -1 25 8 25 9 0 14 -11 14 -29 0 -22 -5 -30 -24 -33
-14 -3 -30 0 -35 5 -14 14 -14 57 -1 57 6 0 10 -11 10 -25z m100 -5 c0 -16 -4
-30 -10 -30 -5 0 -10 14 -10 30 0 17 5 30 10 30 6 0 10 -13 10 -30z m164 24
c26 -10 18 -24 -15 -24 -19 0 -28 -4 -23 -11 3 -6 18 -9 32 -6 25 5 25 4 8 -9
-23 -17 -56 -2 -56 26 0 24 24 35 54 24z m-1439 -44 c-3 -5 -12 -10 -18 -10
-7 0 -6 4 3 10 19 12 23 12 15 0z m490 0 c3 -5 1 -10 -4 -10 -6 0 -11 5 -11
10 0 6 2 10 4 10 3 0 8 -4 11 -10z"/>
<path d="M944 1639 c-5 -9 -2 -10 10 -6 14 5 17 3 13 -8 -4 -8 -2 -17 4 -20
15 -10 0 -25 -19 -18 -13 5 -15 3 -5 -7 20 -22 43 -4 40 32 -3 34 -28 50 -43
27z"/>
<path d="M560 1510 c0 -5 7 -7 15 -4 8 4 15 2 15 -4 0 -5 -7 -15 -15 -22 -8
-7 -15 -19 -15 -26 0 -16 36 -19 45 -4 3 6 -2 10 -11 10 -16 0 -16 1 0 19 10
11 15 25 11 30 -8 14 -45 14 -45 1z"/>
<path d="M1369 1508 c-1 -7 -1 -20 0 -28 2 -12 0 -12 -7 -1 -7 10 -11 10 -17
1 -9 -14 -4 -19 21 -22 21 -3 24 1 24 37 0 25 -19 36 -21 13z"/>
<path d="M701 1158 c0 -28 2 -30 9 -13 12 28 12 45 0 45 -5 0 -10 -15 -9 -32z"/>
<path d="M741 1178 c0 -7 4 -22 9 -33 7 -17 9 -15 9 13 1 17 -3 32 -9 32 -5 0
-10 -6 -9 -12z"/>
<path d="M774 1175 c-8 -21 2 -45 19 -45 8 0 20 7 27 15 10 12 10 18 0 30 -7
8 -19 15 -27 15 -7 0 -16 -7 -19 -15z m36 -15 c0 -11 -7 -20 -15 -20 -15 0
-21 21 -8 33 12 13 23 7 23 -13z"/>
<path d="M840 1158 c0 -25 3 -29 10 -18 9 13 11 13 20 0 7 -11 9 -7 7 15 -2
19 -9 31 -20 33 -13 3 -17 -4 -17 -30z m30 12 c0 -5 -4 -10 -10 -10 -5 0 -10
5 -10 10 0 6 5 10 10 10 6 0 10 -4 10 -10z"/>
<path d="M900 1160 c0 -25 4 -30 23 -29 16 1 18 2 5 6 -10 2 -18 13 -18 23 0
10 8 21 18 23 13 4 11 5 -5 6 -19 1 -23 -4 -23 -29z"/>
<path d="M980 1179 c0 -7 8 -18 18 -26 16 -13 15 -13 -7 -7 -16 4 -21 3 -17
-5 4 -6 13 -11 21 -11 23 0 28 20 9 36 -18 15 -18 15 -1 10 11 -3 16 -2 12 4
-8 14 -35 13 -35 -1z"/>
<path d="M1036 1182 c7 -4 14 -18 16 -32 3 -23 4 -22 9 8 5 27 3 32 -15 32
-13 0 -17 -3 -10 -8z"/>
<path d="M1087 1164 c-15 -29 -15 -29 14 -29 33 0 33 1 15 34 l-14 25 -15 -30z"/>
<path d="M1140 1158 c0 -24 3 -29 9 -19 7 11 13 12 23 3 11 -9 13 -5 12 16 0
20 -7 28 -22 30 -19 3 -22 -1 -22 -30z m30 12 c0 -5 -4 -10 -10 -10 -5 0 -10
5 -10 10 0 6 5 10 10 10 6 0 10 -4 10 -10z"/>
<path d="M1207 1183 c-10 -10 -8 -23 4 -23 5 0 7 5 3 12 -5 8 -2 9 10 5 10 -4
15 -3 11 3 -7 12 -19 13 -28 3z"/>
<path d="M720 1144 c0 -8 5 -12 10 -9 6 3 10 10 10 16 0 5 -4 9 -10 9 -5 0
-10 -7 -10 -16z"/>
<path d="M1230 1149 c0 -6 -7 -8 -16 -5 -8 3 -12 2 -9 -4 10 -15 35 -12 35 5
0 8 -2 15 -5 15 -3 0 -5 -5 -5 -11z"/>
<path d="M681 1068 c0 -28 2 -30 9 -13 12 28 12 45 0 45 -5 0 -10 -15 -9 -32z"/>
<path d="M721 1088 c0 -7 4 -22 9 -33 7 -17 9 -15 9 13 1 17 -3 32 -9 32 -5 0
-10 -6 -9 -12z"/>
<path d="M754 1085 c-8 -21 2 -45 19 -45 8 0 20 7 27 15 10 12 10 18 0 30 -7
8 -19 15 -27 15 -7 0 -16 -7 -19 -15z m42 -6 c10 -17 -13 -36 -27 -22 -12 12
-4 33 11 33 5 0 12 -5 16 -11z"/>
<path d="M821 1068 c2 -31 2 -31 6 -5 2 15 9 27 15 27 5 0 8 -6 5 -14 -3 -8 2
-20 11 -28 15 -12 16 -11 4 4 -9 11 -10 18 -2 23 15 9 2 25 -21 25 -15 0 -19
-6 -18 -32z"/>
<path d="M880 1070 c0 -25 4 -30 23 -29 16 1 18 2 5 6 -10 2 -18 13 -18 23 0
10 8 21 18 23 13 4 11 5 -5 6 -19 1 -23 -4 -23 -29z"/>
<path d="M965 1089 c-4 -6 1 -17 11 -25 17 -14 17 -15 2 -10 -10 3 -18 1 -18
-4 0 -13 27 -13 35 1 4 6 -1 17 -11 25 -18 15 -18 15 -1 10 11 -3 16 -2 12 4
-8 13 -22 13 -30 -1z"/>
<path d="M1022 1075 c-7 -14 -12 -27 -12 -28 0 -1 13 -2 29 -2 28 0 29 1 15
28 -8 15 -16 27 -18 27 -1 0 -8 -11 -14 -25z"/>
<path d="M1151 1070 c0 -33 1 -34 10 -11 6 16 6 28 -1 35 -7 7 -10 -1 -9 -24z"/>
<path d="M1214 1085 c-9 -23 3 -45 26 -45 11 0 20 7 20 15 0 8 -5 15 -11 15
-5 0 -7 -4 -4 -10 3 -5 -1 -10 -9 -10 -10 0 -16 9 -16 21 0 16 5 20 20 16 11
-3 18 -1 14 4 -8 14 -34 11 -40 -6z"/>
<path d="M1071 1080 c-1 -17 16 -47 22 -40 3 3 8 16 11 30 6 23 6 23 -5 5 -12
-19 -12 -19 -20 0 -5 13 -8 15 -8 5z"/>
<path d="M1123 1074 c-3 -8 -1 -20 6 -27 8 -8 11 -4 11 16 0 30 -7 35 -17 11z"/>
<path d="M700 1061 c0 -6 5 -13 10 -16 6 -3 10 1 10 9 0 9 -4 16 -10 16 -5 0
-10 -4 -10 -9z"/>
<path d="M1176 1055 c4 -8 8 -15 10 -15 2 0 4 7 4 15 0 8 -4 15 -10 15 -5 0
-7 -7 -4 -15z"/>
<path d="M305 1200 c-3 -5 -1 -10 4 -10 6 0 11 -11 11 -25 0 -14 5 -25 10 -25
6 0 10 16 10 35 0 34 -20 49 -35 25z"/>
<path d="M1587 1203 c-14 -13 -7 -42 8 -37 10 4 15 0 15 -11 0 -12 -5 -15 -21
-10 -15 5 -19 4 -15 -4 10 -15 43 -14 49 2 6 17 -3 32 -23 40 -12 4 -11 6 3 6
9 1 17 6 17 11 0 11 -23 14 -33 3z"/>
<path d="M1605 900 c-8 -13 14 -42 26 -34 5 3 9 14 9 25 0 20 -24 26 -35 9z"/>
<path d="M554 849 c-3 -5 9 -9 25 -9 17 0 31 2 31 4 0 8 -51 13 -56 5z"/>
<path d="M1194 849 c-3 -5 9 -9 25 -9 17 0 31 2 31 4 0 8 -51 13 -56 5z"/>
</g>
</svg>
