<?xml version="1.0" encoding="UTF-8"?>
<svg version="1.1" xmlns="http://www.w3.org/2000/svg" width="275" height="179">
<path d="M0 0 C90.75 0 181.5 0 275 0 C275 59.07 275 118.14 275 179 C184.25 179 93.5 179 0 179 C0 119.93 0 60.86 0 0 Z " fill="#FEFEFE" transform="translate(0,0)"/>
<path d="M0 0 C6.20655513 0 11.58938715 0.23555279 17.59765625 1.24609375 C26.39937877 2.6429103 35.21877157 3.84382102 44.05859375 4.97265625 C44.7205135 5.05747631 45.38243324 5.14229637 46.06441116 5.22968674 C50.85506705 5.84356978 55.64624012 6.45335223 60.4375 7.0625 C65.26193063 7.67635999 70.08616006 8.29175879 74.91008186 8.90960503 C76.80229545 9.15136615 78.69477564 9.39103779 80.58726501 9.63063049 C87.4824877 10.51225584 94.35392553 11.48797537 101.21923828 12.57911682 C104.99042175 13.14990564 108.76556065 13.52735844 112.5625 13.875 C122.19131525 14.8110927 131.7436779 16.21439217 141.30493164 17.67919922 C151.23628321 19.161993 157.9496894 19.23340236 168 17 C168 25.58 168 34.16 168 43 C166.02 43.99 164.04 44.98 162 46 C166.87070187 47.88989379 171.22391338 48.4014447 176.375 48.625 C177.11105469 48.66367188 177.84710938 48.70234375 178.60546875 48.7421875 C180.40327406 48.83557998 182.20160108 48.9188371 184 49 C184.33 48.34 184.66 47.68 185 47 C187.5625 46.375 187.5625 46.375 190 46 C190.23282073 49.89482216 190.37456639 53.78785854 190.5 57.6875 C190.56703125 58.79029297 190.6340625 59.89308594 190.703125 61.02929688 C190.89473321 68.95708669 190.89473321 68.95708669 188.37695312 71.8918457 C182.67975839 75.72613322 178.56536016 75.18541225 172 74 C172 79.94 172 85.88 172 92 C177.45919625 92.61672371 177.45919625 92.61672371 182.91918945 93.22631836 C183.60198975 93.30503174 184.28479004 93.38374512 184.98828125 93.46484375 C186.03302612 93.58267212 186.03302612 93.58267212 187.09887695 93.70288086 C189 94 189 94 192 95 C192.29146369 99.04013515 192.46829657 103.07757429 192.625 107.125 C192.70878906 108.26710938 192.79257813 109.40921875 192.87890625 110.5859375 C193.11508087 118.71034452 193.11508087 118.71034452 190.11621094 122.17871094 C184.68487194 125.89489025 180.12513398 126.5728689 173.71191406 125.55029297 C172.3695166 125.27789795 172.3695166 125.27789795 171 125 C170.20045898 124.86352051 169.40091797 124.72704102 168.57714844 124.58642578 C165.99776265 124.12780994 163.43880206 123.60138833 160.875 123.0625 C159.85857422 122.85431641 158.84214844 122.64613281 157.79492188 122.43164062 C155.35855413 121.9322609 152.92273002 121.43022522 150.48730469 120.92626953 C145.11078313 119.81446271 139.73112169 118.71809173 134.3515625 117.62109375 C133.31294067 117.4092746 132.27431885 117.19745544 131.20422363 116.97921753 C129.05831319 116.54158468 126.91239842 116.10397306 124.76647949 115.66638184 C121.49296019 114.99856384 118.21960006 114.32997101 114.94628906 113.66113281 C101.70890788 110.95667713 88.46808083 108.27230745 75.21630859 105.63916016 C68.28940626 104.26261315 61.3632122 102.88252198 54.4375 101.5 C53.68223022 101.34925018 52.92696045 101.19850037 52.14880371 101.04318237 C41.94366714 99.00481565 31.74862827 96.92427532 21.56420898 94.78442383 C10.3925025 92.44179585 -0.80382942 90.22221291 -12 88 C-12 80.74 -12 73.48 -12 66 C-4.125 61.5 -4.125 61.5 -0.0625 61.75 C1.278125 61.8325 2.61875 61.915 4 62 C4 56.72 4 51.44 4 46 C-2.6 45.01 -9.2 44.02 -16 43 C-16 35.74 -16 28.48 -16 21 C-10.72 21.33 -5.44 21.66 0 22 C0 14.74 0 7.48 0 0 Z " fill="#6B6C72" transform="translate(47,28)"/>
<path d="M0 0 C6.33743846 0 11.89531684 0.27603462 18.046875 1.30078125 C19.810235 1.57961622 21.57392347 1.85637981 23.33789062 2.13134766 C24.25900635 2.27509827 25.18012207 2.41884888 26.12915039 2.56695557 C31.08234092 3.31410428 36.04824291 3.96059849 41.015625 4.60546875 C42.0200061 4.73607697 43.02438721 4.86668518 44.0592041 5.00125122 C47.12260694 5.39819894 50.18629272 5.79290962 53.25 6.1875 C55.37502373 6.46270746 57.50002386 6.73809719 59.625 7.01367188 C64.74973171 7.67787274 69.87477183 8.33964146 75 9 C74.34 9.33 73.68 9.66 73 10 C73 17.59 73 25.18 73 33 C71.30875 32.71125 69.6175 32.4225 67.875 32.125 C61.84504219 31.11162211 55.7997117 30.26640996 49.73828125 29.46484375 C47 29 47 29 46 28 C44.845 28 43.69 28 42.5 28 C41.345 28 40.19 28 39 28 C38.67 27.67 38.34 27.34 38 27 C35.85742602 26.81226403 33.71029759 26.67578534 31.5625 26.5625 C25.55692998 26.18138911 19.8504601 25.38847325 14 24 C14.33 22.68 14.66 21.36 15 20 C11.27385847 21.11854586 11.27385847 21.11854586 9 24 C11.64 24.66 14.28 25.32 17 26 C17.85373239 33.02804699 18.12109311 39.92278069 18 47 C13.48382401 47.07654536 9.40914783 47.10228696 5 46 C5 46.66 5 47.32 5 48 C5.71019287 48.08040527 6.42038574 48.16081055 7.15209961 48.24365234 C10.41448295 48.61584385 13.67597413 48.9953708 16.9375 49.375 C18.61295898 49.56449219 18.61295898 49.56449219 20.32226562 49.7578125 C21.42119141 49.88671875 22.52011719 50.015625 23.65234375 50.1484375 C24.65257568 50.26364746 25.65280762 50.37885742 26.68334961 50.49755859 C30.82552137 51.12505874 34.91033036 52.09118452 39 53 C39 60.59 39 68.18 39 76 C38.67 75.34 38.34 74.68 38 74 C35.57902515 73.73730483 33.24066362 73.57825361 30.8125 73.5 C25.78880143 73.30279888 21.70978395 72.7636056 17 71 C15.33911955 70.63893903 13.67381019 70.29537827 12 70 C12.66 70.99 13.32 71.98 14 73 C16.31 73.33 18.62 73.66 21 74 C21 80.6 21 87.2 21 94 C9.82925173 92.55861313 -0.994132 90.39258 -12 88 C-12 80.74 -12 73.48 -12 66 C-4.125 61.5 -4.125 61.5 -0.0625 61.75 C1.278125 61.8325 2.61875 61.915 4 62 C4 56.72 4 51.44 4 46 C-2.6 45.01 -9.2 44.02 -16 43 C-16 35.74 -16 28.48 -16 21 C-10.72 21.33 -5.44 21.66 0 22 C0 14.74 0 7.48 0 0 Z " fill="#707077" transform="translate(47,28)"/>
<path d="M0 0 C6.7363628 0 12.45523519 0.20394281 18.9375 1.375 C25.26126013 2.44607481 31.55268432 3.32981872 37.9375 3.9375 C47.44325633 4.84610851 56.86871616 6.23351662 66.30639648 7.67944336 C76.23719354 9.16208126 82.9502193 9.2332846 93 7 C93 15.58 93 24.16 93 33 C91.02 33.99 89.04 34.98 87 36 C85.515 35.505 85.515 35.505 84 35 C81.92684027 34.83332012 79.85052398 34.70482523 77.7734375 34.59765625 C69.94344788 34.08271099 62.33871766 32.83963707 54.625 31.4375 C53.29178306 31.20051614 51.95844988 30.96418528 50.625 30.72851562 C47.41552845 30.15871814 44.20759306 29.58027885 41 29 C41 21.08 41 13.16 41 5 C40.34 5 39.68 5 39 5 C39 12.92 39 20.84 39 29 C25.92676089 27.27334578 12.96696777 25.38865196 0 23 C0 15.41 0 7.82 0 0 Z " fill="#707077" transform="translate(122,38)"/>
<path d="M0 0 C2.77132017 0.30859025 5.54199986 0.6217033 8.3125 0.9375 C9.49102539 1.06801758 9.49102539 1.06801758 10.69335938 1.20117188 C11.45068359 1.28818359 12.20800781 1.37519531 12.98828125 1.46484375 C13.68477783 1.543396 14.38127441 1.62194824 15.09887695 1.70288086 C17 2 17 2 20 3 C20.29146369 7.04013515 20.46829657 11.07757429 20.625 15.125 C20.70878906 16.26710937 20.79257813 17.40921875 20.87890625 18.5859375 C21.11508087 26.71034452 21.11508087 26.71034452 18.11621094 30.17871094 C12.75836386 33.8446063 8.23686309 34.59719276 1.90527344 33.58984375 C0.9465332 33.39519531 -0.01220703 33.20054687 -1 33 C-2.03350586 32.81566406 -3.06701172 32.63132813 -4.13183594 32.44140625 C-7.39035717 31.83946994 -10.63170447 31.17891952 -13.875 30.5 C-14.97585937 30.27441406 -16.07671875 30.04882812 -17.2109375 29.81640625 C-19.24518528 29.39918796 -21.2789455 28.97957901 -23.31201172 28.55664062 C-25.87250832 28.02640155 -28.43536149 27.50978519 -31 27 C-30.34 26.67 -29.68 26.34 -29 26 C-29.99 25.67 -30.98 25.34 -32 25 C-32 6 -32 6 -31 3 C-28.35323911 3.47444755 -25.70766636 3.95431328 -23.0625 4.4375 C-22.30775391 4.57220703 -21.55300781 4.70691406 -20.77539062 4.84570312 C-15.11328125 5.88671875 -15.11328125 5.88671875 -14 7 C-14 6.67 -14 6.34 -14 6 C-12.948125 5.896875 -11.89625 5.79375 -10.8125 5.6875 C-7.09708498 5.01750713 -5.10044579 4.03743581 -2 2 C-1.34 2 -0.68 2 0 2 C0 1.34 0 0.68 0 0 Z " fill="#6F6F76" transform="translate(219,120)"/>
<path d="M0 0 C10.60112547 0.96373868 20.89455689 2.05511136 31.33789062 3.98242188 C36.30401514 4.85374709 40.95704958 5.13165478 46 5 C46.33 4.34 46.66 3.68 47 3 C49.5625 2.375 49.5625 2.375 52 2 C52.23282073 5.89482216 52.37456639 9.78785854 52.5 13.6875 C52.60054687 15.34168945 52.60054687 15.34168945 52.703125 17.02929688 C52.89030713 24.77395731 52.89030713 24.77395731 50.60546875 27.92041016 C45.75545671 31.54913293 41.04995036 31.32818376 35.25146484 30.5546875 C34.17848145 30.37164062 33.10549805 30.18859375 32 30 C30.88447754 29.81695312 29.76895508 29.63390625 28.61962891 29.4453125 C25.17330948 28.84331824 21.74382549 28.18197838 18.3125 27.5 C17.13494141 27.27441406 15.95738281 27.04882812 14.74414062 26.81640625 C6.13544845 25.13544845 6.13544845 25.13544845 5 24 C3.35 24 1.7 24 0 24 C0 16.08 0 8.16 0 0 Z " fill="#707076" transform="translate(185,72)"/>
<path d="M0 0 C1.73568945 0.24465201 3.47829977 0.44096485 5.22265625 0.61328125 C6.30667725 0.72494629 7.39069824 0.83661133 8.50756836 0.95166016 C9.6806958 1.0707373 10.85382324 1.18981445 12.0625 1.3125 C22.58250663 2.42105529 33.00075253 3.83802261 43.42407227 5.6418457 C50.33575546 6.81826508 56.94676279 7.41223023 64 8 C64 16.58 64 25.16 64 34 C67.96 34.33 71.92 34.66 76 35 C79.3 35.66 82.6 36.32 86 37 C86 45.25 86 53.5 86 62 C85.67 62 85.34 62 85 62 C85 54.08 85 46.16 85 38 C83.35 38.33 81.7 38.66 80 39 C79.67 39.99 79.34 40.98 79 42 C62.1070615 41.22095672 62.1070615 41.22095672 55 39 C59.625 35 59.625 35 63 35 C63 26.42 63 17.84 63 9 C60.03 9.99 57.06 10.98 54 12 C48.68834499 12.32635437 43.73079543 11.79888334 38.484375 10.9765625 C37.06526787 10.75910845 35.64615976 10.54166078 34.22705078 10.32421875 C33.49649475 10.20997559 32.76593872 10.09573242 32.01324463 9.97802734 C17.11275914 7.64446477 17.11275914 7.64446477 2.125 6 C-13.31727029 4.6690101 -28.66150375 2.19372086 -44 0 C-44 -0.33 -44 -0.66 -44 -1 C-11.65913758 -5.82956879 -11.65913758 -5.82956879 0 0 Z " fill="#EBE8ED" transform="translate(152,36)"/>
<path d="M0 0 C1.38599999 0.17631439 2.77206756 0.35209836 4.15820312 0.52734375 C8.17101632 1.03850219 12.17933451 1.57854592 16.1875 2.125 C17.45384277 2.29290039 18.72018555 2.46080078 20.02490234 2.63378906 C21.19617676 2.7984668 22.36745117 2.96314453 23.57421875 3.1328125 C24.61151123 3.27605957 25.64880371 3.41930664 26.7175293 3.56689453 C29.1875 4.125 29.1875 4.125 31.1875 6.125 C28.2175 5.795 25.2475 5.465 22.1875 5.125 C22.6825 6.115 22.6825 6.115 23.1875 7.125 C25.71483235 7.78055119 25.71483235 7.78055119 28.1875 8.125 C28.1875 8.455 28.1875 8.785 28.1875 9.125 C18.295141 8.5724393 8.50084603 7.67747077 -1.32910156 6.45043945 C-3.44280704 6.18683816 -5.55724049 5.92985901 -7.671875 5.67382812 C-16.07812827 4.64620192 -24.44807381 3.45543298 -32.8125 2.125 C-32.8125 9.385 -32.8125 16.645 -32.8125 24.125 C-38.59040229 24.125 -43.27097359 24.06823854 -48.8125 23.125 C-43.65029149 19.68352766 -40.08494981 19.125 -33.8125 19.125 C-33.8125 13.185 -33.8125 7.245 -33.8125 1.125 C-32.1625 1.125 -30.5125 1.125 -28.8125 1.125 C-28.8125 0.465 -28.8125 -0.195 -28.8125 -0.875 C-19.78500807 -3.88416398 -9.23118252 -1.21251148 0 0 Z " fill="#E0DEE3" transform="translate(79.8125,25.875)"/>
<path d="M0 0 C0.33 0 0.66 0 1 0 C1 6.6 1 13.2 1 20 C-6.66423358 24.37956204 -6.66423358 24.37956204 -12 25 C-12.66 25.33 -13.32 25.66 -14 26 C-14 25.34 -14 24.68 -14 24 C-19.28 23.34 -24.56 22.68 -30 22 C-30.33 22.66 -30.66 23.32 -31 24 C-30.34 24.33 -29.68 24.66 -29 25 C-29.33 25.33 -29.66 25.66 -30 26 C-30.23701239 28.85877909 -30.42219182 31.69883297 -30.5625 34.5625 C-30.60568359 35.36880859 -30.64886719 36.17511719 -30.69335938 37.00585938 C-30.79975262 39.00368805 -30.90040888 41.0018207 -31 43 C-29.515 42.505 -29.515 42.505 -28 42 C-28 42.66 -28 43.32 -28 44 C-29.65 43.67 -31.3 43.34 -33 43 C-33 35.08 -33 27.16 -33 19 C-25.18280225 19.55180219 -17.68756941 20.48271656 -10 22 C-10 16.06 -10 10.12 -10 4 C-9.34 5.32 -8.68 6.64 -8 8 C-3.93766783 5.91393754 -2.16017343 3.99632084 0 0 Z " fill="#5E5F64" transform="translate(218,102)"/>
<path d="M0 0 C1.51818102 0.218654 3.04333251 0.39018979 4.5703125 0.53515625 C5.91416016 0.66567383 5.91416016 0.66567383 7.28515625 0.79882812 C8.22230469 0.88583984 9.15945312 0.97285156 10.125 1.0625 C11.06988281 1.15337891 12.01476562 1.24425781 12.98828125 1.33789062 C15.32520611 1.56214099 17.66242116 1.78269057 20 2 C20 2.66 20 3.32 20 4 C14.23593039 6.53308889 10.03835585 7.35157648 3.75 6.5 C2.93950195 6.40541504 2.12900391 6.31083008 1.29394531 6.21337891 C-1.80838107 5.83792754 -4.90354309 5.42123434 -8 5 C-9.48176443 4.80040816 -10.96353572 4.60086731 -12.4453125 4.40136719 C-22.96990169 2.97885074 -33.48671769 1.50361589 -44 0 C-44 -0.33 -44 -0.66 -44 -1 C-11.65913758 -5.82956879 -11.65913758 -5.82956879 0 0 Z " fill="#E9E7EC" transform="translate(152,36)"/>
<path d="M0 0 C0.33 0 0.66 0 1 0 C1 8.25 1 16.5 1 25 C4.96 25.33 8.92 25.66 13 26 C16.3 26.66 19.6 27.32 23 28 C23 36.25 23 44.5 23 53 C22.67 53 22.34 53 22 53 C22 45.08 22 37.16 22 29 C20.35 29.33 18.7 29.66 17 30 C16.67 30.99 16.34 31.98 16 33 C-0.8929385 32.22095672 -0.8929385 32.22095672 -8 30 C-3.375 26 -3.375 26 0 26 C0 17.42 0 8.84 0 0 Z " fill="#A3A2A8" transform="translate(215,45)"/>
<path d="M0 0 C1.32 0 2.64 0 4 0 C3.67 1.32 3.34 2.64 3 4 C10.05512284 4.76403404 17.1078 5.29175113 24.19140625 5.71875 C27 6 27 6 28 7 C30.67058851 7.14115161 33.32432238 7.04247107 36 7 C36 7.66 36 8.32 36 9 C42.93 9.495 42.93 9.495 50 10 C48.68 11.32 47.36 12.64 46 14 C45.45757835 16.10956469 45.45757835 16.10956469 45.609375 18.328125 C45.62226562 19.12734375 45.63515625 19.9265625 45.6484375 20.75 C45.69871094 21.9875 45.69871094 21.9875 45.75 23.25 C45.76804688 24.09046875 45.78609375 24.9309375 45.8046875 25.796875 C45.85169202 27.86507395 45.92343276 29.93268441 46 32 C46.99 32.33 47.98 32.66 49 33 C47.35 33 45.7 33 44 33 C44 27.06 44 21.12 44 15 C43.34 15 42.68 15 42 15 C42 14.34 42 13.68 42 13 C31.18036642 9.84147343 20.14809164 8.47179862 9 7 C9 9.97 9 12.94 9 16 C8.01 16 7.02 16 6 16 C6 12.7 6 9.4 6 6 C2.04 5.67 -1.92 5.34 -6 5 C-4.68 4.67 -3.36 4.34 -2 4 C-0.71563266 2.0162233 -0.71563266 2.0162233 0 0 Z " fill="#5E5E64" transform="translate(58,48)"/>
<path d="M0 0 C1.93784265 0.14120714 3.87526955 0.28812873 5.8125 0.4375 C7.43091797 0.55931641 7.43091797 0.55931641 9.08203125 0.68359375 C12 1 12 1 15 2 C15 10.25 15 18.5 15 27 C14.67 27 14.34 27 14 27 C13.67 19.74 13.34 12.48 13 5 C11.68 5 10.36 5 9 5 C9 5.66 9 6.32 9 7 C7.58456585 7.19658808 6.16755969 7.38187546 4.75 7.5625 C3.96109375 7.66691406 3.1721875 7.77132812 2.359375 7.87890625 C-0.00532874 8.00027349 -1.7511037 7.69633257 -4 7 C-2.99257646 3.97772938 -2.20999438 3.11390767 0 1 C0 0.67 0 0.34 0 0 Z " fill="#8E8D92" transform="translate(224,121)"/>
<path d="M0 0 C2.86688248 0.09096556 5.70300515 0.23767988 8.5625 0.4375 C9.36880859 0.48970703 10.17511719 0.54191406 11.00585938 0.59570312 C13.00421738 0.72577376 15.00215386 0.86229056 17 1 C17 1.66 17 2.32 17 3 C10.60531385 5.91002423 6.15446255 6.23954943 -0.75 5.3125 C-1.62237305 5.21018066 -2.49474609 5.10786133 -3.39355469 5.00244141 C-9.96121181 4.20853543 -16.50130817 3.24161998 -23 2 C-23 1.67 -23 1.34 -23 1 C-22.3387915 1.00523682 -21.67758301 1.01047363 -20.99633789 1.01586914 C-18.01840149 1.03657656 -15.04048018 1.04964012 -12.0625 1.0625 C-11.02158203 1.07087891 -9.98066406 1.07925781 -8.90820312 1.08789062 C-7.91884766 1.09111328 -6.92949219 1.09433594 -5.91015625 1.09765625 C-4.99371338 1.10289307 -4.07727051 1.10812988 -3.13305664 1.11352539 C-1.01636977 1.23921211 -1.01636977 1.23921211 0 0 Z " fill="#CBCAD0" transform="translate(155,37)"/>
<path d="M0 0 C0.33 0.66 0.66 1.32 1 2 C0.01 2.66 -0.98 3.32 -2 4 C-3.2273341 6.4546682 -3.03372938 7.95542251 -2.9375 10.6875 C-2.87828509 15.22073046 -3.51592547 18.73328574 -5 23 C-5.66 23 -6.32 23 -7 23 C-7.33 15.41 -7.66 7.82 -8 0 C-3.17808219 -1.20547945 -3.17808219 -1.20547945 0 0 Z " fill="#67686E" transform="translate(95,81)"/>
<path d="M0 0 C0.99 0 1.98 0 3 0 C3.05413245 2.89608593 3.09373641 5.79115195 3.125 8.6875 C3.14175781 9.50412109 3.15851562 10.32074219 3.17578125 11.16210938 C3.2114802 15.57092929 3.07580814 18.98731576 1 23 C-8.41002278 23.3690205 -8.41002278 23.3690205 -13 21 C-7.60392434 16.86300866 -4.76018293 16.90342596 2 17 C2 11.72 2 6.44 2 1 C1.34 0.67 0.68 0.34 0 0 Z " fill="#97969C" transform="translate(49,73)"/>
<path d="M0 0 C1.98 0 3.96 0 6 0 C6 0.33 6 0.66 6 1 C4.35 1 2.7 1 1 1 C1 8.26 1 15.52 1 23 C-4.77790229 23 -9.45847359 22.94323854 -15 22 C-9.83779149 18.55852766 -6.27244981 18 0 18 C0 12.06 0 6.12 0 0 Z " fill="#B9BABD" transform="translate(46,27)"/>
<path d="M0 0 C13.2 0 26.4 0 40 0 C29.8033532 5.0983234 21.44702417 4.09464525 10.5 2.5 C9.48679688 2.35691406 8.47359375 2.21382812 7.4296875 2.06640625 C4.95238218 1.71584418 2.47590863 1.36027153 0 1 C0 0.67 0 0.34 0 0 Z " fill="#CDC9CF" transform="translate(176,44)"/>
<path d="M0 0 C0.95003906 0.09925781 1.90007812 0.19851562 2.87890625 0.30078125 C5.4375 0.6875 5.4375 0.6875 8.4375 1.6875 C8.4375 9.9375 8.4375 18.1875 8.4375 26.6875 C8.1075 26.6875 7.7775 26.6875 7.4375 26.6875 C7.4375 18.7675 7.4375 10.8475 7.4375 2.6875 C5.7875 3.3475 4.1375 4.0075 2.4375 4.6875 C0.0859375 4.734375 0.0859375 4.734375 -2.1875 4.4375 C-3.32058594 4.30601563 -3.32058594 4.30601563 -4.4765625 4.171875 C-6.5625 3.6875 -6.5625 3.6875 -9.5625 1.6875 C-6.17726169 -0.40126406 -3.91195379 -0.44175805 0 0 Z " fill="#B6B5B9" transform="translate(229.5625,71.3125)"/>
<path d="M0 0 C-2.31 0.66 -4.62 1.32 -7 2 C-7 2.33 -7 2.66 -7 3 C-14.47093223 3.29883729 -21.63044989 2.15925507 -29 1 C-29 0.67 -29 0.34 -29 0 C-6.0300399 -3.43018071 -6.0300399 -3.43018071 0 0 Z " fill="#D0CDD5" transform="translate(137,35)"/>
<path d="M0 0 C0.66 0 1.32 0 2 0 C1.67 2.64 1.34 5.28 1 8 C2.32 8.33 3.64 8.66 5 9 C4.01 9.33 3.02 9.66 2 10 C1.34 11.32 0.68 12.64 0 14 C-3.63 14 -7.26 14 -11 14 C-10.67 13.01 -10.34 12.02 -10 11 C-7.0625 9.875 -7.0625 9.875 -4 9 C-1.82961523 8.20700294 -1.82961523 8.20700294 -1.3671875 6.15234375 C-1.20476562 5.42144531 -1.04234375 4.69054688 -0.875 3.9375 C-0.70742187 3.20402344 -0.53984375 2.47054687 -0.3671875 1.71484375 C-0.24601562 1.14894531 -0.12484375 0.58304688 0 0 Z " fill="#6D6E73" transform="translate(82,40)"/>
<path d="M0 0 C1.299375 -0.02126953 1.299375 -0.02126953 2.625 -0.04296875 C5 0.1875 5 0.1875 8 2.1875 C8 2.8475 8 3.5075 8 4.1875 C8.33 4.8475 8.66 5.5075 9 6.1875 C2.66606918 6.53298714 -2.10261508 5.48092747 -8 3.1875 C-8 2.5275 -8 1.8675 -8 1.1875 C-5.07345473 0.21198491 -3.05345004 0.02271912 0 0 Z " fill="#D9D5DA" transform="translate(59,23.8125)"/>
<path d="M0 0 C0 7.92 0 15.84 0 24 C-0.99 23.67 -1.98 23.34 -3 23 C-2.67 16.07 -2.34 9.14 -2 2 C-4.31 1.67 -6.62 1.34 -9 1 C-11.4375 -0.0625 -11.4375 -0.0625 -13 -1 C-9 -2 -9 -2 0 0 Z " fill="#4E4E53" transform="translate(145,113)"/>
<path d="M0 0 C2.97 0 5.94 0 9 0 C9 4 9 4 7.25 6.125 C5 8 5 8 1 10 C0.67 6.7 0.34 3.4 0 0 Z " fill="#48474D" transform="translate(208,101)"/>
<path d="M0 0 C8.07029553 -0.11547323 15.97667603 0.09958689 24 1 C18.38774852 4.74150099 12.58084441 4.40833522 6 4 C2.3125 3 2.3125 3 0 2 C0 1.34 0 0.68 0 0 Z " fill="#E7E5EC" transform="translate(102,31)"/>
<path d="M0 0 C2.64 0.33 5.28 0.66 8 1 C8 1.66 8 2.32 8 3 C6.68 3.33 5.36 3.66 4 4 C3.67 6.97 3.34 9.94 3 13 C3.66 12.67 4.32 12.34 5 12 C4.67 13.65 4.34 15.3 4 17 C3.67 16.34 3.34 15.68 3 15 C2.01 15 1.02 15 0 15 C0 10.05 0 5.1 0 0 Z " fill="#696A6E" transform="translate(47,28)"/>
<path d="M0 0 C0.99 0 1.98 0 3 0 C3 0.66 3 1.32 3 2 C5.64 1.67 8.28 1.34 11 1 C11 1.99 11 2.98 11 4 C7.21916742 6.52055505 3.38281981 6.46702178 -1 6 C-3.5 5 -3.5 5 -5 4 C-5 3.34 -5 2.68 -5 2 C-4.360625 1.855625 -3.72125 1.71125 -3.0625 1.5625 C-1.02454854 1.18992819 -1.02454854 1.18992819 0 0 Z " fill="#6D6C71" transform="translate(41,111)"/>
<path d="M0 0 C0.33 0 0.66 0 1 0 C1 8.25 1 16.5 1 25 C2.32 25.33 3.64 25.66 5 26 C3.24135754 28.1793144 2.30604 28.93686419 -0.48046875 29.51171875 C-1.37378906 29.56972656 -2.26710937 29.62773438 -3.1875 29.6875 C-4.08855469 29.75324219 -4.98960937 29.81898437 -5.91796875 29.88671875 C-6.60503906 29.92410156 -7.29210937 29.96148437 -8 30 C-3.375 26 -3.375 26 0 26 C0 17.42 0 8.84 0 0 Z " fill="#96969A" transform="translate(215,45)"/>
<path d="M0 0 C10 1 10 1 14 3 C12.7625 3.12375 11.525 3.2475 10.25 3.375 C7.09281533 3.69071847 4.5067319 3.97702338 2 6 C1.53290648 8.66482841 1.30427527 10.95070966 1.25 13.625 C1.22035156 14.33140625 1.19070312 15.0378125 1.16015625 15.765625 C1.08944643 17.50980047 1.04245965 19.25490827 1 21 C0.67 21 0.34 21 0 21 C0 14.07 0 7.14 0 0 Z " fill="#64656A" transform="translate(106,107)"/>
<path d="M0 0 C0.99 0.495 0.99 0.495 2 1 C2 2.32 2 3.64 2 5 C2.66 5.33 3.32 5.66 4 6 C3.67 6.33 3.34 6.66 3 7 C2.76298761 9.85877909 2.57780818 12.69883297 2.4375 15.5625 C2.39431641 16.36880859 2.35113281 17.17511719 2.30664062 18.00585938 C2.20024738 20.00368805 2.09959112 22.0018207 2 24 C2.99 23.67 3.98 23.34 5 23 C5 23.66 5 24.32 5 25 C3.35 24.67 1.7 24.34 0 24 C0 16.08 0 8.16 0 0 Z " fill="#53535A" transform="translate(185,121)"/>
<path d="M0 0 C2.31 0.33 4.62 0.66 7 1 C7 1.33 7 1.66 7 2 C5.35 2 3.7 2 2 2 C2 2.66 2 3.32 2 4 C4.31 4 6.62 4 9 4 C9.33 4.66 9.66 5.32 10 6 C-3.86 4.515 -3.86 4.515 -18 3 C-18 2.67 -18 2.34 -18 2 C-12.06 2 -6.12 2 0 2 C0 1.34 0 0.68 0 0 Z " fill="#C2BFC7" transform="translate(86,28)"/>
<path d="M0 0 C6.44097165 -0.24204069 12.87168982 -0.2614721 19 2 C19.33 2.66 19.66 3.32 20 4 C17.2079699 3.8595017 14.41650204 3.71284617 11.625 3.5625 C10.8309375 3.52318359 10.036875 3.48386719 9.21875 3.44335938 C3.2265625 3.11328125 3.2265625 3.11328125 1 2 C1 3.65 1 5.3 1 7 C0.67 7 0.34 7 0 7 C0 4.69 0 2.38 0 0 Z " fill="#606166" transform="translate(145,114)"/>
<path d="M0 0 C0.33 0.66 0.66 1.32 1 2 C5.44320697 3.91865756 10.22628119 5.23004535 15 6 C11.80594791 8.12936806 11.50812339 8.23418211 7.98828125 7.7578125 C7.23095703 7.66113281 6.47363281 7.56445312 5.69335938 7.46484375 C4.90767578 7.35269531 4.12199219 7.24054688 3.3125 7.125 C2.51521484 7.02058594 1.71792969 6.91617188 0.89648438 6.80859375 C-1.07041111 6.54948177 -3.03541767 6.27610346 -5 6 C-3.68 5.67 -2.36 5.34 -1 5 C-0.67 3.35 -0.34 1.7 0 0 Z " fill="#56575B" transform="translate(68,72)"/>
<path d="M0 0 C2.4375 1.5 2.4375 1.5 4 3 C3.09507812 3.09087891 3.09507812 3.09087891 2.171875 3.18359375 C0.97304687 3.30927734 0.97304687 3.30927734 -0.25 3.4375 C-1.03890625 3.51871094 -1.8278125 3.59992187 -2.640625 3.68359375 C-4.97957432 3.94717054 -4.97957432 3.94717054 -7.125 4.5625 C-9.62296909 5.14535945 -11.54079819 4.61480045 -14 4 C-9.36724422 0.32574541 -5.93149067 -0.41624496 0 0 Z " fill="#DBDADE" transform="translate(179,39)"/>
<path d="M0 0 C0.33 1.32 0.66 2.64 1 4 C0.01 4.495 0.01 4.495 -1 5 C-0.34 5.66 0.32 6.32 1 7 C-1.64 7 -4.28 7 -7 7 C-6.6875 4.625 -6.6875 4.625 -6 2 C-3 0 -3 0 0 0 Z " fill="#67666C" transform="translate(39,64)"/>
<path d="M0 0 C2.72947644 0.30996259 5.45855985 0.62287975 8.1875 0.9375 C8.95642578 1.02451172 9.72535156 1.11152344 10.51757812 1.20117188 C14.38772828 1.64964421 18.19186624 2.1529001 22 3 C18.72088987 5.18607342 18.42488745 5.21978071 14.8046875 4.609375 C14.00675781 4.47660156 13.20882812 4.34382813 12.38671875 4.20703125 C11.55785156 4.05621094 10.72898438 3.90539062 9.875 3.75 C9.03839844 3.61464844 8.20179688 3.47929688 7.33984375 3.33984375 C2.74874501 2.54365645 2.74874501 2.54365645 1 2 C0.67 1.34 0.34 0.68 0 0 Z " fill="#54545C" transform="translate(163,67)"/>
<path d="M0 0 C0.99 0 1.98 0 3 0 C3 8.58 3 17.16 3 26 C2.01 26 1.02 26 0 26 C0.23009766 25.05060547 0.23009766 25.05060547 0.46484375 24.08203125 C1.18062964 19.95973151 1.36150163 15.86233493 1.5625 11.6875 C1.60568359 10.85154297 1.64886719 10.01558594 1.69335938 9.15429688 C1.79885307 7.10303065 1.89987315 5.0515352 2 3 C1.34 3 0.68 3 0 3 C0 2.01 0 1.02 0 0 Z " fill="#67666B" transform="translate(212,45)"/>
<path d="M0 0 C7.625 0.875 7.625 0.875 11 2 C11 2.66 11 3.32 11 4 C9.741875 4.185625 8.48375 4.37125 7.1875 4.5625 C6.12595703 4.71912109 6.12595703 4.71912109 5.04296875 4.87890625 C3 5 3 5 0 4 C0 2.68 0 1.36 0 0 Z " fill="#66676C" transform="translate(93,106)"/>
<path d="M0 0 C-0.99 0.66 -1.98 1.32 -3 2 C-3.66 1.67 -4.32 1.34 -5 1 C-5.33 2.32 -5.66 3.64 -6 5 C-7.98 5.33 -9.96 5.66 -12 6 C-11.1875 3.0625 -11.1875 3.0625 -10 0 C-6.30581799 -1.231394 -3.7943739 -0.64432764 0 0 Z " fill="#66676F" transform="translate(89,34)"/>
<path d="M0 0 C2.125 0.4375 2.125 0.4375 4 1 C4.33 0.67 4.66 0.34 5 0 C5.99 0.33 6.98 0.66 8 1 C8 1.99 8 2.98 8 4 C6.35 4 4.7 4 3 4 C3 4.33 3 4.66 3 5 C1.02 5 -0.96 5 -3 5 C-3 4.01 -3 3.02 -3 2 C-2.01 1.34 -1.02 0.68 0 0 Z " fill="#67686C" transform="translate(165,136)"/>
<path d="M0 0 C2.79297711 0.44099639 5.31340243 1.10446748 8 2 C8.33 2.99 8.66 3.98 9 5 C4.30976546 4.43393721 -0.34500026 3.81462495 -5 3 C-4.360625 2.690625 -3.72125 2.38125 -3.0625 2.0625 C-1.06389179 1.1654837 -1.06389179 1.1654837 0 0 Z " fill="#79787D" transform="translate(49,115)"/>
<path d="M0 0 C0.98484375 0.21269531 1.9696875 0.42539063 2.984375 0.64453125 C3.73203125 0.82371094 4.4796875 1.00289063 5.25 1.1875 C4.26 1.6825 4.26 1.6825 3.25 2.1875 C3.25 2.8475 3.25 3.5075 3.25 4.1875 C0.28 3.6925 0.28 3.6925 -2.75 3.1875 C-3.08 4.1775 -3.41 5.1675 -3.75 6.1875 C-3.75 4.8675 -3.75 3.5475 -3.75 2.1875 C-5.73 2.1875 -7.71 2.1875 -9.75 2.1875 C-6.33725359 -1.03835792 -4.49839321 -1.0174937 0 0 Z " fill="#5F5F65" transform="translate(63.75,97.8125)"/>
<path d="M0 0 C2.475 0.99 2.475 0.99 5 2 C3.35 3.98 1.7 5.96 0 8 C-1.32 7.67 -2.64 7.34 -4 7 C-2.84826645 4.53199953 -1.95216435 2.95216435 0 1 C0 0.67 0 0.34 0 0 Z " fill="#807F86" transform="translate(220,120)"/>
<path d="M0 0 C2.97 0.495 2.97 0.495 6 1 C6 2.98 6 4.96 6 7 C4.68 7.33 3.36 7.66 2 8 C1.67 7.01 1.34 6.02 1 5 C1.66 5 2.32 5 3 5 C3 4.34 3 3.68 3 3 C2.34 3 1.68 3 1 3 C0.67 2.01 0.34 1.02 0 0 Z " fill="#6A696E" transform="translate(228,144)"/>
<path d="M0 0 C2.62594784 0.1136515 5.25011547 0.24039054 7.875 0.375 C8.62136719 0.4059375 9.36773437 0.436875 10.13671875 0.46875 C15.7734375 0.7734375 15.7734375 0.7734375 18 3 C14.12601645 4.29132785 11.18011214 3.41113572 7.3125 2.5625 C6.61060547 2.41490234 5.90871094 2.26730469 5.18554688 2.11523438 C3.45555806 1.7504068 1.72757037 1.37611311 0 1 C0 0.67 0 0.34 0 0 Z " fill="#56575C" transform="translate(92,81)"/>
<path d="M0 0 C3.14624993 -0.26218749 4.61837017 -0.24754367 7.3125 1.5 C8.1478125 2.2425 8.1478125 2.2425 9 3 C7.35 3 5.7 3 4 3 C3.67 3.99 3.34 4.98 3 6 C2.01 6.33 1.02 6.66 0 7 C0 4.69 0 2.38 0 0 Z " fill="#696A6F" transform="translate(143,66)"/>
<path d="M0 0 C1.32 0 2.64 0 4 0 C4 0.66 4 1.32 4 2 C5.32 2.33 6.64 2.66 8 3 C6 5 6 5 3 5.25 C0 5 0 5 -2 3 C-1.34 2.01 -0.68 1.02 0 0 Z " fill="#6A696D" transform="translate(198,144)"/>
<path d="M0 0 C2.97 0.33 5.94 0.66 9 1 C8.505 1.639375 8.01 2.27875 7.5 2.9375 C5.90197138 4.70974339 5.90197138 4.70974339 6 6 C4.35 6 2.7 6 1 6 C1.33 4.35 1.66 2.7 2 1 C1.34 0.67 0.68 0.34 0 0 Z " fill="#696A6F" transform="translate(187,72)"/>
<path d="M0 0 C-1 1.5 -1 1.5 -3 3 C-5.71846235 3.27345479 -8.25677199 3.13491285 -11 3 C-6.7849044 -0.23157329 -5.27490657 -1.24931998 0 0 Z " fill="#A2A2A4" transform="translate(47,91)"/>
<path d="M0 0 C2.31 0.33 4.62 0.66 7 1 C7 1.33 7 1.66 7 2 C4.69 1.67 2.38 1.34 0 1 C0 0.67 0 0.34 0 0 Z M1 2 C1.33 2.66 1.66 3.32 2 4 C1.67 4.66 1.34 5.32 1 6 C-2.0625 6.625 -2.0625 6.625 -5 7 C-4.67 6.01 -4.34 5.02 -4 4 C-1.4375 2.8125 -1.4375 2.8125 1 2 Z " fill="#A5A5A9" transform="translate(232,122)"/>
<path d="M0 0 C1.58409994 0.11487748 3.16728963 0.24234508 4.75 0.375 C6.07257813 0.47941406 6.07257813 0.47941406 7.421875 0.5859375 C9.99066382 0.99850055 11.75841015 1.71160957 14 3 C12.41676312 3.027193 10.83338938 3.04648306 9.25 3.0625 C7.92742187 3.07990234 7.92742187 3.07990234 6.578125 3.09765625 C4.2181162 3.00826198 2.25501476 2.66912821 0 2 C0 1.34 0 0.68 0 0 Z " fill="#595A5F" transform="translate(106,107)"/>
<path d="M0 0 C0.66 0 1.32 0 2 0 C1.67 2.64 1.34 5.28 1 8 C2.98 8.495 2.98 8.495 5 9 C4.01 9.33 3.02 9.66 2 10 C1.67 10.99 1.34 11.98 1 13 C0.67 13 0.34 13 0 13 C0 8.71 0 4.42 0 0 Z " fill="#626269" transform="translate(82,40)"/>
<path d="M0 0 C-0.99 0.33 -1.98 0.66 -3 1 C-2.01 1.66 -1.02 2.32 0 3 C-4.8333472 3.08333357 -9.23692563 2.95261487 -14 2 C-14 1.67 -14 1.34 -14 1 C-12.41913952 0.63495397 -10.83516093 0.28339494 -9.25 -0.0625 C-8.36828125 -0.25972656 -7.4865625 -0.45695312 -6.578125 -0.66015625 C-4.01320972 -0.99825872 -2.42908361 -0.81158635 0 0 Z " fill="#B5B2BA" transform="translate(130,35)"/>
<path d="M0 0 C0.99 0.33 1.98 0.66 3 1 C3.33 1.99 3.66 2.98 4 4 C3.01 4.33 2.02 4.66 1 5 C1.33 6.98 1.66 8.96 2 11 C1.34 11 0.68 11 0 11 C0 7.37 0 3.74 0 0 Z " fill="#68696B" transform="translate(31,49)"/>
<path d="M0 0 C0 0.66 0 1.32 0 2 C-3.96 2 -7.92 2 -12 2 C-7.30614786 -1.12923476 -5.57971023 -0.92995171 0 0 Z " fill="#BDBEC0" transform="translate(43,47)"/>
<path d="M0 0 C2.31 0 4.62 0 7 0 C7 1.32 7 2.64 7 4 C4.03 4 1.06 4 -2 4 C-2 3.67 -2 3.34 -2 3 C-0.35 3 1.3 3 3 3 C3 2.34 3 1.68 3 1 C2.01 0.67 1.02 0.34 0 0 Z " fill="#A7A8AB" transform="translate(40,46)"/>
<path d="M0 0 C0 0.99 0 1.98 0 3 C-1.98 3 -3.96 3 -6 3 C-6.33 2.01 -6.66 1.02 -7 0 C-3.86650268 -1.04449911 -3.01031744 -0.93423645 0 0 Z " fill="#E8E7EA" transform="translate(58,25)"/>
<path d="M0 0 C0.99 0 1.98 0 3 0 C2.67 1.65 2.34 3.3 2 5 C2.99 5.33 3.98 5.66 5 6 C2.03 5.67 -0.94 5.34 -4 5 C-3.34 4.360625 -2.68 3.72125 -2 3.0625 C0.11602431 1.35917681 0.11602431 1.35917681 0 0 Z " fill="#89888C" transform="translate(205,145)"/>
<path d="M0 0 C2.97 0.495 2.97 0.495 6 1 C6.33 1.99 6.66 2.98 7 4 C4.36 4 1.72 4 -1 4 C-0.67 2.68 -0.34 1.36 0 0 Z " fill="#66666A" transform="translate(79,120)"/>
<path d="M0 0 C0.33 0.66 0.66 1.32 1 2 C2.64363134 2.72159424 4.31050386 3.39351421 6 4 C6 4.33 6 4.66 6 5 C2.37 5.33 -1.26 5.66 -5 6 C-3.68 5.67 -2.36 5.34 -1 5 C-0.67 3.35 -0.34 1.7 0 0 Z " fill="#606166" transform="translate(68,72)"/>
<path d="M0 0 C-1.32 0.33 -2.64 0.66 -4 1 C-3.67 1.99 -3.34 2.98 -3 4 C-5.31 3.67 -7.62 3.34 -10 3 C-7.29536552 -0.8183075 -4.37912428 -0.24787496 0 0 Z " fill="#EEE9EF" transform="translate(74,25)"/>
<path d="M0 0 C0.99 0.33 1.98 0.66 3 1 C2.34 2.32 1.68 3.64 1 5 C-0.65 5 -2.3 5 -4 5 C-4.33 4.01 -4.66 3.02 -5 2 C-4.360625 1.855625 -3.72125 1.71125 -3.0625 1.5625 C-1.02454854 1.18992819 -1.02454854 1.18992819 0 0 Z " fill="#656567" transform="translate(41,111)"/>
<path d="M0 0 C2.97 0 5.94 0 9 0 C9.33 0.99 9.66 1.98 10 3 C6.7 2.34 3.4 1.68 0 1 C0 0.67 0 0.34 0 0 Z " fill="#3A3940" transform="translate(208,101)"/>
<path d="M0 0 C2.64 0 5.28 0 8 0 C8 0.99 8 1.98 8 3 C2.25 3.125 2.25 3.125 0 2 C0 1.34 0 0.68 0 0 Z " fill="#65666B" transform="translate(151,88)"/>
<path d="M0 0 C1.75 0.875 1.75 0.875 2.75 2.875 C-0.55 3.205 -3.85 3.535 -7.25 3.875 C-2.85 -0.15833333 -2.85 -0.15833333 0 0 Z " fill="#77767B" transform="translate(131.25,130.125)"/>
<path d="M0 0 C3.63 0.66 7.26 1.32 11 2 C11 2.33 11 2.66 11 3 C3.375 4.25 3.375 4.25 0 2 C0 1.34 0 0.68 0 0 Z " fill="#57585D" transform="translate(69,100)"/>
<path d="M0 0 C0.66 1.32 1.32 2.64 2 4 C-0.875 4.1875 -0.875 4.1875 -4 4 C-4.66 3.01 -5.32 2.02 -6 1 C-4 0 -4 0 0 0 Z " fill="#66676C" transform="translate(120,81)"/>
<path d="M0 0 C2.375 -0.1875 2.375 -0.1875 5 0 C5.66 0.99 6.32 1.98 7 3 C3.71303767 3.79953138 2.28976808 4.09658936 -1 3 C-0.67 2.01 -0.34 1.02 0 0 Z " fill="#6C6A73" transform="translate(90,34)"/>
<path d="M0 0 C0 0.33 0 0.66 0 1 C-3.63 0.67 -7.26 0.34 -11 0 C-11 -0.33 -11 -0.66 -11 -1 C-6.58937864 -2.0257259 -4.07369424 -2.03684712 0 0 Z " fill="#767676" transform="translate(119,131)"/>
</svg>
