<?xml version="1.0" encoding="UTF-8"?>
<svg version="1.1" xmlns="http://www.w3.org/2000/svg" width="192" height="192">
<path d="M0 0 C63.36 0 126.72 0 192 0 C192 63.36 192 126.72 192 192 C128.64 192 65.28 192 0 192 C0 128.64 0 65.28 0 0 Z " fill="#FEFEFE" transform="translate(0,0)"/>
<path d="M0 0 C2.34112215 1.8029871 4.46694899 3.74022005 6.60839844 5.77636719 C10.51420514 9.40785835 14.82970961 12.47381284 19.125 15.625 C24.3359806 19.46053323 29.4481133 23.30976792 34.31933594 27.5703125 C37.28572425 30.09372476 40.429376 32.37710281 43.5625 34.6875 C48.96773257 38.70757054 54.33040708 42.77259249 59.625 46.9375 C60.45753296 47.59141724 60.45753296 47.59141724 61.30688477 48.25854492 C63.98729706 50.37461703 66.62069911 52.52948922 69.2109375 54.75390625 C71.84427491 57.1418365 71.84427491 57.1418365 75 58 C76.67250432 59.66080849 78.33803476 61.32864513 80 63 C81.15626862 63.92607935 82.32912081 64.83173935 83.515625 65.71875 C84.12664062 66.17636719 84.73765625 66.63398437 85.3671875 67.10546875 C86.63250777 68.0426458 87.90347199 68.97224595 89.1796875 69.89453125 C93.80055417 73.38476033 93.80055417 73.38476033 94.921875 76.84375 C94.96054687 77.91109375 94.96054687 77.91109375 95 79 C92.46080994 80.29673602 89.91885762 81.58747837 87.375 82.875 C86.66214844 83.23980469 85.94929687 83.60460937 85.21484375 83.98046875 C81.21248163 86.00000927 77.31082927 87.7081111 73 89 C73 89.66 73 90.32 73 91 C71.2675 91.5878125 71.2675 91.5878125 69.5 92.1875 C65.70230324 93.60245908 62.53637861 95.46917292 59.16137695 97.68652344 C57.13213983 98.91969815 55.16249819 99.86291969 52.9765625 100.78125 C47.27593478 103.26574974 41.80875001 106.15942563 36.3125 109.0625 C32.54333897 111.04487105 28.77287871 113.0247133 25 115 C24.34950684 115.34272949 23.69901367 115.68545898 23.02880859 116.03857422 C19.23365103 118 19.23365103 118 17 118 C17 118.66 17 119.32 17 120 C16.09636719 120.40992188 15.19273438 120.81984375 14.26171875 121.2421875 C13.08222656 121.78101563 11.90273437 122.31984375 10.6875 122.875 C9.51574219 123.40867187 8.34398438 123.94234375 7.13671875 124.4921875 C3.94103057 125.9385919 3.94103057 125.9385919 1 128 C-2.06095271 127.82591738 -3.54289842 127.42254746 -5.80859375 125.328125 C-6.34613281 124.64234375 -6.88367188 123.9565625 -7.4375 123.25 C-9.62245112 120.57630981 -11.72369178 118.26276402 -14.4375 116.125 C-15.7059375 115.073125 -15.7059375 115.073125 -17 114 C-17 113.34 -17 112.68 -17 112 C-17.66 112 -18.32 112 -19 112 C-19.33 111.01 -19.66 110.02 -20 109 C-21.98231463 107.15866895 -24.07342472 105.50389134 -26.1875 103.81640625 C-28 102 -28 102 -28.5 99.90234375 C-28.807158 97.82187684 -28.807158 97.82187684 -30.83984375 96.92578125 C-31.55269531 96.62027344 -32.26554687 96.31476563 -33 96 C-36.32738392 93.55991846 -39.32951017 91.13691753 -41.4375 87.5625 C-43.51200571 84.16031063 -46.28235279 82.04803404 -49.35546875 79.55078125 C-49.89816406 79.03902344 -50.44085938 78.52726562 -51 78 C-51 77.34 -51 76.68 -51 76 C-51.66 76 -52.32 76 -53 76 C-53 75.34 -53 74.68 -53 74 C-53.66 74 -54.32 74 -55 74 C-55 73.34 -55 72.68 -55 72 C-55.598125 71.773125 -56.19625 71.54625 -56.8125 71.3125 C-59.59832728 69.64100363 -60.37537232 67.7943596 -62 65 C-63.64111105 63.3081637 -65.31381532 61.64691736 -67 60 C-68.16198693 58.82994021 -69.32203136 57.65794918 -70.48046875 56.484375 C-71.71610709 55.23954488 -72.95178482 53.99475385 -74.1875 52.75 C-75.13012695 51.79480469 -75.13012695 51.79480469 -76.09179688 50.8203125 C-76.99575195 49.91152344 -76.99575195 49.91152344 -77.91796875 48.984375 C-78.73430786 48.16018066 -78.73430786 48.16018066 -79.56713867 47.31933594 C-80.9838063 45.89273848 -80.9838063 45.89273848 -83 45 C-83.4125 44.2575 -83.825 43.515 -84.25 42.75 C-85.85855975 40.22226325 -86.86862325 39.22415306 -89.1875 37.5 C-92 35 -92 35 -92.17578125 32.34375 C-92.11777344 31.5703125 -92.05976562 30.796875 -92 30 C-90.39743892 29.49487756 -88.79288208 28.99608373 -87.1875 28.5 C-86.29417969 28.2215625 -85.40085937 27.943125 -84.48046875 27.65625 C-82 27 -82 27 -79 27 C-79 26.34 -79 25.68 -79 25 C-77.74896484 24.61908203 -77.74896484 24.61908203 -76.47265625 24.23046875 C-72.97913712 23.16200414 -69.48905542 22.08294609 -66 21 C-64.71996094 20.60748047 -64.71996094 20.60748047 -63.4140625 20.20703125 C-59.83238865 19.06969271 -56.51482968 17.81480272 -53.1875 16.0625 C-48.99176903 13.86832532 -44.63103049 12.45384525 -40.125 11.02734375 C-35.49486281 9.50518615 -30.95473793 7.76038088 -26.41357422 5.99389648 C-23.59327045 4.89894035 -20.76590526 3.82383522 -17.9375 2.75 C-16.98294922 2.37359375 -16.02839844 1.9971875 -15.04492188 1.609375 C-5.45253344 -1.99190817 -5.45253344 -1.99190817 0 0 Z " fill="#DBEDEF" transform="translate(95,28)"/>
<path d="M0 0 C2.33581655 1.80216041 4.45759626 3.73862815 6.59521484 5.77197266 C11.34934049 10.176658 16.73678039 13.82128264 21.97851562 17.61914062 C26.23777414 20.75294586 29.97893234 23.57417819 33 28 C27.96313541 26.4435025 24.5264581 23.39143881 20.5625 20.0625 C19.13826055 18.89423895 17.71377658 17.72627594 16.2890625 16.55859375 C13.53351054 14.2829971 10.80340424 11.98100851 8.0859375 9.66015625 C6.87013657 8.64802305 5.65400675 7.63628475 4.4375 6.625 C3.89101807 6.14297119 3.34453613 5.66094238 2.78149414 5.16430664 C-0.03198591 2.85291134 -1.62964723 2 -5.3046875 2 C-9.8314181 3.22499264 -14.17786529 4.71723664 -18.5625 6.375 C-20.52728447 7.10432638 -22.4921317 7.83348371 -24.45703125 8.5625 C-25.50971191 8.95566406 -26.56239258 9.34882812 -27.64697266 9.75390625 C-31.15910813 11.05912974 -34.67803425 12.34439857 -38.19921875 13.625 C-54.53739913 19.57108909 -70.79616358 25.69528726 -87 32 C-87 33.32 -87 34.64 -87 36 C-86.01 36.33 -85.02 36.66 -84 37 C-82.79982577 38.38967542 -81.60016995 39.78209326 -80.4765625 41.234375 C-78.46333767 43.64172321 -76.22721703 45.78940997 -74 48 C-73.20271484 48.79204834 -72.40542969 49.58409668 -71.58398438 50.40014648 C-70.76220703 51.21555908 -69.94042969 52.03097168 -69.09375 52.87109375 C-67.70411114 54.2538337 -66.31448046 55.63658197 -64.92529297 57.01977539 C-63.50529815 58.43222999 -62.08273122 59.84209719 -60.66015625 61.25195312 C-52.95467227 68.93011269 -52.95467227 68.93011269 -50.03125 72.53515625 C-48.0607566 75.16846259 -48.0607566 75.16846259 -45 77 C-45 77.66 -45 78.32 -45 79 C-44.34 79 -43.68 79 -43 79 C-42.10893237 80.40514511 -41.21864668 81.81079141 -40.33203125 83.21875 C-38.24513735 86.0094351 -35.61962726 88.09164431 -32.96875 90.33203125 C-26.35483871 95.93548387 -26.35483871 95.93548387 -25 100 C-23.515 100.495 -23.515 100.495 -22 101 C-20.50303472 102.69941201 -19.07374919 104.45912886 -17.6875 106.25 C-15.11233495 109.49420303 -12.69608504 112.49442465 -9.4375 115.0625 C-8.633125 115.701875 -7.82875 116.34125 -7 117 C-7 117.66 -7 118.32 -7 119 C-6.34 119 -5.68 119 -5 119 C-5 119.66 -5 120.32 -5 121 C0.74088933 120.49560876 4.92617159 118.16480521 9.875 115.4375 C11.57609421 114.52078192 13.27792905 113.60543696 14.98046875 112.69140625 C15.82657715 112.23523926 16.67268555 111.77907227 17.54443359 111.30908203 C21.06113288 109.4343016 24.61726353 107.64517721 28.1875 105.875 C29.15780151 105.39244751 29.15780151 105.39244751 30.14770508 104.90014648 C32.09759672 103.93165726 34.04860972 102.96546569 36 102 C44.60507608 97.74151525 53.16172341 93.42399308 61.61499023 88.87036133 C66.49606961 86.24719622 71.43536633 83.75778312 76.4140625 81.32421875 C79.04808302 80.01985797 79.04808302 80.01985797 81.6328125 78.3671875 C84.40797265 76.76437223 86.86204553 76.49922003 90 76 C90.33 75.34 90.66 74.68 91 74 C91.99 74 92.98 74 94 74 C94.33 75.65 94.66 77.3 95 79 C92.46080994 80.29673602 89.91885762 81.58747837 87.375 82.875 C86.66214844 83.23980469 85.94929687 83.60460937 85.21484375 83.98046875 C81.21248163 86.00000927 77.31082927 87.7081111 73 89 C73 89.66 73 90.32 73 91 C71.2675 91.5878125 71.2675 91.5878125 69.5 92.1875 C65.70230324 93.60245908 62.53637861 95.46917292 59.16137695 97.68652344 C57.13213983 98.91969815 55.16249819 99.86291969 52.9765625 100.78125 C47.27593478 103.26574974 41.80875001 106.15942563 36.3125 109.0625 C32.54333897 111.04487105 28.77287871 113.0247133 25 115 C24.34950684 115.34272949 23.69901367 115.68545898 23.02880859 116.03857422 C19.23365103 118 19.23365103 118 17 118 C17 118.66 17 119.32 17 120 C16.09636719 120.40992188 15.19273438 120.81984375 14.26171875 121.2421875 C13.08222656 121.78101563 11.90273437 122.31984375 10.6875 122.875 C9.51574219 123.40867187 8.34398438 123.94234375 7.13671875 124.4921875 C3.94103057 125.9385919 3.94103057 125.9385919 1 128 C-2.06095271 127.82591738 -3.54289842 127.42254746 -5.80859375 125.328125 C-6.34613281 124.64234375 -6.88367188 123.9565625 -7.4375 123.25 C-9.62245112 120.57630981 -11.72369178 118.26276402 -14.4375 116.125 C-15.7059375 115.073125 -15.7059375 115.073125 -17 114 C-17 113.34 -17 112.68 -17 112 C-17.66 112 -18.32 112 -19 112 C-19.33 111.01 -19.66 110.02 -20 109 C-21.98231463 107.15866895 -24.07342472 105.50389134 -26.1875 103.81640625 C-28 102 -28 102 -28.5 99.90234375 C-28.807158 97.82187684 -28.807158 97.82187684 -30.83984375 96.92578125 C-31.55269531 96.62027344 -32.26554687 96.31476563 -33 96 C-36.32738392 93.55991846 -39.32951017 91.13691753 -41.4375 87.5625 C-43.51200571 84.16031063 -46.28235279 82.04803404 -49.35546875 79.55078125 C-49.89816406 79.03902344 -50.44085938 78.52726562 -51 78 C-51 77.34 -51 76.68 -51 76 C-51.66 76 -52.32 76 -53 76 C-53 75.34 -53 74.68 -53 74 C-53.66 74 -54.32 74 -55 74 C-55 73.34 -55 72.68 -55 72 C-55.598125 71.773125 -56.19625 71.54625 -56.8125 71.3125 C-59.59832728 69.64100363 -60.37537232 67.7943596 -62 65 C-63.64111105 63.3081637 -65.31381532 61.64691736 -67 60 C-68.16198693 58.82994021 -69.32203136 57.65794918 -70.48046875 56.484375 C-71.71610709 55.23954488 -72.95178482 53.99475385 -74.1875 52.75 C-75.13012695 51.79480469 -75.13012695 51.79480469 -76.09179688 50.8203125 C-76.99575195 49.91152344 -76.99575195 49.91152344 -77.91796875 48.984375 C-78.73430786 48.16018066 -78.73430786 48.16018066 -79.56713867 47.31933594 C-80.9838063 45.89273848 -80.9838063 45.89273848 -83 45 C-83.4125 44.2575 -83.825 43.515 -84.25 42.75 C-85.85855975 40.22226325 -86.86862325 39.22415306 -89.1875 37.5 C-92 35 -92 35 -92.17578125 32.34375 C-92.11777344 31.5703125 -92.05976562 30.796875 -92 30 C-90.39743892 29.49487756 -88.79288208 28.99608373 -87.1875 28.5 C-86.29417969 28.2215625 -85.40085937 27.943125 -84.48046875 27.65625 C-82 27 -82 27 -79 27 C-79 26.34 -79 25.68 -79 25 C-77.74896484 24.61908203 -77.74896484 24.61908203 -76.47265625 24.23046875 C-72.97913712 23.16200414 -69.48905542 22.08294609 -66 21 C-64.71996094 20.60748047 -64.71996094 20.60748047 -63.4140625 20.20703125 C-59.83238865 19.06969271 -56.51482968 17.81480272 -53.1875 16.0625 C-48.99176903 13.86832532 -44.63103049 12.45384525 -40.125 11.02734375 C-35.49486281 9.50518615 -30.95473793 7.76038088 -26.41357422 5.99389648 C-23.59327045 4.89894035 -20.76590526 3.82383522 -17.9375 2.75 C-16.98294922 2.37359375 -16.02839844 1.9971875 -15.04492188 1.609375 C-5.45253344 -1.99190817 -5.45253344 -1.99190817 0 0 Z " fill="#8FA4A2" transform="translate(95,28)"/>
<path d="M0 0 C0.99 0 1.98 0 3 0 C3.495 2.475 3.495 2.475 4 5 C1.46080994 6.29673602 -1.08114238 7.58747837 -3.625 8.875 C-4.33785156 9.23980469 -5.05070312 9.60460937 -5.78515625 9.98046875 C-9.78751837 12.00000927 -13.68917073 13.7081111 -18 15 C-18 15.66 -18 16.32 -18 17 C-19.155 17.391875 -20.31 17.78375 -21.5 18.1875 C-25.29769676 19.60245908 -28.46362139 21.46917292 -31.83862305 23.68652344 C-33.86786017 24.91969815 -35.83750181 25.86291969 -38.0234375 26.78125 C-43.72406522 29.26574974 -49.19124999 32.15942563 -54.6875 35.0625 C-58.45666103 37.04487105 -62.22712129 39.0247133 -66 41 C-66.65049316 41.34272949 -67.30098633 41.68545898 -67.97119141 42.03857422 C-71.76634897 44 -71.76634897 44 -74 44 C-74 44.66 -74 45.32 -74 46 C-74.90363281 46.40992188 -75.80726562 46.81984375 -76.73828125 47.2421875 C-77.91777344 47.78101563 -79.09726563 48.31984375 -80.3125 48.875 C-81.48425781 49.40867188 -82.65601562 49.94234375 -83.86328125 50.4921875 C-87.05896943 51.9385919 -87.05896943 51.9385919 -90 54 C-92.5 53.9375 -92.5 53.9375 -95 53 C-96.8125 50.4375 -96.8125 50.4375 -98 48 C-96.02 48.33 -94.04 48.66 -92 49 C-92 48.34 -92 47.68 -92 47 C-91.030625 46.52691406 -90.06125 46.05382812 -89.0625 45.56640625 C-82.06992689 42.12612025 -75.18364344 38.59063209 -68.4375 34.6875 C-61.14668164 30.49402868 -53.62410864 26.89346996 -46.01733398 23.31298828 C-38.76186407 19.88252021 -31.61092439 16.283073 -24.5 12.5625 C-23.55116943 12.06645264 -22.60233887 11.57040527 -21.62475586 11.05932617 C-17.72266376 9.00612836 -13.85243072 6.93230443 -10.0546875 4.69140625 C-6.92895802 2.96066346 -4.49711728 2.49958818 -1 2 C-0.67 1.34 -0.34 0.68 0 0 Z " fill="#78908D" transform="translate(186,102)"/>
<path d="M0 0 C2 3 2 3 2 5 C-0.53919006 6.29673602 -3.08114238 7.58747837 -5.625 8.875 C-6.33785156 9.23980469 -7.05070312 9.60460937 -7.78515625 9.98046875 C-11.78751837 12.00000927 -15.68917073 13.7081111 -20 15 C-20 15.66 -20 16.32 -20 17 C-21.155 17.391875 -22.31 17.78375 -23.5 18.1875 C-27.29769676 19.60245908 -30.46362139 21.46917292 -33.83862305 23.68652344 C-35.86786017 24.91969815 -37.83750181 25.86291969 -40.0234375 26.78125 C-45.72406522 29.26574974 -51.19124999 32.15942563 -56.6875 35.0625 C-60.45666103 37.04487105 -64.22712129 39.0247133 -68 41 C-68.65049316 41.34272949 -69.30098633 41.68545898 -69.97119141 42.03857422 C-73.76634897 44 -73.76634897 44 -76 44 C-76 44.66 -76 45.32 -76 46 C-76.90363281 46.40992188 -77.80726562 46.81984375 -78.73828125 47.2421875 C-79.91777344 47.78101563 -81.09726563 48.31984375 -82.3125 48.875 C-83.48425781 49.40867188 -84.65601562 49.94234375 -85.86328125 50.4921875 C-89.05896943 51.9385919 -89.05896943 51.9385919 -92 54 C-94.6875 53.625 -94.6875 53.625 -97 53 C-93.37095894 50.03503604 -89.3847863 47.96917171 -85.25 45.8125 C-84.50645264 45.42175293 -83.76290527 45.03100586 -82.99682617 44.62841797 C-74.42423906 40.14262516 -65.75786481 35.84805914 -57.0859375 31.55859375 C-53.13687035 29.5640649 -49.2247449 27.50311369 -45.3125 25.4375 C-44.49031982 25.00421387 -43.66813965 24.57092773 -42.82104492 24.12451172 C-39.34355524 22.29182083 -35.86687181 20.4576058 -32.390625 18.62255859 C-30.68466308 17.7220821 -28.97852958 16.8219306 -27.2722168 15.92211914 C-25.67952955 15.08222362 -24.08721948 14.24161233 -22.49536133 13.40014648 C-18.27803248 11.17653129 -14.04149146 9.00067729 -9.76977539 6.88330078 C-8.04603414 6.02297579 -6.33526849 5.13680588 -4.625 4.25 C-2 3 -2 3 0 3 C0 2.01 0 1.02 0 0 Z " fill="#B5C7C5" transform="translate(188,102)"/>
<path d="M0 0 C2.33581655 1.80216041 4.45759626 3.73862815 6.59521484 5.77197266 C11.34934049 10.176658 16.73678039 13.82128264 21.97851562 17.61914062 C26.23777414 20.75294586 29.97893234 23.57417819 33 28 C27.96313541 26.4435025 24.5264581 23.39143881 20.5625 20.0625 C19.13826055 18.89423895 17.71377658 17.72627594 16.2890625 16.55859375 C13.53351054 14.2829971 10.80340424 11.98100851 8.0859375 9.66015625 C6.87013657 8.64802305 5.65400675 7.63628475 4.4375 6.625 C3.89101807 6.14297119 3.34453613 5.66094238 2.78149414 5.16430664 C-0.03198591 2.85291134 -1.62964723 2 -5.3046875 2 C-9.8314181 3.22499264 -14.17786529 4.71723664 -18.5625 6.375 C-20.52728447 7.10432638 -22.4921317 7.83348371 -24.45703125 8.5625 C-25.50971191 8.95566406 -26.56239258 9.34882812 -27.64697266 9.75390625 C-31.15910813 11.05912974 -34.67803425 12.34439857 -38.19921875 13.625 C-50.74645615 18.19038035 -63.27157365 22.81189215 -75.75 27.5625 C-77.41047363 28.18874268 -77.41047363 28.18874268 -79.10449219 28.82763672 C-80.11672852 29.21580566 -81.12896484 29.60397461 -82.171875 30.00390625 C-83.0597168 30.34236572 -83.94755859 30.6808252 -84.86230469 31.02954102 C-87.15256817 31.91819042 -87.15256817 31.91819042 -89 34 C-89.33 33.67 -89.66 33.34 -90 33 C-90.66 33.66 -91.32 34.32 -92 35 C-92 33.35 -92 31.7 -92 30 C-90.39743892 29.49487756 -88.79288208 28.99608373 -87.1875 28.5 C-86.29417969 28.2215625 -85.40085937 27.943125 -84.48046875 27.65625 C-82 27 -82 27 -79 27 C-79 26.34 -79 25.68 -79 25 C-77.74896484 24.61908203 -77.74896484 24.61908203 -76.47265625 24.23046875 C-72.97913712 23.16200414 -69.48905542 22.08294609 -66 21 C-64.71996094 20.60748047 -64.71996094 20.60748047 -63.4140625 20.20703125 C-59.83238865 19.06969271 -56.51482968 17.81480272 -53.1875 16.0625 C-48.99176903 13.86832532 -44.63103049 12.45384525 -40.125 11.02734375 C-35.49486281 9.50518615 -30.95473793 7.76038088 -26.41357422 5.99389648 C-23.59327045 4.89894035 -20.76590526 3.82383522 -17.9375 2.75 C-16.98294922 2.37359375 -16.02839844 1.9971875 -15.04492188 1.609375 C-5.45253344 -1.99190817 -5.45253344 -1.99190817 0 0 Z " fill="#B7C3C3" transform="translate(95,28)"/>
<path d="M0 0 C5.08963853 1.55925342 8.56663105 4.69614997 12.5625 8.0625 C18.4307205 12.92508602 24.37155019 17.59853908 30.50390625 22.125 C32.58883468 23.69114342 34.58719671 25.29998347 36.5625 27 C38.90891244 29.16813654 38.90891244 29.16813654 42 30 C43.67822026 31.65503242 45.34281627 33.32390405 47 35 C49.21713859 36.84282518 51.50916715 38.57922277 53.8125 40.3125 C54.40998047 40.76689453 55.00746094 41.22128906 55.62304688 41.68945312 C57.07947588 42.79633917 58.53937817 43.89865264 60 45 C59.01 45.495 59.01 45.495 58 46 C57.67 46.99 57.34 47.98 57 49 C55.68 48.67 54.36 48.34 53 48 C54.98 47.505 54.98 47.505 57 47 C53.64794527 43.51361885 50.21613726 40.53835392 46.3125 37.6875 C41.68642915 34.2672503 37.15690541 30.76415692 32.6796875 27.15234375 C29.55380616 24.64161399 26.40406669 22.16265666 23.25 19.6875 C22.37384033 18.99841553 22.37384033 18.99841553 21.47998047 18.29541016 C18.35076788 15.83619515 15.21288041 13.38908134 12.0625 10.95703125 C11.4240918 10.46178955 10.78568359 9.96654785 10.12792969 9.45629883 C8.90227203 8.50582458 7.6738698 7.558876 6.44238281 6.6159668 C3.76958421 4.53820446 1.89660942 2.84491413 0 0 Z " fill="#B1BBBB" transform="translate(128,56)"/>
<path d="M0 0 C0.66 0 1.32 0 2 0 C2 0.99 2 1.98 2 3 C1.31292969 3.33773437 0.62585938 3.67546875 -0.08203125 4.0234375 C-0.98308594 4.46945313 -1.88414062 4.91546875 -2.8125 5.375 C-3.70582031 5.81585938 -4.59914062 6.25671875 -5.51953125 6.7109375 C-8.14556381 8.01866905 -8.14556381 8.01866905 -11 10 C-13.26171875 10.4140625 -13.26171875 10.4140625 -15.6875 10.625 C-16.49574219 10.69976562 -17.30398437 10.77453125 -18.13671875 10.8515625 C-19.05904297 10.92503906 -19.05904297 10.92503906 -20 11 C-14.12643889 6.45529887 -8.46070954 2.93258869 -1 2 C-0.67 1.34 -0.34 0.68 0 0 Z " fill="#849898" transform="translate(186,102)"/>
<path d="M0 0 C2 1.375 2 1.375 4 3 C4 3.66 4 4.32 4 5 C4.99 5.33 5.98 5.66 7 6 C8.68732277 7.98260426 10.35366057 9.9832342 12 12 C12.99 12.66 13.98 13.32 15 14 C14.34 15.32 13.68 16.64 13 18 C9.30645893 15.30471327 7.28890275 12.91020886 5 9 C4.113125 8.154375 3.22625 7.30875 2.3125 6.4375 C-0 4 -0 4 0 0 Z " fill="#98A8A8" transform="translate(4,59)"/>
<path d="M0 0 C3.83247336 1.58492473 6.33086291 4.03116614 9.25 6.9375 C10.14203125 7.81277344 11.0340625 8.68804687 11.953125 9.58984375 C14 12 14 12 14 15 C10.16752664 13.41507527 7.66913709 10.96883386 4.75 8.0625 C3.85796875 7.18722656 2.9659375 6.31195313 2.046875 5.41015625 C0 3 0 3 0 0 Z " fill="#809490" transform="translate(18,75)"/>
<path d="M0 0 C1.33897583 0.95043374 2.67105427 1.91059147 4 2.875 C5.11375 3.67550781 5.11375 3.67550781 6.25 4.4921875 C6.8275 4.98976562 7.405 5.48734375 8 6 C8 6.66 8 7.32 8 8 C8.66 8 9.32 8 10 8 C10 8.66 10 9.32 10 10 C11.32 10.66 12.64 11.32 14 12 C7.46538931 12 4.44154516 9.25090381 -0.27734375 4.91015625 C-2 3 -2 3 -2 1 C-1.34 0.67 -0.68 0.34 0 0 Z " fill="#93A4A5" transform="translate(80,139)"/>
<path d="M0 0 C0.66 0.33 1.32 0.66 2 1 C2 1.99 2 2.98 2 4 C-0.1234016 4.83739781 -2.2487728 5.66980283 -4.375 6.5 C-5.55835938 6.9640625 -6.74171875 7.428125 -7.9609375 7.90625 C-11 9 -11 9 -13 9 C-13 8.34 -13 7.68 -13 7 C-10.88002166 5.80266012 -8.75486324 4.61701287 -6.625 3.4375 C-6.02171875 3.09525391 -5.4184375 2.75300781 -4.796875 2.40039062 C-3.23021759 1.53872905 -1.61709138 0.76281817 0 0 Z " fill="#7C9593" transform="translate(142,124)"/>
<path d="M0 0 C-1.89564426 0.79211929 -3.79152371 1.58367576 -5.6875 2.375 C-6.74324219 2.81585938 -7.79898438 3.25671875 -8.88671875 3.7109375 C-9.91410156 4.13632812 -10.94148438 4.56171875 -12 5 C-12.8971875 5.3815625 -13.794375 5.763125 -14.71875 6.15625 C-17.27986441 7.10351149 -19.29090849 7.15480523 -22 7 C-19.16142857 4.16142857 -15.71476109 3.29511229 -12 2 C-11.20078125 1.70480469 -10.4015625 1.40960938 -9.578125 1.10546875 C-8.78921875 0.82316406 -8.0003125 0.54085937 -7.1875 0.25 C-6.45917969 -0.01296875 -5.73085938 -0.2759375 -4.98046875 -0.546875 C-3 -1 -3 -1 0 0 Z " fill="#B4C0BE" transform="translate(46,45)"/>
<path d="M0 0 C3.98671063 1.36687222 6.88494633 3.15195093 10 6 C10 6.66 10 7.32 10 8 C8.03533587 9.06775224 6.03144641 10.06553465 4 11 C3.34 10.67 2.68 10.34 2 10 C2.495 9.38125 2.99 8.7625 3.5 8.125 C5.19222773 6.16119096 5.19222773 6.16119096 5 4 C4.360625 3.71125 3.72125 3.4225 3.0625 3.125 C1 2 1 2 0 0 Z " fill="#E3F2F3" transform="translate(175,95)"/>
<path d="M0 0 C4.03234986 1.38251995 6.76732294 3.24039763 10 6 C10.54398438 6.42925781 11.08796875 6.85851562 11.6484375 7.30078125 C13.13812619 8.48623775 14.57342235 9.73930348 16 11 C16 11.66 16 12.32 16 13 C14 13 14 13 12.63671875 11.69140625 C12.09660156 11.13324219 11.55648437 10.57507813 11 10 C8.90776279 8.42782175 6.78030072 6.91469943 4.64453125 5.40234375 C4.10183594 4.93957031 3.55914062 4.47679688 3 4 C3 3.34 3 2.68 3 2 C2.01 1.67 1.02 1.34 0 1 C0 0.67 0 0.34 0 0 Z " fill="#E8F5F6" transform="translate(148,74)"/>
<path d="M0 0 C3.53372712 1.96318174 6.24479785 4.04070881 9 7 C8.67 7.99 8.34 8.98 8 10 C5.5 8.625 5.5 8.625 3 7 C3 6.34 3 5.68 3 5 C2.34 5 1.68 5 1 5 C0.67 3.35 0.34 1.7 0 0 Z " fill="#849C96" transform="translate(39,97)"/>
<path d="M0 0 C1.70703125 1.55078125 1.70703125 1.55078125 3 3 C2.32453125 2.91621094 1.6490625 2.83242188 0.953125 2.74609375 C0.06109375 2.64425781 -0.8309375 2.54242187 -1.75 2.4375 C-2.63171875 2.33308594 -3.5134375 2.22867187 -4.421875 2.12109375 C-6.96488306 1.86952742 -6.96488306 1.86952742 -9.203125 2.59765625 C-9.79609375 2.73042969 -10.3890625 2.86320312 -11 3 C-11.66 2.34 -12.32 1.68 -13 1 C-8.25763007 -0.96634851 -5.00080696 -1.22661303 0 0 Z " fill="#BCC6C8" transform="translate(95,28)"/>
<path d="M0 0 C3.7952131 1.49097658 5.61042731 3.75700849 8 7 C7.01 7.33 6.02 7.66 5 8 C2.5 5.6875 2.5 5.6875 0 3 C0 2.01 0 1.02 0 0 Z " fill="#8B9C9C" transform="translate(18,75)"/>
<path d="M0 0 C2.15634036 2.15634036 3.47793991 4.37098712 5 7 C2.525 6.01 2.525 6.01 0 5 C0 5.66 0 6.32 0 7 C-0.99 7.33 -1.98 7.66 -3 8 C-3.36923077 3.44615385 -3.36923077 3.44615385 -1.5 1.1875 C-1.005 0.795625 -0.51 0.40375 0 0 Z " fill="#D6E8E7" transform="translate(115,47)"/>
<path d="M0 0 C0 0.99 0 1.98 0 3 C-2.76264289 3.59732819 -5.16032769 4 -8 4 C-8 3.01 -8 2.02 -8 1 C-3.375 -1.125 -3.375 -1.125 0 0 Z " fill="#E3F5F5" transform="translate(16,58)"/>
<path d="M0 0 C1.485 0.99 1.485 0.99 3 2 C3.66 1.34 4.32 0.68 5 0 C5.33 0.99 5.66 1.98 6 3 C6.66 3 7.32 3 8 3 C7.67 4.65 7.34 6.3 7 8 C5.8274869 7.04882866 4.66212985 6.08882991 3.5 5.125 C2.8503125 4.59132813 2.200625 4.05765625 1.53125 3.5078125 C1.0259375 3.01023437 0.520625 2.51265625 0 2 C0 1.34 0 0.68 0 0 Z " fill="#9FB3B0" transform="translate(44,104)"/>
<path d="M0 0 C2 1.375 2 1.375 4 3 C4 3.66 4 4.32 4 5 C4.66 5 5.32 5 6 5 C6 5.66 6 6.32 6 7 C7.32 7.66 8.64 8.32 10 9 C7.69 8.67 5.38 8.34 3 8 C1.92474806 5.34771188 0.90543849 2.71631546 0 0 Z " fill="#A1B5B3" transform="translate(84,142)"/>
<path d="M0 0 C3.16717283 1.58358642 4.73268318 2.45263699 6.3125 5.6875 C6.539375 6.450625 6.76625 7.21375 7 8 C3.64379729 6.61122646 1.92701272 5.08322035 0 2 C0 1.34 0 0.68 0 0 Z " fill="#809895" transform="translate(50,108)"/>
<path d="M0 0 C2 3 2 3 2 5 C-0.375 6.6875 -0.375 6.6875 -3 8 C-3.66 7.67 -4.32 7.34 -5 7 C-3.625 5 -3.625 5 -2 3 C-1.34 3 -0.68 3 0 3 C0 2.01 0 1.02 0 0 Z " fill="#C1CFCE" transform="translate(188,102)"/>
<path d="M0 0 C0.66 0.66 1.32 1.32 2 2 C-3.14285714 6.42857143 -3.14285714 6.42857143 -7 7 C-6.875 5.1875 -6.875 5.1875 -6 3 C-2.9375 1.25 -2.9375 1.25 0 0 Z " fill="#D7E8E7" transform="translate(127,56)"/>
<path d="M0 0 C0.99 0.66 1.98 1.32 3 2 C0.6875 3.5625 0.6875 3.5625 -2 5 C-2.99 4.67 -3.98 4.34 -5 4 C-3.36587557 2.29159719 -2.13093906 1.06546953 0 0 Z " fill="#AFC0BE" transform="translate(105,147)"/>
<path d="M0 0 C0.66 0 1.32 0 2 0 C3.7143618 1.95927063 5.38405168 3.95880212 7 6 C4 6 4 6 1.8125 4.125 C0 2 0 2 0 0 Z " fill="#BEC7C5" transform="translate(168,86)"/>
<path d="M0 0 C0 1.32 0 2.64 0 4 C-0.99 4.33 -1.98 4.66 -3 5 C-3 4.34 -3 3.68 -3 3 C-4.32 3.33 -5.64 3.66 -7 4 C-3.17391304 0 -3.17391304 0 0 0 Z " fill="#829897" transform="translate(119,137)"/>
<path d="M0 0 C-2.97180943 1.89865603 -5.51460083 3.35455571 -9 4 C-8.3125 2.0625 -8.3125 2.0625 -7 0 C-4.12060581 -0.93580311 -2.74490212 -1.37245106 0 0 Z " fill="#6B837F" transform="translate(135,132)"/>
<path d="M0 0 C4.875 1.75 4.875 1.75 6 4 C5.01 4.33 4.02 4.66 3 5 C1.68 3.68 0.36 2.36 -1 1 C-0.67 0.67 -0.34 0.34 0 0 Z " fill="#EEF8F4" transform="translate(113,41)"/>
</svg>
