<?xml version="1.0" encoding="UTF-8"?>
<svg version="1.1" xmlns="http://www.w3.org/2000/svg" width="224" height="225">
<path d="M0 0 C73.92 0 147.84 0 224 0 C224 74.25 224 148.5 224 225 C150.08 225 76.16 225 0 225 C0 150.75 0 76.5 0 0 Z " fill="#000000" transform="translate(0,0)"/>
<path d="M0 0 C11.56632237 8.50711392 19.86635799 19.00648518 22.3125 33.375 C23.2596169 43.52268112 20.41554605 51.52235 16.0625 60.5 C9.22767313 75.21258136 5.29041844 89.99506177 4.14111328 106.16064453 C3.65536664 111.68913016 2.43930836 114.55427879 -1.36328125 118.4765625 C-3.72057057 121.85603923 -3.42280053 125.73080931 -3.484375 129.73828125 C-3.6875 132.375 -3.6875 132.375 -5.6875 135.375 C-6.14665507 138.34342658 -6.14665507 138.34342658 -6.3125 141.5625 C-6.38726562 142.64917969 -6.46203125 143.73585937 -6.5390625 144.85546875 C-6.58804688 145.68691406 -6.63703125 146.51835937 -6.6875 147.375 C-5.0375 147.375 -3.3875 147.375 -1.6875 147.375 C-1.6875 148.035 -1.6875 148.695 -1.6875 149.375 C-3.0075 149.375 -4.3275 149.375 -5.6875 149.375 C-5.790625 150.014375 -5.89375 150.65375 -6 151.3125 C-6.226875 151.993125 -6.45375 152.67375 -6.6875 153.375 C-9.69707631 154.3781921 -11.72615396 154.50396682 -14.87109375 154.5078125 C-15.88107422 154.50910156 -16.89105469 154.51039063 -17.93164062 154.51171875 C-18.98544922 154.50785156 -20.03925781 154.50398437 -21.125 154.5 C-22.17494141 154.50386719 -23.22488281 154.50773438 -24.30664062 154.51171875 C-25.82354492 154.50978516 -25.82354492 154.50978516 -27.37109375 154.5078125 C-28.29462646 154.50668457 -29.21815918 154.50555664 -30.16967773 154.50439453 C-32.48916966 154.38519248 -34.46675811 154.02974662 -36.6875 153.375 C-36.6875 152.055 -36.6875 150.735 -36.6875 149.375 C-38.0075 149.375 -39.3275 149.375 -40.6875 149.375 C-40.6875 148.715 -40.6875 148.055 -40.6875 147.375 C-39.3675 147.375 -38.0475 147.375 -36.6875 147.375 C-36.77458038 145.27005699 -36.88275693 143.16597858 -37 141.0625 C-37.05800781 139.89074219 -37.11601563 138.71898437 -37.17578125 137.51171875 C-37.74013377 134.05236702 -38.28989666 133.65933074 -40.6875 131.375 C-41.09375 128.8515625 -41.09375 128.8515625 -41.1875 126 C-41.54795546 120.43133091 -42.71340234 117.34909766 -46.6875 113.375 C-47.0388377 110.73846583 -47.29313295 108.14823328 -47.5 105.5 C-49.27528907 87.16091145 -54.79075962 70.98800642 -63.0625 54.625 C-67.4625189 45.8249622 -66.7092692 34.86145157 -64.125 25.5625 C-60.01793604 13.72192198 -51.68750164 4.29682979 -40.6875 -1.625 C-27.36050951 -7.10762267 -12.62723359 -7.90574625 0 0 Z " fill="#F9F9F9" transform="translate(133.6875,36.625)"/>
<path d="M0 0 C1.29309082 0.10610596 1.29309082 0.10610596 2.61230469 0.21435547 C14.38086387 1.0726367 26.11374297 1.15294962 37.91015625 1.13037109 C41.25785807 1.12498736 44.6054271 1.13035988 47.953125 1.13671875 C50.11979196 1.13605822 52.28645883 1.13477757 54.453125 1.1328125 C55.925466 1.13584885 55.925466 1.13584885 57.42755127 1.13894653 C64.32635604 1.11601937 71.1339837 0.66239107 78 0 C77.22323592 4.24628024 75.8892579 7.83598725 74.1875 11.8125 C69.58491309 23.03441359 67.06630024 33.91548672 66.125 46 C65.62068089 52.44323167 64.95619116 56.32378951 60.32421875 61.1015625 C57.96692943 64.48103923 58.26469947 68.35580931 58.203125 72.36328125 C58 75 58 75 56 78 C55.54084493 80.96842658 55.54084493 80.96842658 55.375 84.1875 C55.30023438 85.27417969 55.22546875 86.36085938 55.1484375 87.48046875 C55.09945312 88.31191406 55.05046875 89.14335937 55 90 C56.65 90 58.3 90 60 90 C60 90.66 60 91.32 60 92 C58.68 92 57.36 92 56 92 C55.896875 92.639375 55.79375 93.27875 55.6875 93.9375 C55.460625 94.618125 55.23375 95.29875 55 96 C51.99042369 97.0031921 49.96134604 97.12896682 46.81640625 97.1328125 C45.80642578 97.13410156 44.79644531 97.13539063 43.75585938 97.13671875 C42.70205078 97.13285156 41.64824219 97.12898438 40.5625 97.125 C39.51255859 97.12886719 38.46261719 97.13273437 37.38085938 97.13671875 C36.36958984 97.13542969 35.35832031 97.13414062 34.31640625 97.1328125 C33.39287354 97.13168457 32.46934082 97.13055664 31.51782227 97.12939453 C29.19833034 97.01019248 27.22074189 96.65474662 25 96 C25 94.68 25 93.36 25 92 C23.68 92 22.36 92 21 92 C21 91.34 21 90.68 21 90 C22.32 90 23.64 90 25 90 C24.91291962 87.89505699 24.80474307 85.79097858 24.6875 83.6875 C24.62949219 82.51574219 24.57148437 81.34398437 24.51171875 80.13671875 C23.94736623 76.67736702 23.39760334 76.28433074 21 74 C20.59375 71.4765625 20.59375 71.4765625 20.5 68.625 C20.13954454 63.05633091 18.97409766 59.97409766 15 56 C14.6486623 53.36346583 14.39436705 50.77323328 14.1875 48.125 C12.52464984 30.94742771 7.69895065 15.3979013 0 0 Z " fill="#D9D9D8" transform="translate(72,94)"/>
<path d="M0 0 C0.99 0 1.98 0 3 0 C3 0.66 3 1.32 3 2 C6.3 2.66 9.6 3.32 13 4 C13 7.96 13 11.92 13 16 C14.65 15.67 16.3 15.34 18 15 C20.33301986 14.96175377 22.66711508 14.95425716 25 15 C24.67 15.99 24.34 16.98 24 18 C23.77674186 20.05893621 23.59294241 22.12233653 23.4375 24.1875 C23.35371094 25.27417969 23.26992187 26.36085937 23.18359375 27.48046875 C23.09271484 28.72763672 23.09271484 28.72763672 23 30 C24.65 30 26.3 30 28 30 C28 30.66 28 31.32 28 32 C26.68 32 25.36 32 24 32 C23.896875 32.639375 23.79375 33.27875 23.6875 33.9375 C23.460625 34.618125 23.23375 35.29875 23 36 C19.99042369 37.0031921 17.96134604 37.12896682 14.81640625 37.1328125 C13.80642578 37.13410156 12.79644531 37.13539063 11.75585938 37.13671875 C10.70205078 37.13285156 9.64824219 37.12898438 8.5625 37.125 C7.51255859 37.12886719 6.46261719 37.13273437 5.38085938 37.13671875 C3.86395508 37.13478516 3.86395508 37.13478516 2.31640625 37.1328125 C1.39287354 37.13168457 0.46934082 37.13055664 -0.48217773 37.12939453 C-2.80166966 37.01019248 -4.77925811 36.65474662 -7 36 C-7 34.68 -7 33.36 -7 32 C-8.32 32 -9.64 32 -11 32 C-11 31.34 -11 30.68 -11 30 C-9.68 30 -8.36 30 -7 30 C-7.08708038 27.89505699 -7.19525693 25.79097858 -7.3125 23.6875 C-7.39951172 21.92986328 -7.39951172 21.92986328 -7.48828125 20.13671875 C-8.05761914 16.6468079 -8.61985173 16.33056185 -11 14 C-11.7011324 10.00193968 -11.78152505 6.063634 -12 2 C-8.04 2 -4.08 2 0 2 C0 1.34 0 0.68 0 0 Z " fill="#B7B7B9" transform="translate(104,154)"/>
<path d="M0 0 C-0.66532235 4.25645987 -2.12113864 7.86028093 -3.8125 11.8125 C-8.08726064 22.15914454 -11.1584571 32.95684826 -11.82421875 44.1796875 C-12 46 -12 46 -13 48 C-13.66 48 -14.32 48 -15 48 C-14.67 48.99 -14.34 49.98 -14 51 C-14.66 51 -15.32 51 -16 51 C-16.495 53.475 -16.495 53.475 -17 56 C-18.9375 55.625 -18.9375 55.625 -21 55 C-22.89693674 51.20612651 -22.0309076 46.29350133 -21.9609375 42.09179688 C-21.92226331 38.2211554 -22.00944609 34.47556176 -22.49609375 30.6328125 C-23.16532961 25.23348365 -23.10924495 19.8707011 -23.0625 14.4375 C-23.05798828 13.42880859 -23.05347656 12.42011719 -23.04882812 11.38085938 C-23.03716769 8.92050853 -23.02080378 6.46028761 -23 4 C-19.52768573 2.15852193 -16.53014036 1.44848215 -12.625 0.875 C-11.52414063 0.70742187 -10.42328125 0.53984375 -9.2890625 0.3671875 C-6.15901977 0.0177528 -3.14608144 -0.06653344 0 0 Z " fill="#E8E8E8" transform="translate(150,94)"/>
<path d="M0 0 C3.96 0.33 7.92 0.66 12 1 C12 7.27 12 13.54 12 20 C9.03 20 6.06 20 3 20 C2.34 19.34 1.68 18.68 1 18 C1.33 17.67 1.66 17.34 2 17 C1.34 16.34 0.68 15.68 0 15 C-0.14497985 12.41935871 -0.18677545 9.95056116 -0.125 7.375 C-0.11597656 6.66859375 -0.10695313 5.9621875 -0.09765625 5.234375 C-0.07407603 3.48943902 -0.03820461 1.74467705 0 0 Z " fill="#D1D1D2" transform="translate(98,171)"/>
<path d="M0 0 C3.63 0 7.26 0 11 0 C10.67 0.99 10.34 1.98 10 3 C10.08744008 5.5808926 10.22868495 8.11691478 10.4375 10.6875 C10.48970703 11.38939453 10.54191406 12.09128906 10.59570312 12.81445312 C10.72507865 14.54338054 10.86182531 16.27175355 11 18 C9 19 9 19 0 19 C0 12.73 0 6.46 0 0 Z " fill="#E7E7E9" transform="translate(115,172)"/>
<path d="M0 0 C4.18920767 -0.08214133 7.90619819 0.18123964 12 1 C12.66 0.67 13.32 0.34 14 0 C14 0.66 14 1.32 14 2 C14.66 2.33 15.32 2.66 16 3 C15.67 6.96 15.34 10.92 15 15 C8.565 15.495 8.565 15.495 2 16 C0.875 3.25 0.875 3.25 2 1 C1.34 0.67 0.68 0.34 0 0 Z " fill="#AAAAAA" transform="translate(115,154)"/>
<path d="M0 0 C-0.33 0.99 -0.66 1.98 -1 3 C-1.22325814 5.05893621 -1.40705759 7.12233653 -1.5625 9.1875 C-1.64628906 10.27417969 -1.73007813 11.36085937 -1.81640625 12.48046875 C-1.90728516 13.72763672 -1.90728516 13.72763672 -2 15 C-0.35 15 1.3 15 3 15 C3 15.66 3 16.32 3 17 C1.68 17 0.36 17 -1 17 C-1.33 18.32 -1.66 19.64 -2 21 C-4.00435414 17.62123159 -4.39825924 14.70539618 -4.6875 10.8125 C-4.77386719 9.74644531 -4.86023438 8.68039063 -4.94921875 7.58203125 C-4.97435547 6.30392578 -4.97435547 6.30392578 -5 5 C-4.67 4.67 -4.34 4.34 -4 4 C-7.3 3.67 -10.6 3.34 -14 3 C-14 9.27 -14 15.54 -14 22 C-15.65 22 -17.3 22 -19 22 C-19 15.73 -19 9.46 -19 3 C-20.32 3 -21.64 3 -23 3 C-23 2.34 -23 1.68 -23 1 C-20.47932687 0.83054298 -17.95850616 0.66436516 -15.4375 0.5 C-14.73302734 0.45230469 -14.02855469 0.40460938 -13.30273438 0.35546875 C-8.85739865 0.0686729 -4.45455341 -0.04682842 0 0 Z " fill="#969698" transform="translate(129,169)"/>
<path d="M0 0 C1.98 0 3.96 0 6 0 C7 1 7 1 7.09765625 4.81640625 C7.09098089 6.39846682 7.07901875 7.98051159 7.0625 9.5625 C7.05798828 10.36880859 7.05347656 11.17511719 7.04882812 12.00585938 C7.03700518 14.00393756 7.01906914 16.00197783 7 18 C5.02 18 3.04 18 1 18 C0.67 12.06 0.34 6.12 0 0 Z " fill="#F6F6F7" transform="translate(101,172)"/>
<path d="M0 0 C8.91 0 17.82 0 27 0 C21.70476628 5.29523372 19.35160378 5.14860404 12.0625 5.1875 C10.25458984 5.20876953 10.25458984 5.20876953 8.41015625 5.23046875 C5.13980938 5.00944874 2.93183485 4.40750326 0 3 C0 2.01 0 1.02 0 0 Z " fill="#303030" transform="translate(99,190)"/>
<path d="M0 0 C2.31 0 4.62 0 7 0 C7 3.63 7 7.26 7 11 C4.69 11 2.38 11 0 11 C-1.26026798 8.47946405 -0.91874445 7.1457902 -0.5625 4.375 C-0.46066406 3.55773437 -0.35882813 2.74046875 -0.25390625 1.8984375 C-0.17011719 1.27195313 -0.08632812 0.64546875 0 0 Z " fill="#F6F6F8" transform="translate(100,159)"/>
<path d="M0 0 C2.31 0 4.62 0 7 0 C7.33 3.3 7.66 6.6 8 10 C5.36 10.33 2.72 10.66 0 11 C0 7.37 0 3.74 0 0 Z " fill="#F2F2F3" transform="translate(117,159)"/>
<path d="M0 0 C2.64 0 5.28 0 8 0 C8.14285714 7.42857143 8.14285714 7.42857143 7 11 C5.35 11 3.7 11 2 11 C1.34 7.37 0.68 3.74 0 0 Z " fill="#6F6F70" transform="translate(109,158)"/>
<path d="M0 0 C2.72869407 0.03287583 5.2966618 0.56397771 8 1 C8.33 4.63 8.66 8.26 9 12 C7.35 11.67 5.7 11.34 4 11 C4 8.03 4 5.06 4 2 C2.02 2 0.04 2 -2 2 C-1.34 1.34 -0.68 0.68 0 0 Z " fill="#C7C7C8" transform="translate(120,157)"/>
<path d="M0 0 C1.65 0 3.3 0 5 0 C4.67 0.99 4.34 1.98 4 3 C4.08744008 5.5808926 4.22868495 8.11691478 4.4375 10.6875 C4.48970703 11.38939453 4.54191406 12.09128906 4.59570312 12.81445312 C4.72507865 14.54338054 4.86182531 16.27175355 5 18 C3.68 18.33 2.36 18.66 1 19 C1.020625 17.72125 1.04125 16.4425 1.0625 15.125 C1.07058755 10.03792983 0.59020789 5.0483853 0 0 Z " fill="#C4C4C6" transform="translate(121,172)"/>
<path d="M0 0 C0.99 0 1.98 0 3 0 C3 5.61 3 11.22 3 17 C2.01 17 1.02 17 0 17 C0 11.39 0 5.78 0 0 Z " fill="#878789" transform="translate(111,173)"/>
<path d="M0 0 C0.99 0.33 1.98 0.66 3 1 C3.33 4.3 3.66 7.6 4 11 C5.65 11 7.3 11 9 11 C9.33 9.68 9.66 8.36 10 7 C10 8.65 10 10.3 10 12 C6.7 12 3.4 12 0 12 C0 8.04 0 4.08 0 0 Z " fill="#AFAFB1" transform="translate(107,158)"/>
<path d="M0 0 C1.2065625 0.0309375 1.2065625 0.0309375 2.4375 0.0625 C3.36815133 2.66832371 3.58667407 3.70448224 2.5 6.3125 C1.9740625 7.17875 1.9740625 7.17875 1.4375 8.0625 C-0.2125 7.7325 -1.8625 7.4025 -3.5625 7.0625 C-3.60504356 5.06295254 -3.60330783 3.06208364 -3.5625 1.0625 C-2.5625 0.0625 -2.5625 0.0625 0 0 Z " fill="#8F8F8D" transform="translate(106.5625,120.9375)"/>
<path d="M0 0 C2.31 0.66 4.62 1.32 7 2 C6.01 2.495 6.01 2.495 5 3 C4.53348793 5.12576782 4.53348793 5.12576782 4.375 7.5625 C4.30023438 8.38878906 4.22546875 9.21507812 4.1484375 10.06640625 C4.09945312 10.70449219 4.05046875 11.34257812 4 12 C3.01 12 2.02 12 1 12 C0.67 8.04 0.34 4.08 0 0 Z " fill="#7E7E7E" transform="translate(92,156)"/>
<path d="M0 0 C0.66 0 1.32 0 2 0 C2.56883405 5.57457372 1.57665715 8.35621921 -1.61328125 12.71484375 C-3 14 -3 14 -6 14 C-6.33 12.68 -6.66 11.36 -7 10 C-6.401875 9.79375 -5.80375 9.5875 -5.1875 9.375 C-2.1616573 7.47304173 -1.35291498 5.24699596 0 2 C0 1.34 0 0.68 0 0 Z " fill="#C5C5C5" transform="translate(135,142)"/>
<path d="M0 0 C-4.19412131 3.44517108 -7.38451164 4.14140424 -12.75 4.0625 C-13.54921875 4.05347656 -14.3484375 4.04445312 -15.171875 4.03515625 C-15.77515625 4.02355469 -16.3784375 4.01195312 -17 4 C-16.360625 3.525625 -15.72125 3.05125 -15.0625 2.5625 C-13.11706694 1.16261274 -13.11706694 1.16261274 -12 0 C-10.36154566 -0.26007212 -8.71316296 -0.45922323 -7.0625 -0.625 C-6.16660156 -0.72039062 -5.27070312 -0.81578125 -4.34765625 -0.9140625 C-2 -1 -2 -1 0 0 Z " fill="#3D3D3E" transform="translate(126,191)"/>
<path d="M0 0 C0.33 0 0.66 0 1 0 C1.66 3.3 2.32 6.6 3 10 C3.66 10 4.32 10 5 10 C4.34 12.31 3.68 14.62 3 17 C2.01 16.34 1.02 15.68 0 15 C-0.22137393 12.37302936 -0.28162025 9.99106036 -0.1875 7.375 C-0.17396484 6.66859375 -0.16042969 5.9621875 -0.14648438 5.234375 C-0.1111104 3.48925872 -0.05730221 1.74453392 0 0 Z " fill="#E4E4E4" transform="translate(88,136)"/>
<path d="M0 0 C3.96 0 7.92 0 12 0 C11.67 0.99 11.34 1.98 11 3 C9.68 3 8.36 3 7 3 C7.33 3.66 7.66 4.32 8 5 C5.39417629 5.93065133 4.35801776 6.14917407 1.75 5.0625 C1.1725 4.711875 0.595 4.36125 0 4 C1.32 4 2.64 4 4 4 C2.68 3.34 1.36 2.68 0 2 C0 1.34 0 0.68 0 0 Z " fill="#9A9A98" transform="translate(112,122)"/>
<path d="M0 0 C0.33 0 0.66 0 1 0 C1.33 3.63 1.66 7.26 2 11 C3.65 11 5.3 11 7 11 C7 11.66 7 12.32 7 13 C5.68 13 4.36 13 3 13 C2.67 14.32 2.34 15.64 2 17 C-0.00435414 13.62123159 -0.39825924 10.70539618 -0.6875 6.8125 C-0.77386719 5.74644531 -0.86023438 4.68039063 -0.94921875 3.58203125 C-0.96597656 2.72996094 -0.98273438 1.87789062 -1 1 C-0.67 0.67 -0.34 0.34 0 0 Z " fill="#9B9B9D" transform="translate(125,173)"/>
<path d="M0 0 C0.66 0 1.32 0 2 0 C1.86722656 0.60585937 1.73445312 1.21171875 1.59765625 1.8359375 C0.32432636 7.87728368 -0.50255404 13.84737892 -1 20 C-1.33 20 -1.66 20 -2 20 C-3.31191816 12.57106587 -2.65494169 7.04984516 0 0 Z " fill="#C3C3C3" transform="translate(139,120)"/>
<path d="M0 0 C1.98 0 3.96 0 6 0 C5.67 1.32 5.34 2.64 5 4 C5.66 4.33 6.32 4.66 7 5 C7.33 4.34 7.66 3.68 8 3 C8 3.99 8 4.98 8 6 C5.69 6.66 3.38 7.32 1 8 C1.020625 7.05125 1.04125 6.1025 1.0625 5.125 C1.22551826 2.09333717 1.22551826 2.09333717 0 0 Z " fill="#C5C5C3" transform="translate(108,120)"/>
<path d="M0 0 C0.99 0 1.98 0 3 0 C3.14285714 7.42857143 3.14285714 7.42857143 2 11 C1.34 11 0.68 11 0 11 C0 7.37 0 3.74 0 0 Z " fill="#858587" transform="translate(114,158)"/>
<path d="M0 0 C3.5 0.875 3.5 0.875 5.4375 2.9375 C5.788125 3.576875 6.13875 4.21625 6.5 4.875 C4.625 5.9375 4.625 5.9375 2.5 6.875 C1.84 6.545 1.18 6.215 0.5 5.875 C0.5 4.885 0.5 3.895 0.5 2.875 C-1.81 2.545 -4.12 2.215 -6.5 1.875 C-3.5 -0.125 -3.5 -0.125 0 0 Z " fill="#C7C7C5" transform="translate(121.5,120.125)"/>
<path d="M0 0 C0.33 0 0.66 0 1 0 C1.33 5.61 1.66 11.22 2 17 C1.01 17 0.02 17 -1 17 C-0.83628906 16.30519531 -0.67257813 15.61039063 -0.50390625 14.89453125 C0.04095996 11.7647184 0.09738483 8.86201917 0.0625 5.6875 C0.05347656 4.61886719 0.04445313 3.55023438 0.03515625 2.44921875 C0.02355469 1.64097656 0.01195313 0.83273438 0 0 Z " fill="#DDDDDF" transform="translate(121,173)"/>
<path d="M0 0 C0.66 0 1.32 0 2 0 C2.309375 0.78375 2.61875 1.5675 2.9375 2.375 C3.92875038 4.92330128 3.92875038 4.92330128 5 7 C5.06950541 8.54023996 5.08452357 10.08334988 5.0625 11.625 C5.05347656 12.44226563 5.04445313 13.25953125 5.03515625 14.1015625 C5.02355469 14.72804688 5.01195313 15.35453125 5 16 C3.13389074 13.20083611 2.31214617 11.18061731 1.375 8 C1.11460938 7.13375 0.85421875 6.2675 0.5859375 5.375 C0 3 0 3 0 0 Z " fill="#BDBDBD" transform="translate(79,107)"/>
<path d="M0 0 C2.3125 -0.3125 2.3125 -0.3125 5 0 C6.8125 2.5 6.8125 2.5 8 5 C6.68 5.33 5.36 5.66 4 6 C4 4.68 4 3.36 4 2 C2.68 2 1.36 2 0 2 C0 1.34 0 0.68 0 0 Z " fill="#B8B8B8" transform="translate(93,184)"/>
<path d="M0 0 C0.33 0 0.66 0 1 0 C1.33 2.97 1.66 5.94 2 9 C1.01 9.33 0.02 9.66 -1 10 C-1.125 3.375 -1.125 3.375 0 0 Z " fill="#F8F8FA" transform="translate(119,181)"/>
<path d="M0 0 C2.45484649 2.13464912 3.68134222 3.70720291 4 7 C3.34 7.66 2.68 8.32 2 9 C0.50178941 5.62902617 0 3.79557881 0 0 Z " fill="#F1F1F1" transform="translate(83,115)"/>
<path d="M0 0 C0.99 0.495 0.99 0.495 2 1 C2 1.99 2 2.98 2 4 C3.32 4.33 4.64 4.66 6 5 C4.34385343 5.38218767 2.67542976 5.71395102 1 6 C0 5 0 5 -0.0625 2.4375 C-0.041875 1.633125 -0.02125 0.82875 0 0 Z " fill="#6F6F6D" transform="translate(103,123)"/>
<path d="M0 0 C0 2.83967231 -0.40267181 5.23735711 -1 8 C-2.32 7.34 -3.64 6.68 -5 6 C-3.35 4.02 -1.7 2.04 0 0 Z " fill="#E8E8E8" transform="translate(80,45)"/>
</svg>
