<?xml version="1.0" encoding="UTF-8"?>
<svg version="1.1" xmlns="http://www.w3.org/2000/svg" width="512" height="512">
<path d="M0 0 C2.54174805 1.25244141 2.54174805 1.25244141 5.26171875 2.8515625 C6.28458984 3.44775391 7.30746094 4.04394531 8.36132812 4.65820312 C9.45896484 5.30724609 10.55660156 5.95628906 11.6875 6.625 C12.84916922 7.30478918 14.01128693 7.98381248 15.17382812 8.66210938 C17.58817446 10.07158303 20.00055922 11.48432987 22.41162109 12.89941406 C27.92318583 16.13055521 33.4629938 19.31272995 39 22.5 C41.16679965 23.74976947 43.3334659 24.99977024 45.5 26.25 C47.10875 27.178125 47.10875 27.178125 48.75 28.125 C60.66666667 35 72.58333333 41.875 84.5 48.75 C85.57282227 49.36891113 86.64564453 49.98782227 87.75097656 50.62548828 C89.91447476 51.87371034 92.07788643 53.12208239 94.24121094 54.37060547 C99.70565017 57.52405256 105.17163645 60.67476096 110.640625 63.8203125 C111.74792969 64.45775391 112.85523438 65.09519531 113.99609375 65.75195312 C116.04498654 66.9313578 118.09439311 68.10987081 120.14453125 69.28710938 C122.11554579 70.42221429 124.07285241 71.58142996 126.01626587 72.76316833 C129.06166357 74.55196142 132.18314155 75.989099 135.41293335 77.41529846 C150.15079758 84.34520326 150.15079758 84.34520326 153.2348938 90.4406662 C155.07967423 97.31720173 154.52910013 104.3253882 154.1484375 111.36328125 C154.10733639 113.60899013 154.07605227 115.85489809 154.05410767 118.10087585 C153.97059757 123.97705219 153.75507777 129.84101398 153.51062012 135.71240234 C153.28440469 141.7173936 153.18485107 147.72438658 153.07421875 153.73242188 C152.83917049 165.49361263 152.46441482 177.24578629 152 189 C151.22053009 189.44508408 150.44106018 189.89016815 149.63796997 190.34873962 C146.67789401 192.03913083 143.71794968 193.72975208 140.75808716 195.42051697 C139.48978658 196.14495056 138.22143725 196.8692988 136.95303345 197.59355164 C125.02060474 204.40705304 113.11507293 211.26643475 101.21777344 218.14111328 C95.81329355 221.26324605 90.40652588 224.38141204 85 227.5 C82.8333225 228.74998122 80.66665583 229.99998121 78.5 231.25 C39.49999999 253.75 39.49999999 253.75 36.24951172 255.62524414 C34.08442929 256.87435518 31.91939018 258.12354129 29.75439453 259.37280273 C24.31384294 262.51202309 18.87252784 265.64990563 13.4296875 268.78515625 C2.97793801 274.80747329 -7.46299548 280.84669337 -17.875 286.9375 C-27.14499777 292.35921178 -36.45831752 297.70204915 -45.78845215 303.01922607 C-54.9128284 308.22045129 -64.00132774 313.48027878 -73.06689453 318.78344727 C-83.5806503 324.931705 -94.13329606 331.01197929 -104.68701172 337.09130859 C-109.16397806 339.67059547 -113.63992378 342.25164676 -118.11499023 344.83422852 C-120.30739419 346.09837679 -122.5008948 347.36062528 -124.69555664 348.62084961 C-129.71922897 351.50883589 -134.72230234 354.42130655 -139.6796875 357.421875 C-140.98788452 358.20546387 -140.98788452 358.20546387 -142.32250977 359.00488281 C-143.9319162 359.97125255 -145.53454467 360.94904222 -147.12866211 361.94042969 C-147.83514893 362.36227539 -148.54163574 362.78412109 -149.26953125 363.21875 C-149.87385986 363.58935547 -150.47818848 363.95996094 -151.10083008 364.34179688 C-153.76889753 365.26647998 -155.31367675 364.81711525 -158 364 C-160.54174805 362.74755859 -160.54174805 362.74755859 -163.26171875 361.1484375 C-164.28458984 360.55224609 -165.30746094 359.95605469 -166.36132812 359.34179688 C-167.45896484 358.69275391 -168.55660156 358.04371094 -169.6875 357.375 C-170.84916922 356.69521082 -172.01128693 356.01618752 -173.17382812 355.33789062 C-175.58817446 353.92841697 -178.00055922 352.51567013 -180.41162109 351.10058594 C-185.92318583 347.86944479 -191.4629938 344.68727005 -197 341.5 C-199.16679965 340.25023053 -201.3334659 339.00022976 -203.5 337.75 C-204.5725 337.13125 -205.645 336.5125 -206.75 335.875 C-218.66666667 329 -230.58333333 322.125 -242.5 315.25 C-244.1092334 314.3216333 -244.1092334 314.3216333 -245.75097656 313.37451172 C-247.91447476 312.12628966 -250.07788643 310.87791761 -252.24121094 309.62939453 C-257.70565017 306.47594744 -263.17163645 303.32523904 -268.640625 300.1796875 C-270.30158203 299.22352539 -270.30158203 299.22352539 -271.99609375 298.24804688 C-274.04498654 297.0686422 -276.09439311 295.89012919 -278.14453125 294.71289062 C-280.11554579 293.57778571 -282.07285241 292.41857004 -284.01626587 291.23683167 C-287.06166357 289.44803858 -290.18314155 288.010901 -293.41293335 286.58470154 C-308.15079758 279.65479674 -308.15079758 279.65479674 -311.2348938 273.5593338 C-313.07967423 266.68279827 -312.52910013 259.6746118 -312.1484375 252.63671875 C-312.10733639 250.39100987 -312.07605227 248.14510191 -312.05410767 245.89912415 C-311.97059757 240.02294781 -311.75507777 234.15898602 -311.51062012 228.28759766 C-311.28440469 222.2826064 -311.18485107 216.27561342 -311.07421875 210.26757812 C-310.83917049 198.50638737 -310.46441482 186.75421371 -310 175 C-309.22053009 174.55491592 -308.44106018 174.10983185 -307.63796997 173.65126038 C-304.67789401 171.96086917 -301.71794968 170.27024792 -298.75808716 168.57948303 C-297.48978658 167.85504944 -296.22143725 167.1307012 -294.95303345 166.40644836 C-283.02060474 159.59294696 -271.11507293 152.73356525 -259.21777344 145.85888672 C-253.81329355 142.73675395 -248.40652588 139.61858796 -243 136.5 C-240.8333225 135.25001878 -238.66665583 134.00001879 -236.5 132.75 C-145.5 80.25 -145.5 80.25 -142.24951172 78.37475586 C-140.08442929 77.12564482 -137.91939018 75.87645871 -135.75439453 74.62719727 C-130.31384294 71.48797691 -124.87252784 68.35009437 -119.4296875 65.21484375 C-108.97793801 59.19252671 -98.53700452 53.15330663 -88.125 47.0625 C-78.85733917 41.64215502 -69.54640471 36.30059615 -60.21859741 30.98480225 C-51.93307048 26.26180565 -43.67242286 21.4983551 -35.4375 16.6875 C-33.97703247 15.8375647 -33.97703247 15.8375647 -32.48706055 14.97045898 C-27.78879431 12.23275194 -23.10998766 9.46900481 -18.4609375 6.6484375 C-17.15491577 5.86593628 -17.15491577 5.86593628 -15.82250977 5.06762695 C-14.19853851 4.09381285 -12.58128616 3.10866681 -10.97241211 2.11010742 C-10.25577393 1.68318604 -9.53913574 1.25626465 -8.80078125 0.81640625 C-8.18372314 0.43943604 -7.56666504 0.06246582 -6.9309082 -0.32592773 C-4.24154955 -1.26477199 -2.70940348 -0.82783074 0 0 Z " fill="#DC5454" transform="translate(335,74)"/>
<path d="M0 0 C0 33 0 66 0 100 C-9.24 105.28 -18.48 110.56 -28 116 C-35.5961693 120.37684041 -43.19148019 124.75491277 -50.78222656 129.14111328 C-56.18670645 132.26324605 -61.59347412 135.38141204 -67 138.5 C-69.1666775 139.74998122 -71.33334417 140.99998121 -73.5 142.25 C-112.5 164.75 -112.5 164.75 -115.75048828 166.62524414 C-117.91557071 167.87435518 -120.08060982 169.12354129 -122.24560547 170.37280273 C-127.68615706 173.51202309 -133.12747216 176.64990563 -138.5703125 179.78515625 C-149.02206199 185.80747329 -159.46299548 191.84669337 -169.875 197.9375 C-179.14499777 203.35921178 -188.45831752 208.70204915 -197.78845215 214.01922607 C-206.9128284 219.22045129 -216.00132774 224.48027878 -225.06689453 229.78344727 C-235.5806503 235.931705 -246.13329606 242.01197929 -256.68701172 248.09130859 C-261.16397806 250.67059547 -265.63992378 253.25164676 -270.11499023 255.83422852 C-272.30739419 257.09837679 -274.5008948 258.36062528 -276.69555664 259.62084961 C-281.71922897 262.50883589 -286.72230234 265.42130655 -291.6796875 268.421875 C-292.98788452 269.20546387 -292.98788452 269.20546387 -294.32250977 270.00488281 C-295.9319162 270.97125255 -297.53454467 271.94904222 -299.12866211 272.94042969 C-299.83514893 273.36227539 -300.54163574 273.78412109 -301.26953125 274.21875 C-301.87385986 274.58935547 -302.47818848 274.95996094 -303.10083008 275.34179688 C-305.76889753 276.26647998 -307.31367675 275.81711525 -310 275 C-312.54174805 273.74755859 -312.54174805 273.74755859 -315.26171875 272.1484375 C-316.28458984 271.55224609 -317.30746094 270.95605469 -318.36132812 270.34179688 C-319.45896484 269.69275391 -320.55660156 269.04371094 -321.6875 268.375 C-322.84916922 267.69521082 -324.01128693 267.01618752 -325.17382812 266.33789062 C-327.58817446 264.92841697 -330.00055922 263.51567013 -332.41162109 262.10058594 C-337.92318583 258.86944479 -343.4629938 255.68727005 -349 252.5 C-351.16679965 251.25023053 -353.3334659 250.00022976 -355.5 248.75 C-357.10875 247.821875 -357.10875 247.821875 -358.75 246.875 C-370.66666667 240 -382.58333333 233.125 -394.5 226.25 C-395.57282227 225.63108887 -396.64564453 225.01217773 -397.75097656 224.37451172 C-399.91447476 223.12628966 -402.07788643 221.87791761 -404.24121094 220.62939453 C-409.70565017 217.47594744 -415.17163645 214.32523904 -420.640625 211.1796875 C-421.74792969 210.54224609 -422.85523438 209.90480469 -423.99609375 209.24804688 C-426.04498654 208.0686422 -428.09439311 206.89012919 -430.14453125 205.71289062 C-432.18341207 204.5387016 -434.19110971 203.30935283 -436.17138672 202.03881836 C-439.23082833 200.21614626 -442.21293481 199.35317694 -445.64501953 198.43188477 C-452.69322112 196.11688968 -458.06232299 193.50970079 -462 187 C-466.33735074 172.22479462 -464.14850799 154.91653905 -463.51062012 139.75115967 C-463.28438802 133.80650911 -463.18484779 127.85983547 -463.07421875 121.91210938 C-462.83918284 110.26935292 -462.46443833 98.6357072 -462 87 C-460.11234343 87.93381627 -458.22585439 88.86999284 -456.33984375 89.80712891 C-455.28917725 90.32820221 -454.23851074 90.84927551 -453.15600586 91.38613892 C-448.32249215 93.85781356 -443.66664643 96.60458043 -439 99.375 C-436.8965103 100.61313001 -434.79231395 101.85006006 -432.6875 103.0859375 C-431.59695313 103.7262793 -430.50640625 104.36662109 -429.3828125 105.02636719 C-423.61253076 108.39292013 -417.80555221 111.6948233 -412 115 C-402.27819258 120.53886005 -392.59103798 126.13375712 -382.93310547 131.78344727 C-372.42671741 137.9273965 -361.8813613 144.00319756 -351.33496094 150.078125 C-346.76539369 152.7114803 -342.19801329 155.3486121 -337.63110352 157.98657227 C-335.40620881 159.27035691 -333.18016398 160.5521507 -330.95288086 161.83178711 C-326.42289285 164.43526461 -321.90053536 167.04338834 -317.43359375 169.75390625 C-316.78422852 170.14263916 -316.13486328 170.53137207 -315.46582031 170.93188477 C-313.84981761 171.90250693 -312.24273767 172.88794612 -310.63671875 173.875 C-307.42829582 175.24392712 -306.31577782 174.93165092 -303 174 C-300.39365296 172.7544728 -300.39365296 172.7544728 -297.73828125 171.1484375 C-296.71541016 170.55224609 -295.69253906 169.95605469 -294.63867188 169.34179688 C-293.54103516 168.69275391 -292.44339844 168.04371094 -291.3125 167.375 C-290.15083078 166.69521082 -288.98871307 166.01618752 -287.82617188 165.33789062 C-285.41182554 163.92841697 -282.99944078 162.51567013 -280.58837891 161.10058594 C-275.07681417 157.86944479 -269.5370062 154.68727005 -264 151.5 C-261.83320035 150.25023053 -259.6665341 149.00022976 -257.5 147.75 C-166.5 95.25 -166.5 95.25 -163.24951172 93.37475586 C-161.08442929 92.12564482 -158.91939018 90.87645871 -156.75439453 89.62719727 C-151.31384294 86.48797691 -145.87252784 83.35009437 -140.4296875 80.21484375 C-129.97793801 74.19252671 -119.53700452 68.15330663 -109.125 62.0625 C-99.85500223 56.64078822 -90.54168248 51.29795085 -81.21154785 45.98077393 C-72.0937264 40.78328518 -63.01115483 35.52824513 -53.95288086 30.22753906 C-45.41395928 25.23282072 -36.84629019 20.2889044 -28.27099609 15.35693359 C-23.38197276 12.54181563 -18.50128098 9.71575237 -13.65234375 6.83203125 C-12.85691162 6.35926758 -12.06147949 5.88650391 -11.24194336 5.39941406 C-9.79114478 4.53427489 -8.34257863 3.66537628 -6.89672852 2.79199219 C-2.21791331 0 -2.21791331 0 0 0 Z " fill="#A90000" transform="translate(487,163)"/>
<path d="M0 0 C1.88765657 0.93381627 3.77414561 1.86999284 5.66015625 2.80712891 C6.71082275 3.32820221 7.76148926 3.84927551 8.84399414 4.38613892 C13.67750785 6.85781356 18.33335357 9.60458043 23 12.375 C25.1034897 13.61313001 27.20768605 14.85006006 29.3125 16.0859375 C30.40304688 16.7262793 31.49359375 17.36662109 32.6171875 18.02636719 C38.38746924 21.39292013 44.19444779 24.6948233 50 28 C59.72180742 33.53886005 69.40896202 39.13375712 79.06689453 44.78344727 C89.57611088 50.92905044 100.12448664 57.00613649 110.67382812 63.08251953 C114.07053685 65.04066327 117.46522458 67.00226927 120.859375 68.96484375 C121.99262207 69.61976807 123.12586914 70.27469238 124.29345703 70.94946289 C126.41982403 72.17844256 128.54583722 73.40803472 130.67138672 74.63842773 C139.07780992 79.49451214 147.53660133 84.23933825 156 89 C155.67 122 155.34 155 155 189 C141.35055205 182.17527603 141.35055205 182.17527603 135.375 178.5625 C133.91343182 177.6915806 132.45114263 176.82187049 130.98828125 175.953125 C130.19760254 175.48326172 129.40692383 175.01339844 128.59228516 174.52929688 C123.60395765 171.58647492 118.58145592 168.70266469 113.5625 165.8125 C112.45632324 165.17513916 111.35014648 164.53777832 110.21044922 163.88110352 C107.93876335 162.57237584 105.66695245 161.26386516 103.39501953 159.95556641 C97.9283002 156.80667946 92.46425113 153.65316736 87 150.5 C84.83334689 149.2499765 82.66668021 147.99997653 80.5 146.75 C74 143 74 143 67.5 139.25 C66.42717773 138.63108887 65.35435547 138.01217773 64.24902344 137.37451172 C62.08552524 136.12628966 59.92211357 134.87791761 57.75878906 133.62939453 C52.29434983 130.47594744 46.82836355 127.32523904 41.359375 124.1796875 C40.25207031 123.54224609 39.14476562 122.90480469 38.00390625 122.24804688 C35.95501346 121.0686422 33.90560689 119.89012919 31.85546875 118.71289062 C29.81658793 117.5387016 27.80889029 116.30935283 25.82861328 115.03881836 C22.76917167 113.21614626 19.78706519 112.35317694 16.35498047 111.43188477 C9.30677888 109.11688968 3.93767701 106.50970079 0 100 C-4.33735074 85.22479462 -2.14850799 67.91653905 -1.51062012 52.75115967 C-1.28438802 46.80650911 -1.18484779 40.85983547 -1.07421875 34.91210938 C-0.83918284 23.26935292 -0.46443833 11.6357072 0 0 Z " fill="#D40909" transform="translate(25,250)"/>
<path d="M0 0 C3.37395642 2.22808443 4.97065197 3.56372184 5.8125 7.5625 C5.17806104 10.89330455 3.61860332 12.14190056 0.94140625 14.1171875 C-4.37661049 17.61151984 -9.46510523 17.79363891 -15.6875 17.1875 C-20.06249159 16.23023688 -22.95287879 14.86836844 -26.25 11.8125 C-27.6875 9.1875 -27.6875 9.1875 -27.6875 6.625 C-26.14674649 2.86941333 -24.0841718 0.86518945 -20.44140625 -0.90234375 C-13.9673962 -3.04198112 -6.19055224 -2.95922003 0 0 Z " fill="#D40B0B" transform="translate(301.6875,158.8125)"/>
<path d="M0 0 C3.42592357 1.64067165 5.32054343 3.02573702 7.44140625 6.20703125 C7.50390625 9.64453125 7.50390625 9.64453125 6.44140625 13.20703125 C4.21863045 15.06860599 2.12516145 15.98286221 -0.55859375 17.20703125 C-1.21859375 17.53703125 -1.87859375 17.86703125 -2.55859375 18.20703125 C-9.53382192 18.81765729 -15.29268997 18.39494721 -21.55859375 15.20703125 C-24.12109375 12.83203125 -24.12109375 12.83203125 -25.55859375 10.20703125 C-25.62109375 7.64453125 -25.62109375 7.64453125 -24.55859375 5.20703125 C-17.61249923 -1.3635987 -9.218615 -2.85706694 0 0 Z " fill="#D40B0B" transform="translate(247.55859375,247.79296875)"/>
<path d="M0 0 C2.5625 1.8125 2.5625 1.8125 4 4 C4.0625 7 4.0625 7 3 10 C-1.60862457 14.60862457 -6.37368489 16.29061186 -12.8125 16.375 C-18.27488442 16.2874402 -22.61273331 15.36357113 -27 12 C-29 9 -29 9 -29 5.5625 C-28 2 -28 2 -25.125 -0.375 C-16.91150639 -4.64601668 -8.18336154 -4.0198969 0 0 Z " fill="#D40B0B" transform="translate(373,200)"/>
<path d="M0 0 C3.33203956 2.028198 4.69301775 3.29394083 6.25 6.875 C5.956542 10.54322501 5.40991682 10.96253111 2.75 13.3125 C-3.40996219 18.16156115 -10.46147415 17.72389818 -18 17 C-21.32519255 15.91273029 -23.67414484 14.6289411 -26 12 C-27.375 8.5 -27.375 8.5 -27 5 C-19.53279438 -3.00057745 -10.03594808 -3.85998003 0 0 Z " fill="#D40B0B" transform="translate(250,168)"/>
<path d="M0 0 C2.625 2.375 2.625 2.375 4 5 C4 8.28964951 3.29952702 9.62559122 1.25 12.1875 C-4.73766964 17.01090054 -11.64583106 16.73541689 -19 16 C-23.43519905 14.62332506 -26.37063412 12.94404882 -29 9 C-29.5 6.625 -29.5 6.625 -29 4 C-20.72460131 -4.27539869 -10.45876045 -5.23981811 0 0 Z " fill="#D40B0B" transform="translate(233,200)"/>
<path d="M0 0 C2.80125118 1.54246109 3.50236711 2.37855067 5.375 5.1875 C5.8125 8.125 5.8125 8.125 5.375 11.1875 C0.69022228 16.00612851 -4.34689487 17.49082002 -10.9375 17.625 C-17.51540094 17.55033597 -21.96809693 15.84440307 -26.625 11.1875 C-27 8.4375 -27 8.4375 -26.625 5.1875 C-20.19049533 -2.90159159 -9.23714995 -4.40748837 0 0 Z " fill="#D40B0B" transform="translate(336.625,97.8125)"/>
<path d="M0 0 C4.78571429 3.35 4.78571429 3.35 6.5 5.75 C6.58043941 9.61109186 6.03307961 11.18556277 3.375 14 C-2.45659902 17.54966897 -8.76870604 18.70831458 -15.5 17.75 C-19.74794686 16.25029006 -23.62722925 14.29923359 -26.5 10.75 C-26.5625 7.3125 -26.5625 7.3125 -25.5 3.75 C-18.43690812 -2.2143887 -8.62760277 -3.0812867 0 0 Z " fill="#D40B0B" transform="translate(160.5,239.25)"/>
<path d="M0 0 C2.00718716 1.22729849 3.44775471 2.32168681 4.91015625 4.16796875 C4.97265625 7.60546875 4.97265625 7.60546875 3.91015625 11.16796875 C-2.74453544 16.78748618 -9.69360557 16.79824936 -18.08984375 16.16796875 C-22.24273064 14.68479486 -25.50007542 12.79364441 -28.08984375 9.16796875 C-28.15234375 6.16796875 -28.15234375 6.16796875 -27.08984375 3.16796875 C-19.27954066 -4.64233434 -9.5328371 -4.51555441 0 0 Z " fill="#D40A0A" transform="translate(197.08984375,179.83203125)"/>
<path d="M0 0 C3.3125 2.1875 3.3125 2.1875 5.3125 5.1875 C5.23093929 9.02085351 4.82182785 10.66361993 2.125 13.4375 C-3.88807042 17.17896604 -9.71182373 18.06886434 -16.6875 17.1875 C-20.63016265 15.89765758 -23.68734067 14.09673575 -26.75 11.3125 C-28.15205732 8.1345034 -27.84000289 6.44162581 -26.6875 3.1875 C-19.2639398 -2.78362451 -8.7508963 -4.21458609 0 0 Z " fill="#D40A0A" transform="translate(336.6875,178.8125)"/>
<path d="M0 0 C3.35932107 2.05634911 5.2261378 3.67123795 7.4375 6.98828125 C7.34720726 10.50969809 6.73331794 11.70068048 4.1875 14.17578125 C-1.71764107 18.06780604 -6.5908777 18.5478015 -13.5625 17.98828125 C-16.9375 17.11328125 -16.9375 17.11328125 -19.5625 15.98828125 C-20.305 15.67890625 -21.0475 15.36953125 -21.8125 15.05078125 C-23.5625 13.98828125 -23.5625 13.98828125 -25.5625 10.98828125 C-25.5625 7.55078125 -25.5625 7.55078125 -24.5625 3.98828125 C-17.79721202 -1.60043491 -8.31261732 -3.28196324 0 0 Z " fill="#D40A0A" transform="translate(353.5625,147.01171875)"/>
<path d="M0 0 C1.375 2.25 1.375 2.25 1.625 5.6875 C0.1361538 9.93071168 -1.16830475 11.25573665 -5.04296875 13.37109375 C-11.21864493 15.47325281 -18.58047822 15.36910328 -24.6875 13 C-29.75038541 9.98381295 -29.75038541 9.98381295 -31.625 7.25 C-31.8125 4.3125 -31.8125 4.3125 -30.625 1.25 C-21.99050968 -7.15963381 -9.65360519 -6.43573679 0 0 Z " fill="#D40B0B" transform="translate(410.625,140.75)"/>
<path d="M0 0 C2.43179103 2.04989313 2.93759954 2.64119738 3.5 5.875 C2.82990177 10.06311393 1.27192644 11.38245885 -2 14 C-8.03739997 16.91671688 -15.08981037 17.24610439 -21.48828125 15.20703125 C-25.09920903 13.48408399 -26.72891568 12.40662648 -29 9 C-29.4375 6.0625 -29.4375 6.0625 -29 3 C-21.20988374 -5.24835839 -9.52461386 -4.5116592 0 0 Z " fill="#D40A0A" transform="translate(233,281)"/>
<path d="M0 0 C3.0625 2.375 3.0625 2.375 5 5 C5.1875 7.5 5.1875 7.5 4 10 C-2.28964336 16.0161806 -7.01849064 16.41850009 -15.4609375 16.33984375 C-20.2977116 15.87538531 -23.74124054 14.68341367 -27 11 C-28.375 7.5 -28.375 7.5 -28 4 C-20.48901562 -4.24376335 -9.62649815 -5.14095965 0 0 Z " fill="#D40A0A" transform="translate(267,220)"/>
<path d="M0 0 C3.375 2.125 3.375 2.125 5.375 4.125 C5.8125 7.5 5.8125 7.5 5.375 11.125 C1.79262771 14.91207928 -2.29736898 16.8488948 -7.45703125 17.4609375 C-13.95723486 17.54613021 -19.32134996 17.1911317 -24.625 13.125 C-26.625 10.125 -26.625 10.125 -26.625 6.6875 C-25.625 3.125 -25.625 3.125 -22.75 0.75 C-15.73461109 -2.89800223 -7.22646376 -3.5668234 0 0 Z " fill="#D40A0A" transform="translate(389.625,167.875)"/>
<path d="M0 0 C1.5234375 1.16796875 1.5234375 1.16796875 3.5234375 4.16796875 C3.44275788 7.95991098 3.0240616 9.63789617 0.3984375 12.41796875 C-5.44037279 15.97202719 -11.73917689 17.11559417 -18.4765625 16.16796875 C-22.38604201 14.84894436 -25.4895466 13.06525593 -28.5390625 10.29296875 C-29.94111982 7.11497215 -29.62906539 5.42209456 -28.4765625 2.16796875 C-20.41565991 -4.45988449 -9.09790073 -5.00960357 0 0 Z " fill="#D40A0A" transform="translate(322.4765625,128.83203125)"/>
<path d="M0 0 C5.12980769 2.61153846 5.12980769 2.61153846 6.4375 5.75 C6.5625 9.25 6.5625 9.25 5.4375 12.75 C0.08933926 17.30685124 -5.9494763 18.09274289 -12.6953125 18.0390625 C-16.85037626 17.62015961 -20.22135455 16.25376564 -23.5625 13.75 C-25.89293558 10.25434664 -26.15013244 8.8634271 -25.5625 4.75 C-18.53191103 -2.28058897 -9.280967 -3.15105187 0 0 Z " fill="#D40A0A" transform="translate(213.5625,228.25)"/>
<path d="M0 0 C3.3125 2.125 3.3125 2.125 5.3125 4.125 C5.75 7.5 5.75 7.5 5.3125 11.125 C1.47083149 15.4323253 -3.2482804 16.7774193 -8.890625 17.34765625 C-15.43277556 17.6035567 -19.78063475 16.15980568 -25.1875 12.375 C-26.6875 10.125 -26.6875 10.125 -26.9375 6.6875 C-25.44867277 2.44434241 -24.14583098 1.1154064 -20.265625 -0.9921875 C-13.66130992 -3.25366509 -6.30205345 -3.0419748 0 0 Z " fill="#D40A0A" transform="translate(195.6875,259.875)"/>
<path d="M0 0 C2.33043558 3.49565336 2.58763244 4.8865729 2 9 C-2.89282097 13.89282097 -7.04455406 15.2904663 -13.875 15.3125 C-15.06867188 15.32925781 -16.26234375 15.34601563 -17.4921875 15.36328125 C-22.0179024 14.89458249 -25.18363889 13.27145278 -28.875 10.6875 C-30.65062702 8.02405947 -30.44486701 6.11406906 -30 3 C-22.81239076 -7.06265293 -9.5036743 -5.371642 0 0 Z " fill="#D40A0A" transform="translate(113,251)"/>
<path d="M0 0 C6.616044 -0.36190326 11.58621713 1.37189572 16.6875 5.61328125 C17.97265625 7.1875 17.97265625 7.1875 18.16015625 10.5625 C16.74808513 14.87303288 15.52552217 16.17141795 11.625 18.30859375 C5.2081534 20.43494204 -2.15076543 20.44939521 -8.33984375 17.734375 C-12.72806887 15.20859426 -12.72806887 15.20859426 -14.02734375 13.1875 C-14.65234375 9.8125 -14.65234375 9.8125 -14.02734375 6.1875 C-10.07541622 1.84812859 -5.66571535 0.5239968 0 0 Z " fill="#D40A0A" transform="translate(359.02734375,115.8125)"/>
<path d="M0 0 C3.49806978 1.94477526 4.98578242 3.35025282 6.5390625 7.078125 C6.2151929 10.96456021 5.05930446 12.38275444 2.2890625 15.078125 C-3.12100804 18.67231538 -10.49271972 17.51040752 -16.7109375 17.078125 C-20.41907229 16.26269247 -22.87425432 14.83636913 -25.7109375 12.265625 C-26.7109375 10.078125 -26.7109375 10.078125 -26.8984375 7.140625 C-25.4179879 3.32262339 -23.96246907 1.96841692 -20.421875 0 C-13.94647692 -2.20200857 -6.47539808 -2.20200857 0 0 Z " fill="#D40A0A" transform="translate(125.7109375,218.921875)"/>
<path d="M0 0 C1.55859375 1.0703125 1.55859375 1.0703125 3.55859375 3.0703125 C3.99609375 5.8828125 3.99609375 5.8828125 3.55859375 9.0703125 C0.17961668 13.57561526 -2.96525481 15.0663514 -8.44140625 16.0703125 C-15.7723016 17.08052899 -21.28048378 15.10424983 -27.44140625 11.0703125 C-28.87875871 8.19560757 -28.82313274 6.25136662 -28.44140625 3.0703125 C-21.03542776 -4.77131179 -9.02795684 -5.06766808 0 0 Z " fill="#D40A0A" transform="translate(181.44140625,209.9296875)"/>
<path d="M0 0 C3.3125 2.1875 3.3125 2.1875 5.3125 5.1875 C5.45024847 8.35571475 5.12317056 10.27191914 2.984375 12.6875 C-2.51485254 16.89560455 -8.37950769 16.91338595 -15.1015625 16.671875 C-19.89539148 16.02434254 -23.41748763 14.83996996 -26.6875 11.1875 C-27.9375 8.1875 -27.9375 8.1875 -27.6875 5.1875 C-25.81691175 1.89526468 -24.45074462 0.49712831 -20.93359375 -0.9296875 C-14.12595784 -2.78110232 -6.47206183 -3.08813188 0 0 Z " fill="#D40A0A" transform="translate(441.6875,158.8125)"/>
<path d="M0 0 C3.40509996 1.63369686 5.26776791 3.04618312 7.375 6.20703125 C7.375 9.14453125 7.375 9.14453125 6.375 12.20703125 C-0.72135745 17.91497094 -7.80802364 18.06342631 -16.625 17.20703125 C-19.9059369 16.09093541 -22.27133982 14.76128746 -24.625 12.20703125 C-25.9375 9.20703125 -25.9375 9.20703125 -25.625 6.20703125 C-19.19827043 -1.87228592 -9.69002042 -2.92719367 0 0 Z " fill="#D40A0A" transform="translate(177.625,288.79296875)"/>
<path d="M0 0 C0.70382812 -0.02900391 1.40765625 -0.05800781 2.1328125 -0.08789062 C7.30728884 -0.15040753 10.11083048 0.97266112 14.25 4.3125 C16.25 6.3125 16.25 6.3125 16.75 9.125 C16.20649869 12.58982088 15.91514798 12.99375389 13.375 15.125 C8.87101581 18.27778893 5.87805304 18.55271434 0.5 18.625 C-0.20382812 18.65400391 -0.90765625 18.68300781 -1.6328125 18.71289062 C-6.80728884 18.77540753 -9.61083048 17.65233888 -13.75 14.3125 C-15.75 12.3125 -15.75 12.3125 -16.25 9.5 C-15.70649869 6.03517912 -15.41514798 5.63124611 -12.875 3.5 C-8.37101581 0.34721107 -5.37805304 0.07228566 0 0 Z " fill="#D40A0A" transform="translate(308.75,206.6875)"/>
<path d="M0 0 C4.87399864 2.39252853 4.87399864 2.39252853 6.265625 5.17578125 C6.703125 7.98828125 6.703125 7.98828125 6.265625 11.17578125 C4.02193257 13.7715608 1.33696821 15.64010964 -1.734375 17.17578125 C-4.14781378 17.32589945 -6.5664393 17.39733495 -8.984375 17.42578125 C-10.28890625 17.4515625 -11.5934375 17.47734375 -12.9375 17.50390625 C-17.65645624 17.09609522 -20.7745704 15.54764447 -24.609375 12.86328125 C-26.44008032 10.11722328 -26.31248877 8.38752442 -25.734375 5.17578125 C-19.31849652 -2.18187755 -8.96794816 -2.7031958 0 0 Z " fill="#D40A0A" transform="translate(299.734375,238.82421875)"/>
<path d="M0 0 C4.87399864 2.39252853 4.87399864 2.39252853 6.265625 5.17578125 C6.703125 7.98828125 6.703125 7.98828125 6.265625 11.17578125 C0.98222055 16.57926307 -2.80634974 17.32364104 -10.109375 17.42578125 C-15.07704843 17.38679727 -18.57340218 17.13226194 -22.734375 14.17578125 C-23.6625 13.52609375 -23.6625 13.52609375 -24.609375 12.86328125 C-26.44008032 10.11722328 -26.31248877 8.38752442 -25.734375 5.17578125 C-19.31849652 -2.18187755 -8.96794816 -2.7031958 0 0 Z " fill="#D40909" transform="translate(283.734375,187.82421875)"/>
<path d="M0 0 C4.4818975 2.60621352 4.4818975 2.60621352 5.66015625 4.546875 C5.84765625 7.921875 5.84765625 7.921875 4.66015625 11.546875 C1.52651415 15.04712703 -1.91017348 16.36223124 -6.515625 16.95703125 C-13.94502898 17.1541204 -19.0340478 16.32480787 -25.27734375 12.296875 C-27.18622301 9.15283857 -27.01560312 7.10996986 -26.33984375 3.546875 C-20.47436849 -3.7125558 -7.83499094 -3.40890834 0 0 Z " fill="#D40909" transform="translate(144.33984375,269.453125)"/>
<path d="M0 0 C4.17275653 3.07696963 4.17275653 3.07696963 4.6875 6.3125 C4.25 9.5625 4.25 9.5625 1.4375 12.375 C-4.97755404 16.77748807 -12.2578937 16.15648306 -19.75 15.5625 C-22.75661062 14.57434604 -24.25517876 13.58211719 -26.75 11.5625 C-28.212958 8.636584 -28.19523109 6.80632653 -27.75 3.5625 C-20.72123877 -3.6260058 -8.79497458 -5.52872496 0 0 Z " fill="#D40909" transform="translate(267.75,139.4375)"/>
</svg>
