<?xml version="1.0" standalone="no"?>
<!DOCTYPE svg PUBLIC "-//W3C//DTD SVG 20010904//EN"
 "http://www.w3.org/TR/2001/REC-SVG-20010904/DTD/svg10.dtd">
<svg version="1.0" xmlns="http://www.w3.org/2000/svg"
 width="194.000000pt" height="259.000000pt" viewBox="0 0 194.000000 259.000000"
 preserveAspectRatio="xMidYMid meet">

<g transform="translate(0.000000,259.000000) scale(0.100000,-0.100000)"
fill="#000000" stroke="none">
<path d="M848 1823 c6 -2 18 -2 25 0 6 3 1 5 -13 5 -14 0 -19 -2 -12 -5z"/>
<path d="M1028 1823 c6 -2 18 -2 25 0 6 3 1 5 -13 5 -14 0 -19 -2 -12 -5z"/>
<path d="M790 1786 c-327 -70 -583 -317 -660 -638 -11 -46 -20 -110 -20 -143
l0 -60 219 0 220 0 11 64 c43 246 292 396 525 314 137 -47 234 -173 265 -341
9 -46 9 -45 6 15 -8 125 -101 260 -221 319 l-53 26 58 166 c32 92 64 182 70
200 14 39 19 38 130 -19 244 -126 402 -359 445 -655 l14 -99 -4 85 c-11 196
-97 383 -244 531 -107 106 -229 178 -373 220 -94 27 -294 35 -388 15z m220
-151 c-6 -26 -9 -49 -8 -50 2 -1 22 -13 46 -26 36 -19 40 -25 25 -30 -10 -4
-33 -8 -50 -8 -27 -1 -34 -6 -39 -28 -3 -16 -9 -41 -13 -58 l-8 -30 -23 52
c-18 44 -26 52 -44 49 -11 -3 -37 -7 -56 -11 l-34 -5 38 39 39 40 -21 50 c-11
28 -18 51 -15 51 4 0 25 -11 48 -24 l41 -24 39 33 c22 18 41 32 43 30 1 -1 -2
-24 -8 -50z m-364 -117 l-7 -53 46 -25 c42 -23 44 -26 23 -32 -13 -3 -37 -6
-54 -7 -30 -1 -32 -4 -39 -48 -10 -69 -14 -70 -41 -14 -25 55 -21 53 -106 36
-26 -5 -22 5 17 45 l35 36 -20 42 c-11 22 -20 44 -20 47 0 3 22 -6 49 -19 l48
-25 34 35 c18 18 35 34 37 34 2 0 1 -24 -2 -52z m-242 -302 l-7 -54 44 -23
c39 -19 42 -23 24 -30 -11 -4 -34 -8 -52 -8 -29 -1 -32 -4 -38 -43 -12 -71
-20 -75 -44 -19 -18 43 -25 51 -44 47 -12 -3 -38 -7 -57 -11 l-35 -5 42 42 42
43 -19 35 c-31 57 -25 65 26 36 l46 -26 36 35 c21 19 38 35 40 35 1 0 -1 -24
-4 -54z"/>
<path d="M920 1589 c0 -5 5 -7 12 -3 8 5 9 2 5 -9 -3 -10 -2 -17 3 -17 20 0 9
-19 -12 -23 -20 -4 -20 -4 4 -6 32 -1 44 14 28 34 -6 8 -9 19 -5 25 3 6 -3 10
-14 10 -12 0 -21 -5 -21 -11z"/>
<path d="M570 1480 c-13 -8 -12 -10 3 -10 21 0 22 -13 2 -30 -21 -17 -19 -30
5 -30 11 0 20 5 20 11 0 5 -4 7 -10 4 -13 -8 -13 1 2 25 15 24 0 44 -22 30z"/>
<path d="M325 1160 c-3 -5 -2 -10 4 -10 5 0 12 -12 14 -27 3 -23 4 -21 6 10 1
35 -11 49 -24 27z"/>
<path d="M1460 1666 c0 -2 8 -10 18 -17 15 -13 16 -12 3 4 -13 16 -21 21 -21
13z"/>
<path d="M1515 1620 c10 -11 20 -20 23 -20 3 0 -3 9 -13 20 -10 11 -20 20 -23
20 -3 0 3 -9 13 -20z"/>
<path d="M330 1575 c-24 -25 -42 -45 -39 -45 3 0 25 20 49 45 24 25 42 45 39
45 -3 0 -25 -20 -49 -45z"/>
<path d="M1620 1515 c13 -14 26 -25 28 -25 3 0 -5 11 -18 25 -13 14 -26 25
-28 25 -3 0 5 -11 18 -25z"/>
<path d="M700 1113 c0 -22 2 -25 10 -13 5 8 10 10 10 5 0 -6 9 -11 20 -12 15
-1 20 4 20 23 0 25 -24 34 -33 12 -4 -10 -6 -10 -6 0 -2 25 -21 11 -21 -15z"/>
<path d="M770 1115 c0 -22 4 -26 23 -23 14 2 22 10 22 23 0 13 -8 21 -22 23
-19 3 -23 -1 -23 -23z m31 -8 c-13 -13 -26 -3 -16 12 3 6 11 8 17 5 6 -4 6
-10 -1 -17z"/>
<path d="M830 1113 c0 -19 3 -24 9 -14 6 9 11 10 15 2 12 -18 23 -12 21 12 -1
14 -9 23 -23 25 -18 3 -22 -2 -22 -25z"/>
<path d="M890 1115 c0 -19 5 -25 23 -24 21 0 21 1 2 8 l-20 8 20 5 20 6 -20 2
-20 1 20 9 c19 8 19 9 -2 9 -18 1 -23 -5 -23 -24z"/>
<path d="M965 1130 c-3 -6 2 -13 11 -17 16 -6 16 -7 -2 -14 -16 -6 -15 -8 9
-8 29 -1 37 16 11 26 -13 5 -13 7 -2 14 10 7 9 9 -4 9 -9 0 -20 -5 -23 -10z"/>
<path d="M1028 1115 c2 -14 8 -25 12 -25 4 0 10 11 12 25 4 19 1 25 -12 25
-13 0 -16 -6 -12 -25z"/>
<path d="M1084 1124 c3 -8 2 -13 -3 -10 -5 3 -11 0 -14 -8 -7 -18 64 -20 75
-3 6 9 8 9 8 0 0 -7 5 -13 10 -13 6 0 10 11 10 25 0 20 -5 25 -25 25 -19 0
-25 -5 -26 -22 l0 -23 -11 23 c-12 25 -34 31 -24 6z"/>
<path d="M1185 1130 c-3 -6 2 -13 11 -17 16 -6 16 -7 -2 -14 -18 -7 -17 -8 3
-8 27 -1 40 17 18 25 -13 6 -14 8 -3 15 10 7 9 9 -4 9 -9 0 -20 -5 -23 -10z"/>
<path d="M1822 1060 c0 -14 2 -19 5 -12 2 6 2 18 0 25 -3 6 -5 1 -5 -13z"/>
<path d="M650 1033 c0 -22 2 -25 10 -13 5 8 10 10 10 5 0 -6 9 -11 20 -12 15
-1 20 4 20 23 0 25 -24 34 -33 12 -4 -10 -6 -10 -6 0 -2 25 -21 11 -21 -15z"/>
<path d="M722 1038 c4 -30 43 -33 43 -3 0 13 -8 21 -23 23 -20 3 -23 0 -20
-20z m28 -4 c0 -8 -4 -12 -10 -9 -5 3 -10 10 -10 16 0 5 5 9 10 9 6 0 10 -7
10 -16z"/>
<path d="M780 1035 c0 -14 5 -25 11 -25 5 0 7 5 4 10 -3 6 -1 10 4 10 6 0 11
-4 11 -10 0 -22 15 -8 16 15 2 20 -3 25 -22 25 -19 0 -24 -5 -24 -25z"/>
<path d="M840 1035 c0 -19 5 -25 23 -24 21 0 21 1 2 8 l-20 8 20 5 20 6 -20 2
-20 1 20 9 c19 8 19 9 -2 9 -18 1 -23 -5 -23 -24z"/>
<path d="M920 1052 c0 -4 6 -14 13 -21 10 -10 8 -11 -8 -5 -16 5 -18 4 -8 -6
16 -18 42 -5 40 19 -1 20 -37 32 -37 13z"/>
<path d="M976 1045 c-10 -26 -7 -30 18 -31 21 -2 23 1 17 19 -10 27 -27 32
-35 12z"/>
<path d="M1020 1052 c0 -12 28 -48 33 -42 11 12 18 50 8 50 -5 0 -12 -8 -14
-17 -4 -17 -5 -17 -6 0 -1 16 -21 25 -21 9z"/>
<path d="M1080 1035 c0 -14 5 -25 10 -25 6 0 10 11 10 25 0 14 -4 25 -10 25
-5 0 -10 -11 -10 -25z"/>
<path d="M1110 1031 c0 -21 2 -23 11 -11 8 11 12 12 16 3 8 -22 23 -14 23 11
0 18 -5 24 -25 24 -20 0 -25 -5 -25 -27z"/>
<path d="M1172 1038 c4 -27 48 -39 48 -14 0 9 -5 16 -11 16 -5 0 -7 -4 -4 -10
3 -5 2 -10 -4 -10 -21 0 -21 21 1 29 22 9 22 10 -5 10 -24 1 -28 -3 -25 -21z"/>
<path d="M1230 1054 c0 -4 8 -13 18 -20 16 -13 16 -14 0 -8 -10 3 -18 1 -18
-5 0 -13 36 -15 45 -2 3 5 1 12 -5 16 -6 4 -8 11 -5 16 4 5 -3 9 -14 9 -12 0
-21 -3 -21 -6z"/>
<path d="M73 985 c0 -22 2 -30 4 -17 2 12 2 30 0 40 -3 9 -5 -1 -4 -23z"/>
</g>
</svg>
